%TF.GenerationSoftware,KiCad,Pcbnew,(6.0.1)*%
%TF.CreationDate,2022-05-20T18:23:43-05:00*%
%TF.ProjectId,BookSensitizer,426f6f6b-5365-46e7-9369-74697a65722e,rev?*%
%TF.SameCoordinates,Original*%
%TF.FileFunction,Soldermask,Top*%
%TF.FilePolarity,Negative*%
%FSLAX46Y46*%
G04 Gerber Fmt 4.6, Leading zero omitted, Abs format (unit mm)*
G04 Created by KiCad (PCBNEW (6.0.1)) date 2022-05-20 18:23:43*
%MOMM*%
%LPD*%
G01*
G04 APERTURE LIST*
G04 Aperture macros list*
%AMRoundRect*
0 Rectangle with rounded corners*
0 $1 Rounding radius*
0 $2 $3 $4 $5 $6 $7 $8 $9 X,Y pos of 4 corners*
0 Add a 4 corners polygon primitive as box body*
4,1,4,$2,$3,$4,$5,$6,$7,$8,$9,$2,$3,0*
0 Add four circle primitives for the rounded corners*
1,1,$1+$1,$2,$3*
1,1,$1+$1,$4,$5*
1,1,$1+$1,$6,$7*
1,1,$1+$1,$8,$9*
0 Add four rect primitives between the rounded corners*
20,1,$1+$1,$2,$3,$4,$5,0*
20,1,$1+$1,$4,$5,$6,$7,0*
20,1,$1+$1,$6,$7,$8,$9,0*
20,1,$1+$1,$8,$9,$2,$3,0*%
G04 Aperture macros list end*
%ADD10R,2.000000X2.000000*%
%ADD11O,2.000000X2.000000*%
%ADD12RoundRect,0.237500X0.237500X-0.300000X0.237500X0.300000X-0.237500X0.300000X-0.237500X-0.300000X0*%
%ADD13R,1.200000X0.900000*%
%ADD14RoundRect,0.150000X-0.150000X0.825000X-0.150000X-0.825000X0.150000X-0.825000X0.150000X0.825000X0*%
%ADD15R,3.500000X3.500000*%
%ADD16RoundRect,0.875000X0.875000X0.875000X-0.875000X0.875000X-0.875000X-0.875000X0.875000X-0.875000X0*%
%ADD17RoundRect,0.750000X0.750000X1.000000X-0.750000X1.000000X-0.750000X-1.000000X0.750000X-1.000000X0*%
%ADD18R,2.000000X1.905000*%
%ADD19O,2.000000X1.905000*%
%ADD20RoundRect,0.250000X0.625000X-0.400000X0.625000X0.400000X-0.625000X0.400000X-0.625000X-0.400000X0*%
%ADD21RoundRect,0.250000X-0.350000X-0.450000X0.350000X-0.450000X0.350000X0.450000X-0.350000X0.450000X0*%
%ADD22RoundRect,0.750000X-0.750000X-1.000000X0.750000X-1.000000X0.750000X1.000000X-0.750000X1.000000X0*%
%ADD23RoundRect,0.875000X-0.875000X-0.875000X0.875000X-0.875000X0.875000X0.875000X-0.875000X0.875000X0*%
%ADD24C,3.200000*%
%ADD25RoundRect,0.250000X-0.400000X-0.625000X0.400000X-0.625000X0.400000X0.625000X-0.400000X0.625000X0*%
%ADD26RoundRect,0.250000X0.750000X-0.600000X0.750000X0.600000X-0.750000X0.600000X-0.750000X-0.600000X0*%
%ADD27O,2.000000X1.700000*%
%ADD28RoundRect,0.237500X-0.237500X0.300000X-0.237500X-0.300000X0.237500X-0.300000X0.237500X0.300000X0*%
%ADD29RoundRect,0.250000X-0.337500X-0.475000X0.337500X-0.475000X0.337500X0.475000X-0.337500X0.475000X0*%
%ADD30RoundRect,0.250000X-0.625000X0.400000X-0.625000X-0.400000X0.625000X-0.400000X0.625000X0.400000X0*%
%ADD31RoundRect,0.150000X-0.587500X-0.150000X0.587500X-0.150000X0.587500X0.150000X-0.587500X0.150000X0*%
%ADD32RoundRect,0.250000X0.337500X0.475000X-0.337500X0.475000X-0.337500X-0.475000X0.337500X-0.475000X0*%
%ADD33RoundRect,0.250000X0.400000X0.625000X-0.400000X0.625000X-0.400000X-0.625000X0.400000X-0.625000X0*%
%ADD34C,2.200000*%
%ADD35RoundRect,0.250000X1.075000X0.550000X-1.075000X0.550000X-1.075000X-0.550000X1.075000X-0.550000X0*%
%ADD36RoundRect,0.250000X0.350000X0.450000X-0.350000X0.450000X-0.350000X-0.450000X0.350000X-0.450000X0*%
%ADD37RoundRect,0.150000X0.150000X-0.825000X0.150000X0.825000X-0.150000X0.825000X-0.150000X-0.825000X0*%
%ADD38RoundRect,0.250000X-1.075000X-0.550000X1.075000X-0.550000X1.075000X0.550000X-1.075000X0.550000X0*%
%ADD39RoundRect,0.250000X-0.600000X-0.725000X0.600000X-0.725000X0.600000X0.725000X-0.600000X0.725000X0*%
%ADD40O,1.700000X1.950000*%
G04 APERTURE END LIST*
D10*
%TO.C,D1*%
X78011800Y-84624000D03*
D11*
X78011800Y-89704000D03*
%TD*%
D12*
%TO.C,C2*%
X58394600Y-77494300D03*
X58394600Y-75769300D03*
%TD*%
D13*
%TO.C,D8*%
X108636800Y-92904000D03*
X108636800Y-89604000D03*
%TD*%
D14*
%TO.C,U2*%
X112064800Y-75807800D03*
X110794800Y-75807800D03*
X109524800Y-75807800D03*
X108254800Y-75807800D03*
X108254800Y-80757800D03*
X109524800Y-80757800D03*
X110794800Y-80757800D03*
X112064800Y-80757800D03*
%TD*%
D13*
%TO.C,D6*%
X63611800Y-67404000D03*
X63611800Y-64104000D03*
%TD*%
D15*
%TO.C,Vout_J1*%
X106979200Y-53332300D03*
D16*
X109979200Y-48632300D03*
D17*
X112979200Y-53332300D03*
%TD*%
D18*
%TO.C,Q1*%
X67011800Y-84554000D03*
D19*
X67011800Y-87094000D03*
X67011800Y-89634000D03*
%TD*%
D20*
%TO.C,R6*%
X111136800Y-69204000D03*
X111136800Y-66104000D03*
%TD*%
D18*
%TO.C,Q4*%
X105311800Y-89554000D03*
D19*
X105311800Y-87014000D03*
X105311800Y-84474000D03*
%TD*%
D21*
%TO.C,R5*%
X108311800Y-83108800D03*
X110311800Y-83108800D03*
%TD*%
D15*
%TO.C,Vin_J2*%
X64902600Y-53144500D03*
D22*
X58902600Y-53144500D03*
D23*
X61902600Y-57844500D03*
%TD*%
D24*
%TO.C,T2*%
X55956200Y-62687200D03*
%TD*%
D25*
%TO.C,R9*%
X60781600Y-82245200D03*
X63881600Y-82245200D03*
%TD*%
D13*
%TO.C,D7*%
X108636800Y-66004000D03*
X108636800Y-69304000D03*
%TD*%
D25*
%TO.C,R3*%
X60661800Y-69654000D03*
X63761800Y-69654000D03*
%TD*%
D26*
%TO.C,M1*%
X118121800Y-65204000D03*
D27*
X118121800Y-62704000D03*
%TD*%
D10*
%TO.C,D2*%
X77911800Y-64124000D03*
D11*
X77911800Y-69204000D03*
%TD*%
D28*
%TO.C,C5*%
X113811800Y-77891500D03*
X113811800Y-79616500D03*
%TD*%
D29*
%TO.C,C3*%
X65637500Y-77622400D03*
X67712500Y-77622400D03*
%TD*%
D30*
%TO.C,R2*%
X61137200Y-84471800D03*
X61137200Y-87571800D03*
%TD*%
D18*
%TO.C,Q2*%
X67011800Y-64154000D03*
D19*
X67011800Y-66694000D03*
X67011800Y-69234000D03*
%TD*%
D31*
%TO.C,Q5*%
X112344300Y-59964000D03*
X112344300Y-61864000D03*
X114219300Y-60914000D03*
%TD*%
D10*
%TO.C,D4*%
X94211800Y-89554000D03*
D11*
X94211800Y-84474000D03*
%TD*%
D10*
%TO.C,D3*%
X94111800Y-69254000D03*
D11*
X94111800Y-64174000D03*
%TD*%
D32*
%TO.C,C6*%
X106345900Y-77825600D03*
X104270900Y-77825600D03*
%TD*%
D24*
%TO.C,T3*%
X115239800Y-96723200D03*
%TD*%
D33*
%TO.C,R10*%
X111506600Y-71374000D03*
X108406600Y-71374000D03*
%TD*%
D30*
%TO.C,R7*%
X111136800Y-89704000D03*
X111136800Y-92804000D03*
%TD*%
D20*
%TO.C,R4*%
X60711800Y-67204000D03*
X60711800Y-64104000D03*
%TD*%
D34*
%TO.C,F1 10A*%
X71311800Y-50454000D03*
X71311800Y-55454000D03*
X86311800Y-55454000D03*
X86311800Y-50454000D03*
%TD*%
D33*
%TO.C,R8*%
X111486800Y-87454000D03*
X108386800Y-87454000D03*
%TD*%
D35*
%TO.C,C1*%
X57058200Y-80486600D03*
X53708200Y-80486600D03*
%TD*%
D36*
%TO.C,R1*%
X63783200Y-71986600D03*
X61783200Y-71986600D03*
%TD*%
D18*
%TO.C,Q3*%
X105311800Y-69454000D03*
D19*
X105311800Y-66914000D03*
X105311800Y-64374000D03*
%TD*%
D37*
%TO.C,U1*%
X60078200Y-79361600D03*
X61348200Y-79361600D03*
X62618200Y-79361600D03*
X63888200Y-79361600D03*
X63888200Y-74411600D03*
X62618200Y-74411600D03*
X61348200Y-74411600D03*
X60078200Y-74411600D03*
%TD*%
D38*
%TO.C,C4*%
X115036800Y-75254000D03*
X118386800Y-75254000D03*
%TD*%
D34*
%TO.C,L1*%
X76436800Y-98754000D03*
X80986800Y-98754000D03*
X91411800Y-98754000D03*
X95911800Y-98754000D03*
%TD*%
D24*
%TO.C,T1*%
X57404000Y-95300800D03*
%TD*%
D13*
%TO.C,D5*%
X63637200Y-87571800D03*
X63637200Y-84271800D03*
%TD*%
D39*
%TO.C,J3*%
X93761800Y-52286500D03*
D40*
X96261800Y-52286500D03*
X98761800Y-52286500D03*
X101261800Y-52286500D03*
%TD*%
M02*
