%TF.GenerationSoftware,KiCad,Pcbnew,(6.0.1)*%
%TF.CreationDate,2022-05-20T18:23:43-05:00*%
%TF.ProjectId,BookSensitizer,426f6f6b-5365-46e7-9369-74697a65722e,rev?*%
%TF.SameCoordinates,Original*%
%TF.FileFunction,Soldermask,Bot*%
%TF.FilePolarity,Negative*%
%FSLAX46Y46*%
G04 Gerber Fmt 4.6, Leading zero omitted, Abs format (unit mm)*
G04 Created by KiCad (PCBNEW (6.0.1)) date 2022-05-20 18:23:43*
%MOMM*%
%LPD*%
G01*
G04 APERTURE LIST*
G04 Aperture macros list*
%AMRoundRect*
0 Rectangle with rounded corners*
0 $1 Rounding radius*
0 $2 $3 $4 $5 $6 $7 $8 $9 X,Y pos of 4 corners*
0 Add a 4 corners polygon primitive as box body*
4,1,4,$2,$3,$4,$5,$6,$7,$8,$9,$2,$3,0*
0 Add four circle primitives for the rounded corners*
1,1,$1+$1,$2,$3*
1,1,$1+$1,$4,$5*
1,1,$1+$1,$6,$7*
1,1,$1+$1,$8,$9*
0 Add four rect primitives between the rounded corners*
20,1,$1+$1,$2,$3,$4,$5,0*
20,1,$1+$1,$4,$5,$6,$7,0*
20,1,$1+$1,$6,$7,$8,$9,0*
20,1,$1+$1,$8,$9,$2,$3,0*%
G04 Aperture macros list end*
%ADD10R,2.000000X2.000000*%
%ADD11O,2.000000X2.000000*%
%ADD12R,3.500000X3.500000*%
%ADD13RoundRect,0.875000X0.875000X0.875000X-0.875000X0.875000X-0.875000X-0.875000X0.875000X-0.875000X0*%
%ADD14RoundRect,0.750000X0.750000X1.000000X-0.750000X1.000000X-0.750000X-1.000000X0.750000X-1.000000X0*%
%ADD15R,2.000000X1.905000*%
%ADD16O,2.000000X1.905000*%
%ADD17RoundRect,0.750000X-0.750000X-1.000000X0.750000X-1.000000X0.750000X1.000000X-0.750000X1.000000X0*%
%ADD18RoundRect,0.875000X-0.875000X-0.875000X0.875000X-0.875000X0.875000X0.875000X-0.875000X0.875000X0*%
%ADD19C,3.200000*%
%ADD20RoundRect,0.250000X0.750000X-0.600000X0.750000X0.600000X-0.750000X0.600000X-0.750000X-0.600000X0*%
%ADD21O,2.000000X1.700000*%
%ADD22C,2.200000*%
%ADD23RoundRect,0.250000X-0.600000X-0.725000X0.600000X-0.725000X0.600000X0.725000X-0.600000X0.725000X0*%
%ADD24O,1.700000X1.950000*%
G04 APERTURE END LIST*
D10*
%TO.C,D1*%
X78011800Y-84624000D03*
D11*
X78011800Y-89704000D03*
%TD*%
D12*
%TO.C,Vout_J1*%
X106979200Y-53332300D03*
D13*
X109979200Y-48632300D03*
D14*
X112979200Y-53332300D03*
%TD*%
D15*
%TO.C,Q1*%
X67011800Y-84554000D03*
D16*
X67011800Y-87094000D03*
X67011800Y-89634000D03*
%TD*%
D15*
%TO.C,Q4*%
X105311800Y-89554000D03*
D16*
X105311800Y-87014000D03*
X105311800Y-84474000D03*
%TD*%
D12*
%TO.C,Vin_J2*%
X64902600Y-53144500D03*
D17*
X58902600Y-53144500D03*
D18*
X61902600Y-57844500D03*
%TD*%
D19*
%TO.C,T2*%
X55956200Y-62687200D03*
%TD*%
D20*
%TO.C,M1*%
X118121800Y-65204000D03*
D21*
X118121800Y-62704000D03*
%TD*%
D10*
%TO.C,D2*%
X77911800Y-64124000D03*
D11*
X77911800Y-69204000D03*
%TD*%
D15*
%TO.C,Q2*%
X67011800Y-64154000D03*
D16*
X67011800Y-66694000D03*
X67011800Y-69234000D03*
%TD*%
D10*
%TO.C,D4*%
X94211800Y-89554000D03*
D11*
X94211800Y-84474000D03*
%TD*%
D10*
%TO.C,D3*%
X94111800Y-69254000D03*
D11*
X94111800Y-64174000D03*
%TD*%
D19*
%TO.C,T3*%
X115239800Y-96723200D03*
%TD*%
D22*
%TO.C,F1 10A*%
X71311800Y-50454000D03*
X71311800Y-55454000D03*
X86311800Y-55454000D03*
X86311800Y-50454000D03*
%TD*%
D15*
%TO.C,Q3*%
X105311800Y-69454000D03*
D16*
X105311800Y-66914000D03*
X105311800Y-64374000D03*
%TD*%
D22*
%TO.C,L1*%
X76436800Y-98754000D03*
X80986800Y-98754000D03*
X91411800Y-98754000D03*
X95911800Y-98754000D03*
%TD*%
D19*
%TO.C,T1*%
X57404000Y-95300800D03*
%TD*%
D23*
%TO.C,J3*%
X93761800Y-52286500D03*
D24*
X96261800Y-52286500D03*
X98761800Y-52286500D03*
X101261800Y-52286500D03*
%TD*%
M02*
