M48
; DRILL file {KiCad (6.0.1)} date Fri May 20 18:23:49 2022
; FORMAT={-:-/ absolute / inch / decimal}
; #@! TF.CreationDate,2022-05-20T18:23:49-05:00
; #@! TF.GenerationSoftware,Kicad,Pcbnew,(6.0.1)
; #@! TF.FileFunction,Plated,1,2,PTH
FMAT,2
INCH
; #@! TA.AperFunction,Plated,PTH,ViaDrill
T1C0.0118
; #@! TA.AperFunction,Plated,PTH,ComponentDrill
T2C0.0374
; #@! TA.AperFunction,Plated,PTH,ComponentDrill
T3C0.0394
; #@! TA.AperFunction,Plated,PTH,ComponentDrill
T4C0.0433
; #@! TA.AperFunction,Plated,PTH,ComponentDrill
T5C0.0472
%
G90
G05
T1
X2.384Y-3.011
X2.6033Y-3.1245
X4.1511Y-2.9846
X4.3875Y-2.249
X4.406Y-3.11
T2
X3.6914Y-2.0585
X3.7898Y-2.0585
X3.8883Y-2.0585
X3.9867Y-2.0585
T3
X4.6505Y-2.4687
X4.6505Y-2.5671
T4
X2.6383Y-2.5257
X2.6383Y-2.6257
X2.6383Y-2.7257
X2.6383Y-3.3289
X2.6383Y-3.4289
X2.6383Y-3.5289
X2.8076Y-1.9864
X2.8076Y-2.1832
X3.0674Y-2.5246
X3.0674Y-2.7246
X3.0713Y-3.3317
X3.0713Y-3.5317
X3.3981Y-1.9864
X3.3981Y-2.1832
X3.7052Y-2.5265
X3.7052Y-2.7265
X3.7091Y-3.3257
X3.7091Y-3.5257
X4.1461Y-2.5344
X4.1461Y-2.6344
X4.1461Y-2.7344
X4.1461Y-3.3257
X4.1461Y-3.4257
X4.1461Y-3.5257
T5
X3.0093Y-3.888
X3.1885Y-3.888
X3.5989Y-3.888
X3.7761Y-3.888
T3
G00X2.319Y-2.0529
M15
G01X2.319Y-2.1317
M16
G05
G00X2.3977Y-2.2773
M15
G01X2.4765Y-2.2773
M16
G05
G00X2.5552Y-2.0529
M15
G01X2.5552Y-2.1317
M16
G05
G00X4.2118Y-2.1391
M15
G01X4.2118Y-2.0603
M16
G05
G00X4.3693Y-1.9147
M15
G01X4.2905Y-1.9147
M16
G05
G00X4.448Y-2.1391
M15
G01X4.448Y-2.0603
M16
G05
T0
M30
