%TF.GenerationSoftware,KiCad,Pcbnew,(6.0.1)*%
%TF.CreationDate,2022-05-20T18:23:43-05:00*%
%TF.ProjectId,BookSensitizer,426f6f6b-5365-46e7-9369-74697a65722e,rev?*%
%TF.SameCoordinates,Original*%
%TF.FileFunction,Copper,L1,Top*%
%TF.FilePolarity,Positive*%
%FSLAX46Y46*%
G04 Gerber Fmt 4.6, Leading zero omitted, Abs format (unit mm)*
G04 Created by KiCad (PCBNEW (6.0.1)) date 2022-05-20 18:23:43*
%MOMM*%
%LPD*%
G01*
G04 APERTURE LIST*
G04 Aperture macros list*
%AMRoundRect*
0 Rectangle with rounded corners*
0 $1 Rounding radius*
0 $2 $3 $4 $5 $6 $7 $8 $9 X,Y pos of 4 corners*
0 Add a 4 corners polygon primitive as box body*
4,1,4,$2,$3,$4,$5,$6,$7,$8,$9,$2,$3,0*
0 Add four circle primitives for the rounded corners*
1,1,$1+$1,$2,$3*
1,1,$1+$1,$4,$5*
1,1,$1+$1,$6,$7*
1,1,$1+$1,$8,$9*
0 Add four rect primitives between the rounded corners*
20,1,$1+$1,$2,$3,$4,$5,0*
20,1,$1+$1,$4,$5,$6,$7,0*
20,1,$1+$1,$6,$7,$8,$9,0*
20,1,$1+$1,$8,$9,$2,$3,0*%
G04 Aperture macros list end*
%TA.AperFunction,ComponentPad*%
%ADD10R,2.000000X2.000000*%
%TD*%
%TA.AperFunction,ComponentPad*%
%ADD11O,2.000000X2.000000*%
%TD*%
%TA.AperFunction,SMDPad,CuDef*%
%ADD12RoundRect,0.237500X0.237500X-0.300000X0.237500X0.300000X-0.237500X0.300000X-0.237500X-0.300000X0*%
%TD*%
%TA.AperFunction,SMDPad,CuDef*%
%ADD13R,1.200000X0.900000*%
%TD*%
%TA.AperFunction,SMDPad,CuDef*%
%ADD14RoundRect,0.150000X-0.150000X0.825000X-0.150000X-0.825000X0.150000X-0.825000X0.150000X0.825000X0*%
%TD*%
%TA.AperFunction,ComponentPad*%
%ADD15R,3.500000X3.500000*%
%TD*%
%TA.AperFunction,ComponentPad*%
%ADD16RoundRect,0.875000X0.875000X0.875000X-0.875000X0.875000X-0.875000X-0.875000X0.875000X-0.875000X0*%
%TD*%
%TA.AperFunction,ComponentPad*%
%ADD17RoundRect,0.750000X0.750000X1.000000X-0.750000X1.000000X-0.750000X-1.000000X0.750000X-1.000000X0*%
%TD*%
%TA.AperFunction,ComponentPad*%
%ADD18R,2.000000X1.905000*%
%TD*%
%TA.AperFunction,ComponentPad*%
%ADD19O,2.000000X1.905000*%
%TD*%
%TA.AperFunction,SMDPad,CuDef*%
%ADD20RoundRect,0.250000X0.625000X-0.400000X0.625000X0.400000X-0.625000X0.400000X-0.625000X-0.400000X0*%
%TD*%
%TA.AperFunction,SMDPad,CuDef*%
%ADD21RoundRect,0.250000X-0.350000X-0.450000X0.350000X-0.450000X0.350000X0.450000X-0.350000X0.450000X0*%
%TD*%
%TA.AperFunction,ComponentPad*%
%ADD22RoundRect,0.750000X-0.750000X-1.000000X0.750000X-1.000000X0.750000X1.000000X-0.750000X1.000000X0*%
%TD*%
%TA.AperFunction,ComponentPad*%
%ADD23RoundRect,0.875000X-0.875000X-0.875000X0.875000X-0.875000X0.875000X0.875000X-0.875000X0.875000X0*%
%TD*%
%TA.AperFunction,SMDPad,CuDef*%
%ADD24RoundRect,0.250000X-0.400000X-0.625000X0.400000X-0.625000X0.400000X0.625000X-0.400000X0.625000X0*%
%TD*%
%TA.AperFunction,ComponentPad*%
%ADD25RoundRect,0.250000X0.750000X-0.600000X0.750000X0.600000X-0.750000X0.600000X-0.750000X-0.600000X0*%
%TD*%
%TA.AperFunction,ComponentPad*%
%ADD26O,2.000000X1.700000*%
%TD*%
%TA.AperFunction,SMDPad,CuDef*%
%ADD27RoundRect,0.237500X-0.237500X0.300000X-0.237500X-0.300000X0.237500X-0.300000X0.237500X0.300000X0*%
%TD*%
%TA.AperFunction,SMDPad,CuDef*%
%ADD28RoundRect,0.250000X-0.337500X-0.475000X0.337500X-0.475000X0.337500X0.475000X-0.337500X0.475000X0*%
%TD*%
%TA.AperFunction,SMDPad,CuDef*%
%ADD29RoundRect,0.250000X-0.625000X0.400000X-0.625000X-0.400000X0.625000X-0.400000X0.625000X0.400000X0*%
%TD*%
%TA.AperFunction,SMDPad,CuDef*%
%ADD30RoundRect,0.150000X-0.587500X-0.150000X0.587500X-0.150000X0.587500X0.150000X-0.587500X0.150000X0*%
%TD*%
%TA.AperFunction,SMDPad,CuDef*%
%ADD31RoundRect,0.250000X0.337500X0.475000X-0.337500X0.475000X-0.337500X-0.475000X0.337500X-0.475000X0*%
%TD*%
%TA.AperFunction,SMDPad,CuDef*%
%ADD32RoundRect,0.250000X0.400000X0.625000X-0.400000X0.625000X-0.400000X-0.625000X0.400000X-0.625000X0*%
%TD*%
%TA.AperFunction,ComponentPad*%
%ADD33C,2.200000*%
%TD*%
%TA.AperFunction,SMDPad,CuDef*%
%ADD34RoundRect,0.250000X1.075000X0.550000X-1.075000X0.550000X-1.075000X-0.550000X1.075000X-0.550000X0*%
%TD*%
%TA.AperFunction,SMDPad,CuDef*%
%ADD35RoundRect,0.250000X0.350000X0.450000X-0.350000X0.450000X-0.350000X-0.450000X0.350000X-0.450000X0*%
%TD*%
%TA.AperFunction,SMDPad,CuDef*%
%ADD36RoundRect,0.150000X0.150000X-0.825000X0.150000X0.825000X-0.150000X0.825000X-0.150000X-0.825000X0*%
%TD*%
%TA.AperFunction,SMDPad,CuDef*%
%ADD37RoundRect,0.250000X-1.075000X-0.550000X1.075000X-0.550000X1.075000X0.550000X-1.075000X0.550000X0*%
%TD*%
%TA.AperFunction,ComponentPad*%
%ADD38RoundRect,0.250000X-0.600000X-0.725000X0.600000X-0.725000X0.600000X0.725000X-0.600000X0.725000X0*%
%TD*%
%TA.AperFunction,ComponentPad*%
%ADD39O,1.700000X1.950000*%
%TD*%
%TA.AperFunction,ViaPad*%
%ADD40C,0.800000*%
%TD*%
%TA.AperFunction,Conductor*%
%ADD41C,0.700000*%
%TD*%
%TA.AperFunction,Conductor*%
%ADD42C,1.000000*%
%TD*%
%TA.AperFunction,Conductor*%
%ADD43C,5.000000*%
%TD*%
G04 APERTURE END LIST*
D10*
%TO.P,D1,1,K*%
%TO.N,+12V*%
X78011800Y-84624000D03*
D11*
%TO.P,D1,2,A*%
%TO.N,/driver1/Hs*%
X78011800Y-89704000D03*
%TD*%
D12*
%TO.P,C2,1*%
%TO.N,+12V*%
X58394600Y-77494300D03*
%TO.P,C2,2*%
%TO.N,GND*%
X58394600Y-75769300D03*
%TD*%
D13*
%TO.P,D8,1,K*%
%TO.N,Net-(D8-Pad1)*%
X108636800Y-92904000D03*
%TO.P,D8,2,A*%
%TO.N,/driver2/G_low*%
X108636800Y-89604000D03*
%TD*%
D14*
%TO.P,U2,1,VDD*%
%TO.N,+12V*%
X112064800Y-75807800D03*
%TO.P,U2,2,HB*%
%TO.N,Net-(C6-Pad1)*%
X110794800Y-75807800D03*
%TO.P,U2,3,HO*%
%TO.N,Net-(R6-Pad1)*%
X109524800Y-75807800D03*
%TO.P,U2,4,HS*%
%TO.N,/driver2/Hs*%
X108254800Y-75807800D03*
%TO.P,U2,5,RT*%
%TO.N,Net-(R5-Pad1)*%
X108254800Y-80757800D03*
%TO.P,U2,6,LI*%
%TO.N,/in_2*%
X109524800Y-80757800D03*
%TO.P,U2,7,VSS*%
%TO.N,GND*%
X110794800Y-80757800D03*
%TO.P,U2,8,LO*%
%TO.N,Net-(R7-Pad1)*%
X112064800Y-80757800D03*
%TD*%
D13*
%TO.P,D6,1,K*%
%TO.N,Net-(D6-Pad1)*%
X63611800Y-67404000D03*
%TO.P,D6,2,A*%
%TO.N,/driver1/G_low*%
X63611800Y-64104000D03*
%TD*%
D15*
%TO.P,Vout_J1,1*%
%TO.N,+12V*%
X106979200Y-53332300D03*
D16*
%TO.P,Vout_J1,2*%
%TO.N,GND*%
X109979200Y-48632300D03*
D17*
X112979200Y-53332300D03*
%TD*%
D18*
%TO.P,Q1,1,G*%
%TO.N,/driver1/G_High*%
X67011800Y-84554000D03*
D19*
%TO.P,Q1,2,D*%
%TO.N,+12V*%
X67011800Y-87094000D03*
%TO.P,Q1,3,S*%
%TO.N,/driver1/Hs*%
X67011800Y-89634000D03*
%TD*%
D20*
%TO.P,R6,1*%
%TO.N,Net-(R6-Pad1)*%
X111136800Y-69204000D03*
%TO.P,R6,2*%
%TO.N,Net-(D7-Pad1)*%
X111136800Y-66104000D03*
%TD*%
D18*
%TO.P,Q4,1,G*%
%TO.N,/driver2/G_low*%
X105311800Y-89554000D03*
D19*
%TO.P,Q4,2,D*%
%TO.N,/driver2/Hs*%
X105311800Y-87014000D03*
%TO.P,Q4,3,S*%
%TO.N,GND*%
X105311800Y-84474000D03*
%TD*%
D21*
%TO.P,R5,1*%
%TO.N,Net-(R5-Pad1)*%
X108311800Y-83108800D03*
%TO.P,R5,2*%
%TO.N,GND*%
X110311800Y-83108800D03*
%TD*%
D15*
%TO.P,Vin_J2,1*%
%TO.N,Net-(F1-Pad1)*%
X64902600Y-53144500D03*
D22*
%TO.P,Vin_J2,2*%
%TO.N,GND*%
X58902600Y-53144500D03*
D23*
X61902600Y-57844500D03*
%TD*%
D24*
%TO.P,R9,1*%
%TO.N,Net-(R2-Pad1)*%
X60781600Y-82245200D03*
%TO.P,R9,2*%
%TO.N,/driver1/G_High*%
X63881600Y-82245200D03*
%TD*%
D13*
%TO.P,D7,1,K*%
%TO.N,Net-(D7-Pad1)*%
X108636800Y-66004000D03*
%TO.P,D7,2,A*%
%TO.N,/driver2/G_High*%
X108636800Y-69304000D03*
%TD*%
D24*
%TO.P,R3,1*%
%TO.N,Net-(R3-Pad1)*%
X60661800Y-69654000D03*
%TO.P,R3,2*%
%TO.N,Net-(D6-Pad1)*%
X63761800Y-69654000D03*
%TD*%
D25*
%TO.P,M1,1,+*%
%TO.N,+12V*%
X118121800Y-65204000D03*
D26*
%TO.P,M1,2,-*%
%TO.N,Net-(M1-Pad2)*%
X118121800Y-62704000D03*
%TD*%
D10*
%TO.P,D2,1,K*%
%TO.N,/driver1/Hs*%
X77911800Y-64124000D03*
D11*
%TO.P,D2,2,A*%
%TO.N,GND*%
X77911800Y-69204000D03*
%TD*%
D27*
%TO.P,C5,1*%
%TO.N,+12V*%
X113811800Y-77891500D03*
%TO.P,C5,2*%
%TO.N,GND*%
X113811800Y-79616500D03*
%TD*%
D28*
%TO.P,C3,1*%
%TO.N,Net-(C3-Pad1)*%
X65637500Y-77622400D03*
%TO.P,C3,2*%
%TO.N,/driver1/Hs*%
X67712500Y-77622400D03*
%TD*%
D29*
%TO.P,R2,1*%
%TO.N,Net-(R2-Pad1)*%
X61137200Y-84471800D03*
%TO.P,R2,2*%
%TO.N,Net-(D5-Pad1)*%
X61137200Y-87571800D03*
%TD*%
D18*
%TO.P,Q2,1,G*%
%TO.N,/driver1/G_low*%
X67011800Y-64154000D03*
D19*
%TO.P,Q2,2,D*%
%TO.N,/driver1/Hs*%
X67011800Y-66694000D03*
%TO.P,Q2,3,S*%
%TO.N,GND*%
X67011800Y-69234000D03*
%TD*%
D30*
%TO.P,Q5,1,G*%
%TO.N,/in_3*%
X112344300Y-59964000D03*
%TO.P,Q5,2,S*%
%TO.N,GND*%
X112344300Y-61864000D03*
%TO.P,Q5,3,D*%
%TO.N,Net-(M1-Pad2)*%
X114219300Y-60914000D03*
%TD*%
D10*
%TO.P,D4,1,K*%
%TO.N,/driver2/Hs*%
X94211800Y-89554000D03*
D11*
%TO.P,D4,2,A*%
%TO.N,GND*%
X94211800Y-84474000D03*
%TD*%
D10*
%TO.P,D3,1,K*%
%TO.N,+12V*%
X94111800Y-69254000D03*
D11*
%TO.P,D3,2,A*%
%TO.N,/driver2/Hs*%
X94111800Y-64174000D03*
%TD*%
D31*
%TO.P,C6,1*%
%TO.N,Net-(C6-Pad1)*%
X106345900Y-77825600D03*
%TO.P,C6,2*%
%TO.N,/driver2/Hs*%
X104270900Y-77825600D03*
%TD*%
D32*
%TO.P,R10,1*%
%TO.N,Net-(R6-Pad1)*%
X111506600Y-71374000D03*
%TO.P,R10,2*%
%TO.N,/driver2/G_High*%
X108406600Y-71374000D03*
%TD*%
D29*
%TO.P,R7,1*%
%TO.N,Net-(R7-Pad1)*%
X111136800Y-89704000D03*
%TO.P,R7,2*%
%TO.N,Net-(D8-Pad1)*%
X111136800Y-92804000D03*
%TD*%
D20*
%TO.P,R4,1*%
%TO.N,Net-(R3-Pad1)*%
X60711800Y-67204000D03*
%TO.P,R4,2*%
%TO.N,/driver1/G_low*%
X60711800Y-64104000D03*
%TD*%
D33*
%TO.P,F1 10A,1*%
%TO.N,Net-(F1-Pad1)*%
X71311800Y-50454000D03*
X71311800Y-55454000D03*
%TO.P,F1 10A,2*%
%TO.N,+12V*%
X86311800Y-55454000D03*
X86311800Y-50454000D03*
%TD*%
D32*
%TO.P,R8,1*%
%TO.N,Net-(R7-Pad1)*%
X111486800Y-87454000D03*
%TO.P,R8,2*%
%TO.N,/driver2/G_low*%
X108386800Y-87454000D03*
%TD*%
D34*
%TO.P,C1,1*%
%TO.N,+12V*%
X57058200Y-80486600D03*
%TO.P,C1,2*%
%TO.N,GND*%
X53708200Y-80486600D03*
%TD*%
D35*
%TO.P,R1,1*%
%TO.N,Net-(R1-Pad1)*%
X63783200Y-71986600D03*
%TO.P,R1,2*%
%TO.N,GND*%
X61783200Y-71986600D03*
%TD*%
D18*
%TO.P,Q3,1,G*%
%TO.N,/driver2/G_High*%
X105311800Y-69454000D03*
D19*
%TO.P,Q3,2,D*%
%TO.N,+12V*%
X105311800Y-66914000D03*
%TO.P,Q3,3,S*%
%TO.N,/driver2/Hs*%
X105311800Y-64374000D03*
%TD*%
D36*
%TO.P,U1,1,VDD*%
%TO.N,+12V*%
X60078200Y-79361600D03*
%TO.P,U1,2,HB*%
%TO.N,Net-(C3-Pad1)*%
X61348200Y-79361600D03*
%TO.P,U1,3,HO*%
%TO.N,Net-(R2-Pad1)*%
X62618200Y-79361600D03*
%TO.P,U1,4,HS*%
%TO.N,/driver1/Hs*%
X63888200Y-79361600D03*
%TO.P,U1,5,RT*%
%TO.N,Net-(R1-Pad1)*%
X63888200Y-74411600D03*
%TO.P,U1,6,LI*%
%TO.N,/in_1*%
X62618200Y-74411600D03*
%TO.P,U1,7,VSS*%
%TO.N,GND*%
X61348200Y-74411600D03*
%TO.P,U1,8,LO*%
%TO.N,Net-(R3-Pad1)*%
X60078200Y-74411600D03*
%TD*%
D37*
%TO.P,C4,1*%
%TO.N,+12V*%
X115036800Y-75254000D03*
%TO.P,C4,2*%
%TO.N,GND*%
X118386800Y-75254000D03*
%TD*%
D33*
%TO.P,L1,1,1*%
%TO.N,/driver1/Hs*%
X76436800Y-98754000D03*
X80986800Y-98754000D03*
%TO.P,L1,2,2*%
%TO.N,/driver2/Hs*%
X91411800Y-98754000D03*
X95911800Y-98754000D03*
%TD*%
D13*
%TO.P,D5,1,K*%
%TO.N,Net-(D5-Pad1)*%
X63637200Y-87571800D03*
%TO.P,D5,2,A*%
%TO.N,/driver1/G_High*%
X63637200Y-84271800D03*
%TD*%
D38*
%TO.P,J3,1,Pin_1*%
%TO.N,/in_1*%
X93761800Y-52286500D03*
D39*
%TO.P,J3,2,Pin_2*%
%TO.N,/in_2*%
X96261800Y-52286500D03*
%TO.P,J3,3,Pin_3*%
%TO.N,/in_3*%
X98761800Y-52286500D03*
%TO.P,J3,4,Pin_4*%
%TO.N,GND*%
X101261800Y-52286500D03*
%TD*%
D40*
%TO.N,/driver1/Hs*%
X66124200Y-79361600D03*
%TO.N,/driver2/Hs*%
X105438000Y-75807800D03*
%TO.N,/in_1*%
X60553600Y-76479400D03*
%TO.N,/in_2*%
X111912400Y-78994000D03*
%TO.N,/in_3*%
X111441800Y-57124000D03*
%TD*%
D41*
%TO.N,GND*%
X110794800Y-82625800D02*
X110311800Y-83108800D01*
X61348200Y-74411600D02*
X61348200Y-72421600D01*
X110794800Y-80757800D02*
X110794800Y-82625800D01*
X61348200Y-72421600D02*
X61783200Y-71986600D01*
%TO.N,Net-(C3-Pad1)*%
X61823600Y-77622400D02*
X61348200Y-78097800D01*
X61348200Y-78097800D02*
X61348200Y-79361600D01*
X65637500Y-77622400D02*
X61823600Y-77622400D01*
%TO.N,/driver1/Hs*%
X67712500Y-78947100D02*
X67712500Y-77622400D01*
X63888200Y-79361600D02*
X66124200Y-79361600D01*
X66124200Y-79361600D02*
X67298000Y-79361600D01*
X67298000Y-79361600D02*
X67712500Y-78947100D01*
%TO.N,Net-(C6-Pad1)*%
X110413800Y-77825600D02*
X106345900Y-77825600D01*
X110794800Y-75807800D02*
X110794800Y-77444600D01*
X110794800Y-77444600D02*
X110413800Y-77825600D01*
%TO.N,/driver2/Hs*%
X104270900Y-77825600D02*
X104270900Y-76272300D01*
X104735400Y-75807800D02*
X105438000Y-75807800D01*
X105438000Y-75807800D02*
X108254800Y-75807800D01*
X104270900Y-76272300D02*
X104735400Y-75807800D01*
D42*
%TO.N,Net-(D5-Pad1)*%
X63637200Y-87571800D02*
X61137200Y-87571800D01*
%TO.N,/driver2/G_High*%
X108406600Y-71374000D02*
X108406600Y-69534200D01*
X105311800Y-69454000D02*
X108486800Y-69454000D01*
X108406600Y-69534200D02*
X108636800Y-69304000D01*
X108486800Y-69454000D02*
X108636800Y-69304000D01*
%TO.N,Net-(D6-Pad1)*%
X63611800Y-69504000D02*
X63761800Y-69654000D01*
X63611800Y-67404000D02*
X63611800Y-69504000D01*
%TO.N,/driver2/G_low*%
X108636800Y-87704000D02*
X108386800Y-87454000D01*
X105311800Y-89554000D02*
X108586800Y-89554000D01*
X108636800Y-89604000D02*
X108636800Y-87704000D01*
X108586800Y-89554000D02*
X108636800Y-89604000D01*
%TO.N,/driver1/G_High*%
X63881600Y-82245200D02*
X63881600Y-84027400D01*
X63637200Y-84271800D02*
X66729600Y-84271800D01*
X66729600Y-84271800D02*
X67011800Y-84554000D01*
X63881600Y-84027400D02*
X63637200Y-84271800D01*
%TO.N,/driver1/G_low*%
X60711800Y-64104000D02*
X63611800Y-64104000D01*
X63611800Y-64104000D02*
X66961800Y-64104000D01*
X66961800Y-64104000D02*
X67011800Y-64154000D01*
D41*
%TO.N,/in_1*%
X62001400Y-76479400D02*
X60553600Y-76479400D01*
X62618200Y-74411600D02*
X62618200Y-75862600D01*
X62618200Y-75862600D02*
X62001400Y-76479400D01*
%TO.N,/in_2*%
X109804200Y-78994000D02*
X109524800Y-79273400D01*
X109524800Y-79273400D02*
X109524800Y-80757800D01*
X111912400Y-78994000D02*
X109804200Y-78994000D01*
%TO.N,/in_3*%
X111441800Y-59061500D02*
X112344300Y-59964000D01*
X111441800Y-57124000D02*
X111441800Y-59061500D01*
%TO.N,Net-(M1-Pad2)*%
X117611800Y-60914000D02*
X118121800Y-61424000D01*
X118121800Y-61424000D02*
X118121800Y-62704000D01*
X114219300Y-60914000D02*
X117611800Y-60914000D01*
%TO.N,Net-(R1-Pad1)*%
X63888200Y-74411600D02*
X63888200Y-72091600D01*
%TO.N,Net-(R2-Pad1)*%
X60781600Y-82245200D02*
X61772800Y-82245200D01*
D42*
X60781600Y-84116200D02*
X61137200Y-84471800D01*
D41*
X62618200Y-81399800D02*
X62618200Y-79361600D01*
X61772800Y-82245200D02*
X62618200Y-81399800D01*
D42*
X60781600Y-82245200D02*
X60781600Y-84116200D01*
D41*
%TO.N,Net-(R5-Pad1)*%
X108254800Y-83051800D02*
X108311800Y-83108800D01*
X108254800Y-80757800D02*
X108254800Y-83051800D01*
%TO.N,Net-(R6-Pad1)*%
X111506600Y-73227600D02*
X111506600Y-71374000D01*
X111277400Y-73456800D02*
X111506600Y-73227600D01*
D42*
X111506600Y-71374000D02*
X111506600Y-69573800D01*
D41*
X109524800Y-75807800D02*
X109524800Y-73914000D01*
X109982000Y-73456800D02*
X111277400Y-73456800D01*
D42*
X111506600Y-69573800D02*
X111136800Y-69204000D01*
D41*
X109524800Y-73914000D02*
X109982000Y-73456800D01*
D42*
%TO.N,Net-(D7-Pad1)*%
X108636800Y-66004000D02*
X111036800Y-66004000D01*
X111036800Y-66004000D02*
X111136800Y-66104000D01*
%TO.N,Net-(D8-Pad1)*%
X108636800Y-92904000D02*
X111036800Y-92904000D01*
X111036800Y-92904000D02*
X111136800Y-92804000D01*
D43*
%TO.N,Net-(F1-Pad1)*%
X68621300Y-53144500D02*
X71311800Y-50454000D01*
X69002300Y-53144500D02*
X71311800Y-55454000D01*
X71311800Y-55454000D02*
X71311800Y-50454000D01*
X64902600Y-53144500D02*
X68621300Y-53144500D01*
X64902600Y-53144500D02*
X69002300Y-53144500D01*
D41*
%TO.N,Net-(R3-Pad1)*%
X60661800Y-69654000D02*
X60078200Y-70237600D01*
D42*
X60711800Y-67204000D02*
X60711800Y-69604000D01*
D41*
X60078200Y-70237600D02*
X60078200Y-74411600D01*
D42*
%TO.N,Net-(R7-Pad1)*%
X111486800Y-87454000D02*
X111486800Y-89354000D01*
D41*
X112064800Y-86876000D02*
X111486800Y-87454000D01*
D42*
X111486800Y-89354000D02*
X111136800Y-89704000D01*
D41*
X112064800Y-80757800D02*
X112064800Y-86876000D01*
%TD*%
%TA.AperFunction,Conductor*%
%TO.N,GND*%
G36*
X119943875Y-45994002D02*
G01*
X119990368Y-46047658D01*
X120001754Y-46100046D01*
X119997608Y-57528610D01*
X119977581Y-57596723D01*
X119923909Y-57643197D01*
X119860400Y-57652227D01*
X119860274Y-57653923D01*
X119855787Y-57653591D01*
X119851334Y-57652939D01*
X116897578Y-57645444D01*
X115295663Y-57641379D01*
X115292306Y-57641733D01*
X115292302Y-57641733D01*
X115261761Y-57644952D01*
X115187213Y-57652808D01*
X115150593Y-57660711D01*
X115137959Y-57663437D01*
X115137956Y-57663438D01*
X115134642Y-57664153D01*
X115031133Y-57698464D01*
X114909434Y-57776541D01*
X114855742Y-57822992D01*
X114852793Y-57826390D01*
X114852792Y-57826391D01*
X114826704Y-57856451D01*
X114760972Y-57932189D01*
X114757222Y-57940383D01*
X114722967Y-58015235D01*
X114700802Y-58063667D01*
X114699533Y-58067977D01*
X114699532Y-58067979D01*
X114682399Y-58126160D01*
X114680746Y-58131772D01*
X114680102Y-58136227D01*
X114680101Y-58136231D01*
X114673659Y-58180785D01*
X114660055Y-58274878D01*
X114660051Y-58279377D01*
X114660051Y-58279383D01*
X114659070Y-59525649D01*
X114658752Y-59929001D01*
X114657131Y-59929000D01*
X114642271Y-59991859D01*
X114591176Y-60041153D01*
X114532784Y-60055500D01*
X114172704Y-60055500D01*
X114033863Y-60070583D01*
X113957185Y-60096388D01*
X113949664Y-60098919D01*
X113909475Y-60105500D01*
X113716300Y-60105500D01*
X113648179Y-60085498D01*
X113601686Y-60031842D01*
X113590300Y-59979500D01*
X113590300Y-59747498D01*
X113590107Y-59745042D01*
X113587867Y-59716579D01*
X113587866Y-59716574D01*
X113587362Y-59710169D01*
X113540945Y-59550399D01*
X113517854Y-59511355D01*
X113460291Y-59414020D01*
X113460289Y-59414017D01*
X113456253Y-59407193D01*
X113338607Y-59289547D01*
X113331783Y-59285511D01*
X113331780Y-59285509D01*
X113202227Y-59208892D01*
X113202228Y-59208892D01*
X113195401Y-59204855D01*
X113187790Y-59202644D01*
X113187788Y-59202643D01*
X113120949Y-59183225D01*
X113035631Y-59158438D01*
X113029226Y-59157934D01*
X113029221Y-59157933D01*
X113000758Y-59155693D01*
X113000750Y-59155693D01*
X112998302Y-59155500D01*
X112802093Y-59155500D01*
X112733972Y-59135498D01*
X112712998Y-59118595D01*
X112337205Y-58742802D01*
X112303179Y-58680490D01*
X112300300Y-58653707D01*
X112300300Y-57441732D01*
X112306467Y-57402795D01*
X112328756Y-57334197D01*
X112335342Y-57313928D01*
X112344357Y-57228161D01*
X112354614Y-57130565D01*
X112355304Y-57124000D01*
X112335342Y-56934072D01*
X112276327Y-56752444D01*
X112180840Y-56587056D01*
X112156427Y-56559942D01*
X112057475Y-56450045D01*
X112057474Y-56450044D01*
X112053053Y-56445134D01*
X111898552Y-56332882D01*
X111892524Y-56330198D01*
X111892522Y-56330197D01*
X111730119Y-56257891D01*
X111730118Y-56257891D01*
X111724088Y-56255206D01*
X111624214Y-56233977D01*
X111543744Y-56216872D01*
X111543739Y-56216872D01*
X111537287Y-56215500D01*
X111346313Y-56215500D01*
X111339861Y-56216872D01*
X111339856Y-56216872D01*
X111259386Y-56233977D01*
X111159512Y-56255206D01*
X111153482Y-56257891D01*
X111153481Y-56257891D01*
X110991078Y-56330197D01*
X110991076Y-56330198D01*
X110985048Y-56332882D01*
X110830547Y-56445134D01*
X110826126Y-56450044D01*
X110826125Y-56450045D01*
X110727174Y-56559942D01*
X110702760Y-56587056D01*
X110607273Y-56752444D01*
X110548258Y-56934072D01*
X110528296Y-57124000D01*
X110528986Y-57130565D01*
X110539244Y-57228161D01*
X110548258Y-57313928D01*
X110554844Y-57334197D01*
X110577133Y-57402795D01*
X110583300Y-57441732D01*
X110583300Y-59020110D01*
X110582858Y-59030652D01*
X110578496Y-59082599D01*
X110579398Y-59089359D01*
X110579398Y-59089361D01*
X110589237Y-59163102D01*
X110589607Y-59166157D01*
X110593109Y-59198389D01*
X110598383Y-59246937D01*
X110600558Y-59253401D01*
X110601278Y-59256676D01*
X110601348Y-59257072D01*
X110601471Y-59257496D01*
X110602262Y-59260716D01*
X110603166Y-59267489D01*
X110630939Y-59343794D01*
X110631956Y-59346698D01*
X110657878Y-59423723D01*
X110661396Y-59429577D01*
X110662785Y-59432584D01*
X110662952Y-59432989D01*
X110663157Y-59433365D01*
X110664627Y-59436352D01*
X110666962Y-59442768D01*
X110710530Y-59511420D01*
X110712055Y-59513889D01*
X110753947Y-59583609D01*
X110758634Y-59588566D01*
X110760651Y-59591223D01*
X110761169Y-59591969D01*
X110764144Y-59595902D01*
X110766909Y-59600259D01*
X110770730Y-59604532D01*
X110824709Y-59658511D01*
X110827163Y-59661033D01*
X110882108Y-59719136D01*
X110887756Y-59722974D01*
X110892948Y-59727393D01*
X110892608Y-59727793D01*
X110900600Y-59734402D01*
X111061395Y-59895197D01*
X111095421Y-59957509D01*
X111098300Y-59984292D01*
X111098300Y-60180502D01*
X111101238Y-60217831D01*
X111147655Y-60377601D01*
X111151692Y-60384427D01*
X111228309Y-60513980D01*
X111228311Y-60513983D01*
X111232347Y-60520807D01*
X111349993Y-60638453D01*
X111356817Y-60642489D01*
X111356820Y-60642491D01*
X111382519Y-60657689D01*
X111493199Y-60723145D01*
X111500810Y-60725356D01*
X111500812Y-60725357D01*
X111553031Y-60740528D01*
X111652969Y-60769562D01*
X111659374Y-60770066D01*
X111659379Y-60770067D01*
X111687842Y-60772307D01*
X111687850Y-60772307D01*
X111690298Y-60772500D01*
X112022834Y-60772500D01*
X112053317Y-60776243D01*
X112179657Y-60807744D01*
X112240915Y-60843632D01*
X112273046Y-60906942D01*
X112265848Y-60977573D01*
X112221608Y-61033100D01*
X112149174Y-61056001D01*
X111692817Y-61056001D01*
X111687880Y-61056195D01*
X111659464Y-61058430D01*
X111646869Y-61060730D01*
X111501010Y-61103107D01*
X111486579Y-61109352D01*
X111357122Y-61185911D01*
X111344696Y-61195551D01*
X111238351Y-61301896D01*
X111228711Y-61314322D01*
X111152152Y-61443779D01*
X111145907Y-61458210D01*
X111106861Y-61592605D01*
X111106901Y-61606706D01*
X111114170Y-61610000D01*
X113226958Y-61610000D01*
X113291097Y-61627547D01*
X113368199Y-61673145D01*
X113375810Y-61675356D01*
X113375812Y-61675357D01*
X113428031Y-61690528D01*
X113527969Y-61719562D01*
X113534374Y-61720066D01*
X113534379Y-61720067D01*
X113562842Y-61722307D01*
X113562850Y-61722307D01*
X113565298Y-61722500D01*
X113896024Y-61722500D01*
X113935869Y-61729096D01*
X113941004Y-61731490D01*
X114123040Y-61772180D01*
X114128763Y-61772500D01*
X114531201Y-61772500D01*
X114599322Y-61792502D01*
X114645815Y-61846158D01*
X114657201Y-61898597D01*
X114656595Y-62667525D01*
X114656469Y-62827946D01*
X114656099Y-63297899D01*
X114636043Y-63366004D01*
X114582351Y-63412455D01*
X114530099Y-63423800D01*
X110284331Y-63423800D01*
X110216210Y-63403798D01*
X110169717Y-63350142D01*
X110158331Y-63298092D01*
X110157988Y-63149969D01*
X110155621Y-62129871D01*
X111105256Y-62129871D01*
X111145907Y-62269790D01*
X111152152Y-62284221D01*
X111228711Y-62413678D01*
X111238351Y-62426104D01*
X111344696Y-62532449D01*
X111357122Y-62542089D01*
X111486579Y-62618648D01*
X111501010Y-62624893D01*
X111646865Y-62667269D01*
X111659467Y-62669570D01*
X111687884Y-62671807D01*
X111692814Y-62672000D01*
X112072185Y-62672000D01*
X112087424Y-62667525D01*
X112088629Y-62666135D01*
X112090300Y-62658452D01*
X112090300Y-62653884D01*
X112598300Y-62653884D01*
X112602775Y-62669123D01*
X112604165Y-62670328D01*
X112611848Y-62671999D01*
X112995784Y-62671999D01*
X113000720Y-62671805D01*
X113029136Y-62669570D01*
X113041731Y-62667270D01*
X113187590Y-62624893D01*
X113202021Y-62618648D01*
X113331478Y-62542089D01*
X113343904Y-62532449D01*
X113450249Y-62426104D01*
X113459889Y-62413678D01*
X113536448Y-62284221D01*
X113542693Y-62269790D01*
X113581739Y-62135395D01*
X113581699Y-62121294D01*
X113574430Y-62118000D01*
X112616415Y-62118000D01*
X112601176Y-62122475D01*
X112599971Y-62123865D01*
X112598300Y-62131548D01*
X112598300Y-62653884D01*
X112090300Y-62653884D01*
X112090300Y-62136115D01*
X112085825Y-62120876D01*
X112084435Y-62119671D01*
X112076752Y-62118000D01*
X111119922Y-62118000D01*
X111106391Y-62121973D01*
X111105256Y-62129871D01*
X110155621Y-62129871D01*
X110137665Y-54392261D01*
X110971201Y-54392261D01*
X110971409Y-54397371D01*
X110982282Y-54531067D01*
X110984052Y-54541620D01*
X111037167Y-54748485D01*
X111040901Y-54759031D01*
X111129710Y-54953005D01*
X111135246Y-54962712D01*
X111257003Y-55137897D01*
X111264176Y-55146476D01*
X111415024Y-55297324D01*
X111423603Y-55304497D01*
X111598788Y-55426254D01*
X111608495Y-55431790D01*
X111802469Y-55520599D01*
X111813015Y-55524333D01*
X112019879Y-55577447D01*
X112030434Y-55579218D01*
X112164130Y-55590093D01*
X112169236Y-55590300D01*
X112707085Y-55590300D01*
X112722324Y-55585825D01*
X112723529Y-55584435D01*
X112725200Y-55576752D01*
X112725200Y-55572184D01*
X113233200Y-55572184D01*
X113237675Y-55587423D01*
X113239065Y-55588628D01*
X113246748Y-55590299D01*
X113789161Y-55590299D01*
X113794271Y-55590091D01*
X113927967Y-55579218D01*
X113938520Y-55577448D01*
X114145385Y-55524333D01*
X114155931Y-55520599D01*
X114349905Y-55431790D01*
X114359612Y-55426254D01*
X114534797Y-55304497D01*
X114543376Y-55297324D01*
X114694224Y-55146476D01*
X114701397Y-55137897D01*
X114823154Y-54962712D01*
X114828690Y-54953005D01*
X114917499Y-54759031D01*
X114921233Y-54748485D01*
X114974347Y-54541621D01*
X114976118Y-54531066D01*
X114986993Y-54397370D01*
X114987200Y-54392264D01*
X114987200Y-53604415D01*
X114982725Y-53589176D01*
X114981335Y-53587971D01*
X114973652Y-53586300D01*
X113251315Y-53586300D01*
X113236076Y-53590775D01*
X113234871Y-53592165D01*
X113233200Y-53599848D01*
X113233200Y-55572184D01*
X112725200Y-55572184D01*
X112725200Y-53604415D01*
X112720725Y-53589176D01*
X112719335Y-53587971D01*
X112711652Y-53586300D01*
X110989316Y-53586300D01*
X110974077Y-53590775D01*
X110972872Y-53592165D01*
X110971201Y-53599848D01*
X110971201Y-54392261D01*
X110137665Y-54392261D01*
X110134574Y-53060185D01*
X110971200Y-53060185D01*
X110975675Y-53075424D01*
X110977065Y-53076629D01*
X110984748Y-53078300D01*
X112707085Y-53078300D01*
X112722324Y-53073825D01*
X112723529Y-53072435D01*
X112725200Y-53064752D01*
X112725200Y-53060185D01*
X113233200Y-53060185D01*
X113237675Y-53075424D01*
X113239065Y-53076629D01*
X113246748Y-53078300D01*
X114969084Y-53078300D01*
X114984323Y-53073825D01*
X114985528Y-53072435D01*
X114987199Y-53064752D01*
X114987199Y-52272339D01*
X114986991Y-52267229D01*
X114976118Y-52133533D01*
X114974348Y-52122980D01*
X114921233Y-51916115D01*
X114917499Y-51905569D01*
X114828690Y-51711595D01*
X114823154Y-51701888D01*
X114701397Y-51526703D01*
X114694224Y-51518124D01*
X114543376Y-51367276D01*
X114534797Y-51360103D01*
X114359612Y-51238346D01*
X114349905Y-51232810D01*
X114155931Y-51144001D01*
X114145385Y-51140267D01*
X113938521Y-51087153D01*
X113927966Y-51085382D01*
X113794270Y-51074507D01*
X113789164Y-51074300D01*
X113251315Y-51074300D01*
X113236076Y-51078775D01*
X113234871Y-51080165D01*
X113233200Y-51087848D01*
X113233200Y-53060185D01*
X112725200Y-53060185D01*
X112725200Y-51092416D01*
X112720725Y-51077177D01*
X112719335Y-51075972D01*
X112711652Y-51074301D01*
X112169239Y-51074301D01*
X112164129Y-51074509D01*
X112030433Y-51085382D01*
X112019880Y-51087152D01*
X111813015Y-51140267D01*
X111802469Y-51144001D01*
X111608495Y-51232810D01*
X111598788Y-51238346D01*
X111423603Y-51360103D01*
X111415024Y-51367276D01*
X111264176Y-51518124D01*
X111257003Y-51526703D01*
X111135246Y-51701888D01*
X111129710Y-51711595D01*
X111040901Y-51905569D01*
X111037167Y-51916115D01*
X110984053Y-52122979D01*
X110982282Y-52133534D01*
X110971407Y-52267230D01*
X110971200Y-52272336D01*
X110971200Y-53060185D01*
X110134574Y-53060185D01*
X110130095Y-51130173D01*
X110125053Y-51085382D01*
X110118863Y-51030395D01*
X110131119Y-50960464D01*
X110179237Y-50908261D01*
X110244072Y-50890300D01*
X110944831Y-50890300D01*
X110948216Y-50890209D01*
X110999745Y-50887418D01*
X111008389Y-50886345D01*
X111229218Y-50843220D01*
X111239446Y-50840306D01*
X111448940Y-50760936D01*
X111458538Y-50756338D01*
X111651660Y-50642807D01*
X111660349Y-50636654D01*
X111831592Y-50492199D01*
X111839099Y-50484692D01*
X111983554Y-50313449D01*
X111989707Y-50304760D01*
X112103238Y-50111638D01*
X112107836Y-50102040D01*
X112187206Y-49892546D01*
X112190120Y-49882318D01*
X112233245Y-49661489D01*
X112234318Y-49652845D01*
X112237109Y-49601316D01*
X112237200Y-49597931D01*
X112237200Y-48904415D01*
X112232725Y-48889176D01*
X112231335Y-48887971D01*
X112223652Y-48886300D01*
X107739315Y-48886300D01*
X107724076Y-48890775D01*
X107722871Y-48892165D01*
X107721200Y-48899848D01*
X107721200Y-49597931D01*
X107721291Y-49601316D01*
X107724082Y-49652845D01*
X107725155Y-49661489D01*
X107768280Y-49882318D01*
X107771194Y-49892546D01*
X107850564Y-50102040D01*
X107855162Y-50111638D01*
X107968693Y-50304760D01*
X107974846Y-50313449D01*
X108119301Y-50484692D01*
X108126808Y-50492199D01*
X108298051Y-50636654D01*
X108306740Y-50642807D01*
X108499862Y-50756338D01*
X108509460Y-50760936D01*
X108514748Y-50762940D01*
X108571363Y-50805780D01*
X108595829Y-50872428D01*
X108589755Y-50913913D01*
X108590769Y-50914134D01*
X108577619Y-50974583D01*
X108543594Y-51036896D01*
X108481282Y-51070921D01*
X108454499Y-51073800D01*
X105440860Y-51073800D01*
X105372739Y-51053798D01*
X105326246Y-51000142D01*
X105320436Y-50984869D01*
X105303989Y-50931437D01*
X105301339Y-50922828D01*
X105295445Y-50913913D01*
X105268541Y-50873225D01*
X105221591Y-50802217D01*
X105174404Y-50749171D01*
X105063906Y-50655914D01*
X105020238Y-50636654D01*
X104935732Y-50599383D01*
X104931610Y-50597565D01*
X104894600Y-50587219D01*
X104867568Y-50579662D01*
X104867564Y-50579661D01*
X104863235Y-50578451D01*
X104858776Y-50577869D01*
X104858771Y-50577868D01*
X104724322Y-50560319D01*
X104724318Y-50560319D01*
X104719861Y-50559737D01*
X104525032Y-50562272D01*
X104361763Y-50564396D01*
X104361761Y-50564396D01*
X104358541Y-50564438D01*
X104355344Y-50564807D01*
X104355339Y-50564807D01*
X104303291Y-50570809D01*
X104255964Y-50576267D01*
X104252834Y-50576956D01*
X104252827Y-50576957D01*
X104240537Y-50579662D01*
X104206199Y-50587219D01*
X104108137Y-50619545D01*
X103985863Y-50696720D01*
X103931829Y-50742773D01*
X103836253Y-50851270D01*
X103832444Y-50859434D01*
X103832443Y-50859435D01*
X103794723Y-50940276D01*
X103775114Y-50982300D01*
X103773811Y-50986606D01*
X103773809Y-50986612D01*
X103767835Y-51006359D01*
X103754556Y-51050254D01*
X103753881Y-51054693D01*
X103753880Y-51054696D01*
X103748837Y-51087848D01*
X103732809Y-51193205D01*
X103732772Y-51197694D01*
X103732772Y-51197698D01*
X103704987Y-54599392D01*
X103700712Y-55122820D01*
X103670146Y-58865045D01*
X103668928Y-59014115D01*
X103648370Y-59082070D01*
X103594336Y-59128123D01*
X103543553Y-59139084D01*
X101496343Y-59149155D01*
X90572594Y-59202891D01*
X90504376Y-59183225D01*
X90457619Y-59129798D01*
X90445976Y-59077652D01*
X90409737Y-53061900D01*
X92403300Y-53061900D01*
X92403637Y-53065146D01*
X92403637Y-53065150D01*
X92412675Y-53152252D01*
X92414274Y-53167666D01*
X92416455Y-53174202D01*
X92416455Y-53174204D01*
X92448205Y-53269370D01*
X92470250Y-53335446D01*
X92563322Y-53485848D01*
X92688497Y-53610805D01*
X92694727Y-53614645D01*
X92694728Y-53614646D01*
X92831890Y-53699194D01*
X92839062Y-53703615D01*
X92874738Y-53715448D01*
X93000411Y-53757132D01*
X93000413Y-53757132D01*
X93006939Y-53759297D01*
X93013775Y-53759997D01*
X93013778Y-53759998D01*
X93049463Y-53763654D01*
X93111400Y-53770000D01*
X94412200Y-53770000D01*
X94415446Y-53769663D01*
X94415450Y-53769663D01*
X94511108Y-53759738D01*
X94511112Y-53759737D01*
X94517966Y-53759026D01*
X94524502Y-53756845D01*
X94524504Y-53756845D01*
X94656606Y-53712772D01*
X94685746Y-53703050D01*
X94836148Y-53609978D01*
X94961105Y-53484803D01*
X95050881Y-53339160D01*
X95103652Y-53291668D01*
X95173724Y-53280244D01*
X95238848Y-53308518D01*
X95249310Y-53318305D01*
X95291015Y-53362023D01*
X95358376Y-53432635D01*
X95543342Y-53570254D01*
X95548093Y-53572670D01*
X95548097Y-53572672D01*
X95611281Y-53604796D01*
X95748851Y-53674740D01*
X95753945Y-53676322D01*
X95753948Y-53676323D01*
X95919383Y-53727692D01*
X95969027Y-53743107D01*
X95974316Y-53743808D01*
X96192289Y-53772698D01*
X96192294Y-53772698D01*
X96197574Y-53773398D01*
X96202903Y-53773198D01*
X96202905Y-53773198D01*
X96312766Y-53769074D01*
X96427958Y-53764749D01*
X96450602Y-53759998D01*
X96648372Y-53718502D01*
X96653591Y-53717407D01*
X96658550Y-53715449D01*
X96658552Y-53715448D01*
X96863056Y-53634685D01*
X96863058Y-53634684D01*
X96868021Y-53632724D01*
X96873325Y-53629506D01*
X97060557Y-53515890D01*
X97060556Y-53515890D01*
X97065117Y-53513123D01*
X97104934Y-53478572D01*
X97235212Y-53365523D01*
X97235214Y-53365521D01*
X97239245Y-53362023D01*
X97306300Y-53280244D01*
X97382040Y-53187873D01*
X97382044Y-53187867D01*
X97385424Y-53183745D01*
X97403352Y-53152250D01*
X97454432Y-53102945D01*
X97524062Y-53089083D01*
X97590133Y-53115066D01*
X97617373Y-53144216D01*
X97699241Y-53265819D01*
X97702920Y-53269676D01*
X97702922Y-53269678D01*
X97713002Y-53280244D01*
X97858376Y-53432635D01*
X98043342Y-53570254D01*
X98048093Y-53572670D01*
X98048097Y-53572672D01*
X98111281Y-53604796D01*
X98248851Y-53674740D01*
X98253945Y-53676322D01*
X98253948Y-53676323D01*
X98419383Y-53727692D01*
X98469027Y-53743107D01*
X98474316Y-53743808D01*
X98692289Y-53772698D01*
X98692294Y-53772698D01*
X98697574Y-53773398D01*
X98702903Y-53773198D01*
X98702905Y-53773198D01*
X98812766Y-53769074D01*
X98927958Y-53764749D01*
X98950602Y-53759998D01*
X99148372Y-53718502D01*
X99153591Y-53717407D01*
X99158550Y-53715449D01*
X99158552Y-53715448D01*
X99363056Y-53634685D01*
X99363058Y-53634684D01*
X99368021Y-53632724D01*
X99373325Y-53629506D01*
X99560557Y-53515890D01*
X99560556Y-53515890D01*
X99565117Y-53513123D01*
X99604934Y-53478572D01*
X99735212Y-53365523D01*
X99735214Y-53365521D01*
X99739245Y-53362023D01*
X99806300Y-53280244D01*
X99882040Y-53187873D01*
X99882044Y-53187867D01*
X99885424Y-53183745D01*
X99898481Y-53160808D01*
X99903629Y-53151765D01*
X99954712Y-53102459D01*
X100024342Y-53088598D01*
X100090413Y-53114582D01*
X100117651Y-53143732D01*
X100196652Y-53261078D01*
X100203319Y-53269370D01*
X100355028Y-53428400D01*
X100362986Y-53435441D01*
X100539325Y-53566641D01*
X100548362Y-53572245D01*
X100744284Y-53671857D01*
X100754135Y-53675857D01*
X100964040Y-53741034D01*
X100974424Y-53743317D01*
X100989843Y-53745361D01*
X101004007Y-53743165D01*
X101007800Y-53729978D01*
X101007800Y-53727692D01*
X101515800Y-53727692D01*
X101519773Y-53741223D01*
X101530380Y-53742748D01*
X101648221Y-53718023D01*
X101658417Y-53714963D01*
X101862829Y-53634237D01*
X101872361Y-53629506D01*
X102060262Y-53515484D01*
X102068852Y-53509220D01*
X102234852Y-53365173D01*
X102242272Y-53357542D01*
X102381626Y-53187589D01*
X102387650Y-53178822D01*
X102496376Y-52987818D01*
X102500841Y-52978154D01*
X102575831Y-52771559D01*
X102578602Y-52761292D01*
X102615304Y-52558326D01*
X102613885Y-52545086D01*
X102599250Y-52540500D01*
X101533915Y-52540500D01*
X101518676Y-52544975D01*
X101517471Y-52546365D01*
X101515800Y-52554048D01*
X101515800Y-53727692D01*
X101007800Y-53727692D01*
X101007800Y-52014385D01*
X101515800Y-52014385D01*
X101520275Y-52029624D01*
X101521665Y-52030829D01*
X101529348Y-52032500D01*
X102595649Y-52032500D01*
X102610327Y-52028190D01*
X102612390Y-52016307D01*
X102605676Y-51937175D01*
X102603886Y-51926703D01*
X102548670Y-51713965D01*
X102545135Y-51703925D01*
X102454863Y-51503530D01*
X102449694Y-51494244D01*
X102326950Y-51311925D01*
X102320281Y-51303630D01*
X102168572Y-51144600D01*
X102160614Y-51137559D01*
X101984275Y-51006359D01*
X101975238Y-51000755D01*
X101779316Y-50901143D01*
X101769465Y-50897143D01*
X101559560Y-50831966D01*
X101549176Y-50829683D01*
X101533757Y-50827639D01*
X101519593Y-50829835D01*
X101515800Y-50843022D01*
X101515800Y-52014385D01*
X101007800Y-52014385D01*
X101007800Y-50845308D01*
X101003827Y-50831777D01*
X100993220Y-50830252D01*
X100875379Y-50854977D01*
X100865183Y-50858037D01*
X100660771Y-50938763D01*
X100651239Y-50943494D01*
X100463338Y-51057516D01*
X100454748Y-51063780D01*
X100288748Y-51207827D01*
X100281328Y-51215458D01*
X100141974Y-51385411D01*
X100135952Y-51394174D01*
X100120562Y-51421211D01*
X100069480Y-51470518D01*
X99999849Y-51484380D01*
X99933778Y-51458397D01*
X99906539Y-51429247D01*
X99859988Y-51360103D01*
X99824359Y-51307181D01*
X99765718Y-51245709D01*
X99736525Y-51215108D01*
X99665224Y-51140365D01*
X99480258Y-51002746D01*
X99475507Y-51000330D01*
X99475503Y-51000328D01*
X99357388Y-50940276D01*
X99274749Y-50898260D01*
X99269655Y-50896678D01*
X99269652Y-50896677D01*
X99059671Y-50831476D01*
X99054573Y-50829893D01*
X99049284Y-50829192D01*
X98831311Y-50800302D01*
X98831306Y-50800302D01*
X98826026Y-50799602D01*
X98820697Y-50799802D01*
X98820695Y-50799802D01*
X98710834Y-50803926D01*
X98595642Y-50808251D01*
X98590423Y-50809346D01*
X98568366Y-50813974D01*
X98370009Y-50855593D01*
X98365050Y-50857551D01*
X98365048Y-50857552D01*
X98160544Y-50938315D01*
X98160542Y-50938316D01*
X98155579Y-50940276D01*
X98151020Y-50943043D01*
X98151017Y-50943044D01*
X98055913Y-51000755D01*
X97958483Y-51059877D01*
X97954453Y-51063374D01*
X97799658Y-51197698D01*
X97784355Y-51210977D01*
X97780968Y-51215108D01*
X97641560Y-51385127D01*
X97641556Y-51385133D01*
X97638176Y-51389255D01*
X97620248Y-51420750D01*
X97569168Y-51470055D01*
X97499538Y-51483917D01*
X97433467Y-51457934D01*
X97406227Y-51428784D01*
X97379614Y-51389255D01*
X97324359Y-51307181D01*
X97265718Y-51245709D01*
X97236525Y-51215108D01*
X97165224Y-51140365D01*
X96980258Y-51002746D01*
X96975507Y-51000330D01*
X96975503Y-51000328D01*
X96857388Y-50940276D01*
X96774749Y-50898260D01*
X96769655Y-50896678D01*
X96769652Y-50896677D01*
X96559671Y-50831476D01*
X96554573Y-50829893D01*
X96549284Y-50829192D01*
X96331311Y-50800302D01*
X96331306Y-50800302D01*
X96326026Y-50799602D01*
X96320697Y-50799802D01*
X96320695Y-50799802D01*
X96210834Y-50803926D01*
X96095642Y-50808251D01*
X96090423Y-50809346D01*
X96068366Y-50813974D01*
X95870009Y-50855593D01*
X95865050Y-50857551D01*
X95865048Y-50857552D01*
X95660544Y-50938315D01*
X95660542Y-50938316D01*
X95655579Y-50940276D01*
X95651020Y-50943043D01*
X95651017Y-50943044D01*
X95555913Y-51000755D01*
X95458483Y-51059877D01*
X95454453Y-51063374D01*
X95299658Y-51197698D01*
X95284355Y-51210977D01*
X95255130Y-51246620D01*
X95196471Y-51286614D01*
X95125501Y-51288546D01*
X95064752Y-51251802D01*
X95050552Y-51233032D01*
X94964132Y-51093380D01*
X94960278Y-51087152D01*
X94949079Y-51075972D01*
X94840283Y-50967366D01*
X94835103Y-50962195D01*
X94825379Y-50956201D01*
X94690768Y-50873225D01*
X94690766Y-50873224D01*
X94684538Y-50869385D01*
X94571153Y-50831777D01*
X94523189Y-50815868D01*
X94523187Y-50815868D01*
X94516661Y-50813703D01*
X94509825Y-50813003D01*
X94509822Y-50813002D01*
X94466769Y-50808591D01*
X94412200Y-50803000D01*
X93111400Y-50803000D01*
X93108154Y-50803337D01*
X93108150Y-50803337D01*
X93012492Y-50813262D01*
X93012488Y-50813263D01*
X93005634Y-50813974D01*
X92999098Y-50816155D01*
X92999096Y-50816155D01*
X92869371Y-50859435D01*
X92837854Y-50869950D01*
X92687452Y-50963022D01*
X92562495Y-51088197D01*
X92558655Y-51094427D01*
X92558654Y-51094428D01*
X92484266Y-51215108D01*
X92469685Y-51238762D01*
X92448272Y-51303322D01*
X92418232Y-51393890D01*
X92414003Y-51406639D01*
X92413303Y-51413475D01*
X92413302Y-51413478D01*
X92411138Y-51434602D01*
X92403300Y-51511100D01*
X92403300Y-53061900D01*
X90409737Y-53061900D01*
X90381414Y-48360185D01*
X107721200Y-48360185D01*
X107725675Y-48375424D01*
X107727065Y-48376629D01*
X107734748Y-48378300D01*
X109707085Y-48378300D01*
X109722324Y-48373825D01*
X109723529Y-48372435D01*
X109725200Y-48364752D01*
X109725200Y-48360185D01*
X110233200Y-48360185D01*
X110237675Y-48375424D01*
X110239065Y-48376629D01*
X110246748Y-48378300D01*
X112219085Y-48378300D01*
X112234324Y-48373825D01*
X112235529Y-48372435D01*
X112237200Y-48364752D01*
X112237200Y-47666670D01*
X112237109Y-47663284D01*
X112234318Y-47611755D01*
X112233245Y-47603111D01*
X112190120Y-47382282D01*
X112187206Y-47372054D01*
X112107836Y-47162560D01*
X112103238Y-47152962D01*
X111989707Y-46959840D01*
X111983554Y-46951151D01*
X111839099Y-46779908D01*
X111831592Y-46772401D01*
X111660349Y-46627946D01*
X111651660Y-46621793D01*
X111458538Y-46508262D01*
X111448940Y-46503664D01*
X111239446Y-46424294D01*
X111229218Y-46421380D01*
X111008389Y-46378255D01*
X110999745Y-46377182D01*
X110948216Y-46374391D01*
X110944830Y-46374300D01*
X110251315Y-46374300D01*
X110236076Y-46378775D01*
X110234871Y-46380165D01*
X110233200Y-46387848D01*
X110233200Y-48360185D01*
X109725200Y-48360185D01*
X109725200Y-46392415D01*
X109720725Y-46377176D01*
X109719335Y-46375971D01*
X109711652Y-46374300D01*
X109013570Y-46374300D01*
X109010184Y-46374391D01*
X108958655Y-46377182D01*
X108950011Y-46378255D01*
X108729182Y-46421380D01*
X108718954Y-46424294D01*
X108509460Y-46503664D01*
X108499862Y-46508262D01*
X108306740Y-46621793D01*
X108298051Y-46627946D01*
X108126808Y-46772401D01*
X108119301Y-46779908D01*
X107974846Y-46951151D01*
X107968693Y-46959840D01*
X107855162Y-47152962D01*
X107850564Y-47162560D01*
X107771194Y-47372054D01*
X107768280Y-47382282D01*
X107725155Y-47603111D01*
X107724082Y-47611755D01*
X107721291Y-47663284D01*
X107721200Y-47666670D01*
X107721200Y-48360185D01*
X90381414Y-48360185D01*
X90380562Y-48218832D01*
X90380562Y-48218827D01*
X90380542Y-48215553D01*
X90368887Y-48110378D01*
X90357764Y-48059371D01*
X90355851Y-48053578D01*
X90327020Y-47966300D01*
X90327019Y-47966298D01*
X90324574Y-47958896D01*
X90320392Y-47952316D01*
X90249428Y-47840666D01*
X90249425Y-47840662D01*
X90247013Y-47836867D01*
X90238478Y-47826916D01*
X90203721Y-47786396D01*
X90200790Y-47782979D01*
X90091987Y-47687742D01*
X89960764Y-47627018D01*
X89931397Y-47618235D01*
X89897055Y-47607964D01*
X89897051Y-47607963D01*
X89892744Y-47606675D01*
X89888296Y-47606013D01*
X89888293Y-47606012D01*
X89754192Y-47586045D01*
X89754193Y-47586045D01*
X89749733Y-47585381D01*
X89745227Y-47585358D01*
X89745222Y-47585358D01*
X83894831Y-47556008D01*
X83894747Y-47556008D01*
X83893807Y-47556005D01*
X83893175Y-47556003D01*
X83891567Y-47556000D01*
X83838217Y-47556000D01*
X83729641Y-47567739D01*
X83677024Y-47579251D01*
X83673807Y-47580328D01*
X83673804Y-47580329D01*
X83580954Y-47611418D01*
X83580951Y-47611419D01*
X83573459Y-47613928D01*
X83566821Y-47618216D01*
X83566820Y-47618217D01*
X83459206Y-47687742D01*
X83452009Y-47692392D01*
X83448623Y-47695340D01*
X83448618Y-47695344D01*
X83440277Y-47702607D01*
X83398465Y-47739014D01*
X83395534Y-47742413D01*
X83395529Y-47742418D01*
X83309928Y-47841687D01*
X83304044Y-47848511D01*
X83244293Y-47980180D01*
X83243037Y-47984496D01*
X83227767Y-48036966D01*
X83224454Y-48048348D01*
X83204218Y-48191520D01*
X83205037Y-48533060D01*
X83206517Y-49150388D01*
X83209657Y-50460148D01*
X83212775Y-51760608D01*
X83212775Y-51760610D01*
X83213096Y-51894282D01*
X83218506Y-54150388D01*
X83221646Y-55460148D01*
X83224764Y-56760608D01*
X83242543Y-64175218D01*
X83254071Y-68983103D01*
X83257228Y-70299887D01*
X83272277Y-76576097D01*
X83252438Y-76644266D01*
X83198894Y-76690888D01*
X83146277Y-76702400D01*
X71715654Y-76702400D01*
X71713398Y-76702563D01*
X71713393Y-76702563D01*
X71644973Y-76707501D01*
X71644964Y-76707502D01*
X71642705Y-76707665D01*
X71640468Y-76707990D01*
X71640455Y-76707991D01*
X71614275Y-76711790D01*
X71614267Y-76711791D01*
X71611996Y-76712121D01*
X71609747Y-76712618D01*
X71607471Y-76713034D01*
X71607424Y-76712778D01*
X71583403Y-76715400D01*
X68934500Y-76715400D01*
X68931152Y-76715760D01*
X68931151Y-76715760D01*
X68922966Y-76716640D01*
X68826520Y-76727009D01*
X68823230Y-76727725D01*
X68823228Y-76727725D01*
X68786078Y-76735806D01*
X68715262Y-76730740D01*
X68658427Y-76688193D01*
X68652460Y-76679442D01*
X68652334Y-76679282D01*
X68648478Y-76673052D01*
X68641872Y-76666457D01*
X68551354Y-76576097D01*
X68523303Y-76548095D01*
X68505177Y-76536922D01*
X68378968Y-76459125D01*
X68378966Y-76459124D01*
X68372738Y-76455285D01*
X68212254Y-76402055D01*
X68211389Y-76401768D01*
X68211387Y-76401768D01*
X68204861Y-76399603D01*
X68198025Y-76398903D01*
X68198022Y-76398902D01*
X68149346Y-76393915D01*
X68100400Y-76388900D01*
X67324600Y-76388900D01*
X67321354Y-76389237D01*
X67321350Y-76389237D01*
X67225692Y-76399162D01*
X67225688Y-76399163D01*
X67218834Y-76399874D01*
X67212298Y-76402055D01*
X67212296Y-76402055D01*
X67136670Y-76427286D01*
X67051054Y-76455850D01*
X66900652Y-76548922D01*
X66775695Y-76674097D01*
X66773094Y-76678316D01*
X66715970Y-76718817D01*
X66645047Y-76722049D01*
X66583635Y-76686424D01*
X66577078Y-76678870D01*
X66573478Y-76673052D01*
X66566872Y-76666457D01*
X66476354Y-76576097D01*
X66448303Y-76548095D01*
X66430177Y-76536922D01*
X66303968Y-76459125D01*
X66303966Y-76459124D01*
X66297738Y-76455285D01*
X66137254Y-76402055D01*
X66136389Y-76401768D01*
X66136387Y-76401768D01*
X66129861Y-76399603D01*
X66123025Y-76398903D01*
X66123022Y-76398902D01*
X66074346Y-76393915D01*
X66025400Y-76388900D01*
X65249600Y-76388900D01*
X65246354Y-76389237D01*
X65246350Y-76389237D01*
X65150692Y-76399162D01*
X65150688Y-76399163D01*
X65143834Y-76399874D01*
X65137298Y-76402055D01*
X65137296Y-76402055D01*
X65061670Y-76427286D01*
X64976054Y-76455850D01*
X64825652Y-76548922D01*
X64700695Y-76674097D01*
X64692657Y-76687137D01*
X64682251Y-76704018D01*
X64629478Y-76751510D01*
X64574992Y-76763900D01*
X63235193Y-76763900D01*
X63167072Y-76743898D01*
X63120579Y-76690242D01*
X63110475Y-76619968D01*
X63139969Y-76555388D01*
X63146098Y-76548805D01*
X63195982Y-76498921D01*
X63203749Y-76491778D01*
X63238353Y-76462536D01*
X63238357Y-76462532D01*
X63243567Y-76458129D01*
X63292879Y-76393631D01*
X63294773Y-76391215D01*
X63341432Y-76333183D01*
X63341433Y-76333182D01*
X63345710Y-76327862D01*
X63348747Y-76321743D01*
X63350535Y-76318948D01*
X63350788Y-76318587D01*
X63350990Y-76318220D01*
X63352721Y-76315362D01*
X63356860Y-76309948D01*
X63391186Y-76236336D01*
X63392520Y-76233564D01*
X63425614Y-76166896D01*
X63428647Y-76160786D01*
X63430298Y-76154165D01*
X63431449Y-76151037D01*
X63431613Y-76150644D01*
X63431732Y-76150239D01*
X63432809Y-76147075D01*
X63435690Y-76140896D01*
X63453415Y-76061598D01*
X63454124Y-76058602D01*
X63459732Y-76036111D01*
X63473318Y-75981618D01*
X63509206Y-75920361D01*
X63572515Y-75888229D01*
X63621591Y-75890654D01*
X63621855Y-75889210D01*
X63628194Y-75890368D01*
X63634369Y-75892162D01*
X63640774Y-75892666D01*
X63640779Y-75892667D01*
X63669242Y-75894907D01*
X63669250Y-75894907D01*
X63671698Y-75895100D01*
X64104702Y-75895100D01*
X64107150Y-75894907D01*
X64107158Y-75894907D01*
X64135621Y-75892667D01*
X64135626Y-75892666D01*
X64142031Y-75892162D01*
X64279879Y-75852114D01*
X64294188Y-75847957D01*
X64294190Y-75847956D01*
X64301801Y-75845745D01*
X64376248Y-75801717D01*
X64438180Y-75765091D01*
X64438183Y-75765089D01*
X64445007Y-75761053D01*
X64562653Y-75643407D01*
X64566689Y-75636583D01*
X64566691Y-75636580D01*
X64643308Y-75507027D01*
X64647345Y-75500201D01*
X64693762Y-75340431D01*
X64696700Y-75303102D01*
X64696700Y-74734876D01*
X64703296Y-74695031D01*
X64705690Y-74689896D01*
X64746380Y-74507860D01*
X64746700Y-74502137D01*
X64746700Y-72922589D01*
X64765440Y-72856473D01*
X64821475Y-72765568D01*
X64821476Y-72765566D01*
X64825315Y-72759338D01*
X64880997Y-72591461D01*
X64891700Y-72487000D01*
X64891700Y-71486200D01*
X64880726Y-71380434D01*
X64824750Y-71212654D01*
X64731678Y-71062252D01*
X64680616Y-71011279D01*
X64646537Y-70948997D01*
X64651540Y-70878177D01*
X64680461Y-70833088D01*
X64755934Y-70757483D01*
X64761105Y-70752303D01*
X64764946Y-70746072D01*
X64850075Y-70607968D01*
X64850076Y-70607966D01*
X64853915Y-70601738D01*
X64909597Y-70433861D01*
X64910551Y-70424557D01*
X64919972Y-70332598D01*
X64920300Y-70329400D01*
X64920300Y-69506194D01*
X65528373Y-69506194D01*
X65537910Y-69568515D01*
X65540299Y-69578543D01*
X65611698Y-69796988D01*
X65615695Y-69806497D01*
X65721811Y-70010344D01*
X65727305Y-70019069D01*
X65865293Y-70202852D01*
X65872136Y-70210559D01*
X66038291Y-70369339D01*
X66046301Y-70375826D01*
X66236147Y-70505330D01*
X66245121Y-70510429D01*
X66453569Y-70607187D01*
X66463256Y-70610750D01*
X66684708Y-70672165D01*
X66694830Y-70674096D01*
X66739787Y-70678901D01*
X66754408Y-70676253D01*
X66757653Y-70664412D01*
X67265800Y-70664412D01*
X67270125Y-70679141D01*
X67281911Y-70681202D01*
X67293504Y-70680249D01*
X67303666Y-70678567D01*
X67526571Y-70622578D01*
X67536319Y-70619259D01*
X67747089Y-70527615D01*
X67756164Y-70522749D01*
X67949127Y-70397915D01*
X67957298Y-70391622D01*
X68127280Y-70236950D01*
X68134306Y-70229417D01*
X68276745Y-70049056D01*
X68282450Y-70040469D01*
X68393514Y-69839278D01*
X68397744Y-69829866D01*
X68474459Y-69613232D01*
X68477093Y-69603261D01*
X68494447Y-69505837D01*
X68492987Y-69492540D01*
X68478430Y-69488000D01*
X67283915Y-69488000D01*
X67268676Y-69492475D01*
X67267472Y-69493864D01*
X67265800Y-69501548D01*
X67265800Y-70664412D01*
X66757653Y-70664412D01*
X66757800Y-70663876D01*
X66757800Y-69506115D01*
X66753325Y-69490876D01*
X66751935Y-69489671D01*
X66744252Y-69488000D01*
X65543704Y-69488000D01*
X65530360Y-69491918D01*
X65528373Y-69506194D01*
X64920300Y-69506194D01*
X64920300Y-69471431D01*
X76425153Y-69471431D01*
X76472018Y-69666634D01*
X76475064Y-69676008D01*
X76562113Y-69886163D01*
X76566595Y-69894958D01*
X76685443Y-70088899D01*
X76691243Y-70096883D01*
X76838978Y-70269858D01*
X76845942Y-70276822D01*
X77018917Y-70424557D01*
X77026901Y-70430357D01*
X77220842Y-70549205D01*
X77229637Y-70553687D01*
X77439792Y-70640736D01*
X77449166Y-70643782D01*
X77640185Y-70689642D01*
X77654269Y-70688937D01*
X77657800Y-70680056D01*
X77657800Y-70675756D01*
X78165800Y-70675756D01*
X78169773Y-70689287D01*
X78179231Y-70690647D01*
X78374434Y-70643782D01*
X78383808Y-70640736D01*
X78593963Y-70553687D01*
X78602758Y-70549205D01*
X78796699Y-70430357D01*
X78804683Y-70424557D01*
X78977658Y-70276822D01*
X78984622Y-70269858D01*
X79132357Y-70096883D01*
X79138157Y-70088899D01*
X79257005Y-69894958D01*
X79261487Y-69886163D01*
X79348536Y-69676008D01*
X79351582Y-69666634D01*
X79397442Y-69475615D01*
X79396737Y-69461531D01*
X79387856Y-69458000D01*
X78183915Y-69458000D01*
X78168676Y-69462475D01*
X78167471Y-69463865D01*
X78165800Y-69471548D01*
X78165800Y-70675756D01*
X77657800Y-70675756D01*
X77657800Y-69476115D01*
X77653325Y-69460876D01*
X77651935Y-69459671D01*
X77644252Y-69458000D01*
X76440044Y-69458000D01*
X76426513Y-69461973D01*
X76425153Y-69471431D01*
X64920300Y-69471431D01*
X64920300Y-68978600D01*
X64918595Y-68962163D01*
X64910038Y-68879692D01*
X64910037Y-68879688D01*
X64909326Y-68872834D01*
X64906626Y-68864739D01*
X64855668Y-68712002D01*
X64853350Y-68705054D01*
X64760278Y-68554652D01*
X64750311Y-68544702D01*
X64657282Y-68451835D01*
X64623203Y-68389552D01*
X64620300Y-68362662D01*
X64620300Y-68198874D01*
X64640302Y-68130753D01*
X64645461Y-68123327D01*
X64662415Y-68100705D01*
X64713545Y-67964316D01*
X64720300Y-67902134D01*
X64720300Y-66905866D01*
X64713545Y-66843684D01*
X64662415Y-66707295D01*
X64575061Y-66590739D01*
X64458505Y-66503385D01*
X64322116Y-66452255D01*
X64259934Y-66445500D01*
X63945048Y-66445500D01*
X63907789Y-66439865D01*
X63815568Y-66411318D01*
X63809443Y-66410674D01*
X63809442Y-66410674D01*
X63625004Y-66391289D01*
X63625002Y-66391289D01*
X63618875Y-66390645D01*
X63536376Y-66398153D01*
X63428051Y-66408011D01*
X63428048Y-66408012D01*
X63421912Y-66408570D01*
X63416006Y-66410308D01*
X63416002Y-66410309D01*
X63313850Y-66440374D01*
X63278275Y-66445500D01*
X62963666Y-66445500D01*
X62901484Y-66452255D01*
X62765095Y-66503385D01*
X62648539Y-66590739D01*
X62561185Y-66707295D01*
X62510055Y-66843684D01*
X62503300Y-66905866D01*
X62503300Y-67902134D01*
X62510055Y-67964316D01*
X62561185Y-68100705D01*
X62578127Y-68123311D01*
X62602974Y-68189815D01*
X62603300Y-68198874D01*
X62603300Y-69442157D01*
X62602563Y-69455764D01*
X62600407Y-69475615D01*
X62598476Y-69493388D01*
X62602636Y-69540936D01*
X62602821Y-69543053D01*
X62603300Y-69554034D01*
X62603300Y-70329400D01*
X62614274Y-70435166D01*
X62616455Y-70441702D01*
X62616455Y-70441704D01*
X62653816Y-70553687D01*
X62670250Y-70602946D01*
X62758819Y-70746072D01*
X62763322Y-70753348D01*
X62760988Y-70754792D01*
X62782860Y-70808856D01*
X62769677Y-70878617D01*
X62720871Y-70930178D01*
X62651937Y-70947166D01*
X62591359Y-70928548D01*
X62461957Y-70848784D01*
X62448776Y-70842637D01*
X62294490Y-70791462D01*
X62281114Y-70788595D01*
X62186762Y-70778928D01*
X62180345Y-70778600D01*
X62055315Y-70778600D01*
X62040076Y-70783075D01*
X62038871Y-70784465D01*
X62037200Y-70792148D01*
X62037200Y-72114600D01*
X62017198Y-72182721D01*
X61963542Y-72229214D01*
X61911200Y-72240600D01*
X61655200Y-72240600D01*
X61587079Y-72220598D01*
X61540586Y-72166942D01*
X61529200Y-72114600D01*
X61529200Y-70936565D01*
X61549202Y-70868444D01*
X61566027Y-70847547D01*
X61655934Y-70757483D01*
X61661105Y-70752303D01*
X61664946Y-70746072D01*
X61750075Y-70607968D01*
X61750076Y-70607966D01*
X61753915Y-70601738D01*
X61809597Y-70433861D01*
X61810551Y-70424557D01*
X61819972Y-70332598D01*
X61820300Y-70329400D01*
X61820300Y-68978600D01*
X61818595Y-68962163D01*
X61810038Y-68879692D01*
X61810037Y-68879688D01*
X61809326Y-68872834D01*
X61806626Y-68864739D01*
X61755668Y-68712002D01*
X61753350Y-68705054D01*
X61739156Y-68682117D01*
X61720300Y-68615814D01*
X61720300Y-68328899D01*
X61740302Y-68260778D01*
X61779997Y-68221755D01*
X61804920Y-68206332D01*
X61811148Y-68202478D01*
X61936105Y-68077303D01*
X61993449Y-67984275D01*
X62025075Y-67932968D01*
X62025076Y-67932966D01*
X62028915Y-67926738D01*
X62058941Y-67836212D01*
X62082432Y-67765389D01*
X62082432Y-67765387D01*
X62084597Y-67758861D01*
X62095300Y-67654400D01*
X62095300Y-66753600D01*
X62084326Y-66647834D01*
X62067336Y-66596907D01*
X62030668Y-66487002D01*
X62028350Y-66480054D01*
X61935278Y-66329652D01*
X61810103Y-66204695D01*
X61803872Y-66200854D01*
X61665768Y-66115725D01*
X61665766Y-66115724D01*
X61659538Y-66111885D01*
X61499054Y-66058655D01*
X61498189Y-66058368D01*
X61498187Y-66058368D01*
X61491661Y-66056203D01*
X61484825Y-66055503D01*
X61484822Y-66055502D01*
X61441769Y-66051091D01*
X61387200Y-66045500D01*
X60036400Y-66045500D01*
X60033154Y-66045837D01*
X60033150Y-66045837D01*
X59937492Y-66055762D01*
X59937488Y-66055763D01*
X59930634Y-66056474D01*
X59924098Y-66058655D01*
X59924096Y-66058655D01*
X59821003Y-66093050D01*
X59762854Y-66112450D01*
X59612452Y-66205522D01*
X59487495Y-66330697D01*
X59483655Y-66336927D01*
X59483654Y-66336928D01*
X59416502Y-66445869D01*
X59394685Y-66481262D01*
X59392381Y-66488209D01*
X59359739Y-66586623D01*
X59339003Y-66649139D01*
X59328300Y-66753600D01*
X59328300Y-67654400D01*
X59328637Y-67657646D01*
X59328637Y-67657650D01*
X59335931Y-67727944D01*
X59339274Y-67760166D01*
X59395250Y-67927946D01*
X59488322Y-68078348D01*
X59613497Y-68203305D01*
X59619727Y-68207145D01*
X59643418Y-68221749D01*
X59690910Y-68274522D01*
X59703300Y-68329008D01*
X59703300Y-68462694D01*
X59683298Y-68530815D01*
X59672117Y-68544702D01*
X59672204Y-68544771D01*
X59667666Y-68550517D01*
X59662495Y-68555697D01*
X59658655Y-68561927D01*
X59658654Y-68561928D01*
X59591414Y-68671012D01*
X59569685Y-68706262D01*
X59514003Y-68874139D01*
X59513303Y-68880975D01*
X59513302Y-68880978D01*
X59511406Y-68899485D01*
X59503300Y-68978600D01*
X59503300Y-69540936D01*
X59483298Y-69609057D01*
X59462632Y-69632610D01*
X59462752Y-69632724D01*
X59459956Y-69635660D01*
X59458628Y-69637174D01*
X59452833Y-69642071D01*
X59448686Y-69647495D01*
X59448685Y-69647496D01*
X59403526Y-69706562D01*
X59401632Y-69708979D01*
X59350690Y-69772338D01*
X59347653Y-69778457D01*
X59345865Y-69781252D01*
X59345612Y-69781613D01*
X59345410Y-69781980D01*
X59343679Y-69784838D01*
X59339540Y-69790252D01*
X59336659Y-69796431D01*
X59305215Y-69863862D01*
X59303881Y-69866633D01*
X59267753Y-69939414D01*
X59266102Y-69946035D01*
X59264951Y-69949163D01*
X59264787Y-69949556D01*
X59264668Y-69949961D01*
X59263591Y-69953125D01*
X59260710Y-69959304D01*
X59259223Y-69965958D01*
X59242985Y-70038602D01*
X59242276Y-70041598D01*
X59240417Y-70049056D01*
X59222628Y-70120401D01*
X59222437Y-70127222D01*
X59221985Y-70130525D01*
X59221826Y-70131409D01*
X59221148Y-70136292D01*
X59220020Y-70141340D01*
X59219700Y-70147063D01*
X59219700Y-70223444D01*
X59219651Y-70226963D01*
X59217419Y-70306857D01*
X59218698Y-70313561D01*
X59219245Y-70320362D01*
X59218725Y-70320404D01*
X59219700Y-70330725D01*
X59219700Y-74458196D01*
X59234783Y-74597037D01*
X59236960Y-74603505D01*
X59263119Y-74681236D01*
X59269700Y-74721425D01*
X59269700Y-74760859D01*
X59249698Y-74828980D01*
X59196042Y-74875473D01*
X59125768Y-74885577D01*
X59077584Y-74868119D01*
X58955537Y-74792888D01*
X58942359Y-74786744D01*
X58790834Y-74736485D01*
X58777468Y-74733619D01*
X58684830Y-74724128D01*
X58678415Y-74723800D01*
X58666715Y-74723800D01*
X58651476Y-74728275D01*
X58650271Y-74729665D01*
X58648600Y-74737348D01*
X58648600Y-75897300D01*
X58628598Y-75965421D01*
X58574942Y-76011914D01*
X58522600Y-76023300D01*
X57429715Y-76023300D01*
X57414476Y-76027775D01*
X57413271Y-76029165D01*
X57411600Y-76036848D01*
X57411600Y-76115566D01*
X57411937Y-76122082D01*
X57421675Y-76215932D01*
X57424568Y-76229328D01*
X57475088Y-76380753D01*
X57481253Y-76393915D01*
X57568879Y-76535518D01*
X57566610Y-76536922D01*
X57588588Y-76591223D01*
X57575416Y-76660987D01*
X57526618Y-76712556D01*
X57457687Y-76729555D01*
X57445273Y-76728393D01*
X57428966Y-76726048D01*
X57428957Y-76726048D01*
X57422275Y-76725087D01*
X57419840Y-76725261D01*
X57414977Y-76724826D01*
X57358046Y-76716640D01*
X57358031Y-76716639D01*
X57353587Y-76716000D01*
X55577800Y-76716000D01*
X55469820Y-76727609D01*
X55466536Y-76728323D01*
X55466532Y-76728324D01*
X55448255Y-76732300D01*
X55417478Y-76738995D01*
X55314428Y-76773293D01*
X55192790Y-76851465D01*
X55139134Y-76897958D01*
X55044445Y-77007234D01*
X54984379Y-77138760D01*
X54983111Y-77143079D01*
X54967649Y-77195739D01*
X54964377Y-77206881D01*
X54963737Y-77211329D01*
X54963736Y-77211336D01*
X54944439Y-77345552D01*
X54944438Y-77345559D01*
X54943800Y-77350000D01*
X54943800Y-79052600D01*
X54923798Y-79120721D01*
X54870142Y-79167214D01*
X54817800Y-79178600D01*
X53980315Y-79178600D01*
X53965076Y-79183075D01*
X53963871Y-79184465D01*
X53962200Y-79192148D01*
X53962200Y-81776484D01*
X53966675Y-81791723D01*
X53968065Y-81792928D01*
X53975748Y-81794599D01*
X54817800Y-81794599D01*
X54885921Y-81814601D01*
X54932414Y-81868257D01*
X54943800Y-81920599D01*
X54943800Y-93987737D01*
X54955522Y-94096238D01*
X54967018Y-94148820D01*
X55001648Y-94252322D01*
X55080076Y-94373796D01*
X55126682Y-94427354D01*
X55130087Y-94430292D01*
X55130090Y-94430295D01*
X55208764Y-94498178D01*
X55236146Y-94521804D01*
X55278522Y-94541050D01*
X55312079Y-94556291D01*
X55365831Y-94602672D01*
X55385975Y-94670751D01*
X55381154Y-94705532D01*
X55356384Y-94792488D01*
X55336756Y-94861394D01*
X55296249Y-95146016D01*
X55296227Y-95150305D01*
X55296226Y-95150312D01*
X55295463Y-95296014D01*
X55294743Y-95433503D01*
X55332268Y-95718534D01*
X55333401Y-95722674D01*
X55333401Y-95722676D01*
X55345712Y-95767676D01*
X55408129Y-95995836D01*
X55520923Y-96260276D01*
X55668561Y-96506961D01*
X55848313Y-96731328D01*
X56056851Y-96929223D01*
X56290317Y-97096986D01*
X56294112Y-97098995D01*
X56294113Y-97098996D01*
X56315869Y-97110515D01*
X56544392Y-97231512D01*
X56568699Y-97240407D01*
X56776316Y-97316384D01*
X56814373Y-97330311D01*
X57095264Y-97391555D01*
X57123841Y-97393804D01*
X57318282Y-97409107D01*
X57318291Y-97409107D01*
X57320739Y-97409300D01*
X57476271Y-97409300D01*
X57478407Y-97409154D01*
X57478418Y-97409154D01*
X57686548Y-97394965D01*
X57686554Y-97394964D01*
X57690825Y-97394673D01*
X57695020Y-97393804D01*
X57695022Y-97393804D01*
X57831584Y-97365523D01*
X57972342Y-97336374D01*
X58243343Y-97240407D01*
X58436108Y-97140914D01*
X58495005Y-97110515D01*
X58495006Y-97110515D01*
X58498812Y-97108550D01*
X58502313Y-97106089D01*
X58502317Y-97106087D01*
X58616418Y-97025895D01*
X58734023Y-96943241D01*
X58828010Y-96855903D01*
X113130543Y-96855903D01*
X113131102Y-96860147D01*
X113131102Y-96860151D01*
X113147610Y-96985540D01*
X113168068Y-97140934D01*
X113243929Y-97418236D01*
X113245613Y-97422184D01*
X113325679Y-97609894D01*
X113356723Y-97682676D01*
X113504361Y-97929361D01*
X113684113Y-98153728D01*
X113892651Y-98351623D01*
X114126117Y-98519386D01*
X114129912Y-98521395D01*
X114129913Y-98521396D01*
X114151669Y-98532915D01*
X114380192Y-98653912D01*
X114650173Y-98752711D01*
X114931064Y-98813955D01*
X114959641Y-98816204D01*
X115154082Y-98831507D01*
X115154091Y-98831507D01*
X115156539Y-98831700D01*
X115312071Y-98831700D01*
X115314207Y-98831554D01*
X115314218Y-98831554D01*
X115522348Y-98817365D01*
X115522354Y-98817364D01*
X115526625Y-98817073D01*
X115530820Y-98816204D01*
X115530822Y-98816204D01*
X115667383Y-98787924D01*
X115808142Y-98758774D01*
X116079143Y-98662807D01*
X116334612Y-98530950D01*
X116338113Y-98528489D01*
X116338117Y-98528487D01*
X116452217Y-98448296D01*
X116569823Y-98365641D01*
X116780422Y-98169940D01*
X116962513Y-97947468D01*
X117112727Y-97702342D01*
X117228283Y-97439098D01*
X117307044Y-97162606D01*
X117347551Y-96877984D01*
X117347645Y-96860151D01*
X117349035Y-96594783D01*
X117349035Y-96594776D01*
X117349057Y-96590497D01*
X117311532Y-96305466D01*
X117304550Y-96279942D01*
X117236803Y-96032303D01*
X117235671Y-96028164D01*
X117122877Y-95763724D01*
X116975239Y-95517039D01*
X116795487Y-95292672D01*
X116586949Y-95094777D01*
X116353483Y-94927014D01*
X116331643Y-94915450D01*
X116262657Y-94878924D01*
X116099408Y-94792488D01*
X115861790Y-94705532D01*
X115833458Y-94695164D01*
X115833456Y-94695163D01*
X115829427Y-94693689D01*
X115548536Y-94632445D01*
X115517485Y-94630001D01*
X115325518Y-94614893D01*
X115325509Y-94614893D01*
X115323061Y-94614700D01*
X115167529Y-94614700D01*
X115165393Y-94614846D01*
X115165382Y-94614846D01*
X114957252Y-94629035D01*
X114957246Y-94629036D01*
X114952975Y-94629327D01*
X114948780Y-94630196D01*
X114948778Y-94630196D01*
X114812216Y-94658477D01*
X114671458Y-94687626D01*
X114400457Y-94783593D01*
X114144988Y-94915450D01*
X114141487Y-94917911D01*
X114141483Y-94917913D01*
X114131394Y-94925004D01*
X113909777Y-95080759D01*
X113699178Y-95276460D01*
X113517087Y-95498932D01*
X113514848Y-95502586D01*
X113369234Y-95740206D01*
X113366873Y-95744058D01*
X113251317Y-96007302D01*
X113172556Y-96283794D01*
X113132049Y-96568416D01*
X113132027Y-96572705D01*
X113132026Y-96572712D01*
X113131095Y-96750461D01*
X113130543Y-96855903D01*
X58828010Y-96855903D01*
X58944622Y-96747540D01*
X59126713Y-96525068D01*
X59271964Y-96288041D01*
X59274686Y-96283599D01*
X59276927Y-96279942D01*
X59392483Y-96016698D01*
X59471244Y-95740206D01*
X59511751Y-95455584D01*
X59511845Y-95437751D01*
X59513235Y-95172383D01*
X59513235Y-95172376D01*
X59513257Y-95168097D01*
X59501435Y-95078296D01*
X59481253Y-94925004D01*
X59475732Y-94883066D01*
X59448520Y-94783593D01*
X59445530Y-94772665D01*
X59446848Y-94701680D01*
X59486334Y-94642677D01*
X59551451Y-94614388D01*
X59566795Y-94613417D01*
X85627822Y-94559060D01*
X88884148Y-94552268D01*
X88884149Y-94552268D01*
X88887481Y-94552261D01*
X88994231Y-94540690D01*
X88997486Y-94539983D01*
X88997493Y-94539982D01*
X89042729Y-94530158D01*
X89042735Y-94530156D01*
X89045983Y-94529451D01*
X89147887Y-94495715D01*
X89154491Y-94491497D01*
X89154494Y-94491496D01*
X89265949Y-94420316D01*
X89265953Y-94420313D01*
X89269747Y-94417890D01*
X89323535Y-94371550D01*
X89418542Y-94262532D01*
X89422306Y-94254351D01*
X89422308Y-94254348D01*
X89469380Y-94152037D01*
X89478978Y-94131177D01*
X89499172Y-94063113D01*
X89499826Y-94058654D01*
X89519500Y-93924514D01*
X89519501Y-93924507D01*
X89520153Y-93920058D01*
X89520175Y-93912500D01*
X89521621Y-93402134D01*
X107528300Y-93402134D01*
X107535055Y-93464316D01*
X107586185Y-93600705D01*
X107673539Y-93717261D01*
X107790095Y-93804615D01*
X107926484Y-93855745D01*
X107988666Y-93862500D01*
X108303407Y-93862500D01*
X108341505Y-93868398D01*
X108426106Y-93895235D01*
X108580027Y-93912500D01*
X110218112Y-93912500D01*
X110257778Y-93918907D01*
X110356939Y-93951797D01*
X110363775Y-93952497D01*
X110363778Y-93952498D01*
X110406831Y-93956909D01*
X110461400Y-93962500D01*
X111812200Y-93962500D01*
X111815446Y-93962163D01*
X111815450Y-93962163D01*
X111911108Y-93952238D01*
X111911112Y-93952237D01*
X111917966Y-93951526D01*
X111924502Y-93949345D01*
X111924504Y-93949345D01*
X112078798Y-93897868D01*
X112085746Y-93895550D01*
X112236148Y-93802478D01*
X112361105Y-93677303D01*
X112364946Y-93671072D01*
X112450075Y-93532968D01*
X112450076Y-93532966D01*
X112453915Y-93526738D01*
X112495244Y-93402134D01*
X112507432Y-93365389D01*
X112507432Y-93365387D01*
X112509597Y-93358861D01*
X112520300Y-93254400D01*
X112520300Y-92353600D01*
X112519271Y-92343684D01*
X112510038Y-92254692D01*
X112510037Y-92254688D01*
X112509326Y-92247834D01*
X112453350Y-92080054D01*
X112360278Y-91929652D01*
X112235103Y-91804695D01*
X112228872Y-91800854D01*
X112090768Y-91715725D01*
X112090766Y-91715724D01*
X112084538Y-91711885D01*
X111924054Y-91658655D01*
X111923189Y-91658368D01*
X111923187Y-91658368D01*
X111916661Y-91656203D01*
X111909825Y-91655503D01*
X111909822Y-91655502D01*
X111866769Y-91651091D01*
X111812200Y-91645500D01*
X110461400Y-91645500D01*
X110458154Y-91645837D01*
X110458150Y-91645837D01*
X110362492Y-91655762D01*
X110362488Y-91655763D01*
X110355634Y-91656474D01*
X110349098Y-91658655D01*
X110349096Y-91658655D01*
X110216994Y-91702728D01*
X110187854Y-91712450D01*
X110037452Y-91805522D01*
X110032279Y-91810704D01*
X109984548Y-91858518D01*
X109922265Y-91892597D01*
X109895375Y-91895500D01*
X108587031Y-91895500D01*
X108583975Y-91895800D01*
X108583968Y-91895800D01*
X108525460Y-91901537D01*
X108439967Y-91909920D01*
X108434066Y-91911702D01*
X108434064Y-91911702D01*
X108339934Y-91940122D01*
X108303516Y-91945500D01*
X107988666Y-91945500D01*
X107926484Y-91952255D01*
X107790095Y-92003385D01*
X107673539Y-92090739D01*
X107586185Y-92207295D01*
X107535055Y-92343684D01*
X107528300Y-92405866D01*
X107528300Y-93402134D01*
X89521621Y-93402134D01*
X89529553Y-90602134D01*
X92703300Y-90602134D01*
X92710055Y-90664316D01*
X92761185Y-90800705D01*
X92848539Y-90917261D01*
X92965095Y-91004615D01*
X93101484Y-91055745D01*
X93163666Y-91062500D01*
X95259934Y-91062500D01*
X95322116Y-91055745D01*
X95458505Y-91004615D01*
X95575061Y-90917261D01*
X95662415Y-90800705D01*
X95713545Y-90664316D01*
X95720300Y-90602134D01*
X95720300Y-88505866D01*
X95713545Y-88443684D01*
X95662415Y-88307295D01*
X95575061Y-88190739D01*
X95458505Y-88103385D01*
X95322116Y-88052255D01*
X95259934Y-88045500D01*
X93163666Y-88045500D01*
X93101484Y-88052255D01*
X92965095Y-88103385D01*
X92848539Y-88190739D01*
X92761185Y-88307295D01*
X92710055Y-88443684D01*
X92703300Y-88505866D01*
X92703300Y-90602134D01*
X89529553Y-90602134D01*
X89546155Y-84741431D01*
X92725153Y-84741431D01*
X92772018Y-84936634D01*
X92775064Y-84946008D01*
X92862113Y-85156163D01*
X92866595Y-85164958D01*
X92985443Y-85358899D01*
X92991243Y-85366883D01*
X93138978Y-85539858D01*
X93145942Y-85546822D01*
X93318917Y-85694557D01*
X93326901Y-85700357D01*
X93520842Y-85819205D01*
X93529637Y-85823687D01*
X93739792Y-85910736D01*
X93749166Y-85913782D01*
X93940185Y-85959642D01*
X93954269Y-85958937D01*
X93957800Y-85950056D01*
X93957800Y-85945756D01*
X94465800Y-85945756D01*
X94469773Y-85959287D01*
X94479231Y-85960647D01*
X94674434Y-85913782D01*
X94683808Y-85910736D01*
X94893963Y-85823687D01*
X94902758Y-85819205D01*
X95096699Y-85700357D01*
X95104683Y-85694557D01*
X95277658Y-85546822D01*
X95284622Y-85539858D01*
X95432357Y-85366883D01*
X95438157Y-85358899D01*
X95557005Y-85164958D01*
X95561487Y-85156163D01*
X95648536Y-84946008D01*
X95651582Y-84936634D01*
X95697442Y-84745615D01*
X95696737Y-84731531D01*
X95687856Y-84728000D01*
X94483915Y-84728000D01*
X94468676Y-84732475D01*
X94467471Y-84733865D01*
X94465800Y-84741548D01*
X94465800Y-85945756D01*
X93957800Y-85945756D01*
X93957800Y-84746115D01*
X93953325Y-84730876D01*
X93951935Y-84729671D01*
X93944252Y-84728000D01*
X92740044Y-84728000D01*
X92726513Y-84731973D01*
X92725153Y-84741431D01*
X89546155Y-84741431D01*
X89547682Y-84202385D01*
X92726158Y-84202385D01*
X92726863Y-84216469D01*
X92735744Y-84220000D01*
X93939685Y-84220000D01*
X93954924Y-84215525D01*
X93956129Y-84214135D01*
X93957800Y-84206452D01*
X93957800Y-84201885D01*
X94465800Y-84201885D01*
X94470275Y-84217124D01*
X94471665Y-84218329D01*
X94479348Y-84220000D01*
X95683556Y-84220000D01*
X95697087Y-84216027D01*
X95698447Y-84206569D01*
X95697389Y-84202163D01*
X103829153Y-84202163D01*
X103830613Y-84215460D01*
X103845170Y-84220000D01*
X105039685Y-84220000D01*
X105054924Y-84215525D01*
X105056129Y-84214135D01*
X105057800Y-84206452D01*
X105057800Y-84201885D01*
X105565800Y-84201885D01*
X105570275Y-84217124D01*
X105571665Y-84218329D01*
X105579348Y-84220000D01*
X106779896Y-84220000D01*
X106793240Y-84216082D01*
X106795227Y-84201806D01*
X106785690Y-84139485D01*
X106783301Y-84129457D01*
X106711902Y-83911012D01*
X106707905Y-83901503D01*
X106601789Y-83697656D01*
X106596295Y-83688931D01*
X106458307Y-83505148D01*
X106451464Y-83497441D01*
X106285309Y-83338661D01*
X106277299Y-83332174D01*
X106087453Y-83202670D01*
X106078479Y-83197571D01*
X105870031Y-83100813D01*
X105860344Y-83097250D01*
X105638892Y-83035835D01*
X105628770Y-83033904D01*
X105583813Y-83029099D01*
X105569192Y-83031747D01*
X105565800Y-83044124D01*
X105565800Y-84201885D01*
X105057800Y-84201885D01*
X105057800Y-83043588D01*
X105053475Y-83028859D01*
X105041689Y-83026798D01*
X105030096Y-83027751D01*
X105019934Y-83029433D01*
X104797029Y-83085422D01*
X104787281Y-83088741D01*
X104576511Y-83180385D01*
X104567436Y-83185251D01*
X104374473Y-83310085D01*
X104366302Y-83316378D01*
X104196320Y-83471050D01*
X104189294Y-83478583D01*
X104046855Y-83658944D01*
X104041150Y-83667531D01*
X103930086Y-83868722D01*
X103925856Y-83878134D01*
X103849141Y-84094768D01*
X103846507Y-84104739D01*
X103829153Y-84202163D01*
X95697389Y-84202163D01*
X95651582Y-84011366D01*
X95648536Y-84001992D01*
X95561487Y-83791837D01*
X95557005Y-83783042D01*
X95438157Y-83589101D01*
X95432357Y-83581117D01*
X95284622Y-83408142D01*
X95277658Y-83401178D01*
X95104683Y-83253443D01*
X95096699Y-83247643D01*
X94902758Y-83128795D01*
X94893963Y-83124313D01*
X94683808Y-83037264D01*
X94674434Y-83034218D01*
X94483415Y-82988358D01*
X94469331Y-82989063D01*
X94465800Y-82997944D01*
X94465800Y-84201885D01*
X93957800Y-84201885D01*
X93957800Y-83002244D01*
X93953827Y-82988713D01*
X93944369Y-82987353D01*
X93749166Y-83034218D01*
X93739792Y-83037264D01*
X93529637Y-83124313D01*
X93520842Y-83128795D01*
X93326901Y-83247643D01*
X93318917Y-83253443D01*
X93145942Y-83401178D01*
X93138978Y-83408142D01*
X92991243Y-83581117D01*
X92985443Y-83589101D01*
X92866595Y-83783042D01*
X92862113Y-83791837D01*
X92775064Y-84001992D01*
X92772018Y-84011366D01*
X92726158Y-84202385D01*
X89547682Y-84202385D01*
X89573977Y-74920256D01*
X89574355Y-74786744D01*
X89578008Y-73497037D01*
X89598202Y-73428974D01*
X89651990Y-73382634D01*
X89703886Y-73371395D01*
X96353399Y-73365019D01*
X99428685Y-73362071D01*
X99500748Y-73356864D01*
X99502982Y-73356542D01*
X99502988Y-73356541D01*
X99533895Y-73352081D01*
X99533893Y-73352081D01*
X99536127Y-73351759D01*
X99538316Y-73351282D01*
X99538328Y-73351280D01*
X99597056Y-73338487D01*
X99623873Y-73335600D01*
X106595412Y-73335600D01*
X106663533Y-73355602D01*
X106710026Y-73409258D01*
X106721398Y-73463452D01*
X106710133Y-74229770D01*
X106710133Y-74229773D01*
X106709503Y-74272566D01*
X106709187Y-74279818D01*
X106708283Y-74292293D01*
X106708283Y-74292298D01*
X106699171Y-74417972D01*
X106692340Y-74512179D01*
X106691427Y-74528336D01*
X106691102Y-74536351D01*
X106690704Y-74552557D01*
X106690481Y-74578438D01*
X106688416Y-74817831D01*
X106688444Y-74818113D01*
X106671733Y-74886488D01*
X106620266Y-74935392D01*
X106562722Y-74949300D01*
X105769693Y-74949300D01*
X105730756Y-74943133D01*
X105726319Y-74941691D01*
X105720288Y-74939006D01*
X105713836Y-74937634D01*
X105713831Y-74937633D01*
X105539944Y-74900672D01*
X105539939Y-74900672D01*
X105533487Y-74899300D01*
X105342513Y-74899300D01*
X105336061Y-74900672D01*
X105336056Y-74900672D01*
X105162169Y-74937633D01*
X105162164Y-74937634D01*
X105155712Y-74939006D01*
X105149681Y-74941691D01*
X105145244Y-74943133D01*
X105106307Y-74949300D01*
X104776790Y-74949300D01*
X104766247Y-74948858D01*
X104714301Y-74944496D01*
X104707541Y-74945398D01*
X104707539Y-74945398D01*
X104633798Y-74955237D01*
X104630743Y-74955607D01*
X104598511Y-74959109D01*
X104549963Y-74964383D01*
X104543499Y-74966558D01*
X104540224Y-74967278D01*
X104539828Y-74967348D01*
X104539404Y-74967471D01*
X104536184Y-74968262D01*
X104529411Y-74969166D01*
X104453077Y-74996949D01*
X104450202Y-74997956D01*
X104431627Y-75004207D01*
X104373177Y-75023878D01*
X104367323Y-75027396D01*
X104364316Y-75028785D01*
X104363911Y-75028952D01*
X104363535Y-75029157D01*
X104360548Y-75030627D01*
X104354132Y-75032962D01*
X104285480Y-75076530D01*
X104283011Y-75078055D01*
X104213291Y-75119947D01*
X104208334Y-75124634D01*
X104205677Y-75126651D01*
X104204931Y-75127169D01*
X104200998Y-75130144D01*
X104196641Y-75132909D01*
X104192368Y-75136730D01*
X104138388Y-75190710D01*
X104135866Y-75193164D01*
X104077764Y-75248108D01*
X104073926Y-75253756D01*
X104069507Y-75258948D01*
X104069108Y-75258608D01*
X104062500Y-75266598D01*
X103693112Y-75635985D01*
X103685345Y-75643127D01*
X103645533Y-75676771D01*
X103641386Y-75682195D01*
X103641385Y-75682196D01*
X103596226Y-75741262D01*
X103594332Y-75743679D01*
X103543390Y-75807038D01*
X103540353Y-75813157D01*
X103538565Y-75815952D01*
X103538312Y-75816313D01*
X103538110Y-75816680D01*
X103536379Y-75819538D01*
X103532240Y-75824952D01*
X103501736Y-75890367D01*
X103497915Y-75898562D01*
X103496581Y-75901333D01*
X103460453Y-75974114D01*
X103458802Y-75980735D01*
X103457651Y-75983863D01*
X103457487Y-75984256D01*
X103457368Y-75984661D01*
X103456291Y-75987825D01*
X103453410Y-75994004D01*
X103438971Y-76058602D01*
X103435685Y-76073302D01*
X103434976Y-76076298D01*
X103415328Y-76155101D01*
X103415137Y-76161922D01*
X103414685Y-76165225D01*
X103414526Y-76166109D01*
X103413848Y-76170992D01*
X103412720Y-76176040D01*
X103412400Y-76181763D01*
X103412400Y-76258144D01*
X103412351Y-76261663D01*
X103410119Y-76341557D01*
X103411398Y-76348261D01*
X103411945Y-76355062D01*
X103411425Y-76355104D01*
X103412400Y-76365425D01*
X103412400Y-76746728D01*
X103392398Y-76814849D01*
X103375574Y-76835745D01*
X103359882Y-76851465D01*
X103334095Y-76877297D01*
X103330255Y-76883527D01*
X103330254Y-76883528D01*
X103258199Y-77000423D01*
X103241285Y-77027862D01*
X103185603Y-77195739D01*
X103174900Y-77300200D01*
X103174900Y-78351000D01*
X103175237Y-78354246D01*
X103175237Y-78354250D01*
X103182074Y-78420138D01*
X103185874Y-78456766D01*
X103241850Y-78624546D01*
X103334922Y-78774948D01*
X103460097Y-78899905D01*
X103466327Y-78903745D01*
X103466328Y-78903746D01*
X103603490Y-78988294D01*
X103610662Y-78992715D01*
X103617865Y-78995104D01*
X103772011Y-79046232D01*
X103772013Y-79046232D01*
X103778539Y-79048397D01*
X103785375Y-79049097D01*
X103785378Y-79049098D01*
X103819560Y-79052600D01*
X103883000Y-79059100D01*
X104658800Y-79059100D01*
X104662046Y-79058763D01*
X104662050Y-79058763D01*
X104757708Y-79048838D01*
X104757712Y-79048837D01*
X104764566Y-79048126D01*
X104771102Y-79045945D01*
X104771104Y-79045945D01*
X104923492Y-78995104D01*
X104932346Y-78992150D01*
X105082748Y-78899078D01*
X105207705Y-78773903D01*
X105210306Y-78769684D01*
X105267430Y-78729183D01*
X105338353Y-78725951D01*
X105399765Y-78761576D01*
X105406322Y-78769130D01*
X105409922Y-78774948D01*
X105535097Y-78899905D01*
X105541327Y-78903745D01*
X105541328Y-78903746D01*
X105678490Y-78988294D01*
X105685662Y-78992715D01*
X105692865Y-78995104D01*
X105847011Y-79046232D01*
X105847013Y-79046232D01*
X105853539Y-79048397D01*
X105860375Y-79049097D01*
X105860378Y-79049098D01*
X105894560Y-79052600D01*
X105958000Y-79059100D01*
X106733800Y-79059100D01*
X106737046Y-79058763D01*
X106737050Y-79058763D01*
X106832708Y-79048838D01*
X106832712Y-79048837D01*
X106839566Y-79048126D01*
X106846102Y-79045945D01*
X106846104Y-79045945D01*
X106998492Y-78995104D01*
X107007346Y-78992150D01*
X107157748Y-78899078D01*
X107282705Y-78773903D01*
X107301149Y-78743982D01*
X107353922Y-78696490D01*
X107408408Y-78684100D01*
X108654553Y-78684100D01*
X108722674Y-78704102D01*
X108769167Y-78757758D01*
X108779271Y-78828032D01*
X108768747Y-78863351D01*
X108751814Y-78899663D01*
X108750481Y-78902433D01*
X108714353Y-78975214D01*
X108712702Y-78981835D01*
X108711551Y-78984963D01*
X108711387Y-78985356D01*
X108711268Y-78985761D01*
X108710191Y-78988925D01*
X108707310Y-78995104D01*
X108705823Y-79001758D01*
X108689585Y-79074402D01*
X108688876Y-79077398D01*
X108676016Y-79128978D01*
X108669228Y-79156201D01*
X108669037Y-79163022D01*
X108668585Y-79166325D01*
X108668427Y-79167205D01*
X108667749Y-79172087D01*
X108667357Y-79173843D01*
X108667148Y-79174307D01*
X108666710Y-79176739D01*
X108666614Y-79177168D01*
X108665928Y-79177014D01*
X108638401Y-79238093D01*
X108578866Y-79276773D01*
X108520129Y-79280005D01*
X108514814Y-79279034D01*
X108508631Y-79277238D01*
X108493522Y-79276049D01*
X108473758Y-79274493D01*
X108473750Y-79274493D01*
X108471302Y-79274300D01*
X108038298Y-79274300D01*
X108035850Y-79274493D01*
X108035842Y-79274493D01*
X108007379Y-79276733D01*
X108007374Y-79276734D01*
X108000969Y-79277238D01*
X107901031Y-79306272D01*
X107848812Y-79321443D01*
X107848810Y-79321444D01*
X107841199Y-79323655D01*
X107834372Y-79327692D01*
X107834373Y-79327692D01*
X107704820Y-79404309D01*
X107704817Y-79404311D01*
X107697993Y-79408347D01*
X107580347Y-79525993D01*
X107576311Y-79532817D01*
X107576309Y-79532820D01*
X107549139Y-79578762D01*
X107495655Y-79669199D01*
X107449238Y-79828969D01*
X107446300Y-79866298D01*
X107446300Y-80434524D01*
X107439704Y-80474369D01*
X107437310Y-80479504D01*
X107396620Y-80661540D01*
X107396300Y-80667263D01*
X107396300Y-82100305D01*
X107376298Y-82168426D01*
X107369183Y-82178396D01*
X107367666Y-82180317D01*
X107362495Y-82185497D01*
X107269685Y-82336062D01*
X107214003Y-82503939D01*
X107203300Y-82608400D01*
X107203300Y-83609200D01*
X107203637Y-83612446D01*
X107203637Y-83612450D01*
X107211573Y-83688931D01*
X107214274Y-83714966D01*
X107270250Y-83882746D01*
X107363322Y-84033148D01*
X107488497Y-84158105D01*
X107494727Y-84161945D01*
X107494728Y-84161946D01*
X107632088Y-84246616D01*
X107639062Y-84250915D01*
X107718805Y-84277364D01*
X107800411Y-84304432D01*
X107800413Y-84304432D01*
X107806939Y-84306597D01*
X107813775Y-84307297D01*
X107813778Y-84307298D01*
X107856831Y-84311709D01*
X107911400Y-84317300D01*
X108712200Y-84317300D01*
X108715446Y-84316963D01*
X108715450Y-84316963D01*
X108811108Y-84307038D01*
X108811112Y-84307037D01*
X108817966Y-84306326D01*
X108824502Y-84304145D01*
X108824504Y-84304145D01*
X108956606Y-84260072D01*
X108985746Y-84250350D01*
X109136148Y-84157278D01*
X109222937Y-84070337D01*
X109285221Y-84036258D01*
X109356041Y-84041261D01*
X109401129Y-84070182D01*
X109483629Y-84152539D01*
X109495040Y-84161551D01*
X109633043Y-84246616D01*
X109646224Y-84252763D01*
X109800510Y-84303938D01*
X109813886Y-84306805D01*
X109908238Y-84316472D01*
X109914654Y-84316800D01*
X110039685Y-84316800D01*
X110054924Y-84312325D01*
X110056129Y-84310935D01*
X110057800Y-84303252D01*
X110057800Y-82980800D01*
X110077802Y-82912679D01*
X110131458Y-82866186D01*
X110183800Y-82854800D01*
X110439800Y-82854800D01*
X110507921Y-82874802D01*
X110554414Y-82928458D01*
X110565800Y-82980800D01*
X110565800Y-84298684D01*
X110570275Y-84313923D01*
X110571665Y-84315128D01*
X110579348Y-84316799D01*
X110708895Y-84316799D01*
X110715414Y-84316462D01*
X110811006Y-84306543D01*
X110824400Y-84303651D01*
X110978584Y-84252212D01*
X110991758Y-84246041D01*
X111013996Y-84232279D01*
X111082448Y-84213441D01*
X111150218Y-84234602D01*
X111195789Y-84289042D01*
X111206300Y-84339423D01*
X111206300Y-85944500D01*
X111186298Y-86012621D01*
X111132642Y-86059114D01*
X111080300Y-86070500D01*
X111036400Y-86070500D01*
X111033154Y-86070837D01*
X111033150Y-86070837D01*
X110937492Y-86080762D01*
X110937488Y-86080763D01*
X110930634Y-86081474D01*
X110924098Y-86083655D01*
X110924096Y-86083655D01*
X110791994Y-86127728D01*
X110762854Y-86137450D01*
X110612452Y-86230522D01*
X110487495Y-86355697D01*
X110483655Y-86361927D01*
X110483654Y-86361928D01*
X110454931Y-86408526D01*
X110394685Y-86506262D01*
X110339003Y-86674139D01*
X110328300Y-86778600D01*
X110328300Y-88129400D01*
X110328637Y-88132646D01*
X110328637Y-88132650D01*
X110329756Y-88143428D01*
X110339274Y-88235166D01*
X110341455Y-88241702D01*
X110341455Y-88241704D01*
X110395250Y-88402946D01*
X110394014Y-88403359D01*
X110403644Y-88466013D01*
X110374780Y-88530877D01*
X110318635Y-88568817D01*
X110194807Y-88610130D01*
X110194805Y-88610131D01*
X110187854Y-88612450D01*
X110037452Y-88705522D01*
X109912495Y-88830697D01*
X109908655Y-88836927D01*
X109908654Y-88836928D01*
X109882114Y-88879984D01*
X109829342Y-88927477D01*
X109759270Y-88938901D01*
X109694146Y-88910627D01*
X109674032Y-88889439D01*
X109670473Y-88884689D01*
X109645626Y-88818186D01*
X109645300Y-88809126D01*
X109645300Y-87765840D01*
X109646037Y-87752232D01*
X109649459Y-87720736D01*
X109649459Y-87720732D01*
X109650124Y-87714611D01*
X109645750Y-87664609D01*
X109645421Y-87659784D01*
X109645300Y-87657313D01*
X109645300Y-87654231D01*
X109641109Y-87611489D01*
X109640987Y-87610174D01*
X109633423Y-87523719D01*
X109632887Y-87517587D01*
X109631400Y-87512468D01*
X109630880Y-87507167D01*
X109604018Y-87418194D01*
X109603662Y-87416994D01*
X109600756Y-87406992D01*
X109577709Y-87327663D01*
X109575255Y-87322929D01*
X109573716Y-87317831D01*
X109570825Y-87312394D01*
X109570823Y-87312389D01*
X109560048Y-87292125D01*
X109545300Y-87232972D01*
X109545300Y-86778600D01*
X109534326Y-86672834D01*
X109521584Y-86634640D01*
X109480668Y-86512002D01*
X109478350Y-86505054D01*
X109385278Y-86354652D01*
X109260103Y-86229695D01*
X109253872Y-86225854D01*
X109115768Y-86140725D01*
X109115766Y-86140724D01*
X109109538Y-86136885D01*
X108949054Y-86083655D01*
X108948189Y-86083368D01*
X108948187Y-86083368D01*
X108941661Y-86081203D01*
X108934825Y-86080503D01*
X108934822Y-86080502D01*
X108891769Y-86076091D01*
X108837200Y-86070500D01*
X107936400Y-86070500D01*
X107933154Y-86070837D01*
X107933150Y-86070837D01*
X107837492Y-86080762D01*
X107837488Y-86080763D01*
X107830634Y-86081474D01*
X107824098Y-86083655D01*
X107824096Y-86083655D01*
X107691994Y-86127728D01*
X107662854Y-86137450D01*
X107512452Y-86230522D01*
X107387495Y-86355697D01*
X107383655Y-86361927D01*
X107383654Y-86361928D01*
X107354931Y-86408526D01*
X107294685Y-86506262D01*
X107239003Y-86674139D01*
X107228300Y-86778600D01*
X107228300Y-88129400D01*
X107228637Y-88132646D01*
X107228637Y-88132650D01*
X107229756Y-88143428D01*
X107239274Y-88235166D01*
X107241455Y-88241702D01*
X107241455Y-88241704D01*
X107287469Y-88379624D01*
X107290053Y-88450573D01*
X107253870Y-88511657D01*
X107190405Y-88543482D01*
X107167945Y-88545500D01*
X106921235Y-88545500D01*
X106853114Y-88525498D01*
X106806621Y-88471842D01*
X106803253Y-88463730D01*
X106765567Y-88363203D01*
X106762415Y-88354795D01*
X106675061Y-88238239D01*
X106558505Y-88150885D01*
X106538611Y-88143427D01*
X106481847Y-88100787D01*
X106457146Y-88034226D01*
X106472353Y-87964877D01*
X106483958Y-87947353D01*
X106577167Y-87829330D01*
X106577170Y-87829325D01*
X106580368Y-87825276D01*
X106594685Y-87799342D01*
X106693977Y-87619474D01*
X106693979Y-87619470D01*
X106696474Y-87614950D01*
X106730523Y-87518801D01*
X106774944Y-87393360D01*
X106774945Y-87393356D01*
X106776670Y-87388485D01*
X106781983Y-87358659D01*
X106817895Y-87157052D01*
X106817896Y-87157046D01*
X106818801Y-87151963D01*
X106820741Y-86993199D01*
X106821673Y-86916907D01*
X106821673Y-86916905D01*
X106821736Y-86911737D01*
X106785396Y-86674256D01*
X106730093Y-86505054D01*
X106712366Y-86450817D01*
X106712363Y-86450811D01*
X106710758Y-86445899D01*
X106599825Y-86232800D01*
X106486003Y-86081203D01*
X106458682Y-86044815D01*
X106458680Y-86044812D01*
X106455577Y-86040680D01*
X106356245Y-85945756D01*
X106285625Y-85878270D01*
X106285624Y-85878269D01*
X106281888Y-85874699D01*
X106244449Y-85849160D01*
X106199448Y-85794249D01*
X106191277Y-85723725D01*
X106222531Y-85659978D01*
X106247010Y-85639284D01*
X106249126Y-85637915D01*
X106257298Y-85631622D01*
X106427280Y-85476950D01*
X106434306Y-85469417D01*
X106576745Y-85289056D01*
X106582450Y-85280469D01*
X106693514Y-85079278D01*
X106697744Y-85069866D01*
X106774459Y-84853232D01*
X106777093Y-84843261D01*
X106794447Y-84745837D01*
X106792987Y-84732540D01*
X106778430Y-84728000D01*
X103843704Y-84728000D01*
X103830360Y-84731918D01*
X103828373Y-84746194D01*
X103837910Y-84808515D01*
X103840299Y-84818543D01*
X103911698Y-85036988D01*
X103915695Y-85046497D01*
X104021811Y-85250344D01*
X104027305Y-85259069D01*
X104165293Y-85442852D01*
X104172136Y-85450559D01*
X104338291Y-85609339D01*
X104346298Y-85615823D01*
X104379156Y-85638237D01*
X104424159Y-85693148D01*
X104432332Y-85763672D01*
X104401078Y-85827420D01*
X104376596Y-85848116D01*
X104374981Y-85849161D01*
X104369823Y-85852498D01*
X104192130Y-86014186D01*
X104137267Y-86083655D01*
X104046433Y-86198670D01*
X104046430Y-86198675D01*
X104043232Y-86202724D01*
X104040739Y-86207240D01*
X104040737Y-86207243D01*
X103929623Y-86408526D01*
X103927126Y-86413050D01*
X103925402Y-86417919D01*
X103925400Y-86417923D01*
X103848656Y-86634640D01*
X103846930Y-86639515D01*
X103846023Y-86644608D01*
X103846022Y-86644611D01*
X103819548Y-86793238D01*
X103804799Y-86876037D01*
X103801864Y-87116263D01*
X103838204Y-87353744D01*
X103854817Y-87404571D01*
X103911234Y-87577183D01*
X103911237Y-87577189D01*
X103912842Y-87582101D01*
X103915229Y-87586687D01*
X103915231Y-87586691D01*
X103981823Y-87714611D01*
X104023775Y-87795200D01*
X104140215Y-87950283D01*
X104165120Y-88016765D01*
X104150128Y-88086161D01*
X104099998Y-88136435D01*
X104083685Y-88143915D01*
X104073507Y-88147731D01*
X104073504Y-88147733D01*
X104065095Y-88150885D01*
X103948539Y-88238239D01*
X103861185Y-88354795D01*
X103810055Y-88491184D01*
X103803300Y-88553366D01*
X103803300Y-90554634D01*
X103810055Y-90616816D01*
X103861185Y-90753205D01*
X103948539Y-90869761D01*
X104065095Y-90957115D01*
X104201484Y-91008245D01*
X104263666Y-91015000D01*
X106359934Y-91015000D01*
X106422116Y-91008245D01*
X106558505Y-90957115D01*
X106675061Y-90869761D01*
X106762415Y-90753205D01*
X106803253Y-90644270D01*
X106845895Y-90587506D01*
X106912456Y-90562806D01*
X106921235Y-90562500D01*
X108303552Y-90562500D01*
X108340811Y-90568135D01*
X108433032Y-90596682D01*
X108434795Y-90596867D01*
X108436498Y-90597388D01*
X108442383Y-90597986D01*
X108442384Y-90597986D01*
X108478443Y-90601649D01*
X108533169Y-90607208D01*
X108533389Y-90607230D01*
X108629725Y-90617355D01*
X108631492Y-90617194D01*
X108633263Y-90617374D01*
X108730152Y-90608216D01*
X108730265Y-90608205D01*
X108826688Y-90599430D01*
X108828388Y-90598930D01*
X108830162Y-90598762D01*
X108837140Y-90596682D01*
X108867920Y-90587506D01*
X108923467Y-90570947D01*
X108933021Y-90568135D01*
X108934751Y-90567626D01*
X108970323Y-90562500D01*
X109284934Y-90562500D01*
X109347116Y-90555745D01*
X109483505Y-90504615D01*
X109600061Y-90417261D01*
X109607172Y-90407773D01*
X109609463Y-90406060D01*
X109611792Y-90403731D01*
X109612128Y-90404067D01*
X109664032Y-90365260D01*
X109734851Y-90360236D01*
X109797143Y-90394297D01*
X109819811Y-90426629D01*
X109820250Y-90427946D01*
X109824099Y-90434166D01*
X109824101Y-90434170D01*
X109864361Y-90499229D01*
X109913322Y-90578348D01*
X110038497Y-90703305D01*
X110044727Y-90707145D01*
X110044728Y-90707146D01*
X110181890Y-90791694D01*
X110189062Y-90796115D01*
X110202901Y-90800705D01*
X110350411Y-90849632D01*
X110350413Y-90849632D01*
X110356939Y-90851797D01*
X110363775Y-90852497D01*
X110363778Y-90852498D01*
X110406831Y-90856909D01*
X110461400Y-90862500D01*
X111812200Y-90862500D01*
X111815446Y-90862163D01*
X111815450Y-90862163D01*
X111911108Y-90852238D01*
X111911112Y-90852237D01*
X111917966Y-90851526D01*
X111924502Y-90849345D01*
X111924504Y-90849345D01*
X112070295Y-90800705D01*
X112085746Y-90795550D01*
X112236148Y-90702478D01*
X112361105Y-90577303D01*
X112364946Y-90571072D01*
X112450075Y-90432968D01*
X112450076Y-90432966D01*
X112453915Y-90426738D01*
X112509597Y-90258861D01*
X112520300Y-90154400D01*
X112520300Y-89253600D01*
X112509326Y-89147834D01*
X112501776Y-89125204D01*
X112495300Y-89085328D01*
X112495300Y-88573100D01*
X112514040Y-88506984D01*
X112575075Y-88407968D01*
X112575076Y-88407966D01*
X112578915Y-88401738D01*
X112612624Y-88300109D01*
X112632432Y-88240389D01*
X112632432Y-88240387D01*
X112634597Y-88233861D01*
X112645300Y-88129400D01*
X112645300Y-87567932D01*
X112665302Y-87499811D01*
X112681153Y-87481734D01*
X112680250Y-87480874D01*
X112684955Y-87475934D01*
X112690167Y-87471529D01*
X112694312Y-87466108D01*
X112739510Y-87406992D01*
X112741409Y-87404571D01*
X112788032Y-87346582D01*
X112788033Y-87346580D01*
X112792309Y-87341262D01*
X112795343Y-87335150D01*
X112797130Y-87332356D01*
X112797382Y-87331996D01*
X112797585Y-87331627D01*
X112799317Y-87328766D01*
X112803460Y-87323348D01*
X112806421Y-87316998D01*
X112837789Y-87249732D01*
X112839123Y-87246959D01*
X112872213Y-87180300D01*
X112872215Y-87180296D01*
X112875247Y-87174187D01*
X112876897Y-87167568D01*
X112878051Y-87164432D01*
X112878213Y-87164043D01*
X112878337Y-87163621D01*
X112879406Y-87160481D01*
X112882290Y-87154296D01*
X112900014Y-87075002D01*
X112900723Y-87072006D01*
X112918721Y-86999821D01*
X112918721Y-86999820D01*
X112920372Y-86993199D01*
X112920563Y-86986378D01*
X112921015Y-86983075D01*
X112921174Y-86982191D01*
X112921852Y-86977308D01*
X112922980Y-86972260D01*
X112923300Y-86966537D01*
X112923300Y-86890156D01*
X112923349Y-86886637D01*
X112925390Y-86813563D01*
X112925581Y-86806743D01*
X112924302Y-86800039D01*
X112923755Y-86793238D01*
X112924275Y-86793196D01*
X112923300Y-86782875D01*
X112923300Y-80711204D01*
X112918720Y-80669040D01*
X112913746Y-80623254D01*
X112926274Y-80553372D01*
X112974595Y-80501356D01*
X113043367Y-80483722D01*
X113110755Y-80506068D01*
X113114636Y-80508941D01*
X113250863Y-80592912D01*
X113264041Y-80599056D01*
X113415566Y-80649315D01*
X113428932Y-80652181D01*
X113521570Y-80661672D01*
X113527985Y-80662000D01*
X113539685Y-80662000D01*
X113554924Y-80657525D01*
X113556129Y-80656135D01*
X113557800Y-80648452D01*
X113557800Y-80643885D01*
X114065800Y-80643885D01*
X114070275Y-80659124D01*
X114071665Y-80660329D01*
X114079348Y-80662000D01*
X114095566Y-80662000D01*
X114102082Y-80661663D01*
X114195932Y-80651925D01*
X114209328Y-80649032D01*
X114360753Y-80598512D01*
X114373915Y-80592347D01*
X114509292Y-80508574D01*
X114520690Y-80499540D01*
X114633163Y-80386871D01*
X114642175Y-80375460D01*
X114725712Y-80239937D01*
X114731856Y-80226759D01*
X114782115Y-80075234D01*
X114784981Y-80061868D01*
X114794472Y-79969230D01*
X114794800Y-79962815D01*
X114794800Y-79888615D01*
X114790325Y-79873376D01*
X114788935Y-79872171D01*
X114781252Y-79870500D01*
X114083915Y-79870500D01*
X114068676Y-79874975D01*
X114067471Y-79876365D01*
X114065800Y-79884048D01*
X114065800Y-80643885D01*
X113557800Y-80643885D01*
X113557800Y-79488500D01*
X113577802Y-79420379D01*
X113631458Y-79373886D01*
X113683800Y-79362500D01*
X114776685Y-79362500D01*
X114791924Y-79358025D01*
X114794841Y-79354658D01*
X114826736Y-79296248D01*
X114889048Y-79262223D01*
X114916015Y-79259344D01*
X116127873Y-79261117D01*
X116605736Y-79261816D01*
X116665389Y-79255572D01*
X116709085Y-79250998D01*
X116709088Y-79250998D01*
X116712408Y-79250650D01*
X116764146Y-79239619D01*
X116866076Y-79206315D01*
X116988247Y-79128978D01*
X117042220Y-79082854D01*
X117137656Y-78974227D01*
X117198621Y-78843116D01*
X117203163Y-78828032D01*
X117217789Y-78779452D01*
X117217789Y-78779451D01*
X117219089Y-78775134D01*
X117240646Y-78632159D01*
X117240707Y-78623338D01*
X117253968Y-76687137D01*
X117274436Y-76619155D01*
X117328409Y-76573031D01*
X117379965Y-76562000D01*
X118114685Y-76562000D01*
X118129924Y-76557525D01*
X118131129Y-76556135D01*
X118132800Y-76548452D01*
X118132800Y-73964116D01*
X118128325Y-73948877D01*
X118126935Y-73947672D01*
X118119252Y-73946001D01*
X117399609Y-73946001D01*
X117331488Y-73925999D01*
X117284995Y-73872343D01*
X117273612Y-73819138D01*
X117306627Y-68999004D01*
X117315475Y-67707137D01*
X117335943Y-67639155D01*
X117389916Y-67593031D01*
X117441472Y-67582000D01*
X119806429Y-67582000D01*
X119854606Y-67576881D01*
X119924458Y-67589574D01*
X119976360Y-67638017D01*
X119993917Y-67702220D01*
X119991679Y-73872343D01*
X119991664Y-73914511D01*
X119971637Y-73982624D01*
X119917965Y-74029098D01*
X119847687Y-74039176D01*
X119799551Y-74021727D01*
X119790558Y-74016184D01*
X119777376Y-74010037D01*
X119623090Y-73958862D01*
X119609714Y-73955995D01*
X119515362Y-73946328D01*
X119508945Y-73946000D01*
X118658915Y-73946000D01*
X118643676Y-73950475D01*
X118642471Y-73951865D01*
X118640800Y-73959548D01*
X118640800Y-76543884D01*
X118645275Y-76559123D01*
X118646665Y-76560328D01*
X118654348Y-76561999D01*
X119508895Y-76561999D01*
X119515414Y-76561662D01*
X119611006Y-76551743D01*
X119624400Y-76548851D01*
X119778584Y-76497412D01*
X119791755Y-76491242D01*
X119798385Y-76487139D01*
X119866837Y-76468300D01*
X119934607Y-76489459D01*
X119980179Y-76543899D01*
X119990691Y-76594328D01*
X119985122Y-91945869D01*
X119982068Y-100367086D01*
X119981846Y-100978083D01*
X119961819Y-101046196D01*
X119908147Y-101092670D01*
X119855883Y-101104037D01*
X51967906Y-101123963D01*
X51899779Y-101103981D01*
X51853271Y-101050339D01*
X51841869Y-100997894D01*
X51843090Y-98754000D01*
X74823326Y-98754000D01*
X74843191Y-99006403D01*
X74902295Y-99252591D01*
X74999184Y-99486502D01*
X75131472Y-99702376D01*
X75295902Y-99894898D01*
X75488424Y-100059328D01*
X75704298Y-100191616D01*
X75708868Y-100193509D01*
X75708872Y-100193511D01*
X75933636Y-100286611D01*
X75938209Y-100288505D01*
X76022832Y-100308821D01*
X76179584Y-100346454D01*
X76179590Y-100346455D01*
X76184397Y-100347609D01*
X76436800Y-100367474D01*
X76689203Y-100347609D01*
X76694010Y-100346455D01*
X76694016Y-100346454D01*
X76850768Y-100308821D01*
X76935391Y-100288505D01*
X76939964Y-100286611D01*
X77164728Y-100193511D01*
X77164732Y-100193509D01*
X77169302Y-100191616D01*
X77385176Y-100059328D01*
X77577698Y-99894898D01*
X77742128Y-99702376D01*
X77874416Y-99486502D01*
X77971305Y-99252591D01*
X78030409Y-99006403D01*
X78050274Y-98754000D01*
X79373326Y-98754000D01*
X79393191Y-99006403D01*
X79452295Y-99252591D01*
X79549184Y-99486502D01*
X79681472Y-99702376D01*
X79845902Y-99894898D01*
X80038424Y-100059328D01*
X80254298Y-100191616D01*
X80258868Y-100193509D01*
X80258872Y-100193511D01*
X80483636Y-100286611D01*
X80488209Y-100288505D01*
X80572832Y-100308821D01*
X80729584Y-100346454D01*
X80729590Y-100346455D01*
X80734397Y-100347609D01*
X80986800Y-100367474D01*
X81239203Y-100347609D01*
X81244010Y-100346455D01*
X81244016Y-100346454D01*
X81400768Y-100308821D01*
X81485391Y-100288505D01*
X81489964Y-100286611D01*
X81714728Y-100193511D01*
X81714732Y-100193509D01*
X81719302Y-100191616D01*
X81935176Y-100059328D01*
X82127698Y-99894898D01*
X82292128Y-99702376D01*
X82424416Y-99486502D01*
X82521305Y-99252591D01*
X82580409Y-99006403D01*
X82600274Y-98754000D01*
X89798326Y-98754000D01*
X89818191Y-99006403D01*
X89877295Y-99252591D01*
X89974184Y-99486502D01*
X90106472Y-99702376D01*
X90270902Y-99894898D01*
X90463424Y-100059328D01*
X90679298Y-100191616D01*
X90683868Y-100193509D01*
X90683872Y-100193511D01*
X90908636Y-100286611D01*
X90913209Y-100288505D01*
X90997832Y-100308821D01*
X91154584Y-100346454D01*
X91154590Y-100346455D01*
X91159397Y-100347609D01*
X91411800Y-100367474D01*
X91664203Y-100347609D01*
X91669010Y-100346455D01*
X91669016Y-100346454D01*
X91825768Y-100308821D01*
X91910391Y-100288505D01*
X91914964Y-100286611D01*
X92139728Y-100193511D01*
X92139732Y-100193509D01*
X92144302Y-100191616D01*
X92360176Y-100059328D01*
X92552698Y-99894898D01*
X92717128Y-99702376D01*
X92849416Y-99486502D01*
X92946305Y-99252591D01*
X93005409Y-99006403D01*
X93025274Y-98754000D01*
X94298326Y-98754000D01*
X94318191Y-99006403D01*
X94377295Y-99252591D01*
X94474184Y-99486502D01*
X94606472Y-99702376D01*
X94770902Y-99894898D01*
X94963424Y-100059328D01*
X95179298Y-100191616D01*
X95183868Y-100193509D01*
X95183872Y-100193511D01*
X95408636Y-100286611D01*
X95413209Y-100288505D01*
X95497832Y-100308821D01*
X95654584Y-100346454D01*
X95654590Y-100346455D01*
X95659397Y-100347609D01*
X95911800Y-100367474D01*
X96164203Y-100347609D01*
X96169010Y-100346455D01*
X96169016Y-100346454D01*
X96325768Y-100308821D01*
X96410391Y-100288505D01*
X96414964Y-100286611D01*
X96639728Y-100193511D01*
X96639732Y-100193509D01*
X96644302Y-100191616D01*
X96860176Y-100059328D01*
X97052698Y-99894898D01*
X97217128Y-99702376D01*
X97349416Y-99486502D01*
X97446305Y-99252591D01*
X97505409Y-99006403D01*
X97525274Y-98754000D01*
X97505409Y-98501597D01*
X97473361Y-98368104D01*
X97447460Y-98260221D01*
X97446305Y-98255409D01*
X97405408Y-98156675D01*
X97351311Y-98026072D01*
X97351309Y-98026068D01*
X97349416Y-98021498D01*
X97217128Y-97805624D01*
X97052698Y-97613102D01*
X96860176Y-97448672D01*
X96644302Y-97316384D01*
X96639732Y-97314491D01*
X96639728Y-97314489D01*
X96414964Y-97221389D01*
X96414962Y-97221388D01*
X96410391Y-97219495D01*
X96325768Y-97199179D01*
X96169016Y-97161546D01*
X96169010Y-97161545D01*
X96164203Y-97160391D01*
X95911800Y-97140526D01*
X95659397Y-97160391D01*
X95654590Y-97161545D01*
X95654584Y-97161546D01*
X95497832Y-97199179D01*
X95413209Y-97219495D01*
X95408638Y-97221388D01*
X95408636Y-97221389D01*
X95183872Y-97314489D01*
X95183868Y-97314491D01*
X95179298Y-97316384D01*
X94963424Y-97448672D01*
X94770902Y-97613102D01*
X94606472Y-97805624D01*
X94474184Y-98021498D01*
X94472291Y-98026068D01*
X94472289Y-98026072D01*
X94418192Y-98156675D01*
X94377295Y-98255409D01*
X94376140Y-98260221D01*
X94350240Y-98368104D01*
X94318191Y-98501597D01*
X94298326Y-98754000D01*
X93025274Y-98754000D01*
X93005409Y-98501597D01*
X92973361Y-98368104D01*
X92947460Y-98260221D01*
X92946305Y-98255409D01*
X92905408Y-98156675D01*
X92851311Y-98026072D01*
X92851309Y-98026068D01*
X92849416Y-98021498D01*
X92717128Y-97805624D01*
X92552698Y-97613102D01*
X92360176Y-97448672D01*
X92144302Y-97316384D01*
X92139732Y-97314491D01*
X92139728Y-97314489D01*
X91914964Y-97221389D01*
X91914962Y-97221388D01*
X91910391Y-97219495D01*
X91825768Y-97199179D01*
X91669016Y-97161546D01*
X91669010Y-97161545D01*
X91664203Y-97160391D01*
X91411800Y-97140526D01*
X91159397Y-97160391D01*
X91154590Y-97161545D01*
X91154584Y-97161546D01*
X90997832Y-97199179D01*
X90913209Y-97219495D01*
X90908638Y-97221388D01*
X90908636Y-97221389D01*
X90683872Y-97314489D01*
X90683868Y-97314491D01*
X90679298Y-97316384D01*
X90463424Y-97448672D01*
X90270902Y-97613102D01*
X90106472Y-97805624D01*
X89974184Y-98021498D01*
X89972291Y-98026068D01*
X89972289Y-98026072D01*
X89918192Y-98156675D01*
X89877295Y-98255409D01*
X89876140Y-98260221D01*
X89850240Y-98368104D01*
X89818191Y-98501597D01*
X89798326Y-98754000D01*
X82600274Y-98754000D01*
X82580409Y-98501597D01*
X82548361Y-98368104D01*
X82522460Y-98260221D01*
X82521305Y-98255409D01*
X82480408Y-98156675D01*
X82426311Y-98026072D01*
X82426309Y-98026068D01*
X82424416Y-98021498D01*
X82292128Y-97805624D01*
X82127698Y-97613102D01*
X81935176Y-97448672D01*
X81719302Y-97316384D01*
X81714732Y-97314491D01*
X81714728Y-97314489D01*
X81489964Y-97221389D01*
X81489962Y-97221388D01*
X81485391Y-97219495D01*
X81400768Y-97199179D01*
X81244016Y-97161546D01*
X81244010Y-97161545D01*
X81239203Y-97160391D01*
X80986800Y-97140526D01*
X80734397Y-97160391D01*
X80729590Y-97161545D01*
X80729584Y-97161546D01*
X80572832Y-97199179D01*
X80488209Y-97219495D01*
X80483638Y-97221388D01*
X80483636Y-97221389D01*
X80258872Y-97314489D01*
X80258868Y-97314491D01*
X80254298Y-97316384D01*
X80038424Y-97448672D01*
X79845902Y-97613102D01*
X79681472Y-97805624D01*
X79549184Y-98021498D01*
X79547291Y-98026068D01*
X79547289Y-98026072D01*
X79493192Y-98156675D01*
X79452295Y-98255409D01*
X79451140Y-98260221D01*
X79425240Y-98368104D01*
X79393191Y-98501597D01*
X79373326Y-98754000D01*
X78050274Y-98754000D01*
X78030409Y-98501597D01*
X77998361Y-98368104D01*
X77972460Y-98260221D01*
X77971305Y-98255409D01*
X77930408Y-98156675D01*
X77876311Y-98026072D01*
X77876309Y-98026068D01*
X77874416Y-98021498D01*
X77742128Y-97805624D01*
X77577698Y-97613102D01*
X77385176Y-97448672D01*
X77169302Y-97316384D01*
X77164732Y-97314491D01*
X77164728Y-97314489D01*
X76939964Y-97221389D01*
X76939962Y-97221388D01*
X76935391Y-97219495D01*
X76850768Y-97199179D01*
X76694016Y-97161546D01*
X76694010Y-97161545D01*
X76689203Y-97160391D01*
X76436800Y-97140526D01*
X76184397Y-97160391D01*
X76179590Y-97161545D01*
X76179584Y-97161546D01*
X76022832Y-97199179D01*
X75938209Y-97219495D01*
X75933638Y-97221388D01*
X75933636Y-97221389D01*
X75708872Y-97314489D01*
X75708868Y-97314491D01*
X75704298Y-97316384D01*
X75488424Y-97448672D01*
X75295902Y-97613102D01*
X75131472Y-97805624D01*
X74999184Y-98021498D01*
X74997291Y-98026068D01*
X74997289Y-98026072D01*
X74943192Y-98156675D01*
X74902295Y-98255409D01*
X74901140Y-98260221D01*
X74875240Y-98368104D01*
X74843191Y-98501597D01*
X74823326Y-98754000D01*
X51843090Y-98754000D01*
X51850949Y-84304432D01*
X51852403Y-81631987D01*
X51872442Y-81563878D01*
X51926123Y-81517414D01*
X51996403Y-81507348D01*
X52060967Y-81536876D01*
X52067421Y-81542883D01*
X52155029Y-81630339D01*
X52166440Y-81639351D01*
X52304443Y-81724416D01*
X52317624Y-81730563D01*
X52471910Y-81781738D01*
X52485286Y-81784605D01*
X52579638Y-81794272D01*
X52586054Y-81794600D01*
X53436085Y-81794600D01*
X53451324Y-81790125D01*
X53452529Y-81788735D01*
X53454200Y-81781052D01*
X53454200Y-79196716D01*
X53449725Y-79181477D01*
X53448335Y-79180272D01*
X53440652Y-79178601D01*
X52586105Y-79178601D01*
X52579586Y-79178938D01*
X52483994Y-79188857D01*
X52470600Y-79191749D01*
X52316416Y-79243188D01*
X52303238Y-79249361D01*
X52165393Y-79334663D01*
X52153992Y-79343699D01*
X52068823Y-79429016D01*
X52006540Y-79463095D01*
X51935720Y-79458092D01*
X51878847Y-79415595D01*
X51853979Y-79349096D01*
X51853650Y-79339929D01*
X51855740Y-75497185D01*
X57411600Y-75497185D01*
X57416075Y-75512424D01*
X57417465Y-75513629D01*
X57425148Y-75515300D01*
X58122485Y-75515300D01*
X58137724Y-75510825D01*
X58138929Y-75509435D01*
X58140600Y-75501752D01*
X58140600Y-74741915D01*
X58136125Y-74726676D01*
X58134735Y-74725471D01*
X58127052Y-74723800D01*
X58110834Y-74723800D01*
X58104318Y-74724137D01*
X58010468Y-74733875D01*
X57997072Y-74736768D01*
X57845647Y-74787288D01*
X57832485Y-74793453D01*
X57697108Y-74877226D01*
X57685710Y-74886260D01*
X57573237Y-74998929D01*
X57564225Y-75010340D01*
X57480688Y-75145863D01*
X57474544Y-75159041D01*
X57424285Y-75310566D01*
X57421419Y-75323932D01*
X57411928Y-75416570D01*
X57411600Y-75422985D01*
X57411600Y-75497185D01*
X51855740Y-75497185D01*
X51858149Y-71068480D01*
X51862636Y-62819903D01*
X53846943Y-62819903D01*
X53847502Y-62824147D01*
X53847502Y-62824151D01*
X53863756Y-62947609D01*
X53884468Y-63104934D01*
X53960329Y-63382236D01*
X53962013Y-63386184D01*
X54031520Y-63549139D01*
X54073123Y-63646676D01*
X54220761Y-63893361D01*
X54400513Y-64117728D01*
X54609051Y-64315623D01*
X54842517Y-64483386D01*
X54846312Y-64485395D01*
X54846313Y-64485396D01*
X54868069Y-64496915D01*
X55096592Y-64617912D01*
X55366573Y-64716711D01*
X55647464Y-64777955D01*
X55676041Y-64780204D01*
X55870482Y-64795507D01*
X55870491Y-64795507D01*
X55872939Y-64795700D01*
X56028471Y-64795700D01*
X56030607Y-64795554D01*
X56030618Y-64795554D01*
X56238748Y-64781365D01*
X56238754Y-64781364D01*
X56243025Y-64781073D01*
X56247220Y-64780204D01*
X56247222Y-64780204D01*
X56383784Y-64751923D01*
X56524542Y-64722774D01*
X56795543Y-64626807D01*
X56935829Y-64554400D01*
X59328300Y-64554400D01*
X59328637Y-64557646D01*
X59328637Y-64557650D01*
X59335813Y-64626807D01*
X59339274Y-64660166D01*
X59395250Y-64827946D01*
X59488322Y-64978348D01*
X59613497Y-65103305D01*
X59619727Y-65107145D01*
X59619728Y-65107146D01*
X59756890Y-65191694D01*
X59764062Y-65196115D01*
X59802789Y-65208960D01*
X59925411Y-65249632D01*
X59925413Y-65249632D01*
X59931939Y-65251797D01*
X59938775Y-65252497D01*
X59938778Y-65252498D01*
X59981831Y-65256909D01*
X60036400Y-65262500D01*
X61387200Y-65262500D01*
X61390446Y-65262163D01*
X61390450Y-65262163D01*
X61486108Y-65252238D01*
X61486112Y-65252237D01*
X61492966Y-65251526D01*
X61499502Y-65249345D01*
X61499504Y-65249345D01*
X61631606Y-65205272D01*
X61660746Y-65195550D01*
X61764482Y-65131356D01*
X61830785Y-65112500D01*
X65386712Y-65112500D01*
X65454833Y-65132502D01*
X65501326Y-65186158D01*
X65509221Y-65209140D01*
X65510055Y-65216816D01*
X65561185Y-65353205D01*
X65648539Y-65469761D01*
X65765095Y-65557115D01*
X65784989Y-65564573D01*
X65841753Y-65607213D01*
X65866454Y-65673774D01*
X65851247Y-65743123D01*
X65839642Y-65760647D01*
X65746433Y-65878670D01*
X65746430Y-65878675D01*
X65743232Y-65882724D01*
X65740739Y-65887240D01*
X65740737Y-65887243D01*
X65647317Y-66056474D01*
X65627126Y-66093050D01*
X65625402Y-66097919D01*
X65625400Y-66097923D01*
X65617119Y-66121309D01*
X65546930Y-66319515D01*
X65546023Y-66324608D01*
X65546022Y-66324611D01*
X65514178Y-66503385D01*
X65504799Y-66556037D01*
X65501864Y-66796263D01*
X65538204Y-67033744D01*
X65574712Y-67145440D01*
X65611234Y-67257183D01*
X65611237Y-67257189D01*
X65612842Y-67262101D01*
X65615229Y-67266687D01*
X65615231Y-67266691D01*
X65629942Y-67294950D01*
X65723775Y-67475200D01*
X65726885Y-67479342D01*
X65860763Y-67657650D01*
X65868023Y-67667320D01*
X66041712Y-67833301D01*
X66079151Y-67858840D01*
X66124152Y-67913751D01*
X66132323Y-67984275D01*
X66101069Y-68048022D01*
X66076590Y-68068716D01*
X66074474Y-68070085D01*
X66066302Y-68076378D01*
X65896320Y-68231050D01*
X65889294Y-68238583D01*
X65746855Y-68418944D01*
X65741150Y-68427531D01*
X65630086Y-68628722D01*
X65625856Y-68638134D01*
X65549141Y-68854768D01*
X65546507Y-68864739D01*
X65529153Y-68962163D01*
X65530613Y-68975460D01*
X65545170Y-68980000D01*
X68479896Y-68980000D01*
X68493240Y-68976082D01*
X68495227Y-68961806D01*
X68490725Y-68932385D01*
X76426158Y-68932385D01*
X76426863Y-68946469D01*
X76435744Y-68950000D01*
X77639685Y-68950000D01*
X77654924Y-68945525D01*
X77656129Y-68944135D01*
X77657800Y-68936452D01*
X77657800Y-68931885D01*
X78165800Y-68931885D01*
X78170275Y-68947124D01*
X78171665Y-68948329D01*
X78179348Y-68950000D01*
X79383556Y-68950000D01*
X79397087Y-68946027D01*
X79398447Y-68936569D01*
X79351582Y-68741366D01*
X79348536Y-68731992D01*
X79261487Y-68521837D01*
X79257005Y-68513042D01*
X79138157Y-68319101D01*
X79132357Y-68311117D01*
X78984622Y-68138142D01*
X78977658Y-68131178D01*
X78804683Y-67983443D01*
X78796699Y-67977643D01*
X78602758Y-67858795D01*
X78593963Y-67854313D01*
X78383808Y-67767264D01*
X78374434Y-67764218D01*
X78183415Y-67718358D01*
X78169331Y-67719063D01*
X78165800Y-67727944D01*
X78165800Y-68931885D01*
X77657800Y-68931885D01*
X77657800Y-67732244D01*
X77653827Y-67718713D01*
X77644369Y-67717353D01*
X77449166Y-67764218D01*
X77439792Y-67767264D01*
X77229637Y-67854313D01*
X77220842Y-67858795D01*
X77026901Y-67977643D01*
X77018917Y-67983443D01*
X76845942Y-68131178D01*
X76838978Y-68138142D01*
X76691243Y-68311117D01*
X76685443Y-68319101D01*
X76566595Y-68513042D01*
X76562113Y-68521837D01*
X76475064Y-68731992D01*
X76472018Y-68741366D01*
X76426158Y-68932385D01*
X68490725Y-68932385D01*
X68485690Y-68899485D01*
X68483301Y-68889457D01*
X68411902Y-68671012D01*
X68407905Y-68661503D01*
X68301789Y-68457656D01*
X68296295Y-68448931D01*
X68158307Y-68265148D01*
X68151464Y-68257441D01*
X67985309Y-68098661D01*
X67977302Y-68092177D01*
X67944444Y-68069763D01*
X67899441Y-68014852D01*
X67891268Y-67944328D01*
X67922522Y-67880580D01*
X67947004Y-67859884D01*
X67949435Y-67858311D01*
X67953777Y-67855502D01*
X68131470Y-67693814D01*
X68192147Y-67616983D01*
X68277167Y-67509330D01*
X68277170Y-67509325D01*
X68280368Y-67505276D01*
X68294685Y-67479342D01*
X68393977Y-67299474D01*
X68393979Y-67299470D01*
X68396474Y-67294950D01*
X68443483Y-67162203D01*
X68474944Y-67073360D01*
X68474945Y-67073356D01*
X68476670Y-67068485D01*
X68481983Y-67038659D01*
X68517895Y-66837052D01*
X68517896Y-66837046D01*
X68518801Y-66831963D01*
X68521051Y-66647834D01*
X68521673Y-66596907D01*
X68521673Y-66596905D01*
X68521736Y-66591737D01*
X68485396Y-66354256D01*
X68438476Y-66210704D01*
X68412366Y-66130817D01*
X68412363Y-66130811D01*
X68410758Y-66125899D01*
X68405765Y-66116306D01*
X68302216Y-65917393D01*
X68299825Y-65912800D01*
X68183385Y-65757717D01*
X68158480Y-65691235D01*
X68173472Y-65621839D01*
X68223602Y-65571565D01*
X68239915Y-65564085D01*
X68250093Y-65560269D01*
X68250096Y-65560267D01*
X68258505Y-65557115D01*
X68375061Y-65469761D01*
X68462415Y-65353205D01*
X68513545Y-65216816D01*
X68518399Y-65172134D01*
X76403300Y-65172134D01*
X76410055Y-65234316D01*
X76461185Y-65370705D01*
X76548539Y-65487261D01*
X76665095Y-65574615D01*
X76801484Y-65625745D01*
X76863666Y-65632500D01*
X78959934Y-65632500D01*
X79022116Y-65625745D01*
X79158505Y-65574615D01*
X79275061Y-65487261D01*
X79362415Y-65370705D01*
X79413545Y-65234316D01*
X79420300Y-65172134D01*
X79420300Y-63075866D01*
X79413545Y-63013684D01*
X79362415Y-62877295D01*
X79275061Y-62760739D01*
X79158505Y-62673385D01*
X79022116Y-62622255D01*
X78959934Y-62615500D01*
X76863666Y-62615500D01*
X76801484Y-62622255D01*
X76665095Y-62673385D01*
X76548539Y-62760739D01*
X76461185Y-62877295D01*
X76410055Y-63013684D01*
X76403300Y-63075866D01*
X76403300Y-65172134D01*
X68518399Y-65172134D01*
X68520300Y-65154634D01*
X68520300Y-63153366D01*
X68513545Y-63091184D01*
X68462415Y-62954795D01*
X68375061Y-62838239D01*
X68258505Y-62750885D01*
X68122116Y-62699755D01*
X68059934Y-62693000D01*
X65963666Y-62693000D01*
X65901484Y-62699755D01*
X65765095Y-62750885D01*
X65648539Y-62838239D01*
X65561185Y-62954795D01*
X65558033Y-62963203D01*
X65539091Y-63013730D01*
X65496449Y-63070494D01*
X65429887Y-63095194D01*
X65421109Y-63095500D01*
X61830900Y-63095500D01*
X61764784Y-63076760D01*
X61665768Y-63015725D01*
X61665766Y-63015724D01*
X61659538Y-63011885D01*
X61579795Y-62985436D01*
X61498189Y-62958368D01*
X61498187Y-62958368D01*
X61491661Y-62956203D01*
X61484825Y-62955503D01*
X61484822Y-62955502D01*
X61441769Y-62951091D01*
X61387200Y-62945500D01*
X60036400Y-62945500D01*
X60033154Y-62945837D01*
X60033150Y-62945837D01*
X59937492Y-62955762D01*
X59937488Y-62955763D01*
X59930634Y-62956474D01*
X59924098Y-62958655D01*
X59924096Y-62958655D01*
X59791994Y-63002728D01*
X59762854Y-63012450D01*
X59612452Y-63105522D01*
X59487495Y-63230697D01*
X59394685Y-63381262D01*
X59339003Y-63549139D01*
X59328300Y-63653600D01*
X59328300Y-64554400D01*
X56935829Y-64554400D01*
X57051012Y-64494950D01*
X57054513Y-64492489D01*
X57054517Y-64492487D01*
X57168617Y-64412296D01*
X57286223Y-64329641D01*
X57496822Y-64133940D01*
X57678913Y-63911468D01*
X57829127Y-63666342D01*
X57944683Y-63403098D01*
X58023444Y-63126606D01*
X58063951Y-62841984D01*
X58064045Y-62824151D01*
X58065435Y-62558783D01*
X58065435Y-62558776D01*
X58065457Y-62554497D01*
X58063824Y-62542089D01*
X58046918Y-62413678D01*
X58027932Y-62269466D01*
X57952071Y-61992164D01*
X57889794Y-61846158D01*
X57840963Y-61731676D01*
X57840961Y-61731672D01*
X57839277Y-61727724D01*
X57691639Y-61481039D01*
X57511887Y-61256672D01*
X57303349Y-61058777D01*
X57069883Y-60891014D01*
X57048043Y-60879450D01*
X56980394Y-60843632D01*
X56815808Y-60756488D01*
X56545827Y-60657689D01*
X56264936Y-60596445D01*
X56233885Y-60594001D01*
X56041918Y-60578893D01*
X56041909Y-60578893D01*
X56039461Y-60578700D01*
X55883929Y-60578700D01*
X55881793Y-60578846D01*
X55881782Y-60578846D01*
X55673652Y-60593035D01*
X55673646Y-60593036D01*
X55669375Y-60593327D01*
X55665180Y-60594196D01*
X55665178Y-60594196D01*
X55528616Y-60622477D01*
X55387858Y-60651626D01*
X55116857Y-60747593D01*
X54861388Y-60879450D01*
X54857887Y-60881911D01*
X54857883Y-60881913D01*
X54743783Y-60962104D01*
X54626177Y-61044759D01*
X54611465Y-61058430D01*
X54474280Y-61185911D01*
X54415578Y-61240460D01*
X54233487Y-61462932D01*
X54083273Y-61708058D01*
X53967717Y-61971302D01*
X53888956Y-62247794D01*
X53848449Y-62532416D01*
X53848427Y-62536705D01*
X53848426Y-62536712D01*
X53847215Y-62767919D01*
X53846943Y-62819903D01*
X51862636Y-62819903D01*
X51864817Y-58810131D01*
X59644600Y-58810131D01*
X59644691Y-58813516D01*
X59647482Y-58865045D01*
X59648555Y-58873689D01*
X59691680Y-59094518D01*
X59694594Y-59104746D01*
X59773964Y-59314240D01*
X59778562Y-59323838D01*
X59892093Y-59516960D01*
X59898246Y-59525649D01*
X60042701Y-59696892D01*
X60050208Y-59704399D01*
X60221451Y-59848854D01*
X60230140Y-59855007D01*
X60423262Y-59968538D01*
X60432860Y-59973136D01*
X60642354Y-60052506D01*
X60652582Y-60055420D01*
X60873411Y-60098545D01*
X60882055Y-60099618D01*
X60933584Y-60102409D01*
X60936969Y-60102500D01*
X61630485Y-60102500D01*
X61645724Y-60098025D01*
X61646929Y-60096635D01*
X61648600Y-60088952D01*
X61648600Y-60084385D01*
X62156600Y-60084385D01*
X62161075Y-60099624D01*
X62162465Y-60100829D01*
X62170148Y-60102500D01*
X62868231Y-60102500D01*
X62871616Y-60102409D01*
X62923145Y-60099618D01*
X62931789Y-60098545D01*
X63152618Y-60055420D01*
X63162846Y-60052506D01*
X63372340Y-59973136D01*
X63381938Y-59968538D01*
X63575060Y-59855007D01*
X63583749Y-59848854D01*
X63754992Y-59704399D01*
X63762499Y-59696892D01*
X63906954Y-59525649D01*
X63913107Y-59516960D01*
X64026638Y-59323838D01*
X64031236Y-59314240D01*
X64110606Y-59104746D01*
X64113520Y-59094518D01*
X64156645Y-58873689D01*
X64157718Y-58865045D01*
X64160509Y-58813516D01*
X64160600Y-58810131D01*
X64160600Y-58116615D01*
X64156125Y-58101376D01*
X64154735Y-58100171D01*
X64147052Y-58098500D01*
X62174715Y-58098500D01*
X62159476Y-58102975D01*
X62158271Y-58104365D01*
X62156600Y-58112048D01*
X62156600Y-60084385D01*
X61648600Y-60084385D01*
X61648600Y-58116615D01*
X61644125Y-58101376D01*
X61642735Y-58100171D01*
X61635052Y-58098500D01*
X59662715Y-58098500D01*
X59647476Y-58102975D01*
X59646271Y-58104365D01*
X59644600Y-58112048D01*
X59644600Y-58810131D01*
X51864817Y-58810131D01*
X51865490Y-57572385D01*
X59644600Y-57572385D01*
X59649075Y-57587624D01*
X59650465Y-57588829D01*
X59658148Y-57590500D01*
X61630485Y-57590500D01*
X61645724Y-57586025D01*
X61646929Y-57584635D01*
X61648600Y-57576952D01*
X61648600Y-55604615D01*
X61644125Y-55589376D01*
X61642735Y-55588171D01*
X61635052Y-55586500D01*
X60936970Y-55586500D01*
X60933584Y-55586591D01*
X60882055Y-55589382D01*
X60873411Y-55590455D01*
X60652582Y-55633580D01*
X60642354Y-55636494D01*
X60432860Y-55715864D01*
X60423262Y-55720462D01*
X60230140Y-55833993D01*
X60221451Y-55840146D01*
X60050208Y-55984601D01*
X60042701Y-55992108D01*
X59898246Y-56163351D01*
X59892093Y-56172040D01*
X59778562Y-56365162D01*
X59773964Y-56374760D01*
X59694594Y-56584254D01*
X59691680Y-56594482D01*
X59648555Y-56815311D01*
X59647482Y-56823955D01*
X59644691Y-56875484D01*
X59644600Y-56878870D01*
X59644600Y-57572385D01*
X51865490Y-57572385D01*
X51867322Y-54204461D01*
X56894601Y-54204461D01*
X56894809Y-54209571D01*
X56905682Y-54343267D01*
X56907452Y-54353820D01*
X56960567Y-54560685D01*
X56964301Y-54571231D01*
X57053110Y-54765205D01*
X57058646Y-54774912D01*
X57180403Y-54950097D01*
X57187576Y-54958676D01*
X57338424Y-55109524D01*
X57347003Y-55116697D01*
X57522188Y-55238454D01*
X57531895Y-55243990D01*
X57725869Y-55332799D01*
X57736415Y-55336533D01*
X57943279Y-55389647D01*
X57953834Y-55391418D01*
X58087530Y-55402293D01*
X58092636Y-55402500D01*
X58630485Y-55402500D01*
X58645724Y-55398025D01*
X58646929Y-55396635D01*
X58648600Y-55388952D01*
X58648600Y-55384384D01*
X59156600Y-55384384D01*
X59161075Y-55399623D01*
X59162465Y-55400828D01*
X59170148Y-55402499D01*
X59712561Y-55402499D01*
X59717671Y-55402291D01*
X59851367Y-55391418D01*
X59861920Y-55389648D01*
X60068785Y-55336533D01*
X60079331Y-55332799D01*
X60273305Y-55243990D01*
X60283012Y-55238454D01*
X60458197Y-55116697D01*
X60466776Y-55109524D01*
X60617624Y-54958676D01*
X60624797Y-54950097D01*
X60746554Y-54774912D01*
X60752090Y-54765205D01*
X60840899Y-54571231D01*
X60844633Y-54560685D01*
X60897747Y-54353821D01*
X60899518Y-54343266D01*
X60910393Y-54209570D01*
X60910600Y-54204464D01*
X60910600Y-53416615D01*
X60906125Y-53401376D01*
X60904735Y-53400171D01*
X60897052Y-53398500D01*
X59174715Y-53398500D01*
X59159476Y-53402975D01*
X59158271Y-53404365D01*
X59156600Y-53412048D01*
X59156600Y-55384384D01*
X58648600Y-55384384D01*
X58648600Y-53416615D01*
X58644125Y-53401376D01*
X58642735Y-53400171D01*
X58635052Y-53398500D01*
X56912716Y-53398500D01*
X56897477Y-53402975D01*
X56896272Y-53404365D01*
X56894601Y-53412048D01*
X56894601Y-54204461D01*
X51867322Y-54204461D01*
X51867830Y-53270696D01*
X61891644Y-53270696D01*
X61892005Y-53274310D01*
X61892005Y-53274316D01*
X61904847Y-53402975D01*
X61926103Y-53615931D01*
X62000014Y-53954917D01*
X62001187Y-53958344D01*
X62001189Y-53958350D01*
X62111224Y-54279735D01*
X62112397Y-54283161D01*
X62261763Y-54596312D01*
X62446132Y-54890221D01*
X62448404Y-54893057D01*
X62448409Y-54893064D01*
X62504208Y-54962712D01*
X62663059Y-55160991D01*
X62746932Y-55243990D01*
X62875217Y-55370939D01*
X62909568Y-55433073D01*
X62904874Y-55503914D01*
X62862625Y-55560971D01*
X62796236Y-55586130D01*
X62786589Y-55586500D01*
X62174715Y-55586500D01*
X62159476Y-55590975D01*
X62158271Y-55592365D01*
X62156600Y-55600048D01*
X62156600Y-57572385D01*
X62161075Y-57587624D01*
X62162465Y-57588829D01*
X62170148Y-57590500D01*
X64142485Y-57590500D01*
X64157724Y-57586025D01*
X64158929Y-57584635D01*
X64160600Y-57576952D01*
X64160600Y-56878870D01*
X64160509Y-56875484D01*
X64157718Y-56823955D01*
X64156645Y-56815311D01*
X64113520Y-56594482D01*
X64110606Y-56584254D01*
X64031236Y-56374760D01*
X64026638Y-56365162D01*
X63947093Y-56229852D01*
X63929814Y-56160991D01*
X63952506Y-56093718D01*
X64007967Y-56049394D01*
X64078587Y-56042090D01*
X64095278Y-56046370D01*
X64119167Y-56054271D01*
X64119182Y-56054275D01*
X64122623Y-56055413D01*
X64126178Y-56056149D01*
X64126181Y-56056150D01*
X64458814Y-56125035D01*
X64458817Y-56125035D01*
X64462364Y-56125770D01*
X64616653Y-56139540D01*
X64764676Y-56152751D01*
X64764682Y-56152751D01*
X64767469Y-56153000D01*
X67703948Y-56153000D01*
X67772069Y-56173002D01*
X67793043Y-56189905D01*
X69141865Y-57538726D01*
X69145070Y-57542050D01*
X69225958Y-57629096D01*
X69228712Y-57631448D01*
X69228716Y-57631452D01*
X69332941Y-57720469D01*
X69334907Y-57722183D01*
X69439909Y-57815737D01*
X69442878Y-57817824D01*
X69442881Y-57817826D01*
X69460901Y-57830491D01*
X69470268Y-57837757D01*
X69489781Y-57854422D01*
X69606528Y-57932872D01*
X69608698Y-57934363D01*
X69723767Y-58015235D01*
X69726936Y-58016956D01*
X69726943Y-58016960D01*
X69732712Y-58020092D01*
X69746313Y-58027477D01*
X69756450Y-58033616D01*
X69777753Y-58047931D01*
X69780972Y-58049592D01*
X69780978Y-58049596D01*
X69864891Y-58092906D01*
X69901979Y-58112048D01*
X69902742Y-58112442D01*
X69905070Y-58113674D01*
X70028672Y-58180785D01*
X70032029Y-58182135D01*
X70032045Y-58182142D01*
X70052469Y-58190352D01*
X70063256Y-58195290D01*
X70086059Y-58207060D01*
X70089449Y-58208341D01*
X70217659Y-58256788D01*
X70220117Y-58257747D01*
X70347211Y-58308839D01*
X70347225Y-58308844D01*
X70350584Y-58310194D01*
X70354082Y-58311151D01*
X70354088Y-58311153D01*
X70375325Y-58316963D01*
X70386614Y-58320631D01*
X70407205Y-58328412D01*
X70407220Y-58328417D01*
X70410611Y-58329698D01*
X70512980Y-58355411D01*
X70547023Y-58363962D01*
X70549577Y-58364632D01*
X70685237Y-58401745D01*
X70710611Y-58405628D01*
X70722228Y-58407971D01*
X70743575Y-58413333D01*
X70743582Y-58413334D01*
X70747108Y-58414220D01*
X70886611Y-58432586D01*
X70889140Y-58432946D01*
X71028195Y-58454224D01*
X71053813Y-58455163D01*
X71065646Y-58456156D01*
X71091089Y-58459506D01*
X71231756Y-58461715D01*
X71234359Y-58461784D01*
X71274579Y-58463259D01*
X71371273Y-58466805D01*
X71371281Y-58466805D01*
X71374912Y-58466938D01*
X71400498Y-58464925D01*
X71412344Y-58464553D01*
X71428586Y-58464808D01*
X71434356Y-58464899D01*
X71434359Y-58464899D01*
X71437996Y-58464956D01*
X71441611Y-58464595D01*
X71441616Y-58464595D01*
X71518020Y-58456969D01*
X71577962Y-58450986D01*
X71580544Y-58450755D01*
X71720793Y-58439717D01*
X71724353Y-58439019D01*
X71724357Y-58439018D01*
X71745964Y-58434779D01*
X71757705Y-58433045D01*
X71767537Y-58432064D01*
X71783231Y-58430497D01*
X71786768Y-58429726D01*
X71786773Y-58429725D01*
X71920677Y-58400529D01*
X71923261Y-58399994D01*
X72057693Y-58373619D01*
X72057692Y-58373619D01*
X72061251Y-58372921D01*
X72085675Y-58365126D01*
X72097139Y-58362055D01*
X72118658Y-58357363D01*
X72118675Y-58357358D01*
X72122217Y-58356586D01*
X72125644Y-58355413D01*
X72125650Y-58355411D01*
X72255345Y-58311006D01*
X72257851Y-58310178D01*
X72388315Y-58268542D01*
X72388317Y-58268541D01*
X72391777Y-58267437D01*
X72415156Y-58256881D01*
X72426174Y-58252519D01*
X72450461Y-58244203D01*
X72453733Y-58242642D01*
X72453751Y-58242635D01*
X72577430Y-58183642D01*
X72579825Y-58182530D01*
X72704673Y-58126160D01*
X72704684Y-58126154D01*
X72707989Y-58124662D01*
X72730012Y-58111481D01*
X72740454Y-58105882D01*
X72763612Y-58094837D01*
X72882802Y-58020069D01*
X72884909Y-58018777D01*
X73005694Y-57946489D01*
X73026040Y-57930877D01*
X73035786Y-57924103D01*
X73054443Y-57912399D01*
X73054445Y-57912397D01*
X73057521Y-57910468D01*
X73167309Y-57822512D01*
X73169385Y-57820885D01*
X73278058Y-57737497D01*
X73278060Y-57737495D01*
X73280947Y-57735280D01*
X73299370Y-57717427D01*
X73308263Y-57709587D01*
X73325454Y-57695814D01*
X73325455Y-57695813D01*
X73328291Y-57693541D01*
X73330836Y-57690969D01*
X73330854Y-57690953D01*
X73427244Y-57593548D01*
X73429119Y-57591692D01*
X73527492Y-57496361D01*
X73530101Y-57493833D01*
X73546344Y-57473988D01*
X73554287Y-57465166D01*
X73569783Y-57449507D01*
X73569784Y-57449506D01*
X73572334Y-57446929D01*
X73659133Y-57336229D01*
X73660761Y-57334197D01*
X73747552Y-57228161D01*
X73747557Y-57228154D01*
X73749853Y-57225349D01*
X73763712Y-57203762D01*
X73770589Y-57194084D01*
X73784175Y-57176757D01*
X73786414Y-57173902D01*
X73859938Y-57053922D01*
X73861323Y-57051716D01*
X73937289Y-56933387D01*
X73948575Y-56910349D01*
X73954286Y-56899961D01*
X73967695Y-56878079D01*
X74026919Y-56750491D01*
X74028056Y-56748109D01*
X74088322Y-56625091D01*
X74088325Y-56625085D01*
X74089926Y-56621816D01*
X74098494Y-56597623D01*
X74102973Y-56586647D01*
X74105062Y-56582148D01*
X74113773Y-56563380D01*
X74157935Y-56429846D01*
X74158790Y-56427349D01*
X74204530Y-56298185D01*
X74204532Y-56298179D01*
X74205740Y-56294767D01*
X74211468Y-56269760D01*
X74214659Y-56258331D01*
X74221575Y-56237419D01*
X74221576Y-56237414D01*
X74222713Y-56233977D01*
X74251242Y-56096215D01*
X74251797Y-56093667D01*
X74282386Y-55960111D01*
X74282386Y-55960110D01*
X74283196Y-55956574D01*
X74286010Y-55931085D01*
X74287867Y-55919362D01*
X74292332Y-55897802D01*
X74292333Y-55897793D01*
X74293070Y-55894236D01*
X74305575Y-55754123D01*
X74305835Y-55751515D01*
X74321269Y-55611720D01*
X74320302Y-55427077D01*
X74320300Y-55426417D01*
X74320300Y-50514223D01*
X74320385Y-50509606D01*
X74324605Y-50394527D01*
X74324605Y-50394520D01*
X74324738Y-50390888D01*
X74318299Y-50309063D01*
X74313701Y-50250643D01*
X74313522Y-50248011D01*
X74305636Y-50111244D01*
X74305635Y-50111237D01*
X74305427Y-50107626D01*
X74301018Y-50082362D01*
X74299530Y-50070585D01*
X74297802Y-50048623D01*
X74297801Y-50048615D01*
X74297517Y-50045007D01*
X74270436Y-49906969D01*
X74269955Y-49904376D01*
X74246401Y-49769420D01*
X74246399Y-49769411D01*
X74245776Y-49765842D01*
X74238489Y-49741242D01*
X74235662Y-49729729D01*
X74231424Y-49708124D01*
X74231421Y-49708114D01*
X74230722Y-49704549D01*
X74187939Y-49570495D01*
X74187174Y-49568006D01*
X74148270Y-49436668D01*
X74147237Y-49433180D01*
X74145812Y-49429839D01*
X74145809Y-49429831D01*
X74137176Y-49409591D01*
X74133039Y-49398467D01*
X74126342Y-49377482D01*
X74126337Y-49377469D01*
X74125237Y-49374022D01*
X74067342Y-49245797D01*
X74066282Y-49243382D01*
X74012539Y-49117385D01*
X74011116Y-49114048D01*
X74009321Y-49110901D01*
X74009315Y-49110889D01*
X73998412Y-49091774D01*
X73993022Y-49081196D01*
X73983956Y-49061117D01*
X73983954Y-49061113D01*
X73982463Y-49057811D01*
X73980608Y-49054711D01*
X73980604Y-49054704D01*
X73910231Y-48937122D01*
X73908899Y-48934842D01*
X73841016Y-48815828D01*
X73841007Y-48815814D01*
X73839217Y-48812676D01*
X73824029Y-48792001D01*
X73817457Y-48782109D01*
X73806153Y-48763221D01*
X73804289Y-48760106D01*
X73718659Y-48648511D01*
X73717076Y-48646402D01*
X73635969Y-48535988D01*
X73635967Y-48535986D01*
X73633818Y-48533060D01*
X73631347Y-48530401D01*
X73631343Y-48530396D01*
X73616360Y-48514273D01*
X73608697Y-48505205D01*
X73593080Y-48484852D01*
X73495165Y-48383811D01*
X73493349Y-48381897D01*
X73400114Y-48281564D01*
X73400112Y-48281562D01*
X73397642Y-48278904D01*
X73394890Y-48276553D01*
X73394880Y-48276544D01*
X73378143Y-48262249D01*
X73369495Y-48254128D01*
X73354164Y-48238309D01*
X73351634Y-48235698D01*
X73323032Y-48212287D01*
X73242736Y-48146566D01*
X73240712Y-48144873D01*
X73136575Y-48055932D01*
X73133819Y-48053578D01*
X73130813Y-48051558D01*
X73130805Y-48051552D01*
X73112534Y-48039274D01*
X73103004Y-48032197D01*
X73085958Y-48018245D01*
X73085956Y-48018244D01*
X73083149Y-48015946D01*
X72964707Y-47939908D01*
X72962585Y-47938513D01*
X72848863Y-47862095D01*
X72848855Y-47862090D01*
X72845847Y-47860069D01*
X72823055Y-47848305D01*
X72812783Y-47842374D01*
X72797589Y-47832620D01*
X72794239Y-47830469D01*
X72794235Y-47830467D01*
X72791187Y-47828510D01*
X72664879Y-47766632D01*
X72662523Y-47765447D01*
X72540772Y-47702607D01*
X72540763Y-47702603D01*
X72537541Y-47700940D01*
X72534151Y-47699659D01*
X72534133Y-47699651D01*
X72513556Y-47691876D01*
X72502667Y-47687165D01*
X72479617Y-47675873D01*
X72453628Y-47666670D01*
X72347021Y-47628919D01*
X72344542Y-47628012D01*
X72278643Y-47603111D01*
X72212989Y-47578302D01*
X72188114Y-47572054D01*
X72176755Y-47568624D01*
X72155994Y-47561272D01*
X72155976Y-47561267D01*
X72152568Y-47560060D01*
X72015437Y-47528653D01*
X72012960Y-47528059D01*
X71876492Y-47493780D01*
X71851062Y-47490433D01*
X71839377Y-47488330D01*
X71838063Y-47488029D01*
X71814374Y-47482603D01*
X71810766Y-47482205D01*
X71810762Y-47482204D01*
X71674574Y-47467169D01*
X71671954Y-47466852D01*
X71536114Y-47448968D01*
X71536108Y-47448968D01*
X71532511Y-47448494D01*
X71523332Y-47448350D01*
X71506867Y-47448091D01*
X71495021Y-47447346D01*
X71473125Y-47444929D01*
X71473124Y-47444929D01*
X71469520Y-47444531D01*
X71443642Y-47444666D01*
X71328865Y-47445267D01*
X71326227Y-47445253D01*
X71189245Y-47443101D01*
X71189242Y-47443101D01*
X71185604Y-47443044D01*
X71181989Y-47443405D01*
X71181986Y-47443405D01*
X71160079Y-47445592D01*
X71148221Y-47446213D01*
X71126204Y-47446328D01*
X71126203Y-47446328D01*
X71122575Y-47446347D01*
X70982929Y-47463247D01*
X70980370Y-47463529D01*
X70840369Y-47477503D01*
X70815289Y-47482971D01*
X70803615Y-47484946D01*
X70778138Y-47488029D01*
X70774613Y-47488875D01*
X70774609Y-47488876D01*
X70716993Y-47502709D01*
X70641351Y-47520868D01*
X70638833Y-47521445D01*
X70501383Y-47551414D01*
X70497950Y-47552590D01*
X70497948Y-47552590D01*
X70477121Y-47559721D01*
X70465722Y-47563033D01*
X70440775Y-47569022D01*
X70437376Y-47570266D01*
X70437369Y-47570268D01*
X70394257Y-47586045D01*
X70324923Y-47611418D01*
X70308702Y-47617354D01*
X70306229Y-47618230D01*
X70173139Y-47663797D01*
X70169863Y-47665359D01*
X70169857Y-47665362D01*
X70149983Y-47674841D01*
X70139042Y-47679441D01*
X70114956Y-47688255D01*
X70111728Y-47689879D01*
X70111720Y-47689882D01*
X69989293Y-47751457D01*
X69986923Y-47752618D01*
X69859988Y-47813163D01*
X69856929Y-47815082D01*
X69856916Y-47815089D01*
X69838261Y-47826792D01*
X69827932Y-47832613D01*
X69805001Y-47844146D01*
X69687384Y-47921407D01*
X69685217Y-47922797D01*
X69566079Y-47997532D01*
X69563246Y-47999802D01*
X69546054Y-48013575D01*
X69536459Y-48020546D01*
X69515018Y-48034630D01*
X69512233Y-48036958D01*
X69512223Y-48036966D01*
X69407094Y-48124867D01*
X69405075Y-48126520D01*
X69295309Y-48214459D01*
X69256053Y-48254128D01*
X69165169Y-48345969D01*
X69164703Y-48346436D01*
X67412043Y-50099095D01*
X67349731Y-50133121D01*
X67322948Y-50136000D01*
X64814168Y-50136000D01*
X64812349Y-50136105D01*
X64812345Y-50136105D01*
X64559846Y-50150664D01*
X64559841Y-50150665D01*
X64556226Y-50150873D01*
X64482760Y-50163695D01*
X64218015Y-50209900D01*
X64218008Y-50209902D01*
X64214442Y-50210524D01*
X64210967Y-50211553D01*
X64210960Y-50211555D01*
X64087888Y-50248011D01*
X63881780Y-50309063D01*
X63878444Y-50310486D01*
X63878441Y-50310487D01*
X63565986Y-50443760D01*
X63565983Y-50443762D01*
X63562648Y-50445184D01*
X63559501Y-50446979D01*
X63559497Y-50446981D01*
X63282044Y-50605237D01*
X63261276Y-50617083D01*
X62981660Y-50822482D01*
X62979007Y-50824948D01*
X62979005Y-50824949D01*
X62901315Y-50897143D01*
X62727504Y-51058658D01*
X62502178Y-51322481D01*
X62308669Y-51610453D01*
X62149540Y-51918759D01*
X62026902Y-52243311D01*
X62026018Y-52246832D01*
X62026016Y-52246837D01*
X61985504Y-52408122D01*
X61942380Y-52579808D01*
X61941907Y-52583401D01*
X61901477Y-52890500D01*
X61897094Y-52923789D01*
X61897037Y-52927427D01*
X61891721Y-53265819D01*
X61891644Y-53270696D01*
X51867830Y-53270696D01*
X51868047Y-52872385D01*
X56894600Y-52872385D01*
X56899075Y-52887624D01*
X56900465Y-52888829D01*
X56908148Y-52890500D01*
X58630485Y-52890500D01*
X58645724Y-52886025D01*
X58646929Y-52884635D01*
X58648600Y-52876952D01*
X58648600Y-52872385D01*
X59156600Y-52872385D01*
X59161075Y-52887624D01*
X59162465Y-52888829D01*
X59170148Y-52890500D01*
X60892484Y-52890500D01*
X60907723Y-52886025D01*
X60908928Y-52884635D01*
X60910599Y-52876952D01*
X60910599Y-52084539D01*
X60910391Y-52079429D01*
X60899518Y-51945733D01*
X60897748Y-51935180D01*
X60844633Y-51728315D01*
X60840899Y-51717769D01*
X60752090Y-51523795D01*
X60746554Y-51514088D01*
X60624797Y-51338903D01*
X60617624Y-51330324D01*
X60466776Y-51179476D01*
X60458197Y-51172303D01*
X60283012Y-51050546D01*
X60273305Y-51045010D01*
X60079331Y-50956201D01*
X60068785Y-50952467D01*
X59861921Y-50899353D01*
X59851366Y-50897582D01*
X59717670Y-50886707D01*
X59712564Y-50886500D01*
X59174715Y-50886500D01*
X59159476Y-50890975D01*
X59158271Y-50892365D01*
X59156600Y-50900048D01*
X59156600Y-52872385D01*
X58648600Y-52872385D01*
X58648600Y-50904616D01*
X58644125Y-50889377D01*
X58642735Y-50888172D01*
X58635052Y-50886501D01*
X58092639Y-50886501D01*
X58087529Y-50886709D01*
X57953833Y-50897582D01*
X57943280Y-50899352D01*
X57736415Y-50952467D01*
X57725869Y-50956201D01*
X57531895Y-51045010D01*
X57522188Y-51050546D01*
X57347003Y-51172303D01*
X57338424Y-51179476D01*
X57187576Y-51330324D01*
X57180403Y-51338903D01*
X57058646Y-51514088D01*
X57053110Y-51523795D01*
X56964301Y-51717769D01*
X56960567Y-51728315D01*
X56907453Y-51935179D01*
X56905682Y-51945734D01*
X56894807Y-52079430D01*
X56894600Y-52084536D01*
X56894600Y-52872385D01*
X51868047Y-52872385D01*
X51871731Y-46099929D01*
X51891770Y-46031822D01*
X51945451Y-45985358D01*
X51997731Y-45974000D01*
X119875754Y-45974000D01*
X119943875Y-45994002D01*
G37*
%TD.AperFunction*%
%TD*%
%TA.AperFunction,Conductor*%
%TO.N,+12V*%
G36*
X83892199Y-48064002D02*
G01*
X89747185Y-48093375D01*
X89815205Y-48113718D01*
X89861428Y-48167606D01*
X89872551Y-48218613D01*
X89941800Y-59714000D01*
X89955313Y-59713934D01*
X89955315Y-59713934D01*
X101498842Y-59657149D01*
X104171800Y-59644000D01*
X104208695Y-55126969D01*
X104721201Y-55126969D01*
X104721571Y-55133790D01*
X104727095Y-55184652D01*
X104730721Y-55199904D01*
X104775876Y-55320354D01*
X104784414Y-55335949D01*
X104860915Y-55438024D01*
X104873476Y-55450585D01*
X104975551Y-55527086D01*
X104991146Y-55535624D01*
X105111594Y-55580778D01*
X105126849Y-55584405D01*
X105177714Y-55589931D01*
X105184528Y-55590300D01*
X106707085Y-55590300D01*
X106722324Y-55585825D01*
X106723529Y-55584435D01*
X106725200Y-55576752D01*
X106725200Y-55572184D01*
X107233200Y-55572184D01*
X107237675Y-55587423D01*
X107239065Y-55588628D01*
X107246748Y-55590299D01*
X108773869Y-55590299D01*
X108780690Y-55589929D01*
X108831552Y-55584405D01*
X108846804Y-55580779D01*
X108967254Y-55535624D01*
X108982849Y-55527086D01*
X109084924Y-55450585D01*
X109097485Y-55438024D01*
X109173986Y-55335949D01*
X109182524Y-55320354D01*
X109227678Y-55199906D01*
X109231305Y-55184651D01*
X109236831Y-55133786D01*
X109237200Y-55126972D01*
X109237200Y-53604415D01*
X109232725Y-53589176D01*
X109231335Y-53587971D01*
X109223652Y-53586300D01*
X107251315Y-53586300D01*
X107236076Y-53590775D01*
X107234871Y-53592165D01*
X107233200Y-53599848D01*
X107233200Y-55572184D01*
X106725200Y-55572184D01*
X106725200Y-53604415D01*
X106720725Y-53589176D01*
X106719335Y-53587971D01*
X106711652Y-53586300D01*
X104739316Y-53586300D01*
X104724077Y-53590775D01*
X104722872Y-53592165D01*
X104721201Y-53599848D01*
X104721201Y-55126969D01*
X104208695Y-55126969D01*
X104240792Y-51197354D01*
X104261350Y-51129400D01*
X104315384Y-51083347D01*
X104365149Y-51072395D01*
X104531640Y-51070229D01*
X104726469Y-51067694D01*
X104794844Y-51086808D01*
X104842031Y-51139854D01*
X104853048Y-51209991D01*
X104828935Y-51269248D01*
X104784411Y-51328656D01*
X104775876Y-51344246D01*
X104730722Y-51464694D01*
X104727095Y-51479949D01*
X104721569Y-51530814D01*
X104721200Y-51537628D01*
X104721200Y-53060185D01*
X104725675Y-53075424D01*
X104727065Y-53076629D01*
X104734748Y-53078300D01*
X109219084Y-53078300D01*
X109234323Y-53073825D01*
X109235528Y-53072435D01*
X109237199Y-53064752D01*
X109237199Y-51537631D01*
X109236829Y-51530810D01*
X109231305Y-51479948D01*
X109227679Y-51464696D01*
X109182524Y-51344246D01*
X109173986Y-51328651D01*
X109097485Y-51226576D01*
X109095700Y-51224791D01*
X109094499Y-51222592D01*
X109092104Y-51219396D01*
X109092565Y-51219050D01*
X109061674Y-51162479D01*
X109066739Y-51091664D01*
X109109286Y-51034828D01*
X109175806Y-51010017D01*
X109183147Y-51009707D01*
X109396705Y-51006929D01*
X109494457Y-51005657D01*
X109562832Y-51024771D01*
X109610019Y-51077817D01*
X109622096Y-51131352D01*
X109651800Y-63931800D01*
X115163600Y-63931800D01*
X115163615Y-63913684D01*
X115164469Y-62828346D01*
X115165201Y-61898400D01*
X115185257Y-61830296D01*
X115238949Y-61783845D01*
X115291201Y-61772500D01*
X116720758Y-61772500D01*
X116788879Y-61792502D01*
X116835372Y-61846158D01*
X116845476Y-61916432D01*
X116821847Y-61973712D01*
X116816236Y-61981254D01*
X116813046Y-61985542D01*
X116708560Y-62191051D01*
X116706978Y-62196145D01*
X116706977Y-62196148D01*
X116644915Y-62396020D01*
X116640193Y-62411227D01*
X116639492Y-62416516D01*
X116612224Y-62622255D01*
X116609902Y-62639774D01*
X116610102Y-62645103D01*
X116610102Y-62645105D01*
X116611392Y-62679465D01*
X116618551Y-62870158D01*
X116665893Y-63095791D01*
X116667851Y-63100750D01*
X116667852Y-63100752D01*
X116742116Y-63288798D01*
X116750576Y-63310221D01*
X116753343Y-63314780D01*
X116753344Y-63314783D01*
X116793685Y-63381262D01*
X116870177Y-63507317D01*
X116873674Y-63511347D01*
X116960238Y-63611103D01*
X117021277Y-63681445D01*
X117025408Y-63684832D01*
X117057329Y-63711006D01*
X117097324Y-63769666D01*
X117099255Y-63840636D01*
X117062510Y-63901384D01*
X117043741Y-63915584D01*
X116903993Y-64002063D01*
X116892592Y-64011099D01*
X116778061Y-64125829D01*
X116769049Y-64137240D01*
X116683984Y-64275243D01*
X116677837Y-64288424D01*
X116626662Y-64442710D01*
X116623795Y-64456086D01*
X116614128Y-64550438D01*
X116613800Y-64556855D01*
X116613800Y-64931885D01*
X116618275Y-64947124D01*
X116619665Y-64948329D01*
X116627348Y-64950000D01*
X119611684Y-64950000D01*
X119626923Y-64945525D01*
X119628128Y-64944135D01*
X119629799Y-64936452D01*
X119629799Y-64556905D01*
X119629462Y-64550386D01*
X119619543Y-64454794D01*
X119616651Y-64441400D01*
X119565212Y-64287216D01*
X119559039Y-64274038D01*
X119473737Y-64136193D01*
X119464701Y-64124792D01*
X119349971Y-64010261D01*
X119338557Y-64001247D01*
X119199087Y-63915277D01*
X119151593Y-63862505D01*
X119140169Y-63792434D01*
X119168443Y-63727310D01*
X119178230Y-63716847D01*
X119211791Y-63684832D01*
X119292935Y-63607424D01*
X119430554Y-63422458D01*
X119439525Y-63404815D01*
X119498510Y-63288798D01*
X119535040Y-63216949D01*
X119563093Y-63126606D01*
X119601824Y-63001871D01*
X119603407Y-62996773D01*
X119609204Y-62953035D01*
X119632998Y-62773511D01*
X119632998Y-62773506D01*
X119633698Y-62768226D01*
X119631128Y-62699755D01*
X119625249Y-62543173D01*
X119625049Y-62537842D01*
X119577707Y-62312209D01*
X119493024Y-62097779D01*
X119373423Y-61900683D01*
X119261914Y-61772180D01*
X119225823Y-61730588D01*
X119225821Y-61730586D01*
X119222323Y-61726555D01*
X119125906Y-61647498D01*
X119048173Y-61583760D01*
X119048167Y-61583756D01*
X119044045Y-61580376D01*
X119039408Y-61577737D01*
X119035010Y-61574714D01*
X119036456Y-61572610D01*
X118994565Y-61529065D01*
X118980300Y-61470830D01*
X118980300Y-61465390D01*
X118980742Y-61454847D01*
X118985104Y-61402901D01*
X118974363Y-61322398D01*
X118973993Y-61319343D01*
X118965953Y-61245342D01*
X118965217Y-61238563D01*
X118963042Y-61232099D01*
X118962322Y-61228824D01*
X118962252Y-61228428D01*
X118962129Y-61228004D01*
X118961338Y-61224784D01*
X118960434Y-61218011D01*
X118932651Y-61141677D01*
X118931644Y-61138802D01*
X118920219Y-61104855D01*
X118905722Y-61061777D01*
X118902204Y-61055923D01*
X118900815Y-61052916D01*
X118900648Y-61052511D01*
X118900443Y-61052135D01*
X118898973Y-61049148D01*
X118896638Y-61042732D01*
X118853070Y-60974080D01*
X118851545Y-60971611D01*
X118809653Y-60901891D01*
X118804966Y-60896934D01*
X118802949Y-60894277D01*
X118802439Y-60893543D01*
X118799461Y-60889605D01*
X118796691Y-60885241D01*
X118792871Y-60880968D01*
X118738875Y-60826972D01*
X118736421Y-60824450D01*
X118731809Y-60819573D01*
X118681492Y-60766364D01*
X118675844Y-60762526D01*
X118670652Y-60758107D01*
X118670992Y-60757707D01*
X118663003Y-60751100D01*
X118248120Y-60336217D01*
X118240977Y-60328450D01*
X118211735Y-60293847D01*
X118207329Y-60288633D01*
X118142831Y-60239321D01*
X118140415Y-60237427D01*
X118082383Y-60190768D01*
X118082382Y-60190767D01*
X118077062Y-60186490D01*
X118070943Y-60183453D01*
X118068148Y-60181665D01*
X118067787Y-60181412D01*
X118067420Y-60181210D01*
X118064562Y-60179479D01*
X118059148Y-60175340D01*
X117985536Y-60141014D01*
X117982764Y-60139680D01*
X117916096Y-60106586D01*
X117909986Y-60103553D01*
X117903365Y-60101902D01*
X117900237Y-60100751D01*
X117899844Y-60100587D01*
X117899439Y-60100468D01*
X117896275Y-60099391D01*
X117890096Y-60096510D01*
X117810800Y-60078785D01*
X117807802Y-60078076D01*
X117735621Y-60060079D01*
X117735620Y-60060079D01*
X117728999Y-60058428D01*
X117722178Y-60058237D01*
X117718875Y-60057785D01*
X117717991Y-60057626D01*
X117713108Y-60056948D01*
X117708060Y-60055820D01*
X117702337Y-60055500D01*
X117625956Y-60055500D01*
X117622437Y-60055451D01*
X117542543Y-60053219D01*
X117535839Y-60054498D01*
X117529038Y-60055045D01*
X117528996Y-60054525D01*
X117518675Y-60055500D01*
X115292752Y-60055500D01*
X115224631Y-60035498D01*
X115178138Y-59981842D01*
X115166752Y-59929401D01*
X115168055Y-58275278D01*
X115188111Y-58207173D01*
X115241803Y-58160722D01*
X115294374Y-58149377D01*
X116896289Y-58153442D01*
X119850045Y-58160937D01*
X119918114Y-58181112D01*
X119964471Y-58234886D01*
X119975723Y-58287565D01*
X119933071Y-66819791D01*
X119932427Y-66948630D01*
X119912085Y-67016650D01*
X119858198Y-67062874D01*
X119806429Y-67074000D01*
X116811800Y-67074000D01*
X116798639Y-68995525D01*
X116764423Y-73991000D01*
X116743955Y-74058982D01*
X116689982Y-74105106D01*
X116619641Y-74114729D01*
X116572310Y-74097397D01*
X116440557Y-74016184D01*
X116427376Y-74010037D01*
X116273090Y-73958862D01*
X116259714Y-73955995D01*
X116165362Y-73946328D01*
X116158945Y-73946000D01*
X115308915Y-73946000D01*
X115293676Y-73950475D01*
X115292471Y-73951865D01*
X115290800Y-73959548D01*
X115290800Y-76543884D01*
X115295275Y-76559123D01*
X115296665Y-76560328D01*
X115304348Y-76561999D01*
X116158895Y-76561999D01*
X116165414Y-76561662D01*
X116261006Y-76551743D01*
X116274400Y-76548851D01*
X116428584Y-76497412D01*
X116441762Y-76491239D01*
X116554737Y-76421327D01*
X116623188Y-76402489D01*
X116690958Y-76423650D01*
X116736529Y-76478091D01*
X116747037Y-76529334D01*
X116732658Y-78628680D01*
X116712190Y-78696662D01*
X116658217Y-78742786D01*
X116606479Y-78753817D01*
X114805586Y-78751182D01*
X114737494Y-78731080D01*
X114691080Y-78677357D01*
X114681079Y-78607068D01*
X114698510Y-78559066D01*
X114725712Y-78514937D01*
X114731856Y-78501759D01*
X114782115Y-78350234D01*
X114784981Y-78336868D01*
X114794472Y-78244230D01*
X114794800Y-78237815D01*
X114794800Y-78163615D01*
X114790325Y-78148376D01*
X114788935Y-78147171D01*
X114781252Y-78145500D01*
X112846915Y-78145500D01*
X112831676Y-78149975D01*
X112830471Y-78151365D01*
X112828800Y-78159048D01*
X112828800Y-78237766D01*
X112829137Y-78244282D01*
X112837303Y-78322981D01*
X112824438Y-78392802D01*
X112775868Y-78444585D01*
X112707012Y-78461887D01*
X112639732Y-78439217D01*
X112618340Y-78420295D01*
X112593586Y-78392802D01*
X112543222Y-78336868D01*
X112528075Y-78320045D01*
X112528074Y-78320044D01*
X112523653Y-78315134D01*
X112369152Y-78202882D01*
X112363124Y-78200198D01*
X112363122Y-78200197D01*
X112200719Y-78127891D01*
X112200718Y-78127891D01*
X112194688Y-78125206D01*
X112101287Y-78105353D01*
X112014344Y-78086872D01*
X112014339Y-78086872D01*
X112007887Y-78085500D01*
X111816913Y-78085500D01*
X111810461Y-78086872D01*
X111810456Y-78086872D01*
X111637376Y-78123662D01*
X111566585Y-78118260D01*
X111509953Y-78075443D01*
X111485459Y-78008806D01*
X111500880Y-77939504D01*
X111512981Y-77921465D01*
X111518033Y-77915182D01*
X111518038Y-77915174D01*
X111522309Y-77909862D01*
X111525342Y-77903752D01*
X111527130Y-77900956D01*
X111527382Y-77900596D01*
X111527585Y-77900227D01*
X111529317Y-77897366D01*
X111533460Y-77891948D01*
X111567793Y-77818321D01*
X111569127Y-77815549D01*
X111602214Y-77748896D01*
X111605247Y-77742786D01*
X111606898Y-77736165D01*
X111608049Y-77733037D01*
X111608213Y-77732644D01*
X111608332Y-77732239D01*
X111609409Y-77729075D01*
X111612290Y-77722896D01*
X111630015Y-77643598D01*
X111630724Y-77640602D01*
X111636014Y-77619385D01*
X112828800Y-77619385D01*
X112833275Y-77634624D01*
X112834665Y-77635829D01*
X112842348Y-77637500D01*
X113539685Y-77637500D01*
X113554924Y-77633025D01*
X113556129Y-77631635D01*
X113557800Y-77623952D01*
X113557800Y-77619385D01*
X114065800Y-77619385D01*
X114070275Y-77634624D01*
X114071665Y-77635829D01*
X114079348Y-77637500D01*
X114776685Y-77637500D01*
X114791924Y-77633025D01*
X114793129Y-77631635D01*
X114794800Y-77623952D01*
X114794800Y-77545234D01*
X114794463Y-77538718D01*
X114784725Y-77444868D01*
X114781832Y-77431472D01*
X114731312Y-77280047D01*
X114725147Y-77266885D01*
X114641374Y-77131508D01*
X114632340Y-77120110D01*
X114519671Y-77007637D01*
X114508260Y-76998625D01*
X114372737Y-76915088D01*
X114359559Y-76908944D01*
X114208034Y-76858685D01*
X114194668Y-76855819D01*
X114102030Y-76846328D01*
X114095615Y-76846000D01*
X114083915Y-76846000D01*
X114068676Y-76850475D01*
X114067471Y-76851865D01*
X114065800Y-76859548D01*
X114065800Y-77619385D01*
X113557800Y-77619385D01*
X113557800Y-76864115D01*
X113553325Y-76848876D01*
X113551935Y-76847671D01*
X113544252Y-76846000D01*
X113528034Y-76846000D01*
X113521518Y-76846337D01*
X113427668Y-76856075D01*
X113414272Y-76858968D01*
X113262847Y-76909488D01*
X113249685Y-76915653D01*
X113114308Y-76999426D01*
X113102910Y-77008460D01*
X112990437Y-77121129D01*
X112981425Y-77132540D01*
X112897888Y-77268063D01*
X112891744Y-77281241D01*
X112841485Y-77432766D01*
X112838619Y-77446132D01*
X112829128Y-77538770D01*
X112828800Y-77545185D01*
X112828800Y-77619385D01*
X111636014Y-77619385D01*
X111648721Y-77568421D01*
X111648721Y-77568420D01*
X111650372Y-77561799D01*
X111650563Y-77554978D01*
X111651015Y-77551675D01*
X111651174Y-77550791D01*
X111651852Y-77545908D01*
X111652980Y-77540860D01*
X111653300Y-77535137D01*
X111653300Y-77458756D01*
X111653349Y-77455238D01*
X111654745Y-77405258D01*
X111676641Y-77337722D01*
X111731574Y-77292746D01*
X111780335Y-77282777D01*
X111807506Y-77282699D01*
X111810800Y-77275430D01*
X111810800Y-77269678D01*
X112318800Y-77269678D01*
X112322773Y-77283209D01*
X112330671Y-77284344D01*
X112470590Y-77243693D01*
X112485021Y-77237448D01*
X112614478Y-77160889D01*
X112626904Y-77151249D01*
X112733249Y-77044904D01*
X112742889Y-77032478D01*
X112819448Y-76903021D01*
X112825693Y-76888590D01*
X112868069Y-76742735D01*
X112870370Y-76730133D01*
X112872607Y-76701716D01*
X112872800Y-76696786D01*
X112872800Y-76079915D01*
X112868325Y-76064676D01*
X112866935Y-76063471D01*
X112859252Y-76061800D01*
X112336915Y-76061800D01*
X112321676Y-76066275D01*
X112320471Y-76067665D01*
X112318800Y-76075348D01*
X112318800Y-77269678D01*
X111810800Y-77269678D01*
X111810800Y-75851095D01*
X113203801Y-75851095D01*
X113204138Y-75857614D01*
X113214057Y-75953206D01*
X113216949Y-75966600D01*
X113268388Y-76120784D01*
X113274561Y-76133962D01*
X113359863Y-76271807D01*
X113368899Y-76283208D01*
X113483629Y-76397739D01*
X113495040Y-76406751D01*
X113633043Y-76491816D01*
X113646224Y-76497963D01*
X113800510Y-76549138D01*
X113813886Y-76552005D01*
X113908238Y-76561672D01*
X113914654Y-76562000D01*
X114764685Y-76562000D01*
X114779924Y-76557525D01*
X114781129Y-76556135D01*
X114782800Y-76548452D01*
X114782800Y-75526115D01*
X114778325Y-75510876D01*
X114776935Y-75509671D01*
X114769252Y-75508000D01*
X113221916Y-75508000D01*
X113206677Y-75512475D01*
X113205472Y-75513865D01*
X113203801Y-75521548D01*
X113203801Y-75851095D01*
X111810800Y-75851095D01*
X111810800Y-75535685D01*
X112318800Y-75535685D01*
X112323275Y-75550924D01*
X112324665Y-75552129D01*
X112332348Y-75553800D01*
X112854684Y-75553800D01*
X112869923Y-75549325D01*
X112871128Y-75547935D01*
X112872799Y-75540252D01*
X112872799Y-74981885D01*
X113203800Y-74981885D01*
X113208275Y-74997124D01*
X113209665Y-74998329D01*
X113217348Y-75000000D01*
X114764685Y-75000000D01*
X114779924Y-74995525D01*
X114781129Y-74994135D01*
X114782800Y-74986452D01*
X114782800Y-73964116D01*
X114778325Y-73948877D01*
X114776935Y-73947672D01*
X114769252Y-73946001D01*
X113914705Y-73946001D01*
X113908186Y-73946338D01*
X113812594Y-73956257D01*
X113799200Y-73959149D01*
X113645016Y-74010588D01*
X113631838Y-74016761D01*
X113493993Y-74102063D01*
X113482592Y-74111099D01*
X113368061Y-74225829D01*
X113359049Y-74237240D01*
X113273984Y-74375243D01*
X113267837Y-74388424D01*
X113216662Y-74542710D01*
X113213795Y-74556086D01*
X113204128Y-74650438D01*
X113203800Y-74656855D01*
X113203800Y-74981885D01*
X112872799Y-74981885D01*
X112872799Y-74918817D01*
X112872605Y-74913880D01*
X112870370Y-74885464D01*
X112868070Y-74872869D01*
X112825693Y-74727010D01*
X112819448Y-74712579D01*
X112742889Y-74583122D01*
X112733249Y-74570696D01*
X112626904Y-74464351D01*
X112614478Y-74454711D01*
X112485021Y-74378152D01*
X112470590Y-74371907D01*
X112336195Y-74332861D01*
X112322094Y-74332901D01*
X112318800Y-74340170D01*
X112318800Y-75535685D01*
X111810800Y-75535685D01*
X111810800Y-74345922D01*
X111806326Y-74330684D01*
X111805532Y-74329996D01*
X111767148Y-74270270D01*
X111767148Y-74199274D01*
X111805531Y-74139547D01*
X111811867Y-74134415D01*
X111816159Y-74131691D01*
X111820432Y-74127870D01*
X111874413Y-74073889D01*
X111876935Y-74071435D01*
X111890104Y-74058982D01*
X111935036Y-74016492D01*
X111938871Y-74010850D01*
X111943293Y-74005654D01*
X111943689Y-74005991D01*
X111950302Y-73998001D01*
X112084382Y-73863921D01*
X112092149Y-73856778D01*
X112126753Y-73827536D01*
X112126757Y-73827532D01*
X112131967Y-73823129D01*
X112181279Y-73758631D01*
X112183173Y-73756215D01*
X112229832Y-73698183D01*
X112229833Y-73698182D01*
X112234110Y-73692862D01*
X112237147Y-73686743D01*
X112238935Y-73683948D01*
X112239188Y-73683587D01*
X112239390Y-73683220D01*
X112241121Y-73680362D01*
X112245260Y-73674948D01*
X112279586Y-73601336D01*
X112280920Y-73598564D01*
X112314014Y-73531896D01*
X112317047Y-73525786D01*
X112318698Y-73519165D01*
X112319849Y-73516037D01*
X112320013Y-73515643D01*
X112320132Y-73515239D01*
X112321209Y-73512076D01*
X112324090Y-73505896D01*
X112341805Y-73426648D01*
X112342512Y-73423653D01*
X112352054Y-73385385D01*
X112362173Y-73344799D01*
X112362363Y-73337977D01*
X112362817Y-73334667D01*
X112362973Y-73333802D01*
X112363653Y-73328903D01*
X112364780Y-73323860D01*
X112365100Y-73318137D01*
X112365100Y-73241771D01*
X112365149Y-73238253D01*
X112367191Y-73165163D01*
X112367191Y-73165158D01*
X112367381Y-73158343D01*
X112366103Y-73151642D01*
X112365555Y-73144838D01*
X112366075Y-73144796D01*
X112365100Y-73134475D01*
X112365100Y-72665480D01*
X112385102Y-72597359D01*
X112401927Y-72576462D01*
X112407404Y-72570976D01*
X112505905Y-72472303D01*
X112598715Y-72321738D01*
X112654397Y-72153861D01*
X112665100Y-72049400D01*
X112665100Y-70698600D01*
X112664763Y-70695350D01*
X112654838Y-70599692D01*
X112654837Y-70599688D01*
X112654126Y-70592834D01*
X112598150Y-70425054D01*
X112533956Y-70321318D01*
X112515100Y-70255015D01*
X112515100Y-69711592D01*
X112515756Y-69698749D01*
X112519972Y-69657598D01*
X112520300Y-69654400D01*
X112520300Y-68753600D01*
X112518516Y-68736406D01*
X112510038Y-68654692D01*
X112510037Y-68654688D01*
X112509326Y-68647834D01*
X112453350Y-68480054D01*
X112360278Y-68329652D01*
X112344477Y-68313878D01*
X112240283Y-68209866D01*
X112235103Y-68204695D01*
X112149047Y-68151649D01*
X112090768Y-68115725D01*
X112090766Y-68115724D01*
X112084538Y-68111885D01*
X112004795Y-68085436D01*
X111923189Y-68058368D01*
X111923187Y-68058368D01*
X111916661Y-68056203D01*
X111909825Y-68055503D01*
X111909822Y-68055502D01*
X111864757Y-68050885D01*
X111812200Y-68045500D01*
X110461400Y-68045500D01*
X110458154Y-68045837D01*
X110458150Y-68045837D01*
X110362492Y-68055762D01*
X110362488Y-68055763D01*
X110355634Y-68056474D01*
X110349098Y-68058655D01*
X110349096Y-68058655D01*
X110241060Y-68094699D01*
X110187854Y-68112450D01*
X110037452Y-68205522D01*
X109912495Y-68330697D01*
X109908655Y-68336927D01*
X109908654Y-68336928D01*
X109823527Y-68475028D01*
X109823525Y-68475033D01*
X109820754Y-68479528D01*
X109820753Y-68479529D01*
X109819798Y-68481079D01*
X109819685Y-68481262D01*
X109819388Y-68481079D01*
X109775276Y-68531185D01*
X109707000Y-68550650D01*
X109639038Y-68530112D01*
X109607168Y-68500222D01*
X109600061Y-68490739D01*
X109483505Y-68403385D01*
X109347116Y-68352255D01*
X109284934Y-68345500D01*
X108970099Y-68345500D01*
X108932420Y-68339734D01*
X108887054Y-68325517D01*
X108844032Y-68312035D01*
X108837909Y-68311370D01*
X108837905Y-68311369D01*
X108653537Y-68291341D01*
X108653533Y-68291341D01*
X108647412Y-68290676D01*
X108450387Y-68307913D01*
X108393367Y-68324479D01*
X108338232Y-68340497D01*
X108303079Y-68345500D01*
X107988666Y-68345500D01*
X107926484Y-68352255D01*
X107790095Y-68403385D01*
X107767489Y-68420327D01*
X107700985Y-68445174D01*
X107691926Y-68445500D01*
X106921235Y-68445500D01*
X106853114Y-68425498D01*
X106806621Y-68371842D01*
X106803253Y-68363730D01*
X106765567Y-68263203D01*
X106762415Y-68254795D01*
X106675061Y-68138239D01*
X106558505Y-68050885D01*
X106538117Y-68043242D01*
X106481353Y-68000599D01*
X106456654Y-67934038D01*
X106471862Y-67864689D01*
X106483466Y-67847168D01*
X106576745Y-67729056D01*
X106582450Y-67720469D01*
X106693514Y-67519278D01*
X106697744Y-67509866D01*
X106774459Y-67293232D01*
X106777093Y-67283261D01*
X106794447Y-67185837D01*
X106792987Y-67172540D01*
X106778430Y-67168000D01*
X103843704Y-67168000D01*
X103830360Y-67171918D01*
X103828373Y-67186194D01*
X103837910Y-67248515D01*
X103840299Y-67258543D01*
X103911698Y-67476988D01*
X103915695Y-67486497D01*
X104021811Y-67690344D01*
X104027300Y-67699061D01*
X104140702Y-67850099D01*
X104165607Y-67916584D01*
X104150614Y-67985980D01*
X104100484Y-68036253D01*
X104084175Y-68043732D01*
X104065095Y-68050885D01*
X103948539Y-68138239D01*
X103861185Y-68254795D01*
X103810055Y-68391184D01*
X103803300Y-68453366D01*
X103803300Y-70454634D01*
X103810055Y-70516816D01*
X103861185Y-70653205D01*
X103948539Y-70769761D01*
X104065095Y-70857115D01*
X104201484Y-70908245D01*
X104263666Y-70915000D01*
X106359934Y-70915000D01*
X106422116Y-70908245D01*
X106558505Y-70857115D01*
X106675061Y-70769761D01*
X106762415Y-70653205D01*
X106803253Y-70544270D01*
X106845895Y-70487506D01*
X106912456Y-70462806D01*
X106921235Y-70462500D01*
X107132721Y-70462500D01*
X107200842Y-70482502D01*
X107247335Y-70536158D01*
X107258065Y-70601343D01*
X107248100Y-70698600D01*
X107248100Y-72049400D01*
X107259074Y-72155166D01*
X107315050Y-72322946D01*
X107408122Y-72473348D01*
X107533297Y-72598305D01*
X107539527Y-72602145D01*
X107539528Y-72602146D01*
X107676690Y-72686694D01*
X107683862Y-72691115D01*
X107763605Y-72717564D01*
X107845211Y-72744632D01*
X107845213Y-72744632D01*
X107851739Y-72746797D01*
X107858575Y-72747497D01*
X107858578Y-72747498D01*
X107901631Y-72751909D01*
X107956200Y-72757500D01*
X108857000Y-72757500D01*
X108860246Y-72757163D01*
X108860250Y-72757163D01*
X108955908Y-72747238D01*
X108955912Y-72747237D01*
X108962766Y-72746526D01*
X108969302Y-72744345D01*
X108969304Y-72744345D01*
X109101406Y-72700272D01*
X109130546Y-72690550D01*
X109266873Y-72606188D01*
X109292838Y-72599043D01*
X109307404Y-72570976D01*
X109400734Y-72477483D01*
X109405905Y-72472303D01*
X109498715Y-72321738D01*
X109554397Y-72153861D01*
X109565100Y-72049400D01*
X109565100Y-70698600D01*
X109564763Y-70695350D01*
X109554838Y-70599692D01*
X109554837Y-70599688D01*
X109554126Y-70592834D01*
X109498150Y-70425054D01*
X109460966Y-70364966D01*
X109442129Y-70296517D01*
X109463290Y-70228747D01*
X109492546Y-70197839D01*
X109567933Y-70141340D01*
X109600061Y-70117261D01*
X109667121Y-70027784D01*
X109674062Y-70018522D01*
X109730921Y-69976007D01*
X109801740Y-69970981D01*
X109864033Y-70005041D01*
X109882032Y-70027783D01*
X109913322Y-70078348D01*
X110038497Y-70203305D01*
X110044727Y-70207145D01*
X110044728Y-70207146D01*
X110180516Y-70290847D01*
X110189062Y-70296115D01*
X110257498Y-70318814D01*
X110311440Y-70336706D01*
X110369799Y-70377137D01*
X110397036Y-70442701D01*
X110391365Y-70495966D01*
X110372700Y-70552240D01*
X110358803Y-70594139D01*
X110358103Y-70600975D01*
X110358102Y-70600978D01*
X110355969Y-70621794D01*
X110348100Y-70698600D01*
X110348100Y-72049400D01*
X110359074Y-72155166D01*
X110415050Y-72322946D01*
X110418904Y-72329174D01*
X110418905Y-72329176D01*
X110466444Y-72405997D01*
X110485282Y-72474449D01*
X110464121Y-72542218D01*
X110409680Y-72587789D01*
X110359300Y-72598300D01*
X110023390Y-72598300D01*
X110012847Y-72597858D01*
X109960901Y-72593496D01*
X109954141Y-72594398D01*
X109954139Y-72594398D01*
X109880398Y-72604237D01*
X109877343Y-72604607D01*
X109845111Y-72608109D01*
X109796563Y-72613383D01*
X109790099Y-72615558D01*
X109786824Y-72616278D01*
X109786428Y-72616348D01*
X109786004Y-72616471D01*
X109782785Y-72617262D01*
X109776011Y-72618166D01*
X109699680Y-72645948D01*
X109696830Y-72646945D01*
X109626245Y-72670700D01*
X109626235Y-72670705D01*
X109619777Y-72672878D01*
X109613931Y-72676390D01*
X109610898Y-72677792D01*
X109610514Y-72677950D01*
X109610124Y-72678163D01*
X109607145Y-72679628D01*
X109600732Y-72681963D01*
X109594974Y-72685617D01*
X109594968Y-72685620D01*
X109532147Y-72725487D01*
X109529529Y-72727104D01*
X109461472Y-72767997D01*
X109436546Y-72774507D01*
X109422271Y-72802427D01*
X109384988Y-72839710D01*
X109382466Y-72842164D01*
X109324364Y-72897108D01*
X109320526Y-72902756D01*
X109316107Y-72907948D01*
X109315708Y-72907608D01*
X109309100Y-72915598D01*
X108947012Y-73277685D01*
X108939245Y-73284827D01*
X108899433Y-73318471D01*
X108895286Y-73323895D01*
X108895285Y-73323896D01*
X108850126Y-73382962D01*
X108848227Y-73385385D01*
X108816258Y-73425147D01*
X108797290Y-73448738D01*
X108794253Y-73454857D01*
X108792465Y-73457652D01*
X108792212Y-73458013D01*
X108792010Y-73458380D01*
X108790279Y-73461238D01*
X108786140Y-73466652D01*
X108763362Y-73515500D01*
X108751815Y-73540262D01*
X108750481Y-73543033D01*
X108714353Y-73615814D01*
X108712702Y-73622435D01*
X108711551Y-73625563D01*
X108711387Y-73625956D01*
X108711268Y-73626361D01*
X108710191Y-73629525D01*
X108707310Y-73635704D01*
X108690815Y-73709498D01*
X108689585Y-73715002D01*
X108688876Y-73717998D01*
X108669228Y-73796801D01*
X108669037Y-73803622D01*
X108668585Y-73806925D01*
X108668426Y-73807809D01*
X108667748Y-73812692D01*
X108666620Y-73817740D01*
X108666300Y-73823463D01*
X108666300Y-73899844D01*
X108666251Y-73903363D01*
X108664019Y-73983257D01*
X108665298Y-73989961D01*
X108665845Y-73996762D01*
X108665325Y-73996804D01*
X108666300Y-74007125D01*
X108666300Y-74205605D01*
X108646298Y-74273726D01*
X108592642Y-74320219D01*
X108517659Y-74329554D01*
X108514814Y-74329034D01*
X108508631Y-74327238D01*
X108502217Y-74326733D01*
X108502216Y-74326733D01*
X108473758Y-74324493D01*
X108473750Y-74324493D01*
X108471302Y-74324300D01*
X108038298Y-74324300D01*
X108035850Y-74324493D01*
X108035842Y-74324493D01*
X108007379Y-74326733D01*
X108007374Y-74326734D01*
X108000969Y-74327238D01*
X107936658Y-74345922D01*
X107848812Y-74371443D01*
X107848810Y-74371444D01*
X107841199Y-74373655D01*
X107834372Y-74377692D01*
X107834373Y-74377692D01*
X107704820Y-74454309D01*
X107704817Y-74454311D01*
X107697993Y-74458347D01*
X107580347Y-74575993D01*
X107576311Y-74582817D01*
X107576309Y-74582820D01*
X107536320Y-74650438D01*
X107495655Y-74719199D01*
X107493444Y-74726810D01*
X107493443Y-74726812D01*
X107455198Y-74858453D01*
X107416985Y-74918288D01*
X107352489Y-74947966D01*
X107334201Y-74949300D01*
X107322392Y-74949300D01*
X107254271Y-74929298D01*
X107207778Y-74875642D01*
X107196397Y-74822213D01*
X107198462Y-74582820D01*
X107198685Y-74556933D01*
X107199010Y-74548918D01*
X107205841Y-74454711D01*
X107214953Y-74329033D01*
X107217048Y-74300135D01*
X107217048Y-74300124D01*
X107217180Y-74298310D01*
X107218078Y-74237240D01*
X107238534Y-72845715D01*
X107238534Y-72845714D01*
X107238800Y-72827600D01*
X99501800Y-72827600D01*
X99501800Y-72832919D01*
X99477395Y-72840085D01*
X99463577Y-72848966D01*
X99428198Y-72854071D01*
X89071800Y-72864000D01*
X89065979Y-74918817D01*
X89012155Y-93918619D01*
X88991961Y-93986683D01*
X88938173Y-94033023D01*
X88886421Y-94044262D01*
X59209436Y-94106162D01*
X59141276Y-94086303D01*
X59110842Y-94058944D01*
X59052950Y-93986683D01*
X58959687Y-93870272D01*
X58751149Y-93672377D01*
X58517683Y-93504614D01*
X58495843Y-93493050D01*
X58441573Y-93464316D01*
X58263608Y-93370088D01*
X57993627Y-93271289D01*
X57712736Y-93210045D01*
X57681685Y-93207601D01*
X57489718Y-93192493D01*
X57489709Y-93192493D01*
X57487261Y-93192300D01*
X57331729Y-93192300D01*
X57329593Y-93192446D01*
X57329582Y-93192446D01*
X57121452Y-93206635D01*
X57121446Y-93206636D01*
X57117175Y-93206927D01*
X57112980Y-93207796D01*
X57112978Y-93207796D01*
X56976416Y-93236077D01*
X56835658Y-93265226D01*
X56564657Y-93361193D01*
X56309188Y-93493050D01*
X56305687Y-93495511D01*
X56305683Y-93495513D01*
X56191583Y-93575704D01*
X56073977Y-93658359D01*
X55863378Y-93854060D01*
X55810537Y-93918619D01*
X55688667Y-94067515D01*
X55630042Y-94107561D01*
X55591429Y-94113709D01*
X55578063Y-94113737D01*
X55509902Y-94093877D01*
X55463296Y-94040319D01*
X55451800Y-93987737D01*
X55451800Y-89736263D01*
X65501864Y-89736263D01*
X65538204Y-89973744D01*
X65574894Y-90085997D01*
X65611234Y-90197183D01*
X65611237Y-90197189D01*
X65612842Y-90202101D01*
X65615229Y-90206687D01*
X65615231Y-90206691D01*
X65643069Y-90260166D01*
X65723775Y-90415200D01*
X65726885Y-90419342D01*
X65861724Y-90598930D01*
X65868023Y-90607320D01*
X66041712Y-90773301D01*
X66240178Y-90908686D01*
X66244861Y-90910860D01*
X66244865Y-90910862D01*
X66453395Y-91007658D01*
X66453399Y-91007659D01*
X66458090Y-91009837D01*
X66689598Y-91074040D01*
X66694735Y-91074589D01*
X66882393Y-91094644D01*
X66882401Y-91094644D01*
X66885728Y-91095000D01*
X67120202Y-91095000D01*
X67122775Y-91094788D01*
X67122786Y-91094788D01*
X67223746Y-91086487D01*
X67298737Y-91080322D01*
X67531744Y-91021794D01*
X67680496Y-90957115D01*
X67747326Y-90928057D01*
X67747329Y-90928055D01*
X67752063Y-90925997D01*
X67883270Y-90841115D01*
X67949437Y-90798310D01*
X67949440Y-90798308D01*
X67953777Y-90795502D01*
X68131470Y-90633814D01*
X68233505Y-90504615D01*
X68277167Y-90449330D01*
X68277170Y-90449325D01*
X68280368Y-90445276D01*
X68294685Y-90419342D01*
X68393977Y-90239474D01*
X68393979Y-90239470D01*
X68396474Y-90234950D01*
X68417291Y-90176167D01*
X68474944Y-90013360D01*
X68474945Y-90013356D01*
X68476670Y-90008485D01*
X68481983Y-89978659D01*
X68517895Y-89777052D01*
X68517896Y-89777046D01*
X68518801Y-89771963D01*
X68519631Y-89704000D01*
X76498635Y-89704000D01*
X76517265Y-89940711D01*
X76518419Y-89945518D01*
X76518420Y-89945524D01*
X76533536Y-90008485D01*
X76572695Y-90171594D01*
X76574588Y-90176165D01*
X76574589Y-90176167D01*
X76600812Y-90239474D01*
X76663560Y-90390963D01*
X76666146Y-90395183D01*
X76785041Y-90589202D01*
X76785045Y-90589208D01*
X76787624Y-90593416D01*
X76941831Y-90773969D01*
X77122384Y-90928176D01*
X77126592Y-90930755D01*
X77126598Y-90930759D01*
X77275154Y-91021794D01*
X77324837Y-91052240D01*
X77329407Y-91054133D01*
X77329411Y-91054135D01*
X77428069Y-91095000D01*
X77544206Y-91143105D01*
X77624409Y-91162360D01*
X77770276Y-91197380D01*
X77770282Y-91197381D01*
X77775089Y-91198535D01*
X78011800Y-91217165D01*
X78248511Y-91198535D01*
X78253318Y-91197381D01*
X78253324Y-91197380D01*
X78399191Y-91162360D01*
X78479394Y-91143105D01*
X78595531Y-91095000D01*
X78694189Y-91054135D01*
X78694193Y-91054133D01*
X78698763Y-91052240D01*
X78748446Y-91021794D01*
X78897002Y-90930759D01*
X78897008Y-90930755D01*
X78901216Y-90928176D01*
X79081769Y-90773969D01*
X79235976Y-90593416D01*
X79238555Y-90589208D01*
X79238559Y-90589202D01*
X79357454Y-90395183D01*
X79360040Y-90390963D01*
X79422789Y-90239474D01*
X79449011Y-90176167D01*
X79449012Y-90176165D01*
X79450905Y-90171594D01*
X79490064Y-90008485D01*
X79505180Y-89945524D01*
X79505181Y-89945518D01*
X79506335Y-89940711D01*
X79524965Y-89704000D01*
X79506335Y-89467289D01*
X79450905Y-89236406D01*
X79396804Y-89105793D01*
X79361935Y-89021611D01*
X79361933Y-89021607D01*
X79360040Y-89017037D01*
X79256857Y-88848658D01*
X79238559Y-88818798D01*
X79238555Y-88818792D01*
X79235976Y-88814584D01*
X79081769Y-88634031D01*
X78901216Y-88479824D01*
X78897008Y-88477245D01*
X78897002Y-88477241D01*
X78702983Y-88358346D01*
X78698763Y-88355760D01*
X78694193Y-88353867D01*
X78694189Y-88353865D01*
X78483967Y-88266789D01*
X78483965Y-88266788D01*
X78479394Y-88264895D01*
X78368364Y-88238239D01*
X78253324Y-88210620D01*
X78253318Y-88210619D01*
X78248511Y-88209465D01*
X78011800Y-88190835D01*
X77775089Y-88209465D01*
X77770282Y-88210619D01*
X77770276Y-88210620D01*
X77655236Y-88238239D01*
X77544206Y-88264895D01*
X77539635Y-88266788D01*
X77539633Y-88266789D01*
X77329411Y-88353865D01*
X77329407Y-88353867D01*
X77324837Y-88355760D01*
X77320617Y-88358346D01*
X77126598Y-88477241D01*
X77126592Y-88477245D01*
X77122384Y-88479824D01*
X76941831Y-88634031D01*
X76787624Y-88814584D01*
X76785045Y-88818792D01*
X76785041Y-88818798D01*
X76766743Y-88848658D01*
X76663560Y-89017037D01*
X76661667Y-89021607D01*
X76661665Y-89021611D01*
X76626796Y-89105793D01*
X76572695Y-89236406D01*
X76517265Y-89467289D01*
X76498635Y-89704000D01*
X68519631Y-89704000D01*
X68521736Y-89531737D01*
X68485396Y-89294256D01*
X68437538Y-89147834D01*
X68412366Y-89070817D01*
X68412363Y-89070811D01*
X68410758Y-89065899D01*
X68366699Y-88981262D01*
X68302216Y-88857393D01*
X68299825Y-88852800D01*
X68200340Y-88720298D01*
X68158682Y-88664815D01*
X68158680Y-88664812D01*
X68155577Y-88660680D01*
X68061842Y-88571105D01*
X67985625Y-88498270D01*
X67985624Y-88498269D01*
X67981888Y-88494699D01*
X67944449Y-88469160D01*
X67899448Y-88414249D01*
X67891277Y-88343725D01*
X67922531Y-88279978D01*
X67947010Y-88259284D01*
X67949126Y-88257915D01*
X67957298Y-88251622D01*
X68127280Y-88096950D01*
X68134306Y-88089417D01*
X68276745Y-87909056D01*
X68282450Y-87900469D01*
X68393514Y-87699278D01*
X68397744Y-87689866D01*
X68474459Y-87473232D01*
X68477093Y-87463261D01*
X68494447Y-87365837D01*
X68492987Y-87352540D01*
X68478430Y-87348000D01*
X65543704Y-87348000D01*
X65530360Y-87351918D01*
X65528373Y-87366194D01*
X65537910Y-87428515D01*
X65540299Y-87438543D01*
X65611698Y-87656988D01*
X65615695Y-87666497D01*
X65721811Y-87870344D01*
X65727305Y-87879069D01*
X65865293Y-88062852D01*
X65872136Y-88070559D01*
X66038291Y-88229339D01*
X66046298Y-88235823D01*
X66079156Y-88258237D01*
X66124159Y-88313148D01*
X66132332Y-88383672D01*
X66101078Y-88447420D01*
X66076596Y-88468116D01*
X66074981Y-88469161D01*
X66069823Y-88472498D01*
X65892130Y-88634186D01*
X65869098Y-88663350D01*
X65746433Y-88818670D01*
X65746430Y-88818675D01*
X65743232Y-88822724D01*
X65740739Y-88827240D01*
X65740737Y-88827243D01*
X65629623Y-89028526D01*
X65627126Y-89033050D01*
X65625402Y-89037919D01*
X65625400Y-89037923D01*
X65548656Y-89254640D01*
X65546930Y-89259515D01*
X65546023Y-89264608D01*
X65546022Y-89264611D01*
X65509041Y-89472223D01*
X65504799Y-89496037D01*
X65501864Y-89736263D01*
X55451800Y-89736263D01*
X55451800Y-88022200D01*
X59753700Y-88022200D01*
X59754037Y-88025446D01*
X59754037Y-88025450D01*
X59762124Y-88103385D01*
X59764674Y-88127966D01*
X59766855Y-88134502D01*
X59766855Y-88134504D01*
X59785617Y-88190739D01*
X59820650Y-88295746D01*
X59913722Y-88446148D01*
X60038897Y-88571105D01*
X60045127Y-88574945D01*
X60045128Y-88574946D01*
X60182290Y-88659494D01*
X60189462Y-88663915D01*
X60269205Y-88690364D01*
X60350811Y-88717432D01*
X60350813Y-88717432D01*
X60357339Y-88719597D01*
X60364175Y-88720297D01*
X60364178Y-88720298D01*
X60407231Y-88724709D01*
X60461800Y-88730300D01*
X61812600Y-88730300D01*
X61815846Y-88729963D01*
X61815850Y-88729963D01*
X61911508Y-88720038D01*
X61911512Y-88720037D01*
X61918366Y-88719326D01*
X61924902Y-88717145D01*
X61924904Y-88717145D01*
X62057006Y-88673072D01*
X62086146Y-88663350D01*
X62189882Y-88599156D01*
X62256185Y-88580300D01*
X63686969Y-88580300D01*
X63690025Y-88580000D01*
X63690032Y-88580000D01*
X63748540Y-88574263D01*
X63834033Y-88565880D01*
X63839934Y-88564098D01*
X63839936Y-88564098D01*
X63934066Y-88535678D01*
X63970484Y-88530300D01*
X64285334Y-88530300D01*
X64347516Y-88523545D01*
X64483905Y-88472415D01*
X64600461Y-88385061D01*
X64687815Y-88268505D01*
X64738945Y-88132116D01*
X64745700Y-88069934D01*
X64745700Y-87073666D01*
X64738945Y-87011484D01*
X64687815Y-86875095D01*
X64600461Y-86758539D01*
X64483905Y-86671185D01*
X64347516Y-86620055D01*
X64285334Y-86613300D01*
X63970593Y-86613300D01*
X63932494Y-86607402D01*
X63847894Y-86580565D01*
X63693973Y-86563300D01*
X62256300Y-86563300D01*
X62190184Y-86544560D01*
X62091168Y-86483525D01*
X62091166Y-86483524D01*
X62084938Y-86479685D01*
X61924454Y-86426455D01*
X61923589Y-86426168D01*
X61923587Y-86426168D01*
X61917061Y-86424003D01*
X61910225Y-86423303D01*
X61910222Y-86423302D01*
X61867169Y-86418891D01*
X61812600Y-86413300D01*
X60461800Y-86413300D01*
X60458554Y-86413637D01*
X60458550Y-86413637D01*
X60362892Y-86423562D01*
X60362888Y-86423563D01*
X60356034Y-86424274D01*
X60349498Y-86426455D01*
X60349496Y-86426455D01*
X60291216Y-86445899D01*
X60188254Y-86480250D01*
X60037852Y-86573322D01*
X59912895Y-86698497D01*
X59909055Y-86704727D01*
X59909054Y-86704728D01*
X59863519Y-86778600D01*
X59820085Y-86849062D01*
X59807040Y-86888391D01*
X59781121Y-86966537D01*
X59764403Y-87016939D01*
X59753700Y-87121400D01*
X59753700Y-88022200D01*
X55451800Y-88022200D01*
X55451800Y-81825188D01*
X55471802Y-81757067D01*
X55525458Y-81710574D01*
X55595732Y-81700470D01*
X55643914Y-81717927D01*
X55654440Y-81724415D01*
X55667624Y-81730563D01*
X55821910Y-81781738D01*
X55835286Y-81784605D01*
X55929638Y-81794272D01*
X55936054Y-81794600D01*
X56786085Y-81794600D01*
X56801324Y-81790125D01*
X56802529Y-81788735D01*
X56804200Y-81781052D01*
X56804200Y-81776484D01*
X57312200Y-81776484D01*
X57316675Y-81791723D01*
X57318065Y-81792928D01*
X57325748Y-81794599D01*
X58180295Y-81794599D01*
X58186814Y-81794262D01*
X58282406Y-81784343D01*
X58295800Y-81781451D01*
X58449984Y-81730012D01*
X58463162Y-81723839D01*
X58601007Y-81638537D01*
X58612408Y-81629501D01*
X58726939Y-81514771D01*
X58735951Y-81503360D01*
X58821016Y-81365357D01*
X58827163Y-81352176D01*
X58878338Y-81197890D01*
X58881205Y-81184514D01*
X58890872Y-81090162D01*
X58891200Y-81083746D01*
X58891200Y-80758715D01*
X58886725Y-80743476D01*
X58885335Y-80742271D01*
X58877652Y-80740600D01*
X57330315Y-80740600D01*
X57315076Y-80745075D01*
X57313871Y-80746465D01*
X57312200Y-80754148D01*
X57312200Y-81776484D01*
X56804200Y-81776484D01*
X56804200Y-80214485D01*
X57312200Y-80214485D01*
X57316675Y-80229724D01*
X57318065Y-80230929D01*
X57325748Y-80232600D01*
X58873084Y-80232600D01*
X58888323Y-80228125D01*
X58889528Y-80226735D01*
X58891199Y-80219052D01*
X58891199Y-79889505D01*
X58890862Y-79882986D01*
X58880943Y-79787394D01*
X58878051Y-79774000D01*
X58826612Y-79619816D01*
X58820439Y-79606638D01*
X58735137Y-79468793D01*
X58726101Y-79457392D01*
X58611371Y-79342861D01*
X58599960Y-79333849D01*
X58461957Y-79248784D01*
X58448776Y-79242637D01*
X58294490Y-79191462D01*
X58281114Y-79188595D01*
X58186762Y-79178928D01*
X58180345Y-79178600D01*
X57330315Y-79178600D01*
X57315076Y-79183075D01*
X57313871Y-79184465D01*
X57312200Y-79192148D01*
X57312200Y-80214485D01*
X56804200Y-80214485D01*
X56804200Y-79196716D01*
X56799725Y-79181477D01*
X56798335Y-79180272D01*
X56790652Y-79178601D01*
X55936105Y-79178601D01*
X55929586Y-79178938D01*
X55833994Y-79188857D01*
X55820600Y-79191749D01*
X55666416Y-79243188D01*
X55653240Y-79249361D01*
X55644102Y-79255015D01*
X55575650Y-79273852D01*
X55507881Y-79252690D01*
X55462310Y-79198249D01*
X55451800Y-79147870D01*
X55451800Y-77840566D01*
X57411600Y-77840566D01*
X57411937Y-77847082D01*
X57421675Y-77940932D01*
X57424568Y-77954328D01*
X57475088Y-78105753D01*
X57481253Y-78118915D01*
X57565026Y-78254292D01*
X57574060Y-78265690D01*
X57686729Y-78378163D01*
X57698140Y-78387175D01*
X57833663Y-78470712D01*
X57846841Y-78476856D01*
X57998366Y-78527115D01*
X58011732Y-78529981D01*
X58104370Y-78539472D01*
X58110785Y-78539800D01*
X58122485Y-78539800D01*
X58137724Y-78535325D01*
X58138929Y-78533935D01*
X58140600Y-78526252D01*
X58140600Y-78521685D01*
X58648600Y-78521685D01*
X58653075Y-78536924D01*
X58654465Y-78538129D01*
X58662148Y-78539800D01*
X58678366Y-78539800D01*
X58684882Y-78539463D01*
X58778732Y-78529725D01*
X58792128Y-78526832D01*
X58943553Y-78476312D01*
X58956711Y-78470149D01*
X59077897Y-78395157D01*
X59146349Y-78376320D01*
X59214119Y-78397482D01*
X59259690Y-78451923D01*
X59270200Y-78502302D01*
X59270200Y-79089485D01*
X59274675Y-79104724D01*
X59276065Y-79105929D01*
X59283748Y-79107600D01*
X59806085Y-79107600D01*
X59821324Y-79103125D01*
X59822529Y-79101735D01*
X59824200Y-79094052D01*
X59824200Y-77899722D01*
X59820227Y-77886191D01*
X59812329Y-77885056D01*
X59672410Y-77925707D01*
X59657979Y-77931952D01*
X59564839Y-77987034D01*
X59496022Y-78004493D01*
X59428691Y-77981976D01*
X59384222Y-77926631D01*
X59375356Y-77865739D01*
X59377272Y-77847035D01*
X59377600Y-77840615D01*
X59377600Y-77766415D01*
X59373125Y-77751176D01*
X59371735Y-77749971D01*
X59364052Y-77748300D01*
X58666715Y-77748300D01*
X58651476Y-77752775D01*
X58650271Y-77754165D01*
X58648600Y-77761848D01*
X58648600Y-78521685D01*
X58140600Y-78521685D01*
X58140600Y-77766415D01*
X58136125Y-77751176D01*
X58134735Y-77749971D01*
X58127052Y-77748300D01*
X57429715Y-77748300D01*
X57414476Y-77752775D01*
X57413271Y-77754165D01*
X57411600Y-77761848D01*
X57411600Y-77840566D01*
X55451800Y-77840566D01*
X55451800Y-77350000D01*
X55471802Y-77281879D01*
X55525458Y-77235386D01*
X55577800Y-77224000D01*
X57353587Y-77224000D01*
X57385686Y-77233425D01*
X57386041Y-77231793D01*
X57425148Y-77240300D01*
X59359485Y-77240300D01*
X59397615Y-77229104D01*
X59433113Y-77224000D01*
X59469961Y-77224000D01*
X59471800Y-77224198D01*
X59471800Y-77224400D01*
X59992432Y-77224400D01*
X60066494Y-77248464D01*
X60096848Y-77270518D01*
X60102876Y-77273202D01*
X60102878Y-77273203D01*
X60146773Y-77292746D01*
X60271312Y-77348194D01*
X60364713Y-77368047D01*
X60451656Y-77386528D01*
X60451661Y-77386528D01*
X60458113Y-77387900D01*
X60554401Y-77387900D01*
X60622522Y-77407902D01*
X60669015Y-77461558D01*
X60679119Y-77531832D01*
X60652598Y-77592852D01*
X60620690Y-77632538D01*
X60617653Y-77638657D01*
X60615865Y-77641452D01*
X60615612Y-77641813D01*
X60615410Y-77642180D01*
X60613679Y-77645038D01*
X60609540Y-77650452D01*
X60606659Y-77656631D01*
X60575215Y-77724062D01*
X60573881Y-77726833D01*
X60537753Y-77799614D01*
X60536102Y-77806235D01*
X60534951Y-77809363D01*
X60534788Y-77809755D01*
X60534667Y-77810165D01*
X60533592Y-77813323D01*
X60532595Y-77815461D01*
X60532148Y-77816096D01*
X60530887Y-77819123D01*
X60530699Y-77819526D01*
X60529970Y-77819186D01*
X60492228Y-77872761D01*
X60426451Y-77899482D01*
X60378685Y-77895112D01*
X60349596Y-77886661D01*
X60335494Y-77886701D01*
X60332200Y-77893970D01*
X60332200Y-79489600D01*
X60312198Y-79557721D01*
X60258542Y-79604214D01*
X60206200Y-79615600D01*
X59288316Y-79615600D01*
X59273077Y-79620075D01*
X59271872Y-79621465D01*
X59270201Y-79629148D01*
X59270201Y-80250584D01*
X59270395Y-80255520D01*
X59272630Y-80283936D01*
X59274930Y-80296531D01*
X59317307Y-80442390D01*
X59323552Y-80456821D01*
X59400111Y-80586278D01*
X59409751Y-80598704D01*
X59516096Y-80705049D01*
X59528522Y-80714689D01*
X59657979Y-80791248D01*
X59672410Y-80797493D01*
X59823579Y-80841413D01*
X59883414Y-80879627D01*
X59913091Y-80944123D01*
X59903187Y-81014426D01*
X59877599Y-81051427D01*
X59782295Y-81146897D01*
X59689485Y-81297462D01*
X59633803Y-81465339D01*
X59623100Y-81569800D01*
X59623100Y-82920600D01*
X59623437Y-82923846D01*
X59623437Y-82923850D01*
X59633038Y-83016380D01*
X59634074Y-83026366D01*
X59690050Y-83194146D01*
X59732642Y-83262974D01*
X59754244Y-83297882D01*
X59773100Y-83364185D01*
X59773100Y-83870368D01*
X59767728Y-83903626D01*
X59768010Y-83903686D01*
X59766829Y-83909196D01*
X59766693Y-83910034D01*
X59764403Y-83916939D01*
X59753700Y-84021400D01*
X59753700Y-84922200D01*
X59764674Y-85027966D01*
X59820650Y-85195746D01*
X59913722Y-85346148D01*
X60038897Y-85471105D01*
X60045127Y-85474945D01*
X60045128Y-85474946D01*
X60182290Y-85559494D01*
X60189462Y-85563915D01*
X60269205Y-85590364D01*
X60350811Y-85617432D01*
X60350813Y-85617432D01*
X60357339Y-85619597D01*
X60364175Y-85620297D01*
X60364178Y-85620298D01*
X60407231Y-85624709D01*
X60461800Y-85630300D01*
X61812600Y-85630300D01*
X61815846Y-85629963D01*
X61815850Y-85629963D01*
X61911508Y-85620038D01*
X61911512Y-85620037D01*
X61918366Y-85619326D01*
X61924902Y-85617145D01*
X61924904Y-85617145D01*
X62057006Y-85573072D01*
X62086146Y-85563350D01*
X62236548Y-85470278D01*
X62361505Y-85345103D01*
X62401450Y-85280300D01*
X62450475Y-85200768D01*
X62450476Y-85200766D01*
X62454315Y-85194538D01*
X62472443Y-85139883D01*
X62512873Y-85081523D01*
X62578437Y-85054285D01*
X62648318Y-85066818D01*
X62673836Y-85085199D01*
X62673939Y-85085061D01*
X62790495Y-85172415D01*
X62926884Y-85223545D01*
X62989066Y-85230300D01*
X63303808Y-85230300D01*
X63341906Y-85236198D01*
X63426506Y-85263035D01*
X63428270Y-85263233D01*
X63429968Y-85263765D01*
X63526440Y-85274245D01*
X63526655Y-85274269D01*
X63549896Y-85276876D01*
X63576930Y-85279908D01*
X63576934Y-85279908D01*
X63580427Y-85280300D01*
X63581729Y-85280300D01*
X63583581Y-85280452D01*
X63602700Y-85282529D01*
X63620464Y-85284459D01*
X63620467Y-85284459D01*
X63626588Y-85285124D01*
X63676253Y-85280779D01*
X63687234Y-85280300D01*
X65377300Y-85280300D01*
X65445421Y-85300302D01*
X65491914Y-85353958D01*
X65503300Y-85406300D01*
X65503300Y-85554634D01*
X65510055Y-85616816D01*
X65561185Y-85753205D01*
X65648539Y-85869761D01*
X65765095Y-85957115D01*
X65784168Y-85964265D01*
X65785483Y-85964758D01*
X65842247Y-86007401D01*
X65866946Y-86073962D01*
X65851738Y-86143311D01*
X65840134Y-86160832D01*
X65746855Y-86278944D01*
X65741150Y-86287531D01*
X65630086Y-86488722D01*
X65625856Y-86498134D01*
X65549141Y-86714768D01*
X65546507Y-86724739D01*
X65529153Y-86822163D01*
X65530613Y-86835460D01*
X65545170Y-86840000D01*
X68479896Y-86840000D01*
X68493240Y-86836082D01*
X68495227Y-86821806D01*
X68485690Y-86759485D01*
X68483301Y-86749457D01*
X68411902Y-86531012D01*
X68407905Y-86521503D01*
X68301789Y-86317656D01*
X68296300Y-86308939D01*
X68182898Y-86157901D01*
X68157993Y-86091416D01*
X68172986Y-86022020D01*
X68223116Y-85971747D01*
X68239425Y-85964268D01*
X68258505Y-85957115D01*
X68375061Y-85869761D01*
X68462415Y-85753205D01*
X68494106Y-85668669D01*
X76503801Y-85668669D01*
X76504171Y-85675490D01*
X76509695Y-85726352D01*
X76513321Y-85741604D01*
X76558476Y-85862054D01*
X76567014Y-85877649D01*
X76643515Y-85979724D01*
X76656076Y-85992285D01*
X76758151Y-86068786D01*
X76773746Y-86077324D01*
X76894194Y-86122478D01*
X76909449Y-86126105D01*
X76960314Y-86131631D01*
X76967128Y-86132000D01*
X77739685Y-86132000D01*
X77754924Y-86127525D01*
X77756129Y-86126135D01*
X77757800Y-86118452D01*
X77757800Y-86113884D01*
X78265800Y-86113884D01*
X78270275Y-86129123D01*
X78271665Y-86130328D01*
X78279348Y-86131999D01*
X79056469Y-86131999D01*
X79063290Y-86131629D01*
X79114152Y-86126105D01*
X79129404Y-86122479D01*
X79249854Y-86077324D01*
X79265449Y-86068786D01*
X79367524Y-85992285D01*
X79380085Y-85979724D01*
X79456586Y-85877649D01*
X79465124Y-85862054D01*
X79510278Y-85741606D01*
X79513905Y-85726351D01*
X79519431Y-85675486D01*
X79519800Y-85668672D01*
X79519800Y-84896115D01*
X79515325Y-84880876D01*
X79513935Y-84879671D01*
X79506252Y-84878000D01*
X78283915Y-84878000D01*
X78268676Y-84882475D01*
X78267471Y-84883865D01*
X78265800Y-84891548D01*
X78265800Y-86113884D01*
X77757800Y-86113884D01*
X77757800Y-84896115D01*
X77753325Y-84880876D01*
X77751935Y-84879671D01*
X77744252Y-84878000D01*
X76521916Y-84878000D01*
X76506677Y-84882475D01*
X76505472Y-84883865D01*
X76503801Y-84891548D01*
X76503801Y-85668669D01*
X68494106Y-85668669D01*
X68513545Y-85616816D01*
X68520300Y-85554634D01*
X68520300Y-84351885D01*
X76503800Y-84351885D01*
X76508275Y-84367124D01*
X76509665Y-84368329D01*
X76517348Y-84370000D01*
X77739685Y-84370000D01*
X77754924Y-84365525D01*
X77756129Y-84364135D01*
X77757800Y-84356452D01*
X77757800Y-84351885D01*
X78265800Y-84351885D01*
X78270275Y-84367124D01*
X78271665Y-84368329D01*
X78279348Y-84370000D01*
X79501684Y-84370000D01*
X79516923Y-84365525D01*
X79518128Y-84364135D01*
X79519799Y-84356452D01*
X79519799Y-83579331D01*
X79519429Y-83572510D01*
X79513905Y-83521648D01*
X79510279Y-83506396D01*
X79465124Y-83385946D01*
X79456586Y-83370351D01*
X79380085Y-83268276D01*
X79367524Y-83255715D01*
X79265449Y-83179214D01*
X79249854Y-83170676D01*
X79129406Y-83125522D01*
X79114151Y-83121895D01*
X79063286Y-83116369D01*
X79056472Y-83116000D01*
X78283915Y-83116000D01*
X78268676Y-83120475D01*
X78267471Y-83121865D01*
X78265800Y-83129548D01*
X78265800Y-84351885D01*
X77757800Y-84351885D01*
X77757800Y-83134116D01*
X77753325Y-83118877D01*
X77751935Y-83117672D01*
X77744252Y-83116001D01*
X76967131Y-83116001D01*
X76960310Y-83116371D01*
X76909448Y-83121895D01*
X76894196Y-83125521D01*
X76773746Y-83170676D01*
X76758151Y-83179214D01*
X76656076Y-83255715D01*
X76643515Y-83268276D01*
X76567014Y-83370351D01*
X76558476Y-83385946D01*
X76513322Y-83506394D01*
X76509695Y-83521649D01*
X76504169Y-83572514D01*
X76503800Y-83579328D01*
X76503800Y-84351885D01*
X68520300Y-84351885D01*
X68520300Y-83553366D01*
X68513545Y-83491184D01*
X68462415Y-83354795D01*
X68375061Y-83238239D01*
X68258505Y-83150885D01*
X68122116Y-83099755D01*
X68059934Y-83093000D01*
X65963666Y-83093000D01*
X65901484Y-83099755D01*
X65765095Y-83150885D01*
X65676459Y-83217314D01*
X65648690Y-83238126D01*
X65582184Y-83262974D01*
X65573125Y-83263300D01*
X65124919Y-83263300D01*
X65056798Y-83243298D01*
X65010305Y-83189642D01*
X65000201Y-83119368D01*
X65005326Y-83097633D01*
X65006863Y-83093000D01*
X65029397Y-83025061D01*
X65030287Y-83016380D01*
X65034537Y-82974891D01*
X65040100Y-82920600D01*
X65040100Y-81569800D01*
X65039763Y-81566550D01*
X65029838Y-81470892D01*
X65029837Y-81470888D01*
X65029126Y-81464034D01*
X64973150Y-81296254D01*
X64880078Y-81145852D01*
X64754903Y-81020895D01*
X64748672Y-81017054D01*
X64610568Y-80931925D01*
X64610566Y-80931924D01*
X64604338Y-80928085D01*
X64536126Y-80905460D01*
X64515543Y-80898633D01*
X64457183Y-80858202D01*
X64429946Y-80792638D01*
X64442479Y-80722757D01*
X64466115Y-80689945D01*
X64562653Y-80593407D01*
X64566689Y-80586583D01*
X64566691Y-80586580D01*
X64630307Y-80479011D01*
X64647345Y-80450201D01*
X64649557Y-80442588D01*
X64687802Y-80310947D01*
X64726015Y-80251112D01*
X64790511Y-80221434D01*
X64808799Y-80220100D01*
X65792507Y-80220100D01*
X65831444Y-80226267D01*
X65835881Y-80227709D01*
X65841912Y-80230394D01*
X65848364Y-80231766D01*
X65848369Y-80231767D01*
X66022256Y-80268728D01*
X66022261Y-80268728D01*
X66028713Y-80270100D01*
X66219687Y-80270100D01*
X66226139Y-80268728D01*
X66226144Y-80268728D01*
X66400031Y-80231767D01*
X66400036Y-80231766D01*
X66406488Y-80230394D01*
X66412519Y-80227709D01*
X66416956Y-80226267D01*
X66455893Y-80220100D01*
X67256610Y-80220100D01*
X67267152Y-80220542D01*
X67319099Y-80224904D01*
X67325859Y-80224002D01*
X67325861Y-80224002D01*
X67399602Y-80214163D01*
X67402657Y-80213793D01*
X67434889Y-80210291D01*
X67483437Y-80205017D01*
X67489901Y-80202842D01*
X67493176Y-80202122D01*
X67493572Y-80202052D01*
X67493996Y-80201929D01*
X67497216Y-80201138D01*
X67503989Y-80200234D01*
X67580323Y-80172451D01*
X67583198Y-80171444D01*
X67601773Y-80165193D01*
X67660223Y-80145522D01*
X67666077Y-80142004D01*
X67669084Y-80140615D01*
X67669489Y-80140448D01*
X67669865Y-80140243D01*
X67672852Y-80138773D01*
X67679268Y-80136438D01*
X67747920Y-80092870D01*
X67750389Y-80091345D01*
X67820109Y-80049453D01*
X67825066Y-80044766D01*
X67827723Y-80042749D01*
X67828469Y-80042231D01*
X67832402Y-80039256D01*
X67836759Y-80036491D01*
X67841032Y-80032670D01*
X67895010Y-79978692D01*
X67897532Y-79976238D01*
X67950680Y-79925979D01*
X67950682Y-79925977D01*
X67955636Y-79921292D01*
X67959471Y-79915650D01*
X67963894Y-79910452D01*
X67964290Y-79910789D01*
X67970904Y-79902798D01*
X68290276Y-79583426D01*
X68298043Y-79576283D01*
X68332653Y-79547036D01*
X68332657Y-79547032D01*
X68337867Y-79542629D01*
X68387250Y-79478038D01*
X68389060Y-79475730D01*
X68440010Y-79412362D01*
X68443046Y-79406247D01*
X68444837Y-79403446D01*
X68445087Y-79403089D01*
X68445290Y-79402720D01*
X68447021Y-79399862D01*
X68451160Y-79394448D01*
X68485486Y-79320836D01*
X68486820Y-79318064D01*
X68519914Y-79251396D01*
X68522947Y-79245286D01*
X68524598Y-79238665D01*
X68525749Y-79235537D01*
X68525913Y-79235143D01*
X68526032Y-79234739D01*
X68527109Y-79231576D01*
X68529990Y-79225396D01*
X68547706Y-79146142D01*
X68548413Y-79143148D01*
X68557277Y-79107600D01*
X68568073Y-79064298D01*
X68568263Y-79057477D01*
X68568716Y-79054174D01*
X68568875Y-79053292D01*
X68569554Y-79048397D01*
X68570680Y-79043360D01*
X68571000Y-79037637D01*
X68571000Y-78961271D01*
X68571049Y-78957753D01*
X68573091Y-78884663D01*
X68573091Y-78884658D01*
X68573281Y-78877843D01*
X68572003Y-78871142D01*
X68571455Y-78864338D01*
X68571975Y-78864296D01*
X68571000Y-78853975D01*
X68571000Y-78701272D01*
X68591002Y-78633151D01*
X68607826Y-78612255D01*
X68644133Y-78575884D01*
X68649305Y-78570703D01*
X68670127Y-78536924D01*
X68738275Y-78426368D01*
X68738276Y-78426366D01*
X68742115Y-78420138D01*
X68797797Y-78252261D01*
X68808500Y-78147800D01*
X68808500Y-77349400D01*
X68828502Y-77281279D01*
X68882158Y-77234786D01*
X68934500Y-77223400D01*
X71671800Y-77223400D01*
X71684945Y-77214856D01*
X71715654Y-77210400D01*
X83781800Y-77210400D01*
X83765227Y-70298669D01*
X92603801Y-70298669D01*
X92604171Y-70305490D01*
X92609695Y-70356352D01*
X92613321Y-70371604D01*
X92658476Y-70492054D01*
X92667014Y-70507649D01*
X92743515Y-70609724D01*
X92756076Y-70622285D01*
X92858151Y-70698786D01*
X92873746Y-70707324D01*
X92994194Y-70752478D01*
X93009449Y-70756105D01*
X93060314Y-70761631D01*
X93067128Y-70762000D01*
X93839685Y-70762000D01*
X93854924Y-70757525D01*
X93856129Y-70756135D01*
X93857800Y-70748452D01*
X93857800Y-70743884D01*
X94365800Y-70743884D01*
X94370275Y-70759123D01*
X94371665Y-70760328D01*
X94379348Y-70761999D01*
X95156469Y-70761999D01*
X95163290Y-70761629D01*
X95214152Y-70756105D01*
X95229404Y-70752479D01*
X95349854Y-70707324D01*
X95365449Y-70698786D01*
X95467524Y-70622285D01*
X95480085Y-70609724D01*
X95556586Y-70507649D01*
X95565124Y-70492054D01*
X95610278Y-70371606D01*
X95613905Y-70356351D01*
X95619431Y-70305486D01*
X95619800Y-70298672D01*
X95619800Y-69526115D01*
X95615325Y-69510876D01*
X95613935Y-69509671D01*
X95606252Y-69508000D01*
X94383915Y-69508000D01*
X94368676Y-69512475D01*
X94367471Y-69513865D01*
X94365800Y-69521548D01*
X94365800Y-70743884D01*
X93857800Y-70743884D01*
X93857800Y-69526115D01*
X93853325Y-69510876D01*
X93851935Y-69509671D01*
X93844252Y-69508000D01*
X92621916Y-69508000D01*
X92606677Y-69512475D01*
X92605472Y-69513865D01*
X92603801Y-69521548D01*
X92603801Y-70298669D01*
X83765227Y-70298669D01*
X83762070Y-68981885D01*
X92603800Y-68981885D01*
X92608275Y-68997124D01*
X92609665Y-68998329D01*
X92617348Y-69000000D01*
X93839685Y-69000000D01*
X93854924Y-68995525D01*
X93856129Y-68994135D01*
X93857800Y-68986452D01*
X93857800Y-68981885D01*
X94365800Y-68981885D01*
X94370275Y-68997124D01*
X94371665Y-68998329D01*
X94379348Y-69000000D01*
X95601684Y-69000000D01*
X95616923Y-68995525D01*
X95618128Y-68994135D01*
X95619799Y-68986452D01*
X95619799Y-68209331D01*
X95619429Y-68202510D01*
X95613905Y-68151648D01*
X95610279Y-68136396D01*
X95565124Y-68015946D01*
X95556586Y-68000351D01*
X95480085Y-67898276D01*
X95467524Y-67885715D01*
X95365449Y-67809214D01*
X95349854Y-67800676D01*
X95229406Y-67755522D01*
X95214151Y-67751895D01*
X95163286Y-67746369D01*
X95156472Y-67746000D01*
X94383915Y-67746000D01*
X94368676Y-67750475D01*
X94367471Y-67751865D01*
X94365800Y-67759548D01*
X94365800Y-68981885D01*
X93857800Y-68981885D01*
X93857800Y-67764116D01*
X93853325Y-67748877D01*
X93851935Y-67747672D01*
X93844252Y-67746001D01*
X93067131Y-67746001D01*
X93060310Y-67746371D01*
X93009448Y-67751895D01*
X92994196Y-67755521D01*
X92873746Y-67800676D01*
X92858151Y-67809214D01*
X92756076Y-67885715D01*
X92743515Y-67898276D01*
X92667014Y-68000351D01*
X92658476Y-68015946D01*
X92613322Y-68136394D01*
X92609695Y-68151649D01*
X92604169Y-68202514D01*
X92603800Y-68209328D01*
X92603800Y-68981885D01*
X83762070Y-68981885D01*
X83750542Y-64174000D01*
X92598635Y-64174000D01*
X92617265Y-64410711D01*
X92618419Y-64415518D01*
X92618420Y-64415524D01*
X92641573Y-64511963D01*
X92672695Y-64641594D01*
X92674588Y-64646165D01*
X92674589Y-64646167D01*
X92730469Y-64781073D01*
X92763560Y-64860963D01*
X92766146Y-64865183D01*
X92885041Y-65059202D01*
X92885045Y-65059208D01*
X92887624Y-65063416D01*
X93041831Y-65243969D01*
X93222384Y-65398176D01*
X93226592Y-65400755D01*
X93226598Y-65400759D01*
X93392574Y-65502469D01*
X93424837Y-65522240D01*
X93429407Y-65524133D01*
X93429411Y-65524135D01*
X93639633Y-65611211D01*
X93644206Y-65613105D01*
X93724409Y-65632360D01*
X93870276Y-65667380D01*
X93870282Y-65667381D01*
X93875089Y-65668535D01*
X94111800Y-65687165D01*
X94348511Y-65668535D01*
X94353318Y-65667381D01*
X94353324Y-65667380D01*
X94499191Y-65632360D01*
X94579394Y-65613105D01*
X94583967Y-65611211D01*
X94794189Y-65524135D01*
X94794193Y-65524133D01*
X94798763Y-65522240D01*
X94831026Y-65502469D01*
X94997002Y-65400759D01*
X94997008Y-65400755D01*
X95001216Y-65398176D01*
X95181769Y-65243969D01*
X95335976Y-65063416D01*
X95338555Y-65059208D01*
X95338559Y-65059202D01*
X95457454Y-64865183D01*
X95460040Y-64860963D01*
X95493132Y-64781073D01*
X95549011Y-64646167D01*
X95549012Y-64646165D01*
X95550905Y-64641594D01*
X95582027Y-64511963D01*
X95590598Y-64476263D01*
X103801864Y-64476263D01*
X103838204Y-64713744D01*
X103864991Y-64795700D01*
X103911234Y-64937183D01*
X103911237Y-64937189D01*
X103912842Y-64942101D01*
X103915229Y-64946687D01*
X103915231Y-64946691D01*
X103999605Y-65108771D01*
X104023775Y-65155200D01*
X104168023Y-65347320D01*
X104341712Y-65513301D01*
X104379151Y-65538840D01*
X104424152Y-65593751D01*
X104432323Y-65664275D01*
X104401069Y-65728022D01*
X104376590Y-65748716D01*
X104374474Y-65750085D01*
X104366302Y-65756378D01*
X104196320Y-65911050D01*
X104189294Y-65918583D01*
X104046855Y-66098944D01*
X104041150Y-66107531D01*
X103930086Y-66308722D01*
X103925856Y-66318134D01*
X103849141Y-66534768D01*
X103846507Y-66544739D01*
X103829153Y-66642163D01*
X103830613Y-66655460D01*
X103845170Y-66660000D01*
X106779896Y-66660000D01*
X106793240Y-66656082D01*
X106795227Y-66641806D01*
X106785690Y-66579485D01*
X106783301Y-66569457D01*
X106761296Y-66502134D01*
X107528300Y-66502134D01*
X107535055Y-66564316D01*
X107586185Y-66700705D01*
X107673539Y-66817261D01*
X107790095Y-66904615D01*
X107926484Y-66955745D01*
X107988666Y-66962500D01*
X108303407Y-66962500D01*
X108341505Y-66968398D01*
X108426106Y-66995235D01*
X108580027Y-67012500D01*
X109895407Y-67012500D01*
X109963528Y-67032502D01*
X109984425Y-67049327D01*
X110038497Y-67103305D01*
X110044727Y-67107145D01*
X110044728Y-67107146D01*
X110181890Y-67191694D01*
X110189062Y-67196115D01*
X110268805Y-67222564D01*
X110350411Y-67249632D01*
X110350413Y-67249632D01*
X110356939Y-67251797D01*
X110363775Y-67252497D01*
X110363778Y-67252498D01*
X110406831Y-67256909D01*
X110461400Y-67262500D01*
X111812200Y-67262500D01*
X111815446Y-67262163D01*
X111815450Y-67262163D01*
X111911108Y-67252238D01*
X111911112Y-67252237D01*
X111917966Y-67251526D01*
X111924502Y-67249345D01*
X111924504Y-67249345D01*
X112056606Y-67205272D01*
X112085746Y-67195550D01*
X112236148Y-67102478D01*
X112361105Y-66977303D01*
X112376104Y-66952971D01*
X112450075Y-66832968D01*
X112450076Y-66832966D01*
X112453915Y-66826738D01*
X112509597Y-66658861D01*
X112511345Y-66641806D01*
X112519556Y-66561662D01*
X112520300Y-66554400D01*
X112520300Y-65851095D01*
X116613801Y-65851095D01*
X116614138Y-65857614D01*
X116624057Y-65953206D01*
X116626949Y-65966600D01*
X116678388Y-66120784D01*
X116684561Y-66133962D01*
X116769863Y-66271807D01*
X116778899Y-66283208D01*
X116893629Y-66397739D01*
X116905040Y-66406751D01*
X117043043Y-66491816D01*
X117056224Y-66497963D01*
X117210510Y-66549138D01*
X117223886Y-66552005D01*
X117318238Y-66561672D01*
X117324654Y-66562000D01*
X117849685Y-66562000D01*
X117864924Y-66557525D01*
X117866129Y-66556135D01*
X117867800Y-66548452D01*
X117867800Y-66543884D01*
X118375800Y-66543884D01*
X118380275Y-66559123D01*
X118381665Y-66560328D01*
X118389348Y-66561999D01*
X118918895Y-66561999D01*
X118925414Y-66561662D01*
X119021006Y-66551743D01*
X119034400Y-66548851D01*
X119188584Y-66497412D01*
X119201762Y-66491239D01*
X119339607Y-66405937D01*
X119351008Y-66396901D01*
X119465539Y-66282171D01*
X119474551Y-66270760D01*
X119559616Y-66132757D01*
X119565763Y-66119576D01*
X119616938Y-65965290D01*
X119619805Y-65951914D01*
X119629472Y-65857562D01*
X119629800Y-65851146D01*
X119629800Y-65476115D01*
X119625325Y-65460876D01*
X119623935Y-65459671D01*
X119616252Y-65458000D01*
X118393915Y-65458000D01*
X118378676Y-65462475D01*
X118377471Y-65463865D01*
X118375800Y-65471548D01*
X118375800Y-66543884D01*
X117867800Y-66543884D01*
X117867800Y-65476115D01*
X117863325Y-65460876D01*
X117861935Y-65459671D01*
X117854252Y-65458000D01*
X116631916Y-65458000D01*
X116616677Y-65462475D01*
X116615472Y-65463865D01*
X116613801Y-65471548D01*
X116613801Y-65851095D01*
X112520300Y-65851095D01*
X112520300Y-65653600D01*
X112516218Y-65614260D01*
X112510038Y-65554692D01*
X112510037Y-65554688D01*
X112509326Y-65547834D01*
X112501420Y-65524135D01*
X112455668Y-65387002D01*
X112453350Y-65380054D01*
X112360278Y-65229652D01*
X112326683Y-65196115D01*
X112240283Y-65109866D01*
X112235103Y-65104695D01*
X112228872Y-65100854D01*
X112090768Y-65015725D01*
X112090766Y-65015724D01*
X112084538Y-65011885D01*
X111986821Y-64979474D01*
X111923189Y-64958368D01*
X111923187Y-64958368D01*
X111916661Y-64956203D01*
X111909825Y-64955503D01*
X111909822Y-64955502D01*
X111866769Y-64951091D01*
X111812200Y-64945500D01*
X110461400Y-64945500D01*
X110458154Y-64945837D01*
X110458150Y-64945837D01*
X110362492Y-64955762D01*
X110362488Y-64955763D01*
X110355634Y-64956474D01*
X110349098Y-64958655D01*
X110349096Y-64958655D01*
X110258070Y-64989024D01*
X110218194Y-64995500D01*
X108587031Y-64995500D01*
X108583975Y-64995800D01*
X108583968Y-64995800D01*
X108525460Y-65001537D01*
X108439967Y-65009920D01*
X108434066Y-65011702D01*
X108434064Y-65011702D01*
X108339934Y-65040122D01*
X108303516Y-65045500D01*
X107988666Y-65045500D01*
X107926484Y-65052255D01*
X107790095Y-65103385D01*
X107673539Y-65190739D01*
X107586185Y-65307295D01*
X107535055Y-65443684D01*
X107528300Y-65505866D01*
X107528300Y-66502134D01*
X106761296Y-66502134D01*
X106711902Y-66351012D01*
X106707905Y-66341503D01*
X106601789Y-66137656D01*
X106596295Y-66128931D01*
X106458307Y-65945148D01*
X106451464Y-65937441D01*
X106285309Y-65778661D01*
X106277302Y-65772177D01*
X106244444Y-65749763D01*
X106199441Y-65694852D01*
X106191268Y-65624328D01*
X106222522Y-65560580D01*
X106247004Y-65539884D01*
X106249435Y-65538311D01*
X106253777Y-65535502D01*
X106431470Y-65373814D01*
X106492147Y-65296983D01*
X106577167Y-65189330D01*
X106577170Y-65189325D01*
X106580368Y-65185276D01*
X106594685Y-65159342D01*
X106693977Y-64979474D01*
X106693979Y-64979470D01*
X106696474Y-64974950D01*
X106702245Y-64958655D01*
X106774944Y-64753360D01*
X106774945Y-64753356D01*
X106776670Y-64748485D01*
X106782330Y-64716711D01*
X106817895Y-64517052D01*
X106817896Y-64517046D01*
X106818801Y-64511963D01*
X106821736Y-64271737D01*
X106785396Y-64034256D01*
X106741967Y-63901384D01*
X106712366Y-63810817D01*
X106712363Y-63810811D01*
X106710758Y-63805899D01*
X106691897Y-63769666D01*
X106602216Y-63597393D01*
X106599825Y-63592800D01*
X106538668Y-63511347D01*
X106458682Y-63404815D01*
X106458680Y-63404812D01*
X106455577Y-63400680D01*
X106281888Y-63234699D01*
X106083422Y-63099314D01*
X106078739Y-63097140D01*
X106078735Y-63097138D01*
X105870205Y-63000342D01*
X105870201Y-63000341D01*
X105865510Y-62998163D01*
X105634002Y-62933960D01*
X105628865Y-62933411D01*
X105441207Y-62913356D01*
X105441199Y-62913356D01*
X105437872Y-62913000D01*
X105203398Y-62913000D01*
X105200825Y-62913212D01*
X105200814Y-62913212D01*
X105099854Y-62921513D01*
X105024863Y-62927678D01*
X104791856Y-62986206D01*
X104731499Y-63012450D01*
X104576274Y-63079943D01*
X104576271Y-63079945D01*
X104571537Y-63082003D01*
X104369823Y-63212498D01*
X104192130Y-63374186D01*
X104131453Y-63451017D01*
X104046433Y-63558670D01*
X104046430Y-63558675D01*
X104043232Y-63562724D01*
X104040739Y-63567240D01*
X104040737Y-63567243D01*
X103930709Y-63766559D01*
X103927126Y-63773050D01*
X103925402Y-63777919D01*
X103925400Y-63777923D01*
X103867412Y-63941675D01*
X103846930Y-63999515D01*
X103846023Y-64004608D01*
X103846022Y-64004611D01*
X103816728Y-64169070D01*
X103804799Y-64236037D01*
X103804736Y-64241201D01*
X103802111Y-64456086D01*
X103801864Y-64476263D01*
X95590598Y-64476263D01*
X95605180Y-64415524D01*
X95605181Y-64415518D01*
X95606335Y-64410711D01*
X95624965Y-64174000D01*
X95606335Y-63937289D01*
X95605018Y-63931800D01*
X95565346Y-63766559D01*
X95550905Y-63706406D01*
X95540566Y-63681445D01*
X95461935Y-63491611D01*
X95461933Y-63491607D01*
X95460040Y-63487037D01*
X95395221Y-63381262D01*
X95338559Y-63288798D01*
X95338555Y-63288792D01*
X95335976Y-63284584D01*
X95181769Y-63104031D01*
X95171781Y-63095500D01*
X95075986Y-63013684D01*
X95001216Y-62949824D01*
X94997008Y-62947245D01*
X94997002Y-62947241D01*
X94802983Y-62828346D01*
X94798763Y-62825760D01*
X94794193Y-62823867D01*
X94794189Y-62823865D01*
X94583967Y-62736789D01*
X94583965Y-62736788D01*
X94579394Y-62734895D01*
X94499191Y-62715640D01*
X94353324Y-62680620D01*
X94353318Y-62680619D01*
X94348511Y-62679465D01*
X94111800Y-62660835D01*
X93875089Y-62679465D01*
X93870282Y-62680619D01*
X93870276Y-62680620D01*
X93724409Y-62715640D01*
X93644206Y-62734895D01*
X93639635Y-62736788D01*
X93639633Y-62736789D01*
X93429411Y-62823865D01*
X93429407Y-62823867D01*
X93424837Y-62825760D01*
X93420617Y-62828346D01*
X93226598Y-62947241D01*
X93226592Y-62947245D01*
X93222384Y-62949824D01*
X93147614Y-63013684D01*
X93051820Y-63095500D01*
X93041831Y-63104031D01*
X92887624Y-63284584D01*
X92885045Y-63288792D01*
X92885041Y-63288798D01*
X92828379Y-63381262D01*
X92763560Y-63487037D01*
X92761667Y-63491607D01*
X92761665Y-63491611D01*
X92683034Y-63681445D01*
X92672695Y-63706406D01*
X92658254Y-63766559D01*
X92618583Y-63931800D01*
X92617265Y-63937289D01*
X92598635Y-64174000D01*
X83750542Y-64174000D01*
X83732763Y-56759390D01*
X85371240Y-56759390D01*
X85376967Y-56767040D01*
X85575306Y-56888583D01*
X85584100Y-56893064D01*
X85808791Y-56986134D01*
X85818176Y-56989183D01*
X86054663Y-57045959D01*
X86064410Y-57047502D01*
X86306870Y-57066584D01*
X86316730Y-57066584D01*
X86559190Y-57047502D01*
X86568937Y-57045959D01*
X86805424Y-56989183D01*
X86814809Y-56986134D01*
X87039500Y-56893064D01*
X87048294Y-56888583D01*
X87242967Y-56769287D01*
X87252427Y-56758830D01*
X87248644Y-56750054D01*
X86324612Y-55826022D01*
X86310668Y-55818408D01*
X86308835Y-55818539D01*
X86302220Y-55822790D01*
X85378000Y-56747010D01*
X85371240Y-56759390D01*
X83732763Y-56759390D01*
X83729645Y-55458930D01*
X84699216Y-55458930D01*
X84718298Y-55701390D01*
X84719841Y-55711137D01*
X84776617Y-55947624D01*
X84779666Y-55957009D01*
X84872736Y-56181700D01*
X84877217Y-56190494D01*
X84996513Y-56385167D01*
X85006970Y-56394627D01*
X85015746Y-56390844D01*
X85939778Y-55466812D01*
X85946156Y-55455132D01*
X86676208Y-55455132D01*
X86676339Y-55456965D01*
X86680590Y-55463580D01*
X87604810Y-56387800D01*
X87617190Y-56394560D01*
X87624840Y-56388833D01*
X87746383Y-56190494D01*
X87750864Y-56181700D01*
X87843934Y-55957009D01*
X87846983Y-55947624D01*
X87903759Y-55711137D01*
X87905302Y-55701390D01*
X87924384Y-55458930D01*
X87924384Y-55449070D01*
X87905302Y-55206610D01*
X87903759Y-55196863D01*
X87846983Y-54960376D01*
X87843934Y-54950991D01*
X87750864Y-54726300D01*
X87746383Y-54717506D01*
X87627087Y-54522833D01*
X87616630Y-54513373D01*
X87607854Y-54517156D01*
X86683822Y-55441188D01*
X86676208Y-55455132D01*
X85946156Y-55455132D01*
X85947392Y-55452868D01*
X85947261Y-55451035D01*
X85943010Y-55444420D01*
X85018790Y-54520200D01*
X85006410Y-54513440D01*
X84998760Y-54519167D01*
X84877217Y-54717506D01*
X84872736Y-54726300D01*
X84779666Y-54950991D01*
X84776617Y-54960376D01*
X84719841Y-55196863D01*
X84718298Y-55206610D01*
X84699216Y-55449070D01*
X84699216Y-55458930D01*
X83729645Y-55458930D01*
X83726505Y-54149170D01*
X85371173Y-54149170D01*
X85374956Y-54157946D01*
X86298988Y-55081978D01*
X86312932Y-55089592D01*
X86314765Y-55089461D01*
X86321380Y-55085210D01*
X87245600Y-54160990D01*
X87252360Y-54148610D01*
X87246633Y-54140960D01*
X87048294Y-54019417D01*
X87039500Y-54014936D01*
X86814809Y-53921866D01*
X86805424Y-53918817D01*
X86568937Y-53862041D01*
X86559190Y-53860498D01*
X86316730Y-53841416D01*
X86306870Y-53841416D01*
X86064410Y-53860498D01*
X86054663Y-53862041D01*
X85818176Y-53918817D01*
X85808791Y-53921866D01*
X85584100Y-54014936D01*
X85575306Y-54019417D01*
X85380633Y-54138713D01*
X85371173Y-54149170D01*
X83726505Y-54149170D01*
X83721095Y-51893064D01*
X83720774Y-51759390D01*
X85371240Y-51759390D01*
X85376967Y-51767040D01*
X85575306Y-51888583D01*
X85584100Y-51893064D01*
X85808791Y-51986134D01*
X85818176Y-51989183D01*
X86054663Y-52045959D01*
X86064410Y-52047502D01*
X86306870Y-52066584D01*
X86316730Y-52066584D01*
X86559190Y-52047502D01*
X86568937Y-52045959D01*
X86805424Y-51989183D01*
X86814809Y-51986134D01*
X87039500Y-51893064D01*
X87048294Y-51888583D01*
X87242967Y-51769287D01*
X87252427Y-51758830D01*
X87248644Y-51750054D01*
X86324612Y-50826022D01*
X86310668Y-50818408D01*
X86308835Y-50818539D01*
X86302220Y-50822790D01*
X85378000Y-51747010D01*
X85371240Y-51759390D01*
X83720774Y-51759390D01*
X83717656Y-50458930D01*
X84699216Y-50458930D01*
X84718298Y-50701390D01*
X84719841Y-50711137D01*
X84776617Y-50947624D01*
X84779666Y-50957009D01*
X84872736Y-51181700D01*
X84877217Y-51190494D01*
X84996513Y-51385167D01*
X85006970Y-51394627D01*
X85015746Y-51390844D01*
X85939778Y-50466812D01*
X85946156Y-50455132D01*
X86676208Y-50455132D01*
X86676339Y-50456965D01*
X86680590Y-50463580D01*
X87604810Y-51387800D01*
X87617190Y-51394560D01*
X87624840Y-51388833D01*
X87746383Y-51190494D01*
X87750864Y-51181700D01*
X87843934Y-50957009D01*
X87846983Y-50947624D01*
X87903759Y-50711137D01*
X87905302Y-50701390D01*
X87924384Y-50458930D01*
X87924384Y-50449070D01*
X87905302Y-50206610D01*
X87903759Y-50196863D01*
X87846983Y-49960376D01*
X87843934Y-49950991D01*
X87750864Y-49726300D01*
X87746383Y-49717506D01*
X87627087Y-49522833D01*
X87616630Y-49513373D01*
X87607854Y-49517156D01*
X86683822Y-50441188D01*
X86676208Y-50455132D01*
X85946156Y-50455132D01*
X85947392Y-50452868D01*
X85947261Y-50451035D01*
X85943010Y-50444420D01*
X85018790Y-49520200D01*
X85006410Y-49513440D01*
X84998760Y-49519167D01*
X84877217Y-49717506D01*
X84872736Y-49726300D01*
X84779666Y-49950991D01*
X84776617Y-49960376D01*
X84719841Y-50196863D01*
X84718298Y-50206610D01*
X84699216Y-50449070D01*
X84699216Y-50458930D01*
X83717656Y-50458930D01*
X83714516Y-49149170D01*
X85371173Y-49149170D01*
X85374956Y-49157946D01*
X86298988Y-50081978D01*
X86312932Y-50089592D01*
X86314765Y-50089461D01*
X86321380Y-50085210D01*
X87245600Y-49160990D01*
X87252360Y-49148610D01*
X87246633Y-49140960D01*
X87048294Y-49019417D01*
X87039500Y-49014936D01*
X86814809Y-48921866D01*
X86805424Y-48918817D01*
X86568937Y-48862041D01*
X86559190Y-48860498D01*
X86316730Y-48841416D01*
X86306870Y-48841416D01*
X86064410Y-48860498D01*
X86054663Y-48862041D01*
X85818176Y-48918817D01*
X85808791Y-48921866D01*
X85584100Y-49014936D01*
X85575306Y-49019417D01*
X85380633Y-49138713D01*
X85371173Y-49149170D01*
X83714516Y-49149170D01*
X83712217Y-48190302D01*
X83732056Y-48122134D01*
X83785600Y-48075512D01*
X83838217Y-48064000D01*
X83891567Y-48064000D01*
X83892199Y-48064002D01*
G37*
%TD.AperFunction*%
%TD*%
M02*
