%TF.GenerationSoftware,KiCad,Pcbnew,(6.0.1)*%
%TF.CreationDate,2022-05-20T18:23:43-05:00*%
%TF.ProjectId,BookSensitizer,426f6f6b-5365-46e7-9369-74697a65722e,rev?*%
%TF.SameCoordinates,Original*%
%TF.FileFunction,Legend,Top*%
%TF.FilePolarity,Positive*%
%FSLAX46Y46*%
G04 Gerber Fmt 4.6, Leading zero omitted, Abs format (unit mm)*
G04 Created by KiCad (PCBNEW (6.0.1)) date 2022-05-20 18:23:43*
%MOMM*%
%LPD*%
G01*
G04 APERTURE LIST*
%ADD10C,0.150000*%
%ADD11C,0.120000*%
G04 APERTURE END LIST*
D10*
X100911800Y-56715904D02*
X100864180Y-56811142D01*
X100864180Y-56954000D01*
X100911800Y-57096857D01*
X101007038Y-57192095D01*
X101102276Y-57239714D01*
X101292752Y-57287333D01*
X101435609Y-57287333D01*
X101626085Y-57239714D01*
X101721323Y-57192095D01*
X101816561Y-57096857D01*
X101864180Y-56954000D01*
X101864180Y-56858761D01*
X101816561Y-56715904D01*
X101768942Y-56668285D01*
X101435609Y-56668285D01*
X101435609Y-56858761D01*
X101864180Y-56239714D02*
X100864180Y-56239714D01*
X101864180Y-55668285D01*
X100864180Y-55668285D01*
X101864180Y-55192095D02*
X100864180Y-55192095D01*
X100864180Y-54954000D01*
X100911800Y-54811142D01*
X101007038Y-54715904D01*
X101102276Y-54668285D01*
X101292752Y-54620666D01*
X101435609Y-54620666D01*
X101626085Y-54668285D01*
X101721323Y-54715904D01*
X101816561Y-54811142D01*
X101864180Y-54954000D01*
X101864180Y-55192095D01*
X98740371Y-56515904D02*
X98740371Y-56849238D01*
X99264180Y-56849238D02*
X98264180Y-56849238D01*
X98264180Y-56373047D01*
X99264180Y-55563523D02*
X98740371Y-55563523D01*
X98645133Y-55611142D01*
X98597514Y-55706380D01*
X98597514Y-55896857D01*
X98645133Y-55992095D01*
X99216561Y-55563523D02*
X99264180Y-55658761D01*
X99264180Y-55896857D01*
X99216561Y-55992095D01*
X99121323Y-56039714D01*
X99026085Y-56039714D01*
X98930847Y-55992095D01*
X98883228Y-55896857D01*
X98883228Y-55658761D01*
X98835609Y-55563523D01*
X98597514Y-55087333D02*
X99264180Y-55087333D01*
X98692752Y-55087333D02*
X98645133Y-55039714D01*
X98597514Y-54944476D01*
X98597514Y-54801619D01*
X98645133Y-54706380D01*
X98740371Y-54658761D01*
X99264180Y-54658761D01*
X115230847Y-62625428D02*
X115992752Y-62625428D01*
X96864180Y-58334952D02*
X95864180Y-58334952D01*
X95864180Y-57954000D01*
X95911800Y-57858761D01*
X95959419Y-57811142D01*
X96054657Y-57763523D01*
X96197514Y-57763523D01*
X96292752Y-57811142D01*
X96340371Y-57858761D01*
X96387990Y-57954000D01*
X96387990Y-58334952D01*
X95864180Y-57430190D02*
X96864180Y-57192095D01*
X96149895Y-57001619D01*
X96864180Y-56811142D01*
X95864180Y-56573047D01*
X96864180Y-56192095D02*
X95864180Y-56192095D01*
X96578466Y-55858761D01*
X95864180Y-55525428D01*
X96864180Y-55525428D01*
X95959419Y-55096857D02*
X95911800Y-55049238D01*
X95864180Y-54954000D01*
X95864180Y-54715904D01*
X95911800Y-54620666D01*
X95959419Y-54573047D01*
X96054657Y-54525428D01*
X96149895Y-54525428D01*
X96292752Y-54573047D01*
X96864180Y-55144476D01*
X96864180Y-54525428D01*
X115230847Y-65225428D02*
X115992752Y-65225428D01*
X115611800Y-65606380D02*
X115611800Y-64844476D01*
X94264180Y-58234952D02*
X93264180Y-58234952D01*
X93264180Y-57854000D01*
X93311800Y-57758761D01*
X93359419Y-57711142D01*
X93454657Y-57663523D01*
X93597514Y-57663523D01*
X93692752Y-57711142D01*
X93740371Y-57758761D01*
X93787990Y-57854000D01*
X93787990Y-58234952D01*
X93264180Y-57330190D02*
X94264180Y-57092095D01*
X93549895Y-56901619D01*
X94264180Y-56711142D01*
X93264180Y-56473047D01*
X94264180Y-56092095D02*
X93264180Y-56092095D01*
X93978466Y-55758761D01*
X93264180Y-55425428D01*
X94264180Y-55425428D01*
X94264180Y-54425428D02*
X94264180Y-54996857D01*
X94264180Y-54711142D02*
X93264180Y-54711142D01*
X93407038Y-54806380D01*
X93502276Y-54901619D01*
X93549895Y-54996857D01*
%TO.C,D1*%
X82734180Y-87902095D02*
X81734180Y-87902095D01*
X81734180Y-87664000D01*
X81781800Y-87521142D01*
X81877038Y-87425904D01*
X81972276Y-87378285D01*
X82162752Y-87330666D01*
X82305609Y-87330666D01*
X82496085Y-87378285D01*
X82591323Y-87425904D01*
X82686561Y-87521142D01*
X82734180Y-87664000D01*
X82734180Y-87902095D01*
X82734180Y-86378285D02*
X82734180Y-86949714D01*
X82734180Y-86664000D02*
X81734180Y-86664000D01*
X81877038Y-86759238D01*
X81972276Y-86854476D01*
X82019895Y-86949714D01*
%TO.C,C2*%
X58851742Y-74098466D02*
X58899361Y-74146085D01*
X58946980Y-74288942D01*
X58946980Y-74384180D01*
X58899361Y-74527038D01*
X58804123Y-74622276D01*
X58708885Y-74669895D01*
X58518409Y-74717514D01*
X58375552Y-74717514D01*
X58185076Y-74669895D01*
X58089838Y-74622276D01*
X57994600Y-74527038D01*
X57946980Y-74384180D01*
X57946980Y-74288942D01*
X57994600Y-74146085D01*
X58042219Y-74098466D01*
X58042219Y-73717514D02*
X57994600Y-73669895D01*
X57946980Y-73574657D01*
X57946980Y-73336561D01*
X57994600Y-73241323D01*
X58042219Y-73193704D01*
X58137457Y-73146085D01*
X58232695Y-73146085D01*
X58375552Y-73193704D01*
X58946980Y-73765133D01*
X58946980Y-73146085D01*
%TO.C,D8*%
X108989180Y-95392095D02*
X107989180Y-95392095D01*
X107989180Y-95154000D01*
X108036800Y-95011142D01*
X108132038Y-94915904D01*
X108227276Y-94868285D01*
X108417752Y-94820666D01*
X108560609Y-94820666D01*
X108751085Y-94868285D01*
X108846323Y-94915904D01*
X108941561Y-95011142D01*
X108989180Y-95154000D01*
X108989180Y-95392095D01*
X108417752Y-94249238D02*
X108370133Y-94344476D01*
X108322514Y-94392095D01*
X108227276Y-94439714D01*
X108179657Y-94439714D01*
X108084419Y-94392095D01*
X108036800Y-94344476D01*
X107989180Y-94249238D01*
X107989180Y-94058761D01*
X108036800Y-93963523D01*
X108084419Y-93915904D01*
X108179657Y-93868285D01*
X108227276Y-93868285D01*
X108322514Y-93915904D01*
X108370133Y-93963523D01*
X108417752Y-94058761D01*
X108417752Y-94249238D01*
X108465371Y-94344476D01*
X108512990Y-94392095D01*
X108608228Y-94439714D01*
X108798704Y-94439714D01*
X108893942Y-94392095D01*
X108941561Y-94344476D01*
X108989180Y-94249238D01*
X108989180Y-94058761D01*
X108941561Y-93963523D01*
X108893942Y-93915904D01*
X108798704Y-93868285D01*
X108608228Y-93868285D01*
X108512990Y-93915904D01*
X108465371Y-93963523D01*
X108417752Y-94058761D01*
%TO.C,U2*%
X106037180Y-76236704D02*
X106846704Y-76236704D01*
X106941942Y-76189085D01*
X106989561Y-76141466D01*
X107037180Y-76046228D01*
X107037180Y-75855752D01*
X106989561Y-75760514D01*
X106941942Y-75712895D01*
X106846704Y-75665276D01*
X106037180Y-75665276D01*
X106132419Y-75236704D02*
X106084800Y-75189085D01*
X106037180Y-75093847D01*
X106037180Y-74855752D01*
X106084800Y-74760514D01*
X106132419Y-74712895D01*
X106227657Y-74665276D01*
X106322895Y-74665276D01*
X106465752Y-74712895D01*
X107037180Y-75284323D01*
X107037180Y-74665276D01*
%TO.C,D6*%
X64164180Y-62992095D02*
X63164180Y-62992095D01*
X63164180Y-62754000D01*
X63211800Y-62611142D01*
X63307038Y-62515904D01*
X63402276Y-62468285D01*
X63592752Y-62420666D01*
X63735609Y-62420666D01*
X63926085Y-62468285D01*
X64021323Y-62515904D01*
X64116561Y-62611142D01*
X64164180Y-62754000D01*
X64164180Y-62992095D01*
X63164180Y-61563523D02*
X63164180Y-61754000D01*
X63211800Y-61849238D01*
X63259419Y-61896857D01*
X63402276Y-61992095D01*
X63592752Y-62039714D01*
X63973704Y-62039714D01*
X64068942Y-61992095D01*
X64116561Y-61944476D01*
X64164180Y-61849238D01*
X64164180Y-61658761D01*
X64116561Y-61563523D01*
X64068942Y-61515904D01*
X63973704Y-61468285D01*
X63735609Y-61468285D01*
X63640371Y-61515904D01*
X63592752Y-61563523D01*
X63545133Y-61658761D01*
X63545133Y-61849238D01*
X63592752Y-61944476D01*
X63640371Y-61992095D01*
X63735609Y-62039714D01*
%TO.C,Vout_J1*%
X112667295Y-47034680D02*
X113000628Y-48034680D01*
X113333961Y-47034680D01*
X113810152Y-48034680D02*
X113714914Y-47987061D01*
X113667295Y-47939442D01*
X113619676Y-47844204D01*
X113619676Y-47558490D01*
X113667295Y-47463252D01*
X113714914Y-47415633D01*
X113810152Y-47368014D01*
X113953009Y-47368014D01*
X114048247Y-47415633D01*
X114095866Y-47463252D01*
X114143485Y-47558490D01*
X114143485Y-47844204D01*
X114095866Y-47939442D01*
X114048247Y-47987061D01*
X113953009Y-48034680D01*
X113810152Y-48034680D01*
X115000628Y-47368014D02*
X115000628Y-48034680D01*
X114572057Y-47368014D02*
X114572057Y-47891823D01*
X114619676Y-47987061D01*
X114714914Y-48034680D01*
X114857771Y-48034680D01*
X114953009Y-47987061D01*
X115000628Y-47939442D01*
X115333961Y-47368014D02*
X115714914Y-47368014D01*
X115476819Y-47034680D02*
X115476819Y-47891823D01*
X115524438Y-47987061D01*
X115619676Y-48034680D01*
X115714914Y-48034680D01*
X115810152Y-48129919D02*
X116572057Y-48129919D01*
X117095866Y-47034680D02*
X117095866Y-47748966D01*
X117048247Y-47891823D01*
X116953009Y-47987061D01*
X116810152Y-48034680D01*
X116714914Y-48034680D01*
X118095866Y-48034680D02*
X117524438Y-48034680D01*
X117810152Y-48034680D02*
X117810152Y-47034680D01*
X117714914Y-47177538D01*
X117619676Y-47272776D01*
X117524438Y-47320395D01*
%TO.C,Q1*%
X71829419Y-87189238D02*
X71781800Y-87284476D01*
X71686561Y-87379714D01*
X71543704Y-87522571D01*
X71496085Y-87617809D01*
X71496085Y-87713047D01*
X71734180Y-87665428D02*
X71686561Y-87760666D01*
X71591323Y-87855904D01*
X71400847Y-87903523D01*
X71067514Y-87903523D01*
X70877038Y-87855904D01*
X70781800Y-87760666D01*
X70734180Y-87665428D01*
X70734180Y-87474952D01*
X70781800Y-87379714D01*
X70877038Y-87284476D01*
X71067514Y-87236857D01*
X71400847Y-87236857D01*
X71591323Y-87284476D01*
X71686561Y-87379714D01*
X71734180Y-87474952D01*
X71734180Y-87665428D01*
X71734180Y-86284476D02*
X71734180Y-86855904D01*
X71734180Y-86570190D02*
X70734180Y-86570190D01*
X70877038Y-86665428D01*
X70972276Y-86760666D01*
X71019895Y-86855904D01*
%TO.C,R6*%
X111689180Y-64320666D02*
X111212990Y-64654000D01*
X111689180Y-64892095D02*
X110689180Y-64892095D01*
X110689180Y-64511142D01*
X110736800Y-64415904D01*
X110784419Y-64368285D01*
X110879657Y-64320666D01*
X111022514Y-64320666D01*
X111117752Y-64368285D01*
X111165371Y-64415904D01*
X111212990Y-64511142D01*
X111212990Y-64892095D01*
X110689180Y-63463523D02*
X110689180Y-63654000D01*
X110736800Y-63749238D01*
X110784419Y-63796857D01*
X110927276Y-63892095D01*
X111117752Y-63939714D01*
X111498704Y-63939714D01*
X111593942Y-63892095D01*
X111641561Y-63844476D01*
X111689180Y-63749238D01*
X111689180Y-63558761D01*
X111641561Y-63463523D01*
X111593942Y-63415904D01*
X111498704Y-63368285D01*
X111260609Y-63368285D01*
X111165371Y-63415904D01*
X111117752Y-63463523D01*
X111070133Y-63558761D01*
X111070133Y-63749238D01*
X111117752Y-63844476D01*
X111165371Y-63892095D01*
X111260609Y-63939714D01*
%TO.C,Q4*%
X101589419Y-87109238D02*
X101541800Y-87204476D01*
X101446561Y-87299714D01*
X101303704Y-87442571D01*
X101256085Y-87537809D01*
X101256085Y-87633047D01*
X101494180Y-87585428D02*
X101446561Y-87680666D01*
X101351323Y-87775904D01*
X101160847Y-87823523D01*
X100827514Y-87823523D01*
X100637038Y-87775904D01*
X100541800Y-87680666D01*
X100494180Y-87585428D01*
X100494180Y-87394952D01*
X100541800Y-87299714D01*
X100637038Y-87204476D01*
X100827514Y-87156857D01*
X101160847Y-87156857D01*
X101351323Y-87204476D01*
X101446561Y-87299714D01*
X101494180Y-87394952D01*
X101494180Y-87585428D01*
X100827514Y-86299714D02*
X101494180Y-86299714D01*
X100446561Y-86537809D02*
X101160847Y-86775904D01*
X101160847Y-86156857D01*
%TO.C,R5*%
X112170133Y-83761180D02*
X111836800Y-83284990D01*
X111598704Y-83761180D02*
X111598704Y-82761180D01*
X111979657Y-82761180D01*
X112074895Y-82808800D01*
X112122514Y-82856419D01*
X112170133Y-82951657D01*
X112170133Y-83094514D01*
X112122514Y-83189752D01*
X112074895Y-83237371D01*
X111979657Y-83284990D01*
X111598704Y-83284990D01*
X113074895Y-82761180D02*
X112598704Y-82761180D01*
X112551085Y-83237371D01*
X112598704Y-83189752D01*
X112693942Y-83142133D01*
X112932038Y-83142133D01*
X113027276Y-83189752D01*
X113074895Y-83237371D01*
X113122514Y-83332609D01*
X113122514Y-83570704D01*
X113074895Y-83665942D01*
X113027276Y-83713561D01*
X112932038Y-83761180D01*
X112693942Y-83761180D01*
X112598704Y-83713561D01*
X112551085Y-83665942D01*
%TO.C,Vin_J2*%
X54049895Y-46899580D02*
X54383228Y-47899580D01*
X54716561Y-46899580D01*
X55049895Y-47899580D02*
X55049895Y-47232914D01*
X55049895Y-46899580D02*
X55002276Y-46947200D01*
X55049895Y-46994819D01*
X55097514Y-46947200D01*
X55049895Y-46899580D01*
X55049895Y-46994819D01*
X55526085Y-47232914D02*
X55526085Y-47899580D01*
X55526085Y-47328152D02*
X55573704Y-47280533D01*
X55668942Y-47232914D01*
X55811800Y-47232914D01*
X55907038Y-47280533D01*
X55954657Y-47375771D01*
X55954657Y-47899580D01*
X56192752Y-47994819D02*
X56954657Y-47994819D01*
X57478466Y-46899580D02*
X57478466Y-47613866D01*
X57430847Y-47756723D01*
X57335609Y-47851961D01*
X57192752Y-47899580D01*
X57097514Y-47899580D01*
X57907038Y-46994819D02*
X57954657Y-46947200D01*
X58049895Y-46899580D01*
X58287990Y-46899580D01*
X58383228Y-46947200D01*
X58430847Y-46994819D01*
X58478466Y-47090057D01*
X58478466Y-47185295D01*
X58430847Y-47328152D01*
X57859419Y-47899580D01*
X58478466Y-47899580D01*
%TO.C,R9*%
X58558133Y-83103980D02*
X58224800Y-82627790D01*
X57986704Y-83103980D02*
X57986704Y-82103980D01*
X58367657Y-82103980D01*
X58462895Y-82151600D01*
X58510514Y-82199219D01*
X58558133Y-82294457D01*
X58558133Y-82437314D01*
X58510514Y-82532552D01*
X58462895Y-82580171D01*
X58367657Y-82627790D01*
X57986704Y-82627790D01*
X59034323Y-83103980D02*
X59224800Y-83103980D01*
X59320038Y-83056361D01*
X59367657Y-83008742D01*
X59462895Y-82865885D01*
X59510514Y-82675409D01*
X59510514Y-82294457D01*
X59462895Y-82199219D01*
X59415276Y-82151600D01*
X59320038Y-82103980D01*
X59129561Y-82103980D01*
X59034323Y-82151600D01*
X58986704Y-82199219D01*
X58939085Y-82294457D01*
X58939085Y-82532552D01*
X58986704Y-82627790D01*
X59034323Y-82675409D01*
X59129561Y-82723028D01*
X59320038Y-82723028D01*
X59415276Y-82675409D01*
X59462895Y-82627790D01*
X59510514Y-82532552D01*
%TO.C,D7*%
X109189180Y-64992095D02*
X108189180Y-64992095D01*
X108189180Y-64754000D01*
X108236800Y-64611142D01*
X108332038Y-64515904D01*
X108427276Y-64468285D01*
X108617752Y-64420666D01*
X108760609Y-64420666D01*
X108951085Y-64468285D01*
X109046323Y-64515904D01*
X109141561Y-64611142D01*
X109189180Y-64754000D01*
X109189180Y-64992095D01*
X108189180Y-64087333D02*
X108189180Y-63420666D01*
X109189180Y-63849238D01*
%TO.C,R3*%
X58345133Y-70106380D02*
X58011800Y-69630190D01*
X57773704Y-70106380D02*
X57773704Y-69106380D01*
X58154657Y-69106380D01*
X58249895Y-69154000D01*
X58297514Y-69201619D01*
X58345133Y-69296857D01*
X58345133Y-69439714D01*
X58297514Y-69534952D01*
X58249895Y-69582571D01*
X58154657Y-69630190D01*
X57773704Y-69630190D01*
X58678466Y-69106380D02*
X59297514Y-69106380D01*
X58964180Y-69487333D01*
X59107038Y-69487333D01*
X59202276Y-69534952D01*
X59249895Y-69582571D01*
X59297514Y-69677809D01*
X59297514Y-69915904D01*
X59249895Y-70011142D01*
X59202276Y-70058761D01*
X59107038Y-70106380D01*
X58821323Y-70106380D01*
X58726085Y-70058761D01*
X58678466Y-70011142D01*
%TO.C,M1*%
X118874180Y-69963523D02*
X117874180Y-69963523D01*
X118588466Y-69630190D01*
X117874180Y-69296857D01*
X118874180Y-69296857D01*
X118874180Y-68296857D02*
X118874180Y-68868285D01*
X118874180Y-68582571D02*
X117874180Y-68582571D01*
X118017038Y-68677809D01*
X118112276Y-68773047D01*
X118159895Y-68868285D01*
%TO.C,D2*%
X82634180Y-67402095D02*
X81634180Y-67402095D01*
X81634180Y-67164000D01*
X81681800Y-67021142D01*
X81777038Y-66925904D01*
X81872276Y-66878285D01*
X82062752Y-66830666D01*
X82205609Y-66830666D01*
X82396085Y-66878285D01*
X82491323Y-66925904D01*
X82586561Y-67021142D01*
X82634180Y-67164000D01*
X82634180Y-67402095D01*
X81729419Y-66449714D02*
X81681800Y-66402095D01*
X81634180Y-66306857D01*
X81634180Y-66068761D01*
X81681800Y-65973523D01*
X81729419Y-65925904D01*
X81824657Y-65878285D01*
X81919895Y-65878285D01*
X82062752Y-65925904D01*
X82634180Y-66497333D01*
X82634180Y-65878285D01*
%TO.C,C5*%
X114068942Y-81620666D02*
X114116561Y-81668285D01*
X114164180Y-81811142D01*
X114164180Y-81906380D01*
X114116561Y-82049238D01*
X114021323Y-82144476D01*
X113926085Y-82192095D01*
X113735609Y-82239714D01*
X113592752Y-82239714D01*
X113402276Y-82192095D01*
X113307038Y-82144476D01*
X113211800Y-82049238D01*
X113164180Y-81906380D01*
X113164180Y-81811142D01*
X113211800Y-81668285D01*
X113259419Y-81620666D01*
X113164180Y-80715904D02*
X113164180Y-81192095D01*
X113640371Y-81239714D01*
X113592752Y-81192095D01*
X113545133Y-81096857D01*
X113545133Y-80858761D01*
X113592752Y-80763523D01*
X113640371Y-80715904D01*
X113735609Y-80668285D01*
X113973704Y-80668285D01*
X114068942Y-80715904D01*
X114116561Y-80763523D01*
X114164180Y-80858761D01*
X114164180Y-81096857D01*
X114116561Y-81192095D01*
X114068942Y-81239714D01*
%TO.C,C3*%
X69454733Y-78004942D02*
X69407114Y-78052561D01*
X69264257Y-78100180D01*
X69169019Y-78100180D01*
X69026161Y-78052561D01*
X68930923Y-77957323D01*
X68883304Y-77862085D01*
X68835685Y-77671609D01*
X68835685Y-77528752D01*
X68883304Y-77338276D01*
X68930923Y-77243038D01*
X69026161Y-77147800D01*
X69169019Y-77100180D01*
X69264257Y-77100180D01*
X69407114Y-77147800D01*
X69454733Y-77195419D01*
X69788066Y-77100180D02*
X70407114Y-77100180D01*
X70073780Y-77481133D01*
X70216638Y-77481133D01*
X70311876Y-77528752D01*
X70359495Y-77576371D01*
X70407114Y-77671609D01*
X70407114Y-77909704D01*
X70359495Y-78004942D01*
X70311876Y-78052561D01*
X70216638Y-78100180D01*
X69930923Y-78100180D01*
X69835685Y-78052561D01*
X69788066Y-78004942D01*
%TO.C,R2*%
X61739580Y-89788466D02*
X61263390Y-90121800D01*
X61739580Y-90359895D02*
X60739580Y-90359895D01*
X60739580Y-89978942D01*
X60787200Y-89883704D01*
X60834819Y-89836085D01*
X60930057Y-89788466D01*
X61072914Y-89788466D01*
X61168152Y-89836085D01*
X61215771Y-89883704D01*
X61263390Y-89978942D01*
X61263390Y-90359895D01*
X60834819Y-89407514D02*
X60787200Y-89359895D01*
X60739580Y-89264657D01*
X60739580Y-89026561D01*
X60787200Y-88931323D01*
X60834819Y-88883704D01*
X60930057Y-88836085D01*
X61025295Y-88836085D01*
X61168152Y-88883704D01*
X61739580Y-89455133D01*
X61739580Y-88836085D01*
%TO.C,Q2*%
X71829419Y-66789238D02*
X71781800Y-66884476D01*
X71686561Y-66979714D01*
X71543704Y-67122571D01*
X71496085Y-67217809D01*
X71496085Y-67313047D01*
X71734180Y-67265428D02*
X71686561Y-67360666D01*
X71591323Y-67455904D01*
X71400847Y-67503523D01*
X71067514Y-67503523D01*
X70877038Y-67455904D01*
X70781800Y-67360666D01*
X70734180Y-67265428D01*
X70734180Y-67074952D01*
X70781800Y-66979714D01*
X70877038Y-66884476D01*
X71067514Y-66836857D01*
X71400847Y-66836857D01*
X71591323Y-66884476D01*
X71686561Y-66979714D01*
X71734180Y-67074952D01*
X71734180Y-67265428D01*
X70829419Y-66455904D02*
X70781800Y-66408285D01*
X70734180Y-66313047D01*
X70734180Y-66074952D01*
X70781800Y-65979714D01*
X70829419Y-65932095D01*
X70924657Y-65884476D01*
X71019895Y-65884476D01*
X71162752Y-65932095D01*
X71734180Y-66503523D01*
X71734180Y-65884476D01*
%TO.C,Q5*%
X110286561Y-61461619D02*
X110191323Y-61414000D01*
X110096085Y-61318761D01*
X109953228Y-61175904D01*
X109857990Y-61128285D01*
X109762752Y-61128285D01*
X109810371Y-61366380D02*
X109715133Y-61318761D01*
X109619895Y-61223523D01*
X109572276Y-61033047D01*
X109572276Y-60699714D01*
X109619895Y-60509238D01*
X109715133Y-60414000D01*
X109810371Y-60366380D01*
X110000847Y-60366380D01*
X110096085Y-60414000D01*
X110191323Y-60509238D01*
X110238942Y-60699714D01*
X110238942Y-61033047D01*
X110191323Y-61223523D01*
X110096085Y-61318761D01*
X110000847Y-61366380D01*
X109810371Y-61366380D01*
X111143704Y-60366380D02*
X110667514Y-60366380D01*
X110619895Y-60842571D01*
X110667514Y-60794952D01*
X110762752Y-60747333D01*
X111000847Y-60747333D01*
X111096085Y-60794952D01*
X111143704Y-60842571D01*
X111191323Y-60937809D01*
X111191323Y-61175904D01*
X111143704Y-61271142D01*
X111096085Y-61318761D01*
X111000847Y-61366380D01*
X110762752Y-61366380D01*
X110667514Y-61318761D01*
X110619895Y-61271142D01*
%TO.C,D4*%
X90394180Y-87752095D02*
X89394180Y-87752095D01*
X89394180Y-87514000D01*
X89441800Y-87371142D01*
X89537038Y-87275904D01*
X89632276Y-87228285D01*
X89822752Y-87180666D01*
X89965609Y-87180666D01*
X90156085Y-87228285D01*
X90251323Y-87275904D01*
X90346561Y-87371142D01*
X90394180Y-87514000D01*
X90394180Y-87752095D01*
X89727514Y-86323523D02*
X90394180Y-86323523D01*
X89346561Y-86561619D02*
X90060847Y-86799714D01*
X90060847Y-86180666D01*
%TO.C,D3*%
X90294180Y-67452095D02*
X89294180Y-67452095D01*
X89294180Y-67214000D01*
X89341800Y-67071142D01*
X89437038Y-66975904D01*
X89532276Y-66928285D01*
X89722752Y-66880666D01*
X89865609Y-66880666D01*
X90056085Y-66928285D01*
X90151323Y-66975904D01*
X90246561Y-67071142D01*
X90294180Y-67214000D01*
X90294180Y-67452095D01*
X89294180Y-66547333D02*
X89294180Y-65928285D01*
X89675133Y-66261619D01*
X89675133Y-66118761D01*
X89722752Y-66023523D01*
X89770371Y-65975904D01*
X89865609Y-65928285D01*
X90103704Y-65928285D01*
X90198942Y-65975904D01*
X90246561Y-66023523D01*
X90294180Y-66118761D01*
X90294180Y-66404476D01*
X90246561Y-66499714D01*
X90198942Y-66547333D01*
%TO.C,C6*%
X101992133Y-78131942D02*
X101944514Y-78179561D01*
X101801657Y-78227180D01*
X101706419Y-78227180D01*
X101563561Y-78179561D01*
X101468323Y-78084323D01*
X101420704Y-77989085D01*
X101373085Y-77798609D01*
X101373085Y-77655752D01*
X101420704Y-77465276D01*
X101468323Y-77370038D01*
X101563561Y-77274800D01*
X101706419Y-77227180D01*
X101801657Y-77227180D01*
X101944514Y-77274800D01*
X101992133Y-77322419D01*
X102849276Y-77227180D02*
X102658800Y-77227180D01*
X102563561Y-77274800D01*
X102515942Y-77322419D01*
X102420704Y-77465276D01*
X102373085Y-77655752D01*
X102373085Y-78036704D01*
X102420704Y-78131942D01*
X102468323Y-78179561D01*
X102563561Y-78227180D01*
X102754038Y-78227180D01*
X102849276Y-78179561D01*
X102896895Y-78131942D01*
X102944514Y-78036704D01*
X102944514Y-77798609D01*
X102896895Y-77703371D01*
X102849276Y-77655752D01*
X102754038Y-77608133D01*
X102563561Y-77608133D01*
X102468323Y-77655752D01*
X102420704Y-77703371D01*
X102373085Y-77798609D01*
%TO.C,R10*%
X113403142Y-71877180D02*
X113069809Y-71400990D01*
X112831714Y-71877180D02*
X112831714Y-70877180D01*
X113212666Y-70877180D01*
X113307904Y-70924800D01*
X113355523Y-70972419D01*
X113403142Y-71067657D01*
X113403142Y-71210514D01*
X113355523Y-71305752D01*
X113307904Y-71353371D01*
X113212666Y-71400990D01*
X112831714Y-71400990D01*
X114355523Y-71877180D02*
X113784095Y-71877180D01*
X114069809Y-71877180D02*
X114069809Y-70877180D01*
X113974571Y-71020038D01*
X113879333Y-71115276D01*
X113784095Y-71162895D01*
X114974571Y-70877180D02*
X115069809Y-70877180D01*
X115165047Y-70924800D01*
X115212666Y-70972419D01*
X115260285Y-71067657D01*
X115307904Y-71258133D01*
X115307904Y-71496228D01*
X115260285Y-71686704D01*
X115212666Y-71781942D01*
X115165047Y-71829561D01*
X115069809Y-71877180D01*
X114974571Y-71877180D01*
X114879333Y-71829561D01*
X114831714Y-71781942D01*
X114784095Y-71686704D01*
X114736476Y-71496228D01*
X114736476Y-71258133D01*
X114784095Y-71067657D01*
X114831714Y-70972419D01*
X114879333Y-70924800D01*
X114974571Y-70877180D01*
%TO.C,R7*%
X111489180Y-94820666D02*
X111012990Y-95154000D01*
X111489180Y-95392095D02*
X110489180Y-95392095D01*
X110489180Y-95011142D01*
X110536800Y-94915904D01*
X110584419Y-94868285D01*
X110679657Y-94820666D01*
X110822514Y-94820666D01*
X110917752Y-94868285D01*
X110965371Y-94915904D01*
X111012990Y-95011142D01*
X111012990Y-95392095D01*
X110489180Y-94487333D02*
X110489180Y-93820666D01*
X111489180Y-94249238D01*
%TO.C,R4*%
X61164180Y-62320666D02*
X60687990Y-62654000D01*
X61164180Y-62892095D02*
X60164180Y-62892095D01*
X60164180Y-62511142D01*
X60211800Y-62415904D01*
X60259419Y-62368285D01*
X60354657Y-62320666D01*
X60497514Y-62320666D01*
X60592752Y-62368285D01*
X60640371Y-62415904D01*
X60687990Y-62511142D01*
X60687990Y-62892095D01*
X60497514Y-61463523D02*
X61164180Y-61463523D01*
X60116561Y-61701619D02*
X60830847Y-61939714D01*
X60830847Y-61320666D01*
%TO.C,F1 10A*%
X72352161Y-48086971D02*
X72018828Y-48086971D01*
X72018828Y-48610780D02*
X72018828Y-47610780D01*
X72495019Y-47610780D01*
X73399780Y-48610780D02*
X72828352Y-48610780D01*
X73114066Y-48610780D02*
X73114066Y-47610780D01*
X73018828Y-47753638D01*
X72923590Y-47848876D01*
X72828352Y-47896495D01*
X75114066Y-48610780D02*
X74542638Y-48610780D01*
X74828352Y-48610780D02*
X74828352Y-47610780D01*
X74733114Y-47753638D01*
X74637876Y-47848876D01*
X74542638Y-47896495D01*
X75733114Y-47610780D02*
X75828352Y-47610780D01*
X75923590Y-47658400D01*
X75971209Y-47706019D01*
X76018828Y-47801257D01*
X76066447Y-47991733D01*
X76066447Y-48229828D01*
X76018828Y-48420304D01*
X75971209Y-48515542D01*
X75923590Y-48563161D01*
X75828352Y-48610780D01*
X75733114Y-48610780D01*
X75637876Y-48563161D01*
X75590257Y-48515542D01*
X75542638Y-48420304D01*
X75495019Y-48229828D01*
X75495019Y-47991733D01*
X75542638Y-47801257D01*
X75590257Y-47706019D01*
X75637876Y-47658400D01*
X75733114Y-47610780D01*
X76447400Y-48325066D02*
X76923590Y-48325066D01*
X76352161Y-48610780D02*
X76685495Y-47610780D01*
X77018828Y-48610780D01*
%TO.C,R8*%
X113270133Y-87906380D02*
X112936800Y-87430190D01*
X112698704Y-87906380D02*
X112698704Y-86906380D01*
X113079657Y-86906380D01*
X113174895Y-86954000D01*
X113222514Y-87001619D01*
X113270133Y-87096857D01*
X113270133Y-87239714D01*
X113222514Y-87334952D01*
X113174895Y-87382571D01*
X113079657Y-87430190D01*
X112698704Y-87430190D01*
X113841561Y-87334952D02*
X113746323Y-87287333D01*
X113698704Y-87239714D01*
X113651085Y-87144476D01*
X113651085Y-87096857D01*
X113698704Y-87001619D01*
X113746323Y-86954000D01*
X113841561Y-86906380D01*
X114032038Y-86906380D01*
X114127276Y-86954000D01*
X114174895Y-87001619D01*
X114222514Y-87096857D01*
X114222514Y-87144476D01*
X114174895Y-87239714D01*
X114127276Y-87287333D01*
X114032038Y-87334952D01*
X113841561Y-87334952D01*
X113746323Y-87382571D01*
X113698704Y-87430190D01*
X113651085Y-87525428D01*
X113651085Y-87715904D01*
X113698704Y-87811142D01*
X113746323Y-87858761D01*
X113841561Y-87906380D01*
X114032038Y-87906380D01*
X114127276Y-87858761D01*
X114174895Y-87811142D01*
X114222514Y-87715904D01*
X114222514Y-87525428D01*
X114174895Y-87430190D01*
X114127276Y-87382571D01*
X114032038Y-87334952D01*
%TO.C,C1*%
X54116533Y-77843742D02*
X54068914Y-77891361D01*
X53926057Y-77938980D01*
X53830819Y-77938980D01*
X53687961Y-77891361D01*
X53592723Y-77796123D01*
X53545104Y-77700885D01*
X53497485Y-77510409D01*
X53497485Y-77367552D01*
X53545104Y-77177076D01*
X53592723Y-77081838D01*
X53687961Y-76986600D01*
X53830819Y-76938980D01*
X53926057Y-76938980D01*
X54068914Y-76986600D01*
X54116533Y-77034219D01*
X55068914Y-77938980D02*
X54497485Y-77938980D01*
X54783200Y-77938980D02*
X54783200Y-76938980D01*
X54687961Y-77081838D01*
X54592723Y-77177076D01*
X54497485Y-77224695D01*
%TO.C,R1*%
X58604133Y-72240180D02*
X58270800Y-71763990D01*
X58032704Y-72240180D02*
X58032704Y-71240180D01*
X58413657Y-71240180D01*
X58508895Y-71287800D01*
X58556514Y-71335419D01*
X58604133Y-71430657D01*
X58604133Y-71573514D01*
X58556514Y-71668752D01*
X58508895Y-71716371D01*
X58413657Y-71763990D01*
X58032704Y-71763990D01*
X59556514Y-72240180D02*
X58985085Y-72240180D01*
X59270800Y-72240180D02*
X59270800Y-71240180D01*
X59175561Y-71383038D01*
X59080323Y-71478276D01*
X58985085Y-71525895D01*
%TO.C,Q3*%
X101589419Y-67009238D02*
X101541800Y-67104476D01*
X101446561Y-67199714D01*
X101303704Y-67342571D01*
X101256085Y-67437809D01*
X101256085Y-67533047D01*
X101494180Y-67485428D02*
X101446561Y-67580666D01*
X101351323Y-67675904D01*
X101160847Y-67723523D01*
X100827514Y-67723523D01*
X100637038Y-67675904D01*
X100541800Y-67580666D01*
X100494180Y-67485428D01*
X100494180Y-67294952D01*
X100541800Y-67199714D01*
X100637038Y-67104476D01*
X100827514Y-67056857D01*
X101160847Y-67056857D01*
X101351323Y-67104476D01*
X101446561Y-67199714D01*
X101494180Y-67294952D01*
X101494180Y-67485428D01*
X100494180Y-66723523D02*
X100494180Y-66104476D01*
X100875133Y-66437809D01*
X100875133Y-66294952D01*
X100922752Y-66199714D01*
X100970371Y-66152095D01*
X101065609Y-66104476D01*
X101303704Y-66104476D01*
X101398942Y-66152095D01*
X101446561Y-66199714D01*
X101494180Y-66294952D01*
X101494180Y-66580666D01*
X101446561Y-66675904D01*
X101398942Y-66723523D01*
%TO.C,U1*%
X64933580Y-76403104D02*
X65743104Y-76403104D01*
X65838342Y-76355485D01*
X65885961Y-76307866D01*
X65933580Y-76212628D01*
X65933580Y-76022152D01*
X65885961Y-75926914D01*
X65838342Y-75879295D01*
X65743104Y-75831676D01*
X64933580Y-75831676D01*
X65933580Y-74831676D02*
X65933580Y-75403104D01*
X65933580Y-75117390D02*
X64933580Y-75117390D01*
X65076438Y-75212628D01*
X65171676Y-75307866D01*
X65219295Y-75403104D01*
%TO.C,C4*%
X117345133Y-78811142D02*
X117297514Y-78858761D01*
X117154657Y-78906380D01*
X117059419Y-78906380D01*
X116916561Y-78858761D01*
X116821323Y-78763523D01*
X116773704Y-78668285D01*
X116726085Y-78477809D01*
X116726085Y-78334952D01*
X116773704Y-78144476D01*
X116821323Y-78049238D01*
X116916561Y-77954000D01*
X117059419Y-77906380D01*
X117154657Y-77906380D01*
X117297514Y-77954000D01*
X117345133Y-78001619D01*
X118202276Y-78239714D02*
X118202276Y-78906380D01*
X117964180Y-77858761D02*
X117726085Y-78573047D01*
X118345133Y-78573047D01*
%TO.C,L1*%
X86145133Y-99206380D02*
X85668942Y-99206380D01*
X85668942Y-98206380D01*
X87002276Y-99206380D02*
X86430847Y-99206380D01*
X86716561Y-99206380D02*
X86716561Y-98206380D01*
X86621323Y-98349238D01*
X86526085Y-98444476D01*
X86430847Y-98492095D01*
%TO.C,D5*%
X64089580Y-90059895D02*
X63089580Y-90059895D01*
X63089580Y-89821800D01*
X63137200Y-89678942D01*
X63232438Y-89583704D01*
X63327676Y-89536085D01*
X63518152Y-89488466D01*
X63661009Y-89488466D01*
X63851485Y-89536085D01*
X63946723Y-89583704D01*
X64041961Y-89678942D01*
X64089580Y-89821800D01*
X64089580Y-90059895D01*
X63089580Y-88583704D02*
X63089580Y-89059895D01*
X63565771Y-89107514D01*
X63518152Y-89059895D01*
X63470533Y-88964657D01*
X63470533Y-88726561D01*
X63518152Y-88631323D01*
X63565771Y-88583704D01*
X63661009Y-88536085D01*
X63899104Y-88536085D01*
X63994342Y-88583704D01*
X64041961Y-88631323D01*
X64089580Y-88726561D01*
X64089580Y-88964657D01*
X64041961Y-89059895D01*
X63994342Y-89107514D01*
%TO.C,J3*%
X89378466Y-46206380D02*
X89378466Y-46920666D01*
X89330847Y-47063523D01*
X89235609Y-47158761D01*
X89092752Y-47206380D01*
X88997514Y-47206380D01*
X89759419Y-46206380D02*
X90378466Y-46206380D01*
X90045133Y-46587333D01*
X90187990Y-46587333D01*
X90283228Y-46634952D01*
X90330847Y-46682571D01*
X90378466Y-46777809D01*
X90378466Y-47015904D01*
X90330847Y-47111142D01*
X90283228Y-47158761D01*
X90187990Y-47206380D01*
X89902276Y-47206380D01*
X89807038Y-47158761D01*
X89759419Y-47111142D01*
D11*
%TO.C,D1*%
X79771800Y-82044000D02*
X79771800Y-92284000D01*
X81281800Y-82044000D02*
X81281800Y-92284000D01*
X81281800Y-82044000D02*
X76640800Y-82044000D01*
X81281800Y-85314000D02*
X79771800Y-85314000D01*
X76640800Y-82044000D02*
X76640800Y-92284000D01*
X81281800Y-92284000D02*
X76640800Y-92284000D01*
X81281800Y-89015000D02*
X79771800Y-89015000D01*
%TO.C,C2*%
X57884600Y-76778067D02*
X57884600Y-76485533D01*
X58904600Y-76778067D02*
X58904600Y-76485533D01*
%TO.C,D8*%
X107636800Y-93504000D02*
X107636800Y-89604000D01*
X107636800Y-93504000D02*
X109636800Y-93504000D01*
X109636800Y-93504000D02*
X109636800Y-89604000D01*
%TO.C,U2*%
X107599800Y-78282800D02*
X107599800Y-80232800D01*
X112719800Y-78282800D02*
X112719800Y-80232800D01*
X112719800Y-78282800D02*
X112719800Y-74832800D01*
X107599800Y-78282800D02*
X107599800Y-76332800D01*
%TO.C,D6*%
X64611800Y-68004000D02*
X64611800Y-64104000D01*
X62611800Y-68004000D02*
X62611800Y-64104000D01*
X62611800Y-68004000D02*
X64611800Y-68004000D01*
%TO.C,Vout_J1*%
X111979200Y-48732300D02*
X120779200Y-48732300D01*
X105879200Y-57082300D02*
X105879200Y-58132300D01*
X106079200Y-57932300D02*
X106079200Y-55332300D01*
X120779200Y-48732300D02*
X120779200Y-57932300D01*
X106929200Y-58132300D02*
X105879200Y-58132300D01*
X106079200Y-48732300D02*
X107979200Y-48732300D01*
X106079200Y-51432300D02*
X106079200Y-48732300D01*
X120779200Y-57932300D02*
X106079200Y-57932300D01*
%TO.C,Q1*%
X65640800Y-81974000D02*
X65640800Y-92214000D01*
X70281800Y-85244000D02*
X68771800Y-85244000D01*
X68771800Y-81974000D02*
X68771800Y-92214000D01*
X70281800Y-92214000D02*
X65640800Y-92214000D01*
X70281800Y-88945000D02*
X68771800Y-88945000D01*
X70281800Y-81974000D02*
X70281800Y-92214000D01*
X70281800Y-81974000D02*
X65640800Y-81974000D01*
%TO.C,R6*%
X110226800Y-68381064D02*
X110226800Y-66926936D01*
X112046800Y-68381064D02*
X112046800Y-66926936D01*
%TO.C,Q4*%
X102041800Y-85163000D02*
X103551800Y-85163000D01*
X102041800Y-81894000D02*
X106682800Y-81894000D01*
X102041800Y-88864000D02*
X103551800Y-88864000D01*
X102041800Y-92134000D02*
X106682800Y-92134000D01*
X106682800Y-92134000D02*
X106682800Y-81894000D01*
X103551800Y-92134000D02*
X103551800Y-81894000D01*
X102041800Y-92134000D02*
X102041800Y-81894000D01*
%TO.C,R5*%
X109084736Y-82373800D02*
X109538864Y-82373800D01*
X109084736Y-83843800D02*
X109538864Y-83843800D01*
%TO.C,Vin_J2*%
X66002600Y-49394500D02*
X66002600Y-48344500D01*
X51102600Y-57744500D02*
X51102600Y-48544500D01*
X64952600Y-48344500D02*
X66002600Y-48344500D01*
X65802600Y-55044500D02*
X65802600Y-57744500D01*
X65802600Y-48544500D02*
X65802600Y-51144500D01*
X59902600Y-57744500D02*
X51102600Y-57744500D01*
X51102600Y-48544500D02*
X65802600Y-48544500D01*
X65802600Y-57744500D02*
X63902600Y-57744500D01*
%TO.C,R9*%
X61604536Y-83155200D02*
X63058664Y-83155200D01*
X61604536Y-81335200D02*
X63058664Y-81335200D01*
%TO.C,D7*%
X109636800Y-65404000D02*
X107636800Y-65404000D01*
X109636800Y-65404000D02*
X109636800Y-69304000D01*
X107636800Y-65404000D02*
X107636800Y-69304000D01*
%TO.C,R3*%
X61484736Y-70564000D02*
X62938864Y-70564000D01*
X61484736Y-68744000D02*
X62938864Y-68744000D01*
%TO.C,M1*%
X118931800Y-67814000D02*
X118931800Y-66814000D01*
X116411800Y-60094000D02*
X116411800Y-67814000D01*
X120731800Y-68114000D02*
X120731800Y-65614000D01*
X116911800Y-67314000D02*
X116911800Y-60594000D01*
X118931800Y-60094000D02*
X118931800Y-61094000D01*
X120431800Y-60094000D02*
X116411800Y-60094000D01*
X118931800Y-66814000D02*
X120431800Y-66814000D01*
X116411800Y-67814000D02*
X120431800Y-67814000D01*
X118121800Y-60594000D02*
X118121800Y-60094000D01*
X118121800Y-67314000D02*
X116911800Y-67314000D01*
X118931800Y-61094000D02*
X120431800Y-61094000D01*
X120431800Y-67814000D02*
X120431800Y-60094000D01*
X118121800Y-67814000D02*
X118121800Y-67314000D01*
X118231800Y-68114000D02*
X120731800Y-68114000D01*
X116911800Y-60594000D02*
X118121800Y-60594000D01*
%TO.C,D2*%
X81181800Y-68515000D02*
X79671800Y-68515000D01*
X81181800Y-64814000D02*
X79671800Y-64814000D01*
X76540800Y-61544000D02*
X76540800Y-71784000D01*
X81181800Y-61544000D02*
X76540800Y-61544000D01*
X79671800Y-61544000D02*
X79671800Y-71784000D01*
X81181800Y-71784000D02*
X76540800Y-71784000D01*
X81181800Y-61544000D02*
X81181800Y-71784000D01*
%TO.C,C5*%
X114321800Y-78607733D02*
X114321800Y-78900267D01*
X113301800Y-78607733D02*
X113301800Y-78900267D01*
%TO.C,C3*%
X66413748Y-76887400D02*
X66936252Y-76887400D01*
X66413748Y-78357400D02*
X66936252Y-78357400D01*
%TO.C,R2*%
X60227200Y-85294736D02*
X60227200Y-86748864D01*
X62047200Y-85294736D02*
X62047200Y-86748864D01*
%TO.C,Q2*%
X68771800Y-61574000D02*
X68771800Y-71814000D01*
X70281800Y-68545000D02*
X68771800Y-68545000D01*
X70281800Y-71814000D02*
X65640800Y-71814000D01*
X70281800Y-61574000D02*
X65640800Y-61574000D01*
X70281800Y-64844000D02*
X68771800Y-64844000D01*
X65640800Y-61574000D02*
X65640800Y-71814000D01*
X70281800Y-61574000D02*
X70281800Y-71814000D01*
%TO.C,Q5*%
X113281800Y-59354000D02*
X113931800Y-59354000D01*
X113281800Y-59354000D02*
X111606800Y-59354000D01*
X113281800Y-62474000D02*
X112631800Y-62474000D01*
X113281800Y-62474000D02*
X113931800Y-62474000D01*
%TO.C,D4*%
X90941800Y-92134000D02*
X90941800Y-81894000D01*
X90941800Y-92134000D02*
X95582800Y-92134000D01*
X92451800Y-92134000D02*
X92451800Y-81894000D01*
X90941800Y-85163000D02*
X92451800Y-85163000D01*
X90941800Y-88864000D02*
X92451800Y-88864000D01*
X90941800Y-81894000D02*
X95582800Y-81894000D01*
X95582800Y-92134000D02*
X95582800Y-81894000D01*
%TO.C,D3*%
X90841800Y-71834000D02*
X90841800Y-61594000D01*
X90841800Y-61594000D02*
X95482800Y-61594000D01*
X90841800Y-71834000D02*
X95482800Y-71834000D01*
X95482800Y-71834000D02*
X95482800Y-61594000D01*
X90841800Y-68564000D02*
X92351800Y-68564000D01*
X90841800Y-64863000D02*
X92351800Y-64863000D01*
X92351800Y-71834000D02*
X92351800Y-61594000D01*
%TO.C,C6*%
X105569652Y-77090600D02*
X105047148Y-77090600D01*
X105569652Y-78560600D02*
X105047148Y-78560600D01*
%TO.C,R10*%
X110683664Y-72284000D02*
X109229536Y-72284000D01*
X110683664Y-70464000D02*
X109229536Y-70464000D01*
%TO.C,R7*%
X112046800Y-90526936D02*
X112046800Y-91981064D01*
X110226800Y-90526936D02*
X110226800Y-91981064D01*
%TO.C,R4*%
X59801800Y-66381064D02*
X59801800Y-64926936D01*
X61621800Y-66381064D02*
X61621800Y-64926936D01*
%TO.C,R8*%
X110663864Y-88364000D02*
X109209736Y-88364000D01*
X110663864Y-86544000D02*
X109209736Y-86544000D01*
%TO.C,C1*%
X57643200Y-79291037D02*
X56578763Y-78226600D01*
X57643200Y-81682163D02*
X57643200Y-81546600D01*
X56578763Y-82746600D02*
X53123200Y-82746600D01*
X57643200Y-81682163D02*
X56578763Y-82746600D01*
X53123200Y-78226600D02*
X53123200Y-79426600D01*
X57643200Y-79291037D02*
X57643200Y-79426600D01*
X53123200Y-82746600D02*
X53123200Y-81546600D01*
X56578763Y-78226600D02*
X53123200Y-78226600D01*
%TO.C,R1*%
X63010264Y-72721600D02*
X62556136Y-72721600D01*
X63010264Y-71251600D02*
X62556136Y-71251600D01*
%TO.C,Q3*%
X102041800Y-72034000D02*
X106682800Y-72034000D01*
X103551800Y-72034000D02*
X103551800Y-61794000D01*
X102041800Y-72034000D02*
X102041800Y-61794000D01*
X102041800Y-61794000D02*
X106682800Y-61794000D01*
X102041800Y-65063000D02*
X103551800Y-65063000D01*
X102041800Y-68764000D02*
X103551800Y-68764000D01*
X106682800Y-72034000D02*
X106682800Y-61794000D01*
%TO.C,U1*%
X59423200Y-76886600D02*
X59423200Y-80336600D01*
X64543200Y-76886600D02*
X64543200Y-78836600D01*
X64543200Y-76886600D02*
X64543200Y-74936600D01*
X59423200Y-76886600D02*
X59423200Y-74936600D01*
%TO.C,C4*%
X115516237Y-77514000D02*
X118971800Y-77514000D01*
X118971800Y-77514000D02*
X118971800Y-76314000D01*
X114451800Y-76449563D02*
X115516237Y-77514000D01*
X114451800Y-74058437D02*
X114451800Y-74194000D01*
X114451800Y-76449563D02*
X114451800Y-76314000D01*
X115516237Y-72994000D02*
X118971800Y-72994000D01*
X114451800Y-74058437D02*
X115516237Y-72994000D01*
X118971800Y-72994000D02*
X118971800Y-74194000D01*
%TO.C,D5*%
X62637200Y-88171800D02*
X64637200Y-88171800D01*
X62637200Y-88171800D02*
X62637200Y-84271800D01*
X64637200Y-88171800D02*
X64637200Y-84271800D01*
%TO.C,J3*%
X103871800Y-53896500D02*
X102651800Y-53896500D01*
X93761800Y-53786500D02*
X93461800Y-54386500D01*
X102651800Y-51696500D02*
X103871800Y-51696500D01*
X99081800Y-50696500D02*
X98761800Y-50696500D01*
X98761800Y-47196500D02*
X99081800Y-47276500D01*
X92371800Y-51696500D02*
X91151800Y-51696500D01*
X93761800Y-47196500D02*
X94081800Y-47276500D01*
X92371800Y-50696500D02*
X102651800Y-50696500D01*
X93761800Y-50696500D02*
X93441800Y-50696500D01*
X98441800Y-50696500D02*
X98441800Y-47276500D01*
X93441800Y-50696500D02*
X93441800Y-47276500D01*
X101261800Y-50696500D02*
X100941800Y-50696500D01*
X101581800Y-47276500D02*
X101581800Y-50696500D01*
X92371800Y-53896500D02*
X91151800Y-53896500D01*
X92371800Y-51696500D02*
X92371800Y-53896500D01*
X96261800Y-47196500D02*
X96581800Y-47276500D01*
X100941800Y-50696500D02*
X100941800Y-47276500D01*
X102651800Y-46696500D02*
X102651800Y-51696500D01*
X91151800Y-53896500D02*
X91151800Y-45476500D01*
X102651800Y-53896500D02*
X102651800Y-51696500D01*
X99081800Y-47276500D02*
X99081800Y-50696500D01*
X103871800Y-46696500D02*
X102651800Y-46696500D01*
X97431800Y-51696500D02*
X97591800Y-51696500D01*
X93441800Y-47276500D02*
X93761800Y-47196500D01*
X98761800Y-50696500D02*
X98441800Y-50696500D01*
X94931800Y-51696500D02*
X95091800Y-51696500D01*
X101261800Y-47196500D02*
X101581800Y-47276500D01*
X96581800Y-47276500D02*
X96581800Y-50696500D01*
X101581800Y-50696500D02*
X101261800Y-50696500D01*
X95941800Y-50696500D02*
X95941800Y-47276500D01*
X91151800Y-46696500D02*
X92371800Y-46696500D01*
X96261800Y-50696500D02*
X95941800Y-50696500D01*
X103871800Y-45476500D02*
X103871800Y-53896500D01*
X96581800Y-50696500D02*
X96261800Y-50696500D01*
X99931800Y-51696500D02*
X100091800Y-51696500D01*
X94081800Y-50696500D02*
X93761800Y-50696500D01*
X100941800Y-47276500D02*
X101261800Y-47196500D01*
X95941800Y-47276500D02*
X96261800Y-47196500D01*
X91151800Y-45476500D02*
X103871800Y-45476500D01*
X93461800Y-54386500D02*
X94061800Y-54386500D01*
X94061800Y-54386500D02*
X93761800Y-53786500D01*
X98441800Y-47276500D02*
X98761800Y-47196500D01*
X94081800Y-47276500D02*
X94081800Y-50696500D01*
X92371800Y-46696500D02*
X92371800Y-51696500D01*
%TD*%
M02*
