M48
; DRILL file {KiCad (6.0.1)} date Fri May 20 18:22:29 2022
; FORMAT={-:-/ absolute / inch / decimal}
; #@! TF.CreationDate,2022-05-20T18:22:29-05:00
; #@! TF.GenerationSoftware,Kicad,Pcbnew,(6.0.1)
; #@! TF.FileFunction,Plated,1,2,PTH
FMAT,2
INCH
; #@! TA.AperFunction,Plated,PTH,ViaDrill
T1C0.0118
; #@! TA.AperFunction,Plated,PTH,ViaDrill
T2C0.0157
; #@! TA.AperFunction,Plated,PTH,ComponentDrill
T3C0.0374
; #@! TA.AperFunction,Plated,PTH,ComponentDrill
T4C0.0394
; #@! TA.AperFunction,Plated,PTH,ComponentDrill
T5C0.0512
; #@! TA.AperFunction,Plated,PTH,ComponentDrill
T6C0.0906
%
G90
G05
T1
X5.366Y-1.966
X5.424Y-2.234
X5.444Y-2.144
X5.448Y-2.096
X5.5014Y-2.5846
X5.5014Y-2.7246
X5.502Y-2.096
X5.6449Y-2.8091
X5.682Y-2.518
X5.736Y-2.028
X5.772Y-2.064
X5.842Y-1.806
X5.842Y-1.87
X5.842Y-1.928
X5.906Y-1.806
X5.906Y-1.87
X5.906Y-1.928
X5.906Y-2.368
X5.942Y-2.368
X5.968Y-1.806
X5.97Y-1.866
X5.97Y-1.928
X5.978Y-2.368
X6.014Y-2.368
X6.106Y-1.678
X6.12Y-1.928
X6.12Y-2.372
X6.16Y-1.628
X6.192Y-1.978
X6.21Y-1.728
X6.21Y-1.778
X6.21Y-1.828
X6.394Y-2.228
X6.71Y-2.046
X6.754Y-1.938
X6.846Y-2.082
X6.888Y-2.128
X6.922Y-2.462
T2
X5.05Y-3.174
X5.05Y-3.244
X5.05Y-3.308
X5.106Y-3.174
X5.106Y-3.308
X5.11Y-3.242
X5.17Y-3.172
X5.17Y-3.308
X5.172Y-3.236
X5.78Y-3.084
X5.782Y-3.236
X5.7823Y-3.1677
X5.851Y-3.1677
X5.851Y-3.237
X5.852Y-3.084
X5.924Y-3.084
X5.924Y-3.158
X5.924Y-3.236
X6.184Y-3.294
X6.184Y-3.406
X6.184Y-3.502
X6.266Y-3.294
X6.266Y-3.402
X6.266Y-3.506
X6.366Y-3.292
X6.366Y-3.502
X6.368Y-3.392
X6.46Y-3.502
X6.462Y-3.292
X6.468Y-3.388
T3
X5.2334Y-1.199
X5.2334Y-1.2974
X5.2334Y-1.3959
X5.2334Y-1.4943
X5.2334Y-1.5927
X5.2334Y-1.6911
X5.2334Y-1.7896
X5.2334Y-1.888
X5.2334Y-2.1295
X5.2334Y-2.2279
X5.2334Y-2.3264
X5.2334Y-2.4248
X5.2334Y-2.5232
X5.2334Y-2.6216
X5.2334Y-2.7201
X5.2334Y-2.8185
X5.4815Y-3.1142
X5.4815Y-3.2126
X5.4815Y-3.2913
X5.4815Y-3.3898
X6.6476Y-1.3635
X6.7461Y-1.3635
X6.8445Y-1.3635
X6.9429Y-1.3635
X7.026Y-2.1151
X7.026Y-2.2135
X7.026Y-2.3119
X7.026Y-2.4104
X7.026Y-2.5088
X7.026Y-2.6072
X7.026Y-2.7056
X7.026Y-2.8041
X7.026Y-2.9025
X7.026Y-3.0009
T4
X7.2147Y-1.45
X7.2147Y-1.55
X7.2147Y-1.65
X7.2147Y-1.75
X7.2147Y-1.85
T5
X6.514Y-2.61
X6.714Y-2.61
T6
X5.3748Y-2.9933
X5.3748Y-3.5106
T4
G00X6.7584Y-3.48
M15
G01X6.7584Y-3.4013
M16
G05
G00X6.9159Y-3.2556
M15
G01X6.8372Y-3.2556
M16
G05
G00X6.9946Y-3.48
M15
G01X6.9946Y-3.4013
M16
G05
T0
M30
