%TF.GenerationSoftware,KiCad,Pcbnew,(6.0.5-0)*%
%TF.CreationDate,2022-05-20T19:32:09-05:00*%
%TF.ProjectId,esp32_2,65737033-325f-4322-9e6b-696361645f70,rev?*%
%TF.SameCoordinates,Original*%
%TF.FileFunction,Soldermask,Bot*%
%TF.FilePolarity,Negative*%
%FSLAX46Y46*%
G04 Gerber Fmt 4.6, Leading zero omitted, Abs format (unit mm)*
G04 Created by KiCad (PCBNEW (6.0.5-0)) date 2022-05-20 19:32:09*
%MOMM*%
%LPD*%
G01*
G04 APERTURE LIST*
G04 Aperture macros list*
%AMRoundRect*
0 Rectangle with rounded corners*
0 $1 Rounding radius*
0 $2 $3 $4 $5 $6 $7 $8 $9 X,Y pos of 4 corners*
0 Add a 4 corners polygon primitive as box body*
4,1,4,$2,$3,$4,$5,$6,$7,$8,$9,$2,$3,0*
0 Add four circle primitives for the rounded corners*
1,1,$1+$1,$2,$3*
1,1,$1+$1,$4,$5*
1,1,$1+$1,$6,$7*
1,1,$1+$1,$8,$9*
0 Add four rect primitives between the rounded corners*
20,1,$1+$1,$2,$3,$4,$5,0*
20,1,$1+$1,$4,$5,$6,$7,0*
20,1,$1+$1,$6,$7,$8,$9,0*
20,1,$1+$1,$8,$9,$2,$3,0*%
G04 Aperture macros list end*
%ADD10C,3.200000*%
%ADD11R,3.500000X3.500000*%
%ADD12RoundRect,0.750000X0.750000X1.000000X-0.750000X1.000000X-0.750000X-1.000000X0.750000X-1.000000X0*%
%ADD13RoundRect,0.875000X0.875000X0.875000X-0.875000X0.875000X-0.875000X-0.875000X0.875000X-0.875000X0*%
%ADD14RoundRect,0.250000X0.725000X-0.600000X0.725000X0.600000X-0.725000X0.600000X-0.725000X-0.600000X0*%
%ADD15O,1.950000X1.700000*%
%ADD16R,2.600000X2.600000*%
%ADD17O,2.600000X2.600000*%
%ADD18RoundRect,0.250000X-0.725000X0.600000X-0.725000X-0.600000X0.725000X-0.600000X0.725000X0.600000X0*%
%ADD19R,1.500000X1.600000*%
%ADD20C,1.600000*%
%ADD21C,3.000000*%
%ADD22RoundRect,0.250000X-0.600000X-0.725000X0.600000X-0.725000X0.600000X0.725000X-0.600000X0.725000X0*%
%ADD23O,1.700000X1.950000*%
%ADD24R,1.700000X1.700000*%
%ADD25O,1.700000X1.700000*%
G04 APERTURE END LIST*
D10*
%TO.C,T3*%
X138125200Y-46532800D03*
%TD*%
%TO.C,T2*%
X182473600Y-30530800D03*
%TD*%
%TO.C,T1*%
X169367200Y-57099200D03*
%TD*%
D11*
%TO.C,Vin1*%
X171663900Y-87393100D03*
D12*
X177663900Y-87393100D03*
D13*
X174663900Y-82693100D03*
%TD*%
D14*
%TO.C,RFID1*%
X132928600Y-47955200D03*
D15*
X132928600Y-45455200D03*
X132928600Y-42955200D03*
X132928600Y-40455200D03*
X132928600Y-37955200D03*
X132928600Y-35455200D03*
X132928600Y-32955200D03*
X132928600Y-30455200D03*
%TD*%
D14*
%TO.C,RFID2*%
X132928600Y-71589600D03*
D15*
X132928600Y-69089600D03*
X132928600Y-66589600D03*
X132928600Y-64089600D03*
X132928600Y-61589600D03*
X132928600Y-59089600D03*
X132928600Y-56589600D03*
X132928600Y-54089600D03*
%TD*%
D16*
%TO.C,D4*%
X170535600Y-66294000D03*
D17*
X165455600Y-66294000D03*
%TD*%
D18*
%TO.C,screen1*%
X178461000Y-53723200D03*
D15*
X178461000Y-56223200D03*
X178461000Y-58723200D03*
X178461000Y-61223200D03*
X178461000Y-63723200D03*
X178461000Y-66223200D03*
X178461000Y-68723200D03*
X178461000Y-71223200D03*
X178461000Y-73723200D03*
X178461000Y-76223200D03*
%TD*%
D19*
%TO.C,Teclado1*%
X139230900Y-79100000D03*
D20*
X139230900Y-81600000D03*
X139230900Y-83600000D03*
X139230900Y-86100000D03*
D21*
X136520900Y-89170000D03*
X136520900Y-76030000D03*
%TD*%
D22*
%TO.C,Sensitizer1*%
X168850000Y-34632500D03*
D23*
X171350000Y-34632500D03*
X173850000Y-34632500D03*
X176350000Y-34632500D03*
%TD*%
D24*
%TO.C,Program1*%
X183253700Y-46990000D03*
D25*
X183253700Y-44450000D03*
X183253700Y-41910000D03*
X183253700Y-39370000D03*
X183253700Y-36830000D03*
%TD*%
M02*
