M48
; DRILL file {KiCad (6.0.1)} date Fri May 20 19:43:43 2022
; FORMAT={-:-/ absolute / metric / decimal}
; #@! TF.CreationDate,2022-05-20T19:43:43-05:00
; #@! TF.GenerationSoftware,Kicad,Pcbnew,(6.0.1)
; #@! TF.FileFunction,Plated,1,2,PTH
FMAT,2
METRIC
; #@! TA.AperFunction,Plated,PTH,ViaDrill
T1C0.300
; #@! TA.AperFunction,Plated,PTH,ViaDrill
T2C0.400
; #@! TA.AperFunction,Plated,PTH,ComponentDrill
T3C0.950
; #@! TA.AperFunction,Plated,PTH,ComponentDrill
T4C1.000
; #@! TA.AperFunction,Plated,PTH,ComponentDrill
T5C1.300
; #@! TA.AperFunction,Plated,PTH,ComponentDrill
T6C2.300
%
G90
G05
T1
X136.296Y-49.936
X137.77Y-56.744
X138.278Y-54.458
X138.379Y-53.238
X139.736Y-65.649
X139.736Y-69.205
X139.751Y-53.238
X143.381Y-71.351
X144.323Y-63.957
X145.694Y-51.511
X146.609Y-52.426
X148.387Y-45.872
X148.387Y-47.498
X148.387Y-48.971
X150.012Y-45.872
X150.012Y-47.498
X150.012Y-48.971
X150.012Y-60.147
X150.927Y-60.147
X151.587Y-45.872
X151.638Y-47.396
X151.638Y-48.971
X151.841Y-60.147
X152.756Y-60.147
X155.092Y-42.621
X155.448Y-48.971
X155.448Y-60.249
X156.464Y-41.351
X157.277Y-50.241
X157.734Y-43.891
X157.734Y-45.161
X157.734Y-46.431
X162.408Y-56.591
X170.434Y-51.968
X171.552Y-49.225
X173.888Y-52.883
X174.955Y-54.051
X175.819Y-62.535
T2
X128.27Y-80.62
X128.27Y-82.398
X128.27Y-84.023
X129.692Y-80.62
X129.692Y-84.023
X129.794Y-82.347
X131.318Y-80.569
X131.318Y-84.023
X131.369Y-82.194
X146.812Y-78.334
X146.863Y-82.194
X146.872Y-80.458
X148.614Y-80.458
X148.614Y-82.221
X148.641Y-78.334
X150.47Y-78.334
X150.47Y-80.213
X150.47Y-82.194
X157.074Y-83.668
X157.074Y-86.512
X157.074Y-88.951
X159.156Y-83.668
X159.156Y-86.411
X159.156Y-89.052
X161.696Y-83.617
X161.696Y-88.951
X161.747Y-86.157
X164.084Y-88.951
X164.135Y-83.617
X164.287Y-86.055
T3
X132.929Y-30.455
X132.929Y-32.955
X132.929Y-35.455
X132.929Y-37.955
X132.929Y-40.455
X132.929Y-42.955
X132.929Y-45.455
X132.929Y-47.955
X132.929Y-54.09
X132.929Y-56.59
X132.929Y-59.09
X132.929Y-61.59
X132.929Y-64.09
X132.929Y-66.59
X132.929Y-69.09
X132.929Y-71.59
X139.231Y-79.1
X139.231Y-81.6
X139.231Y-83.6
X139.231Y-86.1
X168.85Y-34.633
X171.35Y-34.633
X173.85Y-34.633
X176.35Y-34.633
X178.461Y-53.723
X178.461Y-56.223
X178.461Y-58.723
X178.461Y-61.223
X178.461Y-63.723
X178.461Y-66.223
X178.461Y-68.723
X178.461Y-71.223
X178.461Y-73.723
X178.461Y-76.223
T4
X183.254Y-36.83
X183.254Y-39.37
X183.254Y-41.91
X183.254Y-44.45
X183.254Y-46.99
T5
X165.456Y-66.294
X170.536Y-66.294
T6
X136.521Y-76.03
X136.521Y-89.17
T4
X171.664Y-88.393G85X171.664Y-86.393
G05
X175.664Y-82.693G85X173.664Y-82.693
G05
X177.664Y-88.393G85X177.664Y-86.393
G05
T0
M30
