%TF.GenerationSoftware,KiCad,Pcbnew,(6.0.1)*%
%TF.CreationDate,2022-05-20T18:22:20-05:00*%
%TF.ProjectId,esp32_2,65737033-325f-4322-9e6b-696361645f70,rev?*%
%TF.SameCoordinates,Original*%
%TF.FileFunction,Copper,L2,Bot*%
%TF.FilePolarity,Positive*%
%FSLAX46Y46*%
G04 Gerber Fmt 4.6, Leading zero omitted, Abs format (unit mm)*
G04 Created by KiCad (PCBNEW (6.0.1)) date 2022-05-20 18:22:20*
%MOMM*%
%LPD*%
G01*
G04 APERTURE LIST*
G04 Aperture macros list*
%AMRoundRect*
0 Rectangle with rounded corners*
0 $1 Rounding radius*
0 $2 $3 $4 $5 $6 $7 $8 $9 X,Y pos of 4 corners*
0 Add a 4 corners polygon primitive as box body*
4,1,4,$2,$3,$4,$5,$6,$7,$8,$9,$2,$3,0*
0 Add four circle primitives for the rounded corners*
1,1,$1+$1,$2,$3*
1,1,$1+$1,$4,$5*
1,1,$1+$1,$6,$7*
1,1,$1+$1,$8,$9*
0 Add four rect primitives between the rounded corners*
20,1,$1+$1,$2,$3,$4,$5,0*
20,1,$1+$1,$4,$5,$6,$7,0*
20,1,$1+$1,$6,$7,$8,$9,0*
20,1,$1+$1,$8,$9,$2,$3,0*%
G04 Aperture macros list end*
%TA.AperFunction,ComponentPad*%
%ADD10R,3.500000X3.500000*%
%TD*%
%TA.AperFunction,ComponentPad*%
%ADD11RoundRect,0.750000X0.750000X1.000000X-0.750000X1.000000X-0.750000X-1.000000X0.750000X-1.000000X0*%
%TD*%
%TA.AperFunction,ComponentPad*%
%ADD12RoundRect,0.875000X0.875000X0.875000X-0.875000X0.875000X-0.875000X-0.875000X0.875000X-0.875000X0*%
%TD*%
%TA.AperFunction,ComponentPad*%
%ADD13RoundRect,0.250000X0.725000X-0.600000X0.725000X0.600000X-0.725000X0.600000X-0.725000X-0.600000X0*%
%TD*%
%TA.AperFunction,ComponentPad*%
%ADD14O,1.950000X1.700000*%
%TD*%
%TA.AperFunction,ComponentPad*%
%ADD15R,2.600000X2.600000*%
%TD*%
%TA.AperFunction,ComponentPad*%
%ADD16O,2.600000X2.600000*%
%TD*%
%TA.AperFunction,ComponentPad*%
%ADD17RoundRect,0.250000X-0.725000X0.600000X-0.725000X-0.600000X0.725000X-0.600000X0.725000X0.600000X0*%
%TD*%
%TA.AperFunction,ComponentPad*%
%ADD18R,1.500000X1.600000*%
%TD*%
%TA.AperFunction,ComponentPad*%
%ADD19C,1.600000*%
%TD*%
%TA.AperFunction,ComponentPad*%
%ADD20C,3.000000*%
%TD*%
%TA.AperFunction,ComponentPad*%
%ADD21RoundRect,0.250000X-0.600000X-0.725000X0.600000X-0.725000X0.600000X0.725000X-0.600000X0.725000X0*%
%TD*%
%TA.AperFunction,ComponentPad*%
%ADD22O,1.700000X1.950000*%
%TD*%
%TA.AperFunction,ComponentPad*%
%ADD23R,1.700000X1.700000*%
%TD*%
%TA.AperFunction,ComponentPad*%
%ADD24O,1.700000X1.700000*%
%TD*%
%TA.AperFunction,ViaPad*%
%ADD25C,1.000000*%
%TD*%
%TA.AperFunction,ViaPad*%
%ADD26C,0.700000*%
%TD*%
%TA.AperFunction,Conductor*%
%ADD27C,1.500000*%
%TD*%
%TA.AperFunction,Conductor*%
%ADD28C,0.500000*%
%TD*%
%TA.AperFunction,Conductor*%
%ADD29C,0.250000*%
%TD*%
G04 APERTURE END LIST*
D10*
%TO.P,Vin1,1*%
%TO.N,+12V*%
X171663900Y-87393100D03*
D11*
%TO.P,Vin1,2*%
%TO.N,Net-(FB2-Pad2)*%
X177663900Y-87393100D03*
D12*
%TO.P,Vin1,3*%
X174663900Y-82693100D03*
%TD*%
D13*
%TO.P,RFID1,1,Pin_1*%
%TO.N,/CS_LECTOR_1*%
X132928600Y-47955200D03*
D14*
%TO.P,RFID1,2,Pin_2*%
%TO.N,/SCK*%
X132928600Y-45455200D03*
%TO.P,RFID1,3,Pin_3*%
%TO.N,/MOSI*%
X132928600Y-42955200D03*
%TO.P,RFID1,4,Pin_4*%
%TO.N,/MISO*%
X132928600Y-40455200D03*
%TO.P,RFID1,5,Pin_5*%
%TO.N,unconnected-(RFID1-Pad5)*%
X132928600Y-37955200D03*
%TO.P,RFID1,6,Pin_6*%
%TO.N,GND*%
X132928600Y-35455200D03*
%TO.P,RFID1,7,Pin_7*%
%TO.N,/RST_1*%
X132928600Y-32955200D03*
%TO.P,RFID1,8,Pin_8*%
%TO.N,+3V3*%
X132928600Y-30455200D03*
%TD*%
D13*
%TO.P,RFID2,1,Pin_1*%
%TO.N,/CS_LECTOR_2*%
X132928600Y-71589600D03*
D14*
%TO.P,RFID2,2,Pin_2*%
%TO.N,/SCK*%
X132928600Y-69089600D03*
%TO.P,RFID2,3,Pin_3*%
%TO.N,/MOSI*%
X132928600Y-66589600D03*
%TO.P,RFID2,4,Pin_4*%
%TO.N,/MISO*%
X132928600Y-64089600D03*
%TO.P,RFID2,5,Pin_5*%
%TO.N,unconnected-(RFID2-Pad5)*%
X132928600Y-61589600D03*
%TO.P,RFID2,6,Pin_6*%
%TO.N,GND*%
X132928600Y-59089600D03*
%TO.P,RFID2,7,Pin_7*%
%TO.N,/RST_2*%
X132928600Y-56589600D03*
%TO.P,RFID2,8,Pin_8*%
%TO.N,+3V3*%
X132928600Y-54089600D03*
%TD*%
D15*
%TO.P,D4,1,K*%
%TO.N,GND*%
X170535600Y-66294000D03*
D16*
%TO.P,D4,2,A*%
%TO.N,Net-(D4-Pad2)*%
X165455600Y-66294000D03*
%TD*%
D17*
%TO.P,screen1,1,Pin_1*%
%TO.N,+3V3*%
X178461000Y-53723200D03*
D14*
%TO.P,screen1,2,Pin_2*%
%TO.N,GND*%
X178461000Y-56223200D03*
%TO.P,screen1,3,Pin_3*%
%TO.N,/CS_Display*%
X178461000Y-58723200D03*
%TO.P,screen1,4,Pin_4*%
%TO.N,/RST_D*%
X178461000Y-61223200D03*
%TO.P,screen1,5,Pin_5*%
%TO.N,/D{slash}C*%
X178461000Y-63723200D03*
%TO.P,screen1,6,Pin_6*%
%TO.N,/MOSI*%
X178461000Y-66223200D03*
%TO.P,screen1,7,Pin_7*%
%TO.N,/SCK*%
X178461000Y-68723200D03*
%TO.P,screen1,8,Pin_8*%
%TO.N,+3V3*%
X178461000Y-71223200D03*
%TO.P,screen1,9,Pin_9*%
%TO.N,/MISO*%
X178461000Y-73723200D03*
%TO.P,screen1,10,Pin_10*%
%TO.N,unconnected-(screen1-Pad10)*%
X178461000Y-76223200D03*
%TD*%
D18*
%TO.P,Teclado1,1,VBUS*%
%TO.N,+5V*%
X139230900Y-79100000D03*
D19*
%TO.P,Teclado1,2,D-*%
%TO.N,/perifericos/Data_5v_keyboard*%
X139230900Y-81600000D03*
%TO.P,Teclado1,3,D+*%
%TO.N,/perifericos/clk_5V_keyboard*%
X139230900Y-83600000D03*
%TO.P,Teclado1,4,GND*%
%TO.N,GND*%
X139230900Y-86100000D03*
D20*
%TO.P,Teclado1,5,Shield*%
%TO.N,Net-(FB1-Pad1)*%
X136520900Y-89170000D03*
X136520900Y-76030000D03*
%TD*%
D21*
%TO.P,Sensitizer1,1,Pin_1*%
%TO.N,/MAGNE_2*%
X168850000Y-34632500D03*
D22*
%TO.P,Sensitizer1,2,Pin_2*%
%TO.N,/MAGNE_1*%
X171350000Y-34632500D03*
%TO.P,Sensitizer1,3,Pin_3*%
%TO.N,/MAGNE_3*%
X173850000Y-34632500D03*
%TO.P,Sensitizer1,4,Pin_4*%
%TO.N,GND*%
X176350000Y-34632500D03*
%TD*%
D23*
%TO.P,Program1,1,Pin_1*%
%TO.N,+3V3*%
X183253700Y-46990000D03*
D24*
%TO.P,Program1,2,Pin_2*%
%TO.N,Net-(Program1-Pad2)*%
X183253700Y-44450000D03*
%TO.P,Program1,3,Pin_3*%
%TO.N,Net-(Program1-Pad3)*%
X183253700Y-41910000D03*
%TO.P,Program1,4,Pin_4*%
%TO.N,GND*%
X183253700Y-39370000D03*
%TO.P,Program1,5,Pin_5*%
%TO.N,unconnected-(Program1-Pad5)*%
X183253700Y-36830000D03*
%TD*%
D25*
%TO.N,+3V3*%
X146871600Y-80458400D03*
D26*
X139735600Y-69204800D03*
D25*
X148614400Y-80458400D03*
X148614400Y-82220800D03*
X150469600Y-80213200D03*
X146862800Y-82194400D03*
X150469600Y-82194400D03*
D26*
X139735600Y-65648800D03*
D25*
X146812000Y-78333600D03*
X150469600Y-78333600D03*
X148640800Y-78333600D03*
D26*
%TO.N,GND*%
X150012400Y-60147200D03*
D25*
X157073600Y-83667600D03*
D26*
X151587200Y-45872400D03*
D25*
X131318000Y-80568800D03*
X159156400Y-86410800D03*
X128270000Y-82397600D03*
X131368800Y-82194400D03*
X129692400Y-80619600D03*
X164287200Y-86055200D03*
X161747200Y-86156800D03*
X128270000Y-80619600D03*
D26*
X150012400Y-45872400D03*
D25*
X161696400Y-88950800D03*
X164134800Y-83616800D03*
D26*
X150012400Y-47498000D03*
X175818800Y-62534800D03*
D25*
X157073600Y-88950800D03*
D26*
X151841200Y-60147200D03*
X151638000Y-47396400D03*
X151638000Y-48971200D03*
X148386800Y-48971200D03*
D25*
X129692400Y-84023200D03*
X131318000Y-84023200D03*
X164084000Y-88950800D03*
D26*
X152755600Y-60147200D03*
X148386800Y-45872400D03*
D25*
X159156400Y-83667600D03*
X129794000Y-82346800D03*
D26*
X150926800Y-60147200D03*
X150012400Y-48971200D03*
D25*
X128270000Y-84023200D03*
X157073600Y-86512400D03*
X159156400Y-89052400D03*
D26*
X148386800Y-47498000D03*
D25*
X161696400Y-83616800D03*
D26*
%TO.N,/IOD*%
X171551600Y-49225200D03*
X162407600Y-56591200D03*
%TO.N,/perifericos/clk_5V_keyboard*%
X144322800Y-63957200D03*
%TO.N,/perifericos/Data_5v_keyboard*%
X143380700Y-71350900D03*
%TO.N,/MAGNE_3*%
X174955200Y-54051200D03*
%TO.N,/CS_Display*%
X155448000Y-60248800D03*
%TO.N,/RST_1*%
X146608800Y-52425600D03*
%TO.N,Net-(Program1-Pad2)*%
X157734000Y-45161200D03*
%TO.N,/MAGNE_1*%
X173888400Y-52882800D03*
%TO.N,/CS_LECTOR_1*%
X136296400Y-49936400D03*
X145694400Y-51511200D03*
%TO.N,/SCK*%
X137769600Y-56743600D03*
X157276800Y-50241200D03*
%TO.N,/MISO*%
X138379200Y-53238400D03*
X155448000Y-48971200D03*
%TO.N,/MAGNE_2*%
X157734000Y-46431200D03*
%TO.N,Net-(Program1-Pad3)*%
X157734000Y-43891200D03*
%TO.N,/CS_LECTOR_2*%
X139750800Y-53238400D03*
X155092400Y-42621200D03*
%TO.N,/MOSI*%
X170434000Y-51968400D03*
X138277600Y-54457600D03*
X156464000Y-41351200D03*
%TD*%
D27*
%TO.N,+3V3*%
X128270000Y-53086000D02*
X128270000Y-32054800D01*
X136296400Y-55422800D02*
X134963200Y-54089600D01*
X182958400Y-53723200D02*
X183253700Y-54018500D01*
X139954000Y-62230000D02*
X137668000Y-62230000D01*
X136296400Y-60858400D02*
X136296400Y-55422800D01*
X148614400Y-63424800D02*
X147419600Y-62230000D01*
X132928600Y-54089600D02*
X129273600Y-54089600D01*
X137668000Y-62230000D02*
X136296400Y-60858400D01*
D28*
X139735600Y-69204800D02*
X139735600Y-65648800D01*
D27*
X129273600Y-54089600D02*
X128270000Y-53086000D01*
X149094400Y-71223200D02*
X148614400Y-71703200D01*
D28*
X139735600Y-62448400D02*
X139954000Y-62230000D01*
D27*
X148614400Y-80458400D02*
X148614400Y-71703200D01*
D28*
X139735600Y-65648800D02*
X139735600Y-62448400D01*
D27*
X183253700Y-46990000D02*
X183253700Y-54018500D01*
X183253700Y-54018500D02*
X183253700Y-68655500D01*
X129869600Y-30455200D02*
X132928600Y-30455200D01*
X148614400Y-71703200D02*
X148614400Y-63424800D01*
X178461000Y-53723200D02*
X182958400Y-53723200D01*
X180686000Y-71223200D02*
X178461000Y-71223200D01*
X134963200Y-54089600D02*
X132928600Y-54089600D01*
X128270000Y-32054800D02*
X129869600Y-30455200D01*
X178461000Y-71223200D02*
X149094400Y-71223200D01*
X183253700Y-68655500D02*
X180686000Y-71223200D01*
X147419600Y-62230000D02*
X139954000Y-62230000D01*
D29*
%TO.N,/IOD*%
X164388800Y-53441600D02*
X162407600Y-55422800D01*
X171551600Y-49225200D02*
X171551600Y-52730400D01*
X170840400Y-53441600D02*
X164388800Y-53441600D01*
X171551600Y-52730400D02*
X170840400Y-53441600D01*
X162407600Y-55422800D02*
X162407600Y-56591200D01*
D28*
%TO.N,/perifericos/clk_5V_keyboard*%
X141088400Y-83600000D02*
X139230900Y-83600000D01*
X144322800Y-63957200D02*
X144322800Y-80365600D01*
X144322800Y-80365600D02*
X141088400Y-83600000D01*
%TO.N,/perifericos/Data_5v_keyboard*%
X143380700Y-79224900D02*
X141005600Y-81600000D01*
X143380700Y-71350900D02*
X143380700Y-79224900D01*
X141005600Y-81600000D02*
X139230900Y-81600000D01*
D29*
%TO.N,/MAGNE_3*%
X174955200Y-45618400D02*
X174955200Y-54051200D01*
X173850000Y-34632500D02*
X173850000Y-44513200D01*
X173850000Y-44513200D02*
X174955200Y-45618400D01*
%TO.N,/CS_Display*%
X155448000Y-60248800D02*
X174955200Y-60248800D01*
X176480800Y-58723200D02*
X178461000Y-58723200D01*
X174955200Y-60248800D02*
X176480800Y-58723200D01*
%TO.N,/RST_1*%
X144373600Y-43891200D02*
X146608800Y-46126400D01*
X134148800Y-32955200D02*
X135077200Y-33883600D01*
X146608800Y-46126400D02*
X146608800Y-52222400D01*
X132928600Y-32955200D02*
X134148800Y-32955200D01*
X146608800Y-52222400D02*
X146608800Y-52425600D01*
X135077200Y-40487600D02*
X138480800Y-43891200D01*
X135077200Y-33883600D02*
X135077200Y-40487600D01*
X138480800Y-43891200D02*
X144373600Y-43891200D01*
%TO.N,Net-(Program1-Pad2)*%
X177139600Y-31699200D02*
X168706800Y-31699200D01*
X179120800Y-43586400D02*
X179120800Y-33680400D01*
X179120800Y-33680400D02*
X177139600Y-31699200D01*
X165811200Y-45161200D02*
X157734000Y-45161200D01*
X166979600Y-33426400D02*
X166979600Y-43992800D01*
X183253700Y-44450000D02*
X179984400Y-44450000D01*
X166979600Y-43992800D02*
X165811200Y-45161200D01*
X168706800Y-31699200D02*
X166979600Y-33426400D01*
X179984400Y-44450000D02*
X179120800Y-43586400D01*
%TO.N,/MAGNE_1*%
X171297600Y-44145200D02*
X173888400Y-46736000D01*
X173888400Y-52628800D02*
X173888400Y-52882800D01*
X171350000Y-43584800D02*
X171297600Y-43637200D01*
X171297600Y-43637200D02*
X171297600Y-44145200D01*
X171350000Y-34632500D02*
X171350000Y-43584800D01*
X173888400Y-46736000D02*
X173888400Y-52628800D01*
%TO.N,/CS_LECTOR_1*%
X145542000Y-51511200D02*
X145694400Y-51511200D01*
X139727600Y-51511200D02*
X137871200Y-51511200D01*
X137871200Y-51511200D02*
X136296400Y-49936400D01*
X139727600Y-51511200D02*
X145542000Y-51511200D01*
%TO.N,/SCK*%
X157276800Y-51308000D02*
X157276800Y-50241200D01*
X137769600Y-55270400D02*
X137769600Y-56743600D01*
X131786000Y-45455200D02*
X132928600Y-45455200D01*
X137769600Y-55270400D02*
X134366000Y-51866800D01*
X154584400Y-55270400D02*
X155702000Y-54152800D01*
X157276800Y-52578000D02*
X157276800Y-51308000D01*
X137769600Y-55270400D02*
X154584400Y-55270400D01*
X134366000Y-51866800D02*
X131064000Y-51866800D01*
X130505200Y-46736000D02*
X131786000Y-45455200D01*
X131064000Y-51866800D02*
X130505200Y-51308000D01*
X155702000Y-54152800D02*
X157276800Y-52578000D01*
X130505200Y-51308000D02*
X130505200Y-46736000D01*
%TO.N,/MISO*%
X135280400Y-50139600D02*
X137109200Y-51968400D01*
X155448000Y-51968400D02*
X155448000Y-48971200D01*
X139106911Y-53966111D02*
X138379200Y-53238400D01*
X153450289Y-53966111D02*
X155397200Y-52019200D01*
X138379200Y-53238400D02*
X137109200Y-51968400D01*
X135280400Y-42672000D02*
X135280400Y-50139600D01*
X139106911Y-53966111D02*
X153450289Y-53966111D01*
X132928600Y-40455200D02*
X133063600Y-40455200D01*
X155397200Y-52019200D02*
X155448000Y-51968400D01*
X133063600Y-40455200D02*
X135280400Y-42672000D01*
%TO.N,/MAGNE_2*%
X166370000Y-46431200D02*
X157734000Y-46431200D01*
X168850000Y-43951200D02*
X166370000Y-46431200D01*
X168850000Y-34632500D02*
X168850000Y-43951200D01*
%TO.N,Net-(Program1-Pad3)*%
X180136800Y-32461200D02*
X177342800Y-29667200D01*
X180136800Y-40894000D02*
X180136800Y-32461200D01*
X166217600Y-42316400D02*
X164642800Y-43891200D01*
X183253700Y-41910000D02*
X181152800Y-41910000D01*
X177342800Y-29667200D02*
X168452800Y-29667200D01*
X181152800Y-41910000D02*
X180136800Y-40894000D01*
X168452800Y-29667200D02*
X166217600Y-31902400D01*
X166217600Y-31902400D02*
X166217600Y-42316400D01*
X164642800Y-43891200D02*
X157734000Y-43891200D01*
%TO.N,/CS_LECTOR_2*%
X154381200Y-51460400D02*
X154381200Y-43332400D01*
X154381200Y-51460400D02*
X152603200Y-53238400D01*
X154381200Y-43332400D02*
X155092400Y-42621200D01*
X152603200Y-53238400D02*
X139750800Y-53238400D01*
%TO.N,/MOSI*%
X170434000Y-51968400D02*
X160883600Y-51968400D01*
X134366000Y-44392600D02*
X132928600Y-42955200D01*
X153974800Y-54457600D02*
X156362400Y-52070000D01*
X160883600Y-51816000D02*
X156464000Y-47396400D01*
X156464000Y-51968400D02*
X156464000Y-47396400D01*
X134366000Y-50546000D02*
X134366000Y-44392600D01*
X156464000Y-47396400D02*
X156464000Y-43942000D01*
X156362400Y-52070000D02*
X156464000Y-51968400D01*
X138277600Y-54457600D02*
X153974800Y-54457600D01*
X138277600Y-54457600D02*
X134366000Y-50546000D01*
X156464000Y-43942000D02*
X156464000Y-41351200D01*
%TD*%
%TA.AperFunction,Conductor*%
%TO.N,GND*%
G36*
X136644921Y-27928002D02*
G01*
X136691414Y-27981658D01*
X136702800Y-28034000D01*
X136702800Y-38709600D01*
X165354000Y-38709600D01*
X165354000Y-38701807D01*
X165362876Y-38691564D01*
X165422602Y-38653180D01*
X165493598Y-38653180D01*
X165553324Y-38691564D01*
X165582817Y-38756144D01*
X165584100Y-38774076D01*
X165584100Y-42001806D01*
X165564098Y-42069927D01*
X165547195Y-42090901D01*
X164417300Y-43220795D01*
X164354988Y-43254821D01*
X164328205Y-43257700D01*
X158363569Y-43257700D01*
X158295448Y-43237698D01*
X158289508Y-43233636D01*
X158256349Y-43209544D01*
X158203278Y-43170986D01*
X158170957Y-43147503D01*
X158170956Y-43147502D01*
X158165615Y-43143622D01*
X158159587Y-43140938D01*
X158159585Y-43140937D01*
X158006783Y-43072905D01*
X158006781Y-43072905D01*
X158000752Y-43070220D01*
X157912492Y-43051460D01*
X157830689Y-43034072D01*
X157830685Y-43034072D01*
X157824232Y-43032700D01*
X157643768Y-43032700D01*
X157637315Y-43034072D01*
X157637311Y-43034072D01*
X157555508Y-43051460D01*
X157467248Y-43070220D01*
X157461219Y-43072904D01*
X157461217Y-43072905D01*
X157308416Y-43140937D01*
X157308414Y-43140938D01*
X157302386Y-43143622D01*
X157297045Y-43147503D01*
X157291327Y-43150804D01*
X157290631Y-43149599D01*
X157230701Y-43170986D01*
X157161548Y-43154910D01*
X157112065Y-43103999D01*
X157097500Y-43045192D01*
X157097500Y-41979002D01*
X157117502Y-41910881D01*
X157129864Y-41894691D01*
X157157948Y-41863501D01*
X157157949Y-41863500D01*
X157162367Y-41858593D01*
X157252599Y-41702307D01*
X157290104Y-41586877D01*
X157306325Y-41536954D01*
X157306325Y-41536953D01*
X157308365Y-41530675D01*
X157319093Y-41428612D01*
X157326539Y-41357765D01*
X157327229Y-41351200D01*
X157308365Y-41171725D01*
X157252599Y-41000093D01*
X157162367Y-40843807D01*
X157118617Y-40795217D01*
X157046035Y-40714607D01*
X157046034Y-40714606D01*
X157041613Y-40709696D01*
X156985789Y-40669137D01*
X156900957Y-40607503D01*
X156900956Y-40607502D01*
X156895615Y-40603622D01*
X156889587Y-40600938D01*
X156889585Y-40600937D01*
X156736783Y-40532905D01*
X156736781Y-40532905D01*
X156730752Y-40530220D01*
X156642492Y-40511460D01*
X156560689Y-40494072D01*
X156560685Y-40494072D01*
X156554232Y-40492700D01*
X156373768Y-40492700D01*
X156367315Y-40494072D01*
X156367311Y-40494072D01*
X156285508Y-40511460D01*
X156197248Y-40530220D01*
X156191219Y-40532904D01*
X156191217Y-40532905D01*
X156038416Y-40600937D01*
X156038414Y-40600938D01*
X156032386Y-40603622D01*
X156027045Y-40607502D01*
X156027044Y-40607503D01*
X155891731Y-40705813D01*
X155891729Y-40705815D01*
X155886387Y-40709696D01*
X155881966Y-40714606D01*
X155881965Y-40714607D01*
X155809384Y-40795217D01*
X155765633Y-40843807D01*
X155675401Y-41000093D01*
X155619635Y-41171725D01*
X155600771Y-41351200D01*
X155601461Y-41357765D01*
X155608908Y-41428612D01*
X155619635Y-41530675D01*
X155621675Y-41536953D01*
X155621675Y-41536954D01*
X155672222Y-41692522D01*
X155675401Y-41702307D01*
X155675692Y-41702811D01*
X155684832Y-41770963D01*
X155654727Y-41835261D01*
X155594639Y-41873076D01*
X155523646Y-41872402D01*
X155509041Y-41866955D01*
X155365183Y-41802905D01*
X155365181Y-41802905D01*
X155359152Y-41800220D01*
X155270892Y-41781460D01*
X155189089Y-41764072D01*
X155189085Y-41764072D01*
X155182632Y-41762700D01*
X155002168Y-41762700D01*
X154995715Y-41764072D01*
X154995711Y-41764072D01*
X154913908Y-41781460D01*
X154825648Y-41800220D01*
X154819619Y-41802904D01*
X154819617Y-41802905D01*
X154666816Y-41870937D01*
X154666814Y-41870938D01*
X154660786Y-41873622D01*
X154655445Y-41877502D01*
X154655444Y-41877503D01*
X154520131Y-41975813D01*
X154520129Y-41975815D01*
X154514787Y-41979696D01*
X154510366Y-41984606D01*
X154510365Y-41984607D01*
X154414658Y-42090901D01*
X154394033Y-42113807D01*
X154390732Y-42119525D01*
X154310031Y-42259303D01*
X154303801Y-42270093D01*
X154281225Y-42339575D01*
X154257755Y-42411811D01*
X154248035Y-42441725D01*
X154238747Y-42530099D01*
X154237673Y-42540313D01*
X154210660Y-42605969D01*
X154201459Y-42616237D01*
X154093530Y-42724165D01*
X153988942Y-42828753D01*
X153980663Y-42836287D01*
X153974182Y-42840400D01*
X153931653Y-42885689D01*
X153927557Y-42890051D01*
X153924802Y-42892893D01*
X153905065Y-42912630D01*
X153902585Y-42915827D01*
X153894882Y-42924847D01*
X153864614Y-42957079D01*
X153860795Y-42964025D01*
X153860793Y-42964028D01*
X153854852Y-42974834D01*
X153844001Y-42991353D01*
X153831586Y-43007359D01*
X153828441Y-43014628D01*
X153828438Y-43014632D01*
X153814026Y-43047937D01*
X153808809Y-43058587D01*
X153787505Y-43097340D01*
X153785534Y-43105015D01*
X153785534Y-43105016D01*
X153782467Y-43116962D01*
X153776063Y-43135666D01*
X153768019Y-43154255D01*
X153766780Y-43162078D01*
X153766777Y-43162088D01*
X153761101Y-43197924D01*
X153758695Y-43209544D01*
X153752510Y-43233636D01*
X153747700Y-43252370D01*
X153747700Y-43272624D01*
X153746149Y-43292334D01*
X153742980Y-43312343D01*
X153746445Y-43348993D01*
X153747141Y-43356361D01*
X153747700Y-43368219D01*
X153747700Y-51145806D01*
X153727698Y-51213927D01*
X153710795Y-51234901D01*
X152377700Y-52567995D01*
X152315388Y-52602021D01*
X152288605Y-52604900D01*
X147593121Y-52604900D01*
X147525000Y-52584898D01*
X147478507Y-52531242D01*
X147467811Y-52465729D01*
X147471150Y-52433967D01*
X147472029Y-52425600D01*
X147471169Y-52417420D01*
X147453855Y-52252689D01*
X147453855Y-52252688D01*
X147453165Y-52246125D01*
X147428494Y-52170193D01*
X147399441Y-52080778D01*
X147397399Y-52074493D01*
X147307167Y-51918207D01*
X147274664Y-51882109D01*
X147243947Y-51818101D01*
X147242300Y-51797798D01*
X147242300Y-46205167D01*
X147242827Y-46193984D01*
X147244502Y-46186491D01*
X147242362Y-46118414D01*
X147242300Y-46114455D01*
X147242300Y-46086544D01*
X147241795Y-46082544D01*
X147240862Y-46070701D01*
X147239722Y-46034429D01*
X147239473Y-46026510D01*
X147233822Y-46007058D01*
X147229814Y-45987706D01*
X147228267Y-45975463D01*
X147227274Y-45967603D01*
X147224356Y-45960232D01*
X147211000Y-45926497D01*
X147207155Y-45915270D01*
X147206521Y-45913087D01*
X147194818Y-45872807D01*
X147184507Y-45855372D01*
X147175812Y-45837624D01*
X147168352Y-45818783D01*
X147142364Y-45783013D01*
X147135848Y-45773093D01*
X147117380Y-45741865D01*
X147117378Y-45741862D01*
X147113342Y-45735038D01*
X147099021Y-45720717D01*
X147086180Y-45705683D01*
X147078931Y-45695706D01*
X147074272Y-45689293D01*
X147040195Y-45661102D01*
X147031416Y-45653112D01*
X144877252Y-43498947D01*
X144869712Y-43490661D01*
X144865600Y-43484182D01*
X144815948Y-43437556D01*
X144813107Y-43434802D01*
X144793370Y-43415065D01*
X144790173Y-43412585D01*
X144781151Y-43404880D01*
X144771031Y-43395377D01*
X144748921Y-43374614D01*
X144741975Y-43370795D01*
X144741972Y-43370793D01*
X144731166Y-43364852D01*
X144714647Y-43354001D01*
X144705609Y-43346991D01*
X144698641Y-43341586D01*
X144691372Y-43338441D01*
X144691368Y-43338438D01*
X144658063Y-43324026D01*
X144647413Y-43318809D01*
X144608660Y-43297505D01*
X144589037Y-43292467D01*
X144570334Y-43286063D01*
X144559020Y-43281167D01*
X144559019Y-43281167D01*
X144551745Y-43278019D01*
X144543922Y-43276780D01*
X144543912Y-43276777D01*
X144508076Y-43271101D01*
X144496456Y-43268695D01*
X144461311Y-43259672D01*
X144461310Y-43259672D01*
X144453630Y-43257700D01*
X144433376Y-43257700D01*
X144413665Y-43256149D01*
X144405281Y-43254821D01*
X144393657Y-43252980D01*
X144385765Y-43253726D01*
X144349639Y-43257141D01*
X144337781Y-43257700D01*
X138795395Y-43257700D01*
X138727274Y-43237698D01*
X138706300Y-43220795D01*
X135747605Y-40262100D01*
X135713579Y-40199788D01*
X135710700Y-40173005D01*
X135710700Y-33962367D01*
X135711227Y-33951184D01*
X135712902Y-33943691D01*
X135712443Y-33929069D01*
X135710762Y-33875601D01*
X135710700Y-33871643D01*
X135710700Y-33843744D01*
X135710196Y-33839753D01*
X135709263Y-33827911D01*
X135708891Y-33816055D01*
X135707874Y-33783711D01*
X135705662Y-33776097D01*
X135705661Y-33776092D01*
X135702223Y-33764259D01*
X135698212Y-33744895D01*
X135696667Y-33732664D01*
X135695674Y-33724803D01*
X135692757Y-33717436D01*
X135692756Y-33717431D01*
X135679398Y-33683692D01*
X135675554Y-33672465D01*
X135665430Y-33637622D01*
X135663218Y-33630007D01*
X135652907Y-33612572D01*
X135644212Y-33594824D01*
X135636752Y-33575983D01*
X135625944Y-33561106D01*
X135610764Y-33540213D01*
X135604248Y-33530293D01*
X135585780Y-33499065D01*
X135585778Y-33499062D01*
X135581742Y-33492238D01*
X135567421Y-33477917D01*
X135554580Y-33462883D01*
X135547331Y-33452906D01*
X135542672Y-33446493D01*
X135536567Y-33441442D01*
X135536562Y-33441437D01*
X135508596Y-33418301D01*
X135499818Y-33410313D01*
X134652452Y-32562947D01*
X134644912Y-32554661D01*
X134640800Y-32548182D01*
X134591148Y-32501556D01*
X134588307Y-32498802D01*
X134568570Y-32479065D01*
X134565373Y-32476585D01*
X134556351Y-32468880D01*
X134548505Y-32461512D01*
X134524121Y-32438614D01*
X134517175Y-32434795D01*
X134517172Y-32434793D01*
X134506366Y-32428852D01*
X134489847Y-32418001D01*
X134481397Y-32411447D01*
X134473841Y-32405586D01*
X134466572Y-32402441D01*
X134466568Y-32402438D01*
X134433263Y-32388026D01*
X134422613Y-32382809D01*
X134383860Y-32361505D01*
X134364237Y-32356467D01*
X134345534Y-32350063D01*
X134334220Y-32345167D01*
X134334219Y-32345167D01*
X134326945Y-32342019D01*
X134319119Y-32340779D01*
X134311501Y-32338566D01*
X134312116Y-32336451D01*
X134258163Y-32310877D01*
X134234302Y-32282201D01*
X134157992Y-32156446D01*
X134157991Y-32156445D01*
X134155223Y-32151883D01*
X134117051Y-32107893D01*
X134007623Y-31981788D01*
X134007621Y-31981786D01*
X134004123Y-31977755D01*
X133946943Y-31930870D01*
X133829973Y-31834960D01*
X133829967Y-31834956D01*
X133825845Y-31831576D01*
X133794350Y-31813648D01*
X133745045Y-31762568D01*
X133731183Y-31692938D01*
X133757166Y-31626867D01*
X133786316Y-31599627D01*
X133843166Y-31561353D01*
X133907919Y-31517759D01*
X133916114Y-31509942D01*
X134070878Y-31362303D01*
X134074735Y-31358624D01*
X134212354Y-31173658D01*
X134216433Y-31165637D01*
X134314422Y-30972904D01*
X134316840Y-30968149D01*
X134385207Y-30747973D01*
X134394045Y-30681288D01*
X134414798Y-30524711D01*
X134414798Y-30524706D01*
X134415498Y-30519426D01*
X134406849Y-30289042D01*
X134359507Y-30063409D01*
X134274824Y-29848979D01*
X134256651Y-29819030D01*
X134157990Y-29656443D01*
X134155223Y-29651883D01*
X134085318Y-29571324D01*
X134007623Y-29481788D01*
X134007621Y-29481786D01*
X134004123Y-29477755D01*
X133932697Y-29419189D01*
X133829973Y-29334960D01*
X133829967Y-29334956D01*
X133825845Y-29331576D01*
X133821209Y-29328937D01*
X133821206Y-29328935D01*
X133630129Y-29220168D01*
X133625486Y-29217525D01*
X133408775Y-29138863D01*
X133403526Y-29137914D01*
X133403523Y-29137913D01*
X133185992Y-29098577D01*
X133185985Y-29098576D01*
X133181908Y-29097839D01*
X133164186Y-29097003D01*
X133159244Y-29096770D01*
X133159237Y-29096770D01*
X133157756Y-29096700D01*
X132745710Y-29096700D01*
X132678791Y-29102378D01*
X132579191Y-29110829D01*
X132579187Y-29110830D01*
X132573880Y-29111280D01*
X132568725Y-29112618D01*
X132568719Y-29112619D01*
X132397669Y-29157015D01*
X132350728Y-29169199D01*
X132345860Y-29171392D01*
X132345854Y-29171394D01*
X132314358Y-29185582D01*
X132262608Y-29196700D01*
X129960995Y-29196700D01*
X129944548Y-29195622D01*
X129928083Y-29193454D01*
X129928079Y-29193454D01*
X129922513Y-29192721D01*
X129841112Y-29196560D01*
X129835176Y-29196700D01*
X129812601Y-29196700D01*
X129793581Y-29198397D01*
X129786611Y-29199019D01*
X129781349Y-29199378D01*
X129765168Y-29200141D01*
X129698112Y-29203304D01*
X129692653Y-29204554D01*
X129692648Y-29204555D01*
X129680630Y-29207308D01*
X129663701Y-29209989D01*
X129645838Y-29211583D01*
X129640422Y-29213065D01*
X129640420Y-29213065D01*
X129565467Y-29233570D01*
X129560349Y-29234856D01*
X129484600Y-29252205D01*
X129484598Y-29252206D01*
X129479130Y-29253458D01*
X129468630Y-29257937D01*
X129462633Y-29260494D01*
X129446458Y-29266127D01*
X129434561Y-29269382D01*
X129434557Y-29269383D01*
X129429149Y-29270863D01*
X129424083Y-29273279D01*
X129424084Y-29273279D01*
X129353933Y-29306739D01*
X129349124Y-29308910D01*
X129295985Y-29331576D01*
X129272491Y-29341597D01*
X129257490Y-29351451D01*
X129242575Y-29359854D01*
X129226382Y-29367578D01*
X129221831Y-29370848D01*
X129221828Y-29370850D01*
X129158719Y-29416199D01*
X129154368Y-29419189D01*
X129088590Y-29462396D01*
X129088582Y-29462402D01*
X129084726Y-29464935D01*
X129063938Y-29483457D01*
X129053661Y-29491690D01*
X129043946Y-29498671D01*
X129040044Y-29502698D01*
X128969538Y-29575454D01*
X128968149Y-29576864D01*
X127444737Y-31100275D01*
X127432347Y-31111142D01*
X127414708Y-31124677D01*
X127410938Y-31128820D01*
X127410936Y-31128822D01*
X127359863Y-31184952D01*
X127355764Y-31189248D01*
X127339802Y-31205210D01*
X127338010Y-31207354D01*
X127338002Y-31207362D01*
X127323068Y-31225223D01*
X127319600Y-31229198D01*
X127267288Y-31286688D01*
X127267281Y-31286697D01*
X127263515Y-31290836D01*
X127260538Y-31295582D01*
X127260537Y-31295583D01*
X127253987Y-31306025D01*
X127243911Y-31319893D01*
X127236004Y-31329349D01*
X127235997Y-31329359D01*
X127232406Y-31333654D01*
X127216065Y-31362303D01*
X127191118Y-31406040D01*
X127188408Y-31410568D01*
X127155585Y-31462893D01*
X127144136Y-31481144D01*
X127142043Y-31486349D01*
X127142042Y-31486352D01*
X127137448Y-31497779D01*
X127129988Y-31513211D01*
X127123880Y-31523919D01*
X127123876Y-31523928D01*
X127121101Y-31528793D01*
X127119232Y-31534070D01*
X127119230Y-31534075D01*
X127093285Y-31607342D01*
X127091420Y-31612278D01*
X127077658Y-31646512D01*
X127060344Y-31689583D01*
X127059208Y-31695070D01*
X127059207Y-31695072D01*
X127056706Y-31707149D01*
X127052101Y-31723644D01*
X127046111Y-31740559D01*
X127032714Y-31822370D01*
X127032643Y-31822801D01*
X127031683Y-31827980D01*
X127014787Y-31909567D01*
X127014521Y-31914179D01*
X127014521Y-31914180D01*
X127013185Y-31937348D01*
X127011738Y-31950453D01*
X127010714Y-31956710D01*
X127009806Y-31962257D01*
X127009894Y-31967870D01*
X127009894Y-31967872D01*
X127011484Y-32069064D01*
X127011500Y-32071043D01*
X127011500Y-52994604D01*
X127010422Y-53011051D01*
X127009378Y-53018984D01*
X127007521Y-53033086D01*
X127009194Y-53068554D01*
X127011360Y-53114488D01*
X127011500Y-53120424D01*
X127011500Y-53142999D01*
X127012140Y-53150169D01*
X127013819Y-53168988D01*
X127014178Y-53174248D01*
X127018104Y-53257488D01*
X127019354Y-53262947D01*
X127019355Y-53262952D01*
X127022108Y-53274970D01*
X127024789Y-53291899D01*
X127026383Y-53309762D01*
X127027865Y-53315178D01*
X127027865Y-53315180D01*
X127048370Y-53390133D01*
X127049656Y-53395251D01*
X127068258Y-53476470D01*
X127070460Y-53481632D01*
X127075294Y-53492967D01*
X127080927Y-53509142D01*
X127085663Y-53526451D01*
X127088079Y-53531516D01*
X127121539Y-53601667D01*
X127123710Y-53606476D01*
X127154196Y-53677949D01*
X127156397Y-53683109D01*
X127166251Y-53698110D01*
X127174654Y-53713025D01*
X127182378Y-53729218D01*
X127185648Y-53733769D01*
X127185650Y-53733772D01*
X127230999Y-53796881D01*
X127233989Y-53801232D01*
X127277196Y-53867010D01*
X127277202Y-53867018D01*
X127279735Y-53870874D01*
X127298257Y-53891662D01*
X127306490Y-53901939D01*
X127313471Y-53911654D01*
X127317498Y-53915556D01*
X127390255Y-53986063D01*
X127391665Y-53987452D01*
X128319072Y-54914859D01*
X128329940Y-54927251D01*
X128340062Y-54940443D01*
X128340069Y-54940451D01*
X128343477Y-54944892D01*
X128385679Y-54983293D01*
X128403785Y-54999768D01*
X128408080Y-55003867D01*
X128424011Y-55019798D01*
X128444027Y-55036534D01*
X128447976Y-55039979D01*
X128505475Y-55092300D01*
X128505483Y-55092306D01*
X128509636Y-55096085D01*
X128514391Y-55099068D01*
X128514394Y-55099070D01*
X128524824Y-55105612D01*
X128538697Y-55115691D01*
X128548145Y-55123592D01*
X128548152Y-55123597D01*
X128552454Y-55127194D01*
X128621639Y-55166656D01*
X128624840Y-55168482D01*
X128629359Y-55171187D01*
X128631874Y-55172764D01*
X128695196Y-55212486D01*
X128695199Y-55212488D01*
X128699944Y-55215464D01*
X128705149Y-55217557D01*
X128705152Y-55217558D01*
X128716579Y-55222152D01*
X128732011Y-55229612D01*
X128742719Y-55235720D01*
X128742728Y-55235724D01*
X128747593Y-55238499D01*
X128752870Y-55240368D01*
X128752875Y-55240370D01*
X128826142Y-55266315D01*
X128831078Y-55268180D01*
X128840827Y-55272099D01*
X128908383Y-55299256D01*
X128913870Y-55300392D01*
X128913872Y-55300393D01*
X128925949Y-55302894D01*
X128942444Y-55307499D01*
X128959359Y-55313489D01*
X128964896Y-55314396D01*
X128964897Y-55314396D01*
X129041591Y-55326955D01*
X129046781Y-55327917D01*
X129123846Y-55343877D01*
X129123850Y-55343878D01*
X129128367Y-55344813D01*
X129132976Y-55345079D01*
X129132978Y-55345079D01*
X129156148Y-55346415D01*
X129169253Y-55347862D01*
X129175510Y-55348886D01*
X129175517Y-55348886D01*
X129181058Y-55349794D01*
X129186670Y-55349706D01*
X129186672Y-55349706D01*
X129287864Y-55348116D01*
X129289843Y-55348100D01*
X131822235Y-55348100D01*
X131890356Y-55368102D01*
X131936849Y-55421758D01*
X131946953Y-55492032D01*
X131917459Y-55556612D01*
X131909209Y-55565268D01*
X131782465Y-55686176D01*
X131644846Y-55871142D01*
X131642430Y-55875893D01*
X131642428Y-55875897D01*
X131627198Y-55905853D01*
X131540360Y-56076651D01*
X131538778Y-56081745D01*
X131538777Y-56081748D01*
X131489227Y-56241324D01*
X131471993Y-56296827D01*
X131471292Y-56302116D01*
X131455904Y-56418223D01*
X131441702Y-56525374D01*
X131450351Y-56755758D01*
X131451446Y-56760977D01*
X131463399Y-56817943D01*
X131497693Y-56981391D01*
X131499651Y-56986350D01*
X131499652Y-56986352D01*
X131546467Y-57104893D01*
X131582376Y-57195821D01*
X131585143Y-57200380D01*
X131585144Y-57200383D01*
X131663323Y-57329217D01*
X131701977Y-57392917D01*
X131705474Y-57396947D01*
X131825160Y-57534873D01*
X131853077Y-57567045D01*
X131857208Y-57570432D01*
X132027227Y-57709840D01*
X132027233Y-57709844D01*
X132031355Y-57713224D01*
X132035991Y-57715863D01*
X132035994Y-57715865D01*
X132145022Y-57777927D01*
X132231714Y-57827275D01*
X132387168Y-57883702D01*
X132444375Y-57925745D01*
X132469771Y-57992044D01*
X132455291Y-58061549D01*
X132405533Y-58112191D01*
X132401536Y-58114121D01*
X132401540Y-58114129D01*
X132225169Y-58207907D01*
X132214949Y-58214698D01*
X132064928Y-58337051D01*
X132056229Y-58345690D01*
X131932826Y-58494857D01*
X131925966Y-58505028D01*
X131833891Y-58675320D01*
X131829138Y-58686626D01*
X131787143Y-58822292D01*
X131786937Y-58836395D01*
X131793692Y-58839600D01*
X134056486Y-58839600D01*
X134070017Y-58835627D01*
X134071137Y-58827832D01*
X134033596Y-58700279D01*
X134028997Y-58688895D01*
X133939308Y-58517336D01*
X133932594Y-58507075D01*
X133811292Y-58356206D01*
X133802699Y-58347432D01*
X133654413Y-58223005D01*
X133644283Y-58216067D01*
X133474640Y-58122806D01*
X133466150Y-58119167D01*
X133411419Y-58073945D01*
X133389825Y-58006312D01*
X133408224Y-57937741D01*
X133460774Y-57890003D01*
X133484137Y-57881398D01*
X133506472Y-57875601D01*
X133511338Y-57873409D01*
X133511341Y-57873408D01*
X133711802Y-57783107D01*
X133716675Y-57780912D01*
X133907919Y-57652159D01*
X133947629Y-57614278D01*
X134070878Y-57496703D01*
X134074735Y-57493024D01*
X134212354Y-57308058D01*
X134241368Y-57250993D01*
X134314422Y-57107304D01*
X134316840Y-57102549D01*
X134320801Y-57089795D01*
X134383624Y-56887471D01*
X134385207Y-56882373D01*
X134385908Y-56877084D01*
X134414798Y-56659111D01*
X134414798Y-56659106D01*
X134415498Y-56653826D01*
X134412901Y-56584635D01*
X134410095Y-56509903D01*
X134406849Y-56423442D01*
X134359507Y-56197809D01*
X134309781Y-56071896D01*
X134276785Y-55988344D01*
X134276784Y-55988342D01*
X134274824Y-55983379D01*
X134268648Y-55973200D01*
X134157990Y-55790843D01*
X134155223Y-55786283D01*
X134145382Y-55774942D01*
X134007623Y-55616188D01*
X134007621Y-55616186D01*
X134004123Y-55612155D01*
X133999997Y-55608772D01*
X133999993Y-55608768D01*
X133954582Y-55571534D01*
X133914588Y-55512875D01*
X133912656Y-55441904D01*
X133949400Y-55381156D01*
X134013155Y-55349917D01*
X134034473Y-55348100D01*
X134389722Y-55348100D01*
X134457843Y-55368102D01*
X134478818Y-55385005D01*
X135000996Y-55907184D01*
X135035021Y-55969496D01*
X135037900Y-55996279D01*
X135037900Y-60767004D01*
X135036822Y-60783451D01*
X135033921Y-60805486D01*
X135037760Y-60886888D01*
X135037900Y-60892824D01*
X135037900Y-60915399D01*
X135038150Y-60918196D01*
X135040219Y-60941388D01*
X135040578Y-60946648D01*
X135044504Y-61029888D01*
X135045754Y-61035347D01*
X135045755Y-61035352D01*
X135048508Y-61047370D01*
X135051189Y-61064299D01*
X135052783Y-61082162D01*
X135054265Y-61087578D01*
X135054265Y-61087580D01*
X135074770Y-61162533D01*
X135076056Y-61167651D01*
X135086669Y-61213987D01*
X135094658Y-61248870D01*
X135096860Y-61254032D01*
X135101694Y-61265367D01*
X135107327Y-61281542D01*
X135110383Y-61292711D01*
X135112063Y-61298851D01*
X135114479Y-61303916D01*
X135147939Y-61374067D01*
X135150110Y-61378876D01*
X135156807Y-61394577D01*
X135182797Y-61455509D01*
X135192651Y-61470510D01*
X135201054Y-61485425D01*
X135208778Y-61501618D01*
X135212048Y-61506169D01*
X135212050Y-61506172D01*
X135257399Y-61569281D01*
X135260389Y-61573632D01*
X135303596Y-61639410D01*
X135303602Y-61639418D01*
X135306135Y-61643274D01*
X135324657Y-61664062D01*
X135332890Y-61674339D01*
X135339871Y-61684054D01*
X135343898Y-61687956D01*
X135416654Y-61758462D01*
X135418064Y-61759851D01*
X136713475Y-63055263D01*
X136724342Y-63067653D01*
X136737877Y-63085292D01*
X136742023Y-63089065D01*
X136742028Y-63089070D01*
X136798164Y-63140149D01*
X136802459Y-63144247D01*
X136818410Y-63160198D01*
X136838436Y-63176942D01*
X136842391Y-63180392D01*
X136869980Y-63205496D01*
X136894117Y-63227459D01*
X136904036Y-63236485D01*
X136908790Y-63239467D01*
X136919230Y-63246016D01*
X136933090Y-63256085D01*
X136946853Y-63267593D01*
X136951734Y-63270377D01*
X137019218Y-63308869D01*
X137023748Y-63311579D01*
X137094344Y-63355864D01*
X137099548Y-63357956D01*
X137110983Y-63362553D01*
X137126413Y-63370012D01*
X137137119Y-63376119D01*
X137137128Y-63376123D01*
X137141993Y-63378898D01*
X137220538Y-63406712D01*
X137225450Y-63408568D01*
X137302783Y-63439656D01*
X137320361Y-63443296D01*
X137336854Y-63447902D01*
X137353759Y-63453888D01*
X137359293Y-63454794D01*
X137359296Y-63454795D01*
X137435977Y-63467352D01*
X137441149Y-63468311D01*
X137522767Y-63485213D01*
X137538398Y-63486114D01*
X137550563Y-63486816D01*
X137563669Y-63488263D01*
X137569914Y-63489286D01*
X137569921Y-63489287D01*
X137575457Y-63490193D01*
X137581071Y-63490105D01*
X137581073Y-63490105D01*
X137682230Y-63488516D01*
X137684209Y-63488500D01*
X138851100Y-63488500D01*
X138919221Y-63508502D01*
X138965714Y-63562158D01*
X138977100Y-63614500D01*
X138977100Y-65211799D01*
X138960220Y-65274798D01*
X138947001Y-65297693D01*
X138944959Y-65303978D01*
X138898148Y-65448050D01*
X138891235Y-65469325D01*
X138890545Y-65475888D01*
X138890545Y-65475889D01*
X138887512Y-65504742D01*
X138872371Y-65648800D01*
X138891235Y-65828275D01*
X138947001Y-65999907D01*
X138960220Y-66022802D01*
X138977100Y-66085801D01*
X138977100Y-68767799D01*
X138960220Y-68830798D01*
X138947001Y-68853693D01*
X138944959Y-68859978D01*
X138894274Y-69015973D01*
X138891235Y-69025325D01*
X138890545Y-69031888D01*
X138890545Y-69031889D01*
X138881289Y-69119952D01*
X138872371Y-69204800D01*
X138891235Y-69384275D01*
X138947001Y-69555907D01*
X138950304Y-69561629D01*
X138950305Y-69561630D01*
X138976675Y-69607304D01*
X139037233Y-69712193D01*
X139041651Y-69717100D01*
X139041652Y-69717101D01*
X139076846Y-69756188D01*
X139157987Y-69846304D01*
X139163329Y-69850185D01*
X139163331Y-69850187D01*
X139219563Y-69891042D01*
X139303985Y-69952378D01*
X139310013Y-69955062D01*
X139310015Y-69955063D01*
X139395277Y-69993024D01*
X139468848Y-70025780D01*
X139557108Y-70044540D01*
X139638911Y-70061928D01*
X139638915Y-70061928D01*
X139645368Y-70063300D01*
X139825832Y-70063300D01*
X139832285Y-70061928D01*
X139832289Y-70061928D01*
X139914092Y-70044540D01*
X140002352Y-70025780D01*
X140075923Y-69993024D01*
X140161185Y-69955063D01*
X140161187Y-69955062D01*
X140167215Y-69952378D01*
X140251637Y-69891042D01*
X140307869Y-69850187D01*
X140307871Y-69850185D01*
X140313213Y-69846304D01*
X140394354Y-69756188D01*
X140429548Y-69717101D01*
X140429549Y-69717100D01*
X140433967Y-69712193D01*
X140494525Y-69607304D01*
X140520895Y-69561630D01*
X140520896Y-69561629D01*
X140524199Y-69555907D01*
X140579965Y-69384275D01*
X140598829Y-69204800D01*
X140589911Y-69119952D01*
X140580655Y-69031889D01*
X140580655Y-69031888D01*
X140579965Y-69025325D01*
X140576927Y-69015973D01*
X140526241Y-68859978D01*
X140524199Y-68853693D01*
X140510980Y-68830798D01*
X140494100Y-68767799D01*
X140494100Y-66085801D01*
X140510980Y-66022802D01*
X140524199Y-65999907D01*
X140579965Y-65828275D01*
X140598829Y-65648800D01*
X140583688Y-65504742D01*
X140580655Y-65475889D01*
X140580655Y-65475888D01*
X140579965Y-65469325D01*
X140573053Y-65448050D01*
X140526241Y-65303978D01*
X140524199Y-65297693D01*
X140510980Y-65274798D01*
X140494100Y-65211799D01*
X140494100Y-63614500D01*
X140514102Y-63546379D01*
X140567758Y-63499886D01*
X140620100Y-63488500D01*
X143398985Y-63488500D01*
X143467106Y-63508502D01*
X143513599Y-63562158D01*
X143523703Y-63632432D01*
X143518818Y-63653435D01*
X143502705Y-63703028D01*
X143478435Y-63777725D01*
X143459571Y-63957200D01*
X143460261Y-63963765D01*
X143466737Y-64025374D01*
X143478435Y-64136675D01*
X143480475Y-64142953D01*
X143480475Y-64142954D01*
X143484008Y-64153826D01*
X143534201Y-64308307D01*
X143547420Y-64331202D01*
X143564300Y-64394201D01*
X143564300Y-70366400D01*
X143544298Y-70434521D01*
X143490642Y-70481014D01*
X143438300Y-70492400D01*
X143290468Y-70492400D01*
X143284015Y-70493772D01*
X143284011Y-70493772D01*
X143207294Y-70510079D01*
X143113948Y-70529920D01*
X143107919Y-70532604D01*
X143107917Y-70532605D01*
X142955116Y-70600637D01*
X142955114Y-70600638D01*
X142949086Y-70603322D01*
X142943745Y-70607202D01*
X142943744Y-70607203D01*
X142808431Y-70705513D01*
X142808429Y-70705515D01*
X142803087Y-70709396D01*
X142798666Y-70714306D01*
X142798665Y-70714307D01*
X142696106Y-70828211D01*
X142682333Y-70843507D01*
X142592101Y-70999793D01*
X142536335Y-71171425D01*
X142517471Y-71350900D01*
X142536335Y-71530375D01*
X142592101Y-71702007D01*
X142605320Y-71724902D01*
X142622200Y-71787901D01*
X142622200Y-78858530D01*
X142602198Y-78926651D01*
X142585295Y-78947625D01*
X140728324Y-80804595D01*
X140666012Y-80838621D01*
X140639229Y-80841500D01*
X140362767Y-80841500D01*
X140294646Y-80821498D01*
X140259555Y-80787772D01*
X140237098Y-80755700D01*
X140078258Y-80596860D01*
X140044232Y-80534548D01*
X140049297Y-80463733D01*
X140091844Y-80406897D01*
X140123123Y-80389784D01*
X140217565Y-80354379D01*
X140219195Y-80353768D01*
X140219196Y-80353767D01*
X140227605Y-80350615D01*
X140344161Y-80263261D01*
X140431515Y-80146705D01*
X140482645Y-80010316D01*
X140489400Y-79948134D01*
X140489400Y-78251866D01*
X140482645Y-78189684D01*
X140431515Y-78053295D01*
X140344161Y-77936739D01*
X140227605Y-77849385D01*
X140091216Y-77798255D01*
X140029034Y-77791500D01*
X138432766Y-77791500D01*
X138370584Y-77798255D01*
X138234195Y-77849385D01*
X138117639Y-77936739D01*
X138030285Y-78053295D01*
X137979155Y-78189684D01*
X137972400Y-78251866D01*
X137972400Y-79948134D01*
X137979155Y-80010316D01*
X138030285Y-80146705D01*
X138117639Y-80263261D01*
X138234195Y-80350615D01*
X138242604Y-80353767D01*
X138242605Y-80353768D01*
X138244235Y-80354379D01*
X138338677Y-80389783D01*
X138395441Y-80432424D01*
X138420141Y-80498985D01*
X138404934Y-80568334D01*
X138383542Y-80596860D01*
X138224702Y-80755700D01*
X138221545Y-80760208D01*
X138221543Y-80760211D01*
X138199548Y-80791623D01*
X138093377Y-80943251D01*
X138091054Y-80948233D01*
X138091051Y-80948238D01*
X138061477Y-81011661D01*
X137996616Y-81150757D01*
X137995194Y-81156065D01*
X137995193Y-81156067D01*
X137938781Y-81366598D01*
X137937357Y-81371913D01*
X137917402Y-81600000D01*
X137937357Y-81828087D01*
X137996616Y-82049243D01*
X137998939Y-82054224D01*
X137998939Y-82054225D01*
X138091051Y-82251762D01*
X138091054Y-82251767D01*
X138093377Y-82256749D01*
X138224702Y-82444300D01*
X138291307Y-82510905D01*
X138325333Y-82573217D01*
X138320268Y-82644032D01*
X138291307Y-82689095D01*
X138224702Y-82755700D01*
X138093377Y-82943251D01*
X138091054Y-82948233D01*
X138091051Y-82948238D01*
X137998939Y-83145775D01*
X137996616Y-83150757D01*
X137937357Y-83371913D01*
X137917402Y-83600000D01*
X137937357Y-83828087D01*
X137938781Y-83833400D01*
X137938781Y-83833402D01*
X137994827Y-84042565D01*
X137996616Y-84049243D01*
X137998939Y-84054224D01*
X137998939Y-84054225D01*
X138091051Y-84251762D01*
X138091054Y-84251767D01*
X138093377Y-84256749D01*
X138224702Y-84444300D01*
X138386600Y-84606198D01*
X138391108Y-84609355D01*
X138391111Y-84609357D01*
X138469289Y-84664098D01*
X138574151Y-84737523D01*
X138579133Y-84739846D01*
X138579138Y-84739849D01*
X138751659Y-84820296D01*
X138781657Y-84834284D01*
X138786965Y-84835706D01*
X138786967Y-84835707D01*
X138832618Y-84847939D01*
X138980899Y-84887671D01*
X139041520Y-84924622D01*
X139072541Y-84988482D01*
X139064113Y-85058977D01*
X139018910Y-85113724D01*
X138983862Y-85130250D01*
X138860396Y-85166589D01*
X138849018Y-85171186D01*
X138738080Y-85229182D01*
X138727932Y-85238970D01*
X138730385Y-85245931D01*
X139218089Y-85733636D01*
X139232032Y-85741249D01*
X139233866Y-85741118D01*
X139240480Y-85736867D01*
X139726506Y-85250840D01*
X139733263Y-85238465D01*
X139728604Y-85232241D01*
X139625709Y-85176606D01*
X139614404Y-85171854D01*
X139477385Y-85129440D01*
X139418226Y-85090189D01*
X139389678Y-85025185D01*
X139400806Y-84955066D01*
X139448077Y-84902094D01*
X139482032Y-84887368D01*
X139674836Y-84835706D01*
X139680143Y-84834284D01*
X139710141Y-84820296D01*
X139882662Y-84739849D01*
X139882667Y-84739846D01*
X139887649Y-84737523D01*
X139992511Y-84664098D01*
X140070689Y-84609357D01*
X140070692Y-84609355D01*
X140075200Y-84606198D01*
X140237098Y-84444300D01*
X140259555Y-84412229D01*
X140315010Y-84367901D01*
X140362767Y-84358500D01*
X141021330Y-84358500D01*
X141040280Y-84359933D01*
X141054515Y-84362099D01*
X141054519Y-84362099D01*
X141061749Y-84363199D01*
X141069041Y-84362606D01*
X141069044Y-84362606D01*
X141114418Y-84358915D01*
X141124633Y-84358500D01*
X141132693Y-84358500D01*
X141145983Y-84356951D01*
X141160907Y-84355211D01*
X141165282Y-84354778D01*
X141230739Y-84349454D01*
X141230742Y-84349453D01*
X141238037Y-84348860D01*
X141245001Y-84346604D01*
X141250960Y-84345413D01*
X141256815Y-84344029D01*
X141264081Y-84343182D01*
X141332727Y-84318265D01*
X141336855Y-84316848D01*
X141399336Y-84296607D01*
X141399338Y-84296606D01*
X141406299Y-84294351D01*
X141412554Y-84290555D01*
X141418028Y-84288049D01*
X141423458Y-84285330D01*
X141430337Y-84282833D01*
X141463246Y-84261257D01*
X141491376Y-84242814D01*
X141495080Y-84240477D01*
X141557507Y-84202595D01*
X141565884Y-84195197D01*
X141565908Y-84195224D01*
X141568900Y-84192571D01*
X141572133Y-84189868D01*
X141578252Y-84185856D01*
X141631528Y-84129617D01*
X141633906Y-84127175D01*
X144811711Y-80949370D01*
X144826123Y-80936984D01*
X144837718Y-80928451D01*
X144837723Y-80928446D01*
X144843618Y-80924108D01*
X144848357Y-80918530D01*
X144848360Y-80918527D01*
X144877835Y-80883832D01*
X144884765Y-80876316D01*
X144890460Y-80870621D01*
X144908081Y-80848349D01*
X144910872Y-80844945D01*
X144953390Y-80794898D01*
X144953391Y-80794897D01*
X144957644Y-80789891D01*
X144957646Y-80789889D01*
X144958134Y-80789315D01*
X144958232Y-80789398D01*
X145010014Y-80746049D01*
X145080449Y-80737141D01*
X145144519Y-80767728D01*
X145181882Y-80828098D01*
X145186400Y-80861536D01*
X145186400Y-83541600D01*
X145198009Y-83649580D01*
X145198723Y-83652864D01*
X145198724Y-83652868D01*
X145200744Y-83662152D01*
X145209395Y-83701922D01*
X145243693Y-83804972D01*
X145321865Y-83926610D01*
X145324807Y-83930005D01*
X145324809Y-83930008D01*
X145345146Y-83953478D01*
X145368358Y-83980266D01*
X145371752Y-83983207D01*
X145395186Y-84003513D01*
X145477634Y-84074955D01*
X145609160Y-84135021D01*
X145632914Y-84141996D01*
X145672958Y-84153754D01*
X145672962Y-84153755D01*
X145677281Y-84155023D01*
X145681729Y-84155663D01*
X145681736Y-84155664D01*
X145815952Y-84174961D01*
X145815959Y-84174962D01*
X145820400Y-84175600D01*
X151410400Y-84175600D01*
X151518380Y-84163991D01*
X151521664Y-84163277D01*
X151521668Y-84163276D01*
X151546739Y-84157822D01*
X151570722Y-84152605D01*
X151673772Y-84118307D01*
X151795410Y-84040135D01*
X151849066Y-83993642D01*
X151860657Y-83980266D01*
X151937853Y-83891177D01*
X151943755Y-83884366D01*
X152003821Y-83752840D01*
X152023823Y-83684719D01*
X152027068Y-83662152D01*
X152043761Y-83546048D01*
X152043762Y-83546041D01*
X152044400Y-83541600D01*
X152044400Y-77392800D01*
X152032791Y-77284820D01*
X152021405Y-77232478D01*
X151987107Y-77129428D01*
X151908935Y-77007790D01*
X151862442Y-76954134D01*
X151843613Y-76937818D01*
X151835614Y-76930887D01*
X151753166Y-76859445D01*
X151621640Y-76799379D01*
X151597886Y-76792404D01*
X151557842Y-76780646D01*
X151557838Y-76780645D01*
X151553519Y-76779377D01*
X151549071Y-76778737D01*
X151549064Y-76778736D01*
X151414848Y-76759439D01*
X151414841Y-76759438D01*
X151410400Y-76758800D01*
X149998900Y-76758800D01*
X149930779Y-76738798D01*
X149884286Y-76685142D01*
X149872900Y-76632800D01*
X149872900Y-72607700D01*
X149892902Y-72539579D01*
X149946558Y-72493086D01*
X149998900Y-72481700D01*
X177354635Y-72481700D01*
X177422756Y-72501702D01*
X177469249Y-72555358D01*
X177479353Y-72625632D01*
X177449859Y-72690212D01*
X177441609Y-72698868D01*
X177314865Y-72819776D01*
X177177246Y-73004742D01*
X177072760Y-73210251D01*
X177071178Y-73215345D01*
X177071177Y-73215348D01*
X177009115Y-73415220D01*
X177004393Y-73430427D01*
X177003692Y-73435716D01*
X176988304Y-73551823D01*
X176974102Y-73658974D01*
X176982751Y-73889358D01*
X177030093Y-74114991D01*
X177032051Y-74119950D01*
X177032052Y-74119952D01*
X177077974Y-74236232D01*
X177114776Y-74329421D01*
X177117543Y-74333980D01*
X177117544Y-74333983D01*
X177179998Y-74436903D01*
X177234377Y-74526517D01*
X177237874Y-74530547D01*
X177324438Y-74630303D01*
X177385477Y-74700645D01*
X177389608Y-74704032D01*
X177559627Y-74843440D01*
X177559633Y-74843444D01*
X177563755Y-74846824D01*
X177595250Y-74864752D01*
X177644555Y-74915832D01*
X177658417Y-74985462D01*
X177632434Y-75051533D01*
X177603284Y-75078773D01*
X177481681Y-75160641D01*
X177477824Y-75164320D01*
X177477822Y-75164322D01*
X177424501Y-75215188D01*
X177314865Y-75319776D01*
X177177246Y-75504742D01*
X177072760Y-75710251D01*
X177071178Y-75715345D01*
X177071177Y-75715348D01*
X177009115Y-75915220D01*
X177004393Y-75930427D01*
X177003692Y-75935716D01*
X176988304Y-76051823D01*
X176974102Y-76158974D01*
X176982751Y-76389358D01*
X177030093Y-76614991D01*
X177032051Y-76619950D01*
X177032052Y-76619952D01*
X177111196Y-76820355D01*
X177114776Y-76829421D01*
X177234377Y-77026517D01*
X177237874Y-77030547D01*
X177324438Y-77130303D01*
X177385477Y-77200645D01*
X177389608Y-77204032D01*
X177559627Y-77343440D01*
X177559633Y-77343444D01*
X177563755Y-77346824D01*
X177568391Y-77349463D01*
X177568394Y-77349465D01*
X177638640Y-77389451D01*
X177764114Y-77460875D01*
X177980825Y-77539537D01*
X177986074Y-77540486D01*
X177986077Y-77540487D01*
X178203608Y-77579823D01*
X178203615Y-77579824D01*
X178207692Y-77580561D01*
X178225414Y-77581397D01*
X178230356Y-77581630D01*
X178230363Y-77581630D01*
X178231844Y-77581700D01*
X178643890Y-77581700D01*
X178710809Y-77576022D01*
X178810409Y-77567571D01*
X178810413Y-77567570D01*
X178815720Y-77567120D01*
X178820875Y-77565782D01*
X178820881Y-77565781D01*
X179033703Y-77510543D01*
X179033707Y-77510542D01*
X179038872Y-77509201D01*
X179043738Y-77507009D01*
X179043741Y-77507008D01*
X179244202Y-77416707D01*
X179249075Y-77414512D01*
X179440319Y-77285759D01*
X179445843Y-77280490D01*
X179549547Y-77181560D01*
X179607135Y-77126624D01*
X179744754Y-76941658D01*
X179770086Y-76891835D01*
X179804342Y-76824456D01*
X179849240Y-76736149D01*
X179885321Y-76619952D01*
X179916024Y-76521071D01*
X179917607Y-76515973D01*
X179918308Y-76510684D01*
X179947198Y-76292711D01*
X179947198Y-76292706D01*
X179947898Y-76287426D01*
X179939249Y-76057042D01*
X179891907Y-75831409D01*
X179807224Y-75616979D01*
X179687623Y-75419883D01*
X179600755Y-75319776D01*
X179540023Y-75249788D01*
X179540021Y-75249786D01*
X179536523Y-75245755D01*
X179489710Y-75207371D01*
X179362373Y-75102960D01*
X179362367Y-75102956D01*
X179358245Y-75099576D01*
X179326750Y-75081648D01*
X179277445Y-75030568D01*
X179263583Y-74960938D01*
X179289566Y-74894867D01*
X179318716Y-74867627D01*
X179354642Y-74843440D01*
X179440319Y-74785759D01*
X179467410Y-74759916D01*
X179603278Y-74630303D01*
X179607135Y-74626624D01*
X179744754Y-74441658D01*
X179778816Y-74374664D01*
X179843141Y-74248145D01*
X179849240Y-74236149D01*
X179879857Y-74137549D01*
X179916024Y-74021071D01*
X179917607Y-74015973D01*
X179918308Y-74010684D01*
X179947198Y-73792711D01*
X179947198Y-73792706D01*
X179947898Y-73787426D01*
X179939249Y-73557042D01*
X179891907Y-73331409D01*
X179807224Y-73116979D01*
X179687623Y-72919883D01*
X179654012Y-72881150D01*
X179540023Y-72749788D01*
X179540021Y-72749786D01*
X179536523Y-72745755D01*
X179532397Y-72742372D01*
X179532393Y-72742368D01*
X179486982Y-72705134D01*
X179446988Y-72646475D01*
X179445056Y-72575504D01*
X179481800Y-72514756D01*
X179545555Y-72483517D01*
X179566873Y-72481700D01*
X180594604Y-72481700D01*
X180611051Y-72482778D01*
X180627516Y-72484946D01*
X180627520Y-72484946D01*
X180633086Y-72485679D01*
X180714489Y-72481840D01*
X180720424Y-72481700D01*
X180742999Y-72481700D01*
X180768989Y-72479381D01*
X180774248Y-72479022D01*
X180857488Y-72475096D01*
X180862947Y-72473846D01*
X180862952Y-72473845D01*
X180874970Y-72471092D01*
X180891899Y-72468411D01*
X180909762Y-72466817D01*
X180915178Y-72465335D01*
X180915180Y-72465335D01*
X180990133Y-72444830D01*
X180995251Y-72443544D01*
X181071000Y-72426195D01*
X181071002Y-72426194D01*
X181076470Y-72424942D01*
X181086970Y-72420463D01*
X181092967Y-72417906D01*
X181109142Y-72412273D01*
X181121039Y-72409018D01*
X181121043Y-72409017D01*
X181126451Y-72407537D01*
X181201667Y-72371661D01*
X181206476Y-72369490D01*
X181277949Y-72339004D01*
X181277950Y-72339004D01*
X181283109Y-72336803D01*
X181298110Y-72326949D01*
X181313025Y-72318546D01*
X181329218Y-72310822D01*
X181333769Y-72307552D01*
X181333772Y-72307550D01*
X181396881Y-72262201D01*
X181401232Y-72259211D01*
X181467010Y-72216004D01*
X181467018Y-72215998D01*
X181470874Y-72213465D01*
X181491662Y-72194943D01*
X181501939Y-72186710D01*
X181511654Y-72179729D01*
X181586062Y-72102946D01*
X181587451Y-72101536D01*
X184078963Y-69610025D01*
X184091354Y-69599157D01*
X184104548Y-69589033D01*
X184108992Y-69585623D01*
X184163858Y-69525326D01*
X184167957Y-69521031D01*
X184183898Y-69505090D01*
X184200644Y-69485062D01*
X184204089Y-69481113D01*
X184256412Y-69423612D01*
X184256419Y-69423603D01*
X184260185Y-69419464D01*
X184269715Y-69404272D01*
X184279789Y-69390407D01*
X184287697Y-69380949D01*
X184291294Y-69376647D01*
X184332576Y-69304271D01*
X184335286Y-69299742D01*
X184376586Y-69233904D01*
X184376588Y-69233901D01*
X184379564Y-69229156D01*
X184381653Y-69223961D01*
X184381655Y-69223956D01*
X184386257Y-69212508D01*
X184393713Y-69197086D01*
X184399818Y-69186381D01*
X184402598Y-69181507D01*
X184430415Y-69102954D01*
X184432276Y-69098029D01*
X184463356Y-69020717D01*
X184466994Y-69003150D01*
X184471599Y-68986656D01*
X184477589Y-68969741D01*
X184491059Y-68887490D01*
X184492019Y-68882311D01*
X184507976Y-68805258D01*
X184507976Y-68805257D01*
X184508913Y-68800733D01*
X184510515Y-68772952D01*
X184511962Y-68759847D01*
X184512986Y-68753590D01*
X184512986Y-68753586D01*
X184513894Y-68748043D01*
X184512216Y-68641236D01*
X184512200Y-68639257D01*
X184512200Y-54109895D01*
X184513278Y-54093448D01*
X184515446Y-54076983D01*
X184515446Y-54076979D01*
X184516179Y-54071413D01*
X184512340Y-53990011D01*
X184512200Y-53984076D01*
X184512200Y-48184874D01*
X184532202Y-48116753D01*
X184537361Y-48109327D01*
X184554315Y-48086705D01*
X184605445Y-47950316D01*
X184612200Y-47888134D01*
X184612200Y-46091866D01*
X184605445Y-46029684D01*
X184554315Y-45893295D01*
X184466961Y-45776739D01*
X184350405Y-45689385D01*
X184336686Y-45684242D01*
X184231903Y-45644960D01*
X184175139Y-45602318D01*
X184150439Y-45535756D01*
X184165647Y-45466408D01*
X184187193Y-45437727D01*
X184212035Y-45412972D01*
X184291796Y-45333489D01*
X184422153Y-45152077D01*
X184426311Y-45143665D01*
X184518836Y-44956453D01*
X184518837Y-44956451D01*
X184521130Y-44951811D01*
X184586070Y-44738069D01*
X184615229Y-44516590D01*
X184616566Y-44461859D01*
X184616774Y-44453365D01*
X184616774Y-44453361D01*
X184616856Y-44450000D01*
X184598552Y-44227361D01*
X184544131Y-44010702D01*
X184455054Y-43805840D01*
X184365283Y-43667075D01*
X184336522Y-43622617D01*
X184336520Y-43622614D01*
X184333714Y-43618277D01*
X184183370Y-43453051D01*
X184179319Y-43449852D01*
X184179315Y-43449848D01*
X184012114Y-43317800D01*
X184012110Y-43317798D01*
X184008059Y-43314598D01*
X183966753Y-43291796D01*
X183916784Y-43241364D01*
X183902012Y-43171921D01*
X183927128Y-43105516D01*
X183954480Y-43078909D01*
X184019263Y-43032700D01*
X184133560Y-42951173D01*
X184291796Y-42793489D01*
X184294992Y-42789042D01*
X184419135Y-42616277D01*
X184422153Y-42612077D01*
X184426311Y-42603665D01*
X184518836Y-42416453D01*
X184518837Y-42416451D01*
X184521130Y-42411811D01*
X184586070Y-42198069D01*
X184615229Y-41976590D01*
X184616856Y-41910000D01*
X184598552Y-41687361D01*
X184544131Y-41470702D01*
X184455054Y-41265840D01*
X184333714Y-41078277D01*
X184183370Y-40913051D01*
X184179319Y-40909852D01*
X184179315Y-40909848D01*
X184012114Y-40777800D01*
X184012110Y-40777798D01*
X184008059Y-40774598D01*
X183994591Y-40767163D01*
X183899385Y-40714607D01*
X183812489Y-40666638D01*
X183807620Y-40664914D01*
X183807616Y-40664912D01*
X183615748Y-40596968D01*
X183558212Y-40555374D01*
X183532296Y-40489276D01*
X183546230Y-40419660D01*
X183595589Y-40368629D01*
X183623927Y-40356836D01*
X183629311Y-40355333D01*
X183640740Y-40350900D01*
X183813541Y-40263612D01*
X183823900Y-40257038D01*
X183976448Y-40137854D01*
X183985330Y-40129396D01*
X184111827Y-39982848D01*
X184118897Y-39972826D01*
X184214521Y-39804497D01*
X184219510Y-39793291D01*
X184271439Y-39637189D01*
X184271940Y-39623096D01*
X184265752Y-39620000D01*
X182251139Y-39620000D01*
X182237608Y-39623973D01*
X182236458Y-39631975D01*
X182271011Y-39752475D01*
X182275529Y-39763887D01*
X182364014Y-39936060D01*
X182370664Y-39946378D01*
X182490909Y-40098090D01*
X182499432Y-40106916D01*
X182646859Y-40232386D01*
X182656931Y-40239386D01*
X182825920Y-40333830D01*
X182837160Y-40338741D01*
X182896136Y-40357904D01*
X182954742Y-40397978D01*
X182982379Y-40463374D01*
X182970272Y-40533331D01*
X182922266Y-40585637D01*
X182896347Y-40597501D01*
X182725456Y-40653357D01*
X182696369Y-40668499D01*
X182543701Y-40747973D01*
X182527307Y-40756507D01*
X182523174Y-40759610D01*
X182523171Y-40759612D01*
X182403418Y-40849525D01*
X182348665Y-40890635D01*
X182194329Y-41052138D01*
X182191415Y-41056410D01*
X182191414Y-41056411D01*
X182078795Y-41221504D01*
X182023884Y-41266507D01*
X181974707Y-41276500D01*
X181467395Y-41276500D01*
X181399274Y-41256498D01*
X181378299Y-41239595D01*
X180807204Y-40668499D01*
X180773179Y-40606187D01*
X180770300Y-40579404D01*
X180770300Y-36796695D01*
X181890951Y-36796695D01*
X181891248Y-36801848D01*
X181891248Y-36801851D01*
X181896695Y-36896322D01*
X181903810Y-37019715D01*
X181904947Y-37024761D01*
X181904948Y-37024767D01*
X181910206Y-37048097D01*
X181952922Y-37237639D01*
X182036966Y-37444616D01*
X182153687Y-37635088D01*
X182299950Y-37803938D01*
X182471826Y-37946632D01*
X182664700Y-38059338D01*
X182873392Y-38139030D01*
X182878464Y-38140062D01*
X182883421Y-38141502D01*
X182882855Y-38143450D01*
X182937946Y-38172558D01*
X182972823Y-38234397D01*
X182968731Y-38305276D01*
X182926968Y-38362690D01*
X182885659Y-38383741D01*
X182864375Y-38390006D01*
X182852995Y-38394603D01*
X182681436Y-38484292D01*
X182671175Y-38491006D01*
X182520306Y-38612308D01*
X182511532Y-38620901D01*
X182387105Y-38769187D01*
X182380167Y-38779317D01*
X182286904Y-38948964D01*
X182282076Y-38960228D01*
X182236871Y-39102731D01*
X182236567Y-39116831D01*
X182243128Y-39120000D01*
X184256966Y-39120000D01*
X184270497Y-39116027D01*
X184271589Y-39108433D01*
X184230952Y-38973840D01*
X184226278Y-38962499D01*
X184135393Y-38791569D01*
X184128602Y-38781349D01*
X184006249Y-38631328D01*
X183997610Y-38622629D01*
X183848443Y-38499226D01*
X183838272Y-38492366D01*
X183667980Y-38400291D01*
X183656671Y-38395537D01*
X183611883Y-38381673D01*
X183552723Y-38342422D01*
X183524175Y-38277418D01*
X183535303Y-38207299D01*
X183582574Y-38154328D01*
X183612933Y-38140623D01*
X183746118Y-38100665D01*
X183746130Y-38100660D01*
X183751084Y-38099174D01*
X183951694Y-38000896D01*
X184133560Y-37871173D01*
X184291796Y-37713489D01*
X184351294Y-37630689D01*
X184419135Y-37536277D01*
X184422153Y-37532077D01*
X184464029Y-37447348D01*
X184518836Y-37336453D01*
X184518837Y-37336451D01*
X184521130Y-37331811D01*
X184574411Y-37156443D01*
X184584565Y-37123023D01*
X184584565Y-37123021D01*
X184586070Y-37118069D01*
X184615229Y-36896590D01*
X184615311Y-36893240D01*
X184616774Y-36833365D01*
X184616774Y-36833361D01*
X184616856Y-36830000D01*
X184598552Y-36607361D01*
X184544131Y-36390702D01*
X184455054Y-36185840D01*
X184415606Y-36124862D01*
X184336522Y-36002617D01*
X184336520Y-36002614D01*
X184333714Y-35998277D01*
X184183370Y-35833051D01*
X184179319Y-35829852D01*
X184179315Y-35829848D01*
X184012114Y-35697800D01*
X184012110Y-35697798D01*
X184008059Y-35694598D01*
X183812489Y-35586638D01*
X183807620Y-35584914D01*
X183807616Y-35584912D01*
X183606787Y-35513795D01*
X183606783Y-35513794D01*
X183601912Y-35512069D01*
X183596819Y-35511162D01*
X183596816Y-35511161D01*
X183387073Y-35473800D01*
X183387067Y-35473799D01*
X183381984Y-35472894D01*
X183308152Y-35471992D01*
X183163781Y-35470228D01*
X183163779Y-35470228D01*
X183158611Y-35470165D01*
X182937791Y-35503955D01*
X182725456Y-35573357D01*
X182527307Y-35676507D01*
X182523174Y-35679610D01*
X182523171Y-35679612D01*
X182352800Y-35807530D01*
X182348665Y-35810635D01*
X182330305Y-35829848D01*
X182208982Y-35956805D01*
X182194329Y-35972138D01*
X182068443Y-36156680D01*
X182048748Y-36199110D01*
X181987944Y-36330102D01*
X181974388Y-36359305D01*
X181914689Y-36574570D01*
X181890951Y-36796695D01*
X180770300Y-36796695D01*
X180770300Y-32539968D01*
X180770827Y-32528785D01*
X180772502Y-32521292D01*
X180770362Y-32453201D01*
X180770300Y-32449244D01*
X180770300Y-32421344D01*
X180769796Y-32417353D01*
X180768863Y-32405511D01*
X180768767Y-32402438D01*
X180767474Y-32361311D01*
X180765262Y-32353697D01*
X180765261Y-32353692D01*
X180761823Y-32341859D01*
X180757812Y-32322495D01*
X180756267Y-32310264D01*
X180755274Y-32302403D01*
X180752357Y-32295036D01*
X180752356Y-32295031D01*
X180738998Y-32261292D01*
X180735154Y-32250065D01*
X180725030Y-32215222D01*
X180722818Y-32207607D01*
X180712507Y-32190172D01*
X180703812Y-32172424D01*
X180696352Y-32153583D01*
X180670364Y-32117813D01*
X180663848Y-32107893D01*
X180645380Y-32076665D01*
X180645378Y-32076662D01*
X180641342Y-32069838D01*
X180627021Y-32055517D01*
X180614180Y-32040483D01*
X180606931Y-32030506D01*
X180602272Y-32024093D01*
X180568195Y-31995902D01*
X180559416Y-31987912D01*
X179235007Y-30663503D01*
X180415143Y-30663503D01*
X180452668Y-30948534D01*
X180528529Y-31225836D01*
X180530213Y-31229784D01*
X180638062Y-31482630D01*
X180641323Y-31490276D01*
X180679172Y-31553517D01*
X180781357Y-31724255D01*
X180788961Y-31736961D01*
X180968713Y-31961328D01*
X181077146Y-32064227D01*
X181171308Y-32153583D01*
X181177251Y-32159223D01*
X181410717Y-32326986D01*
X181414512Y-32328995D01*
X181414513Y-32328996D01*
X181432588Y-32338566D01*
X181664792Y-32461512D01*
X181712758Y-32479065D01*
X181828149Y-32521292D01*
X181934773Y-32560311D01*
X182215664Y-32621555D01*
X182244241Y-32623804D01*
X182438682Y-32639107D01*
X182438691Y-32639107D01*
X182441139Y-32639300D01*
X182596671Y-32639300D01*
X182598807Y-32639154D01*
X182598818Y-32639154D01*
X182806948Y-32624965D01*
X182806954Y-32624964D01*
X182811225Y-32624673D01*
X182815420Y-32623804D01*
X182815422Y-32623804D01*
X183045839Y-32576087D01*
X183092742Y-32566374D01*
X183363743Y-32470407D01*
X183584498Y-32356467D01*
X183615405Y-32340515D01*
X183615406Y-32340515D01*
X183619212Y-32338550D01*
X183622713Y-32336089D01*
X183622717Y-32336087D01*
X183745113Y-32250065D01*
X183854423Y-32173241D01*
X183989094Y-32048097D01*
X184061879Y-31980461D01*
X184061881Y-31980458D01*
X184065022Y-31977540D01*
X184247113Y-31755068D01*
X184397327Y-31509942D01*
X184409969Y-31481144D01*
X184511157Y-31250630D01*
X184512883Y-31246698D01*
X184529846Y-31187151D01*
X184558654Y-31086019D01*
X184591644Y-30970206D01*
X184632151Y-30685584D01*
X184632245Y-30667751D01*
X184633635Y-30402383D01*
X184633635Y-30402376D01*
X184633657Y-30398097D01*
X184621214Y-30303579D01*
X184596692Y-30117322D01*
X184596132Y-30113066D01*
X184520271Y-29835764D01*
X184409840Y-29576864D01*
X184409163Y-29575276D01*
X184409161Y-29575272D01*
X184407477Y-29571324D01*
X184287496Y-29370850D01*
X184262043Y-29328321D01*
X184262040Y-29328317D01*
X184259839Y-29324639D01*
X184080087Y-29100272D01*
X183871549Y-28902377D01*
X183638083Y-28734614D01*
X183616243Y-28723050D01*
X183593054Y-28710772D01*
X183384008Y-28600088D01*
X183114027Y-28501289D01*
X182833136Y-28440045D01*
X182802085Y-28437601D01*
X182610118Y-28422493D01*
X182610109Y-28422493D01*
X182607661Y-28422300D01*
X182452129Y-28422300D01*
X182449993Y-28422446D01*
X182449982Y-28422446D01*
X182241852Y-28436635D01*
X182241846Y-28436636D01*
X182237575Y-28436927D01*
X182233380Y-28437796D01*
X182233378Y-28437796D01*
X182096816Y-28466077D01*
X181956058Y-28495226D01*
X181685057Y-28591193D01*
X181429588Y-28723050D01*
X181426087Y-28725511D01*
X181426083Y-28725513D01*
X181415994Y-28732604D01*
X181194377Y-28888359D01*
X181179292Y-28902377D01*
X180995137Y-29073505D01*
X180983778Y-29084060D01*
X180801687Y-29306532D01*
X180651473Y-29551658D01*
X180535917Y-29814902D01*
X180534742Y-29819029D01*
X180534741Y-29819030D01*
X180496536Y-29953148D01*
X180457156Y-30091394D01*
X180416649Y-30376016D01*
X180416627Y-30380305D01*
X180416626Y-30380312D01*
X180415870Y-30524711D01*
X180415143Y-30663503D01*
X179235007Y-30663503D01*
X177846452Y-29274947D01*
X177838912Y-29266661D01*
X177834800Y-29260182D01*
X177785148Y-29213556D01*
X177782307Y-29210802D01*
X177762570Y-29191065D01*
X177759373Y-29188585D01*
X177750351Y-29180880D01*
X177746197Y-29176979D01*
X177718121Y-29150614D01*
X177711175Y-29146795D01*
X177711172Y-29146793D01*
X177700366Y-29140852D01*
X177683847Y-29130001D01*
X177683383Y-29129641D01*
X177667841Y-29117586D01*
X177660572Y-29114441D01*
X177660568Y-29114438D01*
X177627263Y-29100026D01*
X177616613Y-29094809D01*
X177577860Y-29073505D01*
X177558237Y-29068467D01*
X177539534Y-29062063D01*
X177528220Y-29057167D01*
X177528219Y-29057167D01*
X177520945Y-29054019D01*
X177513122Y-29052780D01*
X177513112Y-29052777D01*
X177477276Y-29047101D01*
X177465656Y-29044695D01*
X177430511Y-29035672D01*
X177430510Y-29035672D01*
X177422830Y-29033700D01*
X177402576Y-29033700D01*
X177382865Y-29032149D01*
X177370686Y-29030220D01*
X177362857Y-29028980D01*
X177333586Y-29031747D01*
X177318839Y-29033141D01*
X177306981Y-29033700D01*
X168531567Y-29033700D01*
X168520384Y-29033173D01*
X168512891Y-29031498D01*
X168504965Y-29031747D01*
X168504964Y-29031747D01*
X168444814Y-29033638D01*
X168440855Y-29033700D01*
X168412944Y-29033700D01*
X168409010Y-29034197D01*
X168409009Y-29034197D01*
X168408944Y-29034205D01*
X168397107Y-29035138D01*
X168365290Y-29036138D01*
X168360829Y-29036278D01*
X168352910Y-29036527D01*
X168335254Y-29041656D01*
X168333458Y-29042178D01*
X168314106Y-29046186D01*
X168307035Y-29047080D01*
X168294003Y-29048726D01*
X168286634Y-29051643D01*
X168286632Y-29051644D01*
X168252897Y-29065000D01*
X168241669Y-29068845D01*
X168199207Y-29081182D01*
X168192384Y-29085217D01*
X168192382Y-29085218D01*
X168181772Y-29091493D01*
X168164024Y-29100188D01*
X168145183Y-29107648D01*
X168138767Y-29112310D01*
X168138766Y-29112310D01*
X168109413Y-29133636D01*
X168099493Y-29140152D01*
X168068265Y-29158620D01*
X168068262Y-29158622D01*
X168061438Y-29162658D01*
X168047117Y-29176979D01*
X168032084Y-29189819D01*
X168015693Y-29201728D01*
X168007017Y-29212216D01*
X167987502Y-29235805D01*
X167979512Y-29244584D01*
X165825347Y-31398748D01*
X165817061Y-31406288D01*
X165810582Y-31410400D01*
X165805157Y-31416177D01*
X165763957Y-31460051D01*
X165761202Y-31462893D01*
X165741465Y-31482630D01*
X165738985Y-31485827D01*
X165731282Y-31494847D01*
X165701014Y-31527079D01*
X165697195Y-31534025D01*
X165697193Y-31534028D01*
X165691252Y-31544834D01*
X165680401Y-31561353D01*
X165667986Y-31577359D01*
X165664841Y-31584628D01*
X165664838Y-31584632D01*
X165650426Y-31617937D01*
X165645209Y-31628587D01*
X165623905Y-31667340D01*
X165621934Y-31675015D01*
X165621934Y-31675016D01*
X165618867Y-31686962D01*
X165612463Y-31705666D01*
X165608987Y-31713700D01*
X165604419Y-31724255D01*
X165603179Y-31732082D01*
X165600996Y-31739596D01*
X165562782Y-31799430D01*
X165498285Y-31829106D01*
X165427982Y-31819201D01*
X165374195Y-31772861D01*
X165354000Y-31704440D01*
X165354000Y-28034000D01*
X165374002Y-27965879D01*
X165427658Y-27919386D01*
X165480000Y-27908000D01*
X185066000Y-27908000D01*
X185134121Y-27928002D01*
X185180614Y-27981658D01*
X185192000Y-28034000D01*
X185192000Y-91766000D01*
X185171998Y-91834121D01*
X185118342Y-91880614D01*
X185066000Y-91892000D01*
X126334000Y-91892000D01*
X126265879Y-91871998D01*
X126219386Y-91818342D01*
X126208000Y-91766000D01*
X126208000Y-89148918D01*
X134507817Y-89148918D01*
X134523582Y-89422320D01*
X134524407Y-89426525D01*
X134524408Y-89426533D01*
X134538661Y-89499181D01*
X134576305Y-89691053D01*
X134577692Y-89695103D01*
X134577693Y-89695108D01*
X134598505Y-89755895D01*
X134665012Y-89950144D01*
X134788060Y-90194799D01*
X134790486Y-90198328D01*
X134790489Y-90198334D01*
X134940743Y-90416953D01*
X134943174Y-90420490D01*
X135127482Y-90623043D01*
X135337575Y-90798707D01*
X135341216Y-90800991D01*
X135565924Y-90941951D01*
X135565928Y-90941953D01*
X135569564Y-90944234D01*
X135637444Y-90974883D01*
X135815245Y-91055164D01*
X135815249Y-91055166D01*
X135819157Y-91056930D01*
X135823277Y-91058150D01*
X135823276Y-91058150D01*
X136077623Y-91133491D01*
X136077627Y-91133492D01*
X136081736Y-91134709D01*
X136085970Y-91135357D01*
X136085975Y-91135358D01*
X136348198Y-91175483D01*
X136348200Y-91175483D01*
X136352440Y-91176132D01*
X136491812Y-91178322D01*
X136621971Y-91180367D01*
X136621977Y-91180367D01*
X136626262Y-91180434D01*
X136898135Y-91147534D01*
X137163027Y-91078041D01*
X137166987Y-91076401D01*
X137166992Y-91076399D01*
X137289532Y-91025641D01*
X137416036Y-90973241D01*
X137652482Y-90835073D01*
X137867989Y-90666094D01*
X137909709Y-90623043D01*
X138055586Y-90472509D01*
X138058569Y-90469431D01*
X138061102Y-90465983D01*
X138061106Y-90465978D01*
X138218157Y-90252178D01*
X138220695Y-90248723D01*
X138248054Y-90198334D01*
X138349318Y-90011830D01*
X138349319Y-90011828D01*
X138351368Y-90008054D01*
X138448169Y-89751877D01*
X138486570Y-89584210D01*
X138508349Y-89489117D01*
X138508350Y-89489113D01*
X138509307Y-89484933D01*
X138518548Y-89381397D01*
X138533431Y-89214627D01*
X138533431Y-89214625D01*
X138533651Y-89212161D01*
X138533741Y-89203627D01*
X138533871Y-89191234D01*
X169405400Y-89191234D01*
X169412155Y-89253416D01*
X169463285Y-89389805D01*
X169550639Y-89506361D01*
X169667195Y-89593715D01*
X169803584Y-89644845D01*
X169865766Y-89651600D01*
X173462034Y-89651600D01*
X173524216Y-89644845D01*
X173660605Y-89593715D01*
X173777161Y-89506361D01*
X173864515Y-89389805D01*
X173915645Y-89253416D01*
X173922400Y-89191234D01*
X173922400Y-88455642D01*
X175655400Y-88455642D01*
X175666922Y-88597300D01*
X175722790Y-88814894D01*
X175816309Y-89019155D01*
X175944520Y-89203627D01*
X176103373Y-89362480D01*
X176287845Y-89490691D01*
X176492106Y-89584210D01*
X176497538Y-89585605D01*
X176497539Y-89585605D01*
X176508149Y-89588329D01*
X176709700Y-89640078D01*
X176763605Y-89644462D01*
X176848808Y-89651393D01*
X176848818Y-89651393D01*
X176851358Y-89651600D01*
X178476442Y-89651600D01*
X178478982Y-89651393D01*
X178478992Y-89651393D01*
X178564195Y-89644462D01*
X178618100Y-89640078D01*
X178819652Y-89588329D01*
X178830261Y-89585605D01*
X178830262Y-89585605D01*
X178835694Y-89584210D01*
X179039955Y-89490691D01*
X179224427Y-89362480D01*
X179383280Y-89203627D01*
X179511491Y-89019155D01*
X179605010Y-88814894D01*
X179660878Y-88597300D01*
X179672400Y-88455642D01*
X179672400Y-86330558D01*
X179660878Y-86188900D01*
X179637153Y-86096494D01*
X179606405Y-85976739D01*
X179606405Y-85976738D01*
X179605010Y-85971306D01*
X179511491Y-85767045D01*
X179493563Y-85741249D01*
X179474446Y-85713744D01*
X179383280Y-85582573D01*
X179224427Y-85423720D01*
X179039955Y-85295509D01*
X178835694Y-85201990D01*
X178830261Y-85200595D01*
X178623296Y-85147456D01*
X178623295Y-85147456D01*
X178618100Y-85146122D01*
X178549005Y-85140502D01*
X178478992Y-85134807D01*
X178478982Y-85134807D01*
X178476442Y-85134600D01*
X176851358Y-85134600D01*
X176848818Y-85134807D01*
X176848808Y-85134807D01*
X176778795Y-85140502D01*
X176709700Y-85146122D01*
X176704505Y-85147456D01*
X176704504Y-85147456D01*
X176497539Y-85200595D01*
X176492106Y-85201990D01*
X176287845Y-85295509D01*
X176103373Y-85423720D01*
X175944520Y-85582573D01*
X175853354Y-85713744D01*
X175834238Y-85741249D01*
X175816309Y-85767045D01*
X175722790Y-85971306D01*
X175721395Y-85976738D01*
X175721395Y-85976739D01*
X175690648Y-86096494D01*
X175666922Y-86188900D01*
X175655400Y-86330558D01*
X175655400Y-88455642D01*
X173922400Y-88455642D01*
X173922400Y-85594966D01*
X173915645Y-85532784D01*
X173864515Y-85396395D01*
X173777161Y-85279839D01*
X173660605Y-85192485D01*
X173652204Y-85189336D01*
X173649982Y-85188119D01*
X173599836Y-85137860D01*
X173584823Y-85068469D01*
X173609709Y-85001977D01*
X173666593Y-84959495D01*
X173710492Y-84951600D01*
X175631264Y-84951600D01*
X175632937Y-84951509D01*
X175632952Y-84951509D01*
X175684499Y-84948717D01*
X175688857Y-84948481D01*
X175702060Y-84945903D01*
X175914060Y-84904502D01*
X175914061Y-84904502D01*
X175919293Y-84903480D01*
X176138852Y-84820296D01*
X176341256Y-84701309D01*
X176520719Y-84549919D01*
X176672109Y-84370456D01*
X176679388Y-84358075D01*
X176712021Y-84302564D01*
X176791096Y-84168052D01*
X176874280Y-83948493D01*
X176878554Y-83926610D01*
X176918444Y-83722343D01*
X176919281Y-83718057D01*
X176920333Y-83698625D01*
X176922309Y-83662152D01*
X176922309Y-83662137D01*
X176922400Y-83660464D01*
X176922400Y-81725736D01*
X176919281Y-81668143D01*
X176874280Y-81437707D01*
X176791096Y-81218148D01*
X176672109Y-81015744D01*
X176520719Y-80836281D01*
X176341256Y-80684891D01*
X176138852Y-80565904D01*
X175919293Y-80482720D01*
X175688857Y-80437719D01*
X175683127Y-80437409D01*
X175632952Y-80434691D01*
X175632937Y-80434691D01*
X175631264Y-80434600D01*
X173696536Y-80434600D01*
X173694863Y-80434691D01*
X173694848Y-80434691D01*
X173644673Y-80437409D01*
X173638943Y-80437719D01*
X173408507Y-80482720D01*
X173188948Y-80565904D01*
X172986544Y-80684891D01*
X172807081Y-80836281D01*
X172655691Y-81015744D01*
X172536704Y-81218148D01*
X172453520Y-81437707D01*
X172408519Y-81668143D01*
X172405400Y-81725736D01*
X172405400Y-83660464D01*
X172405491Y-83662137D01*
X172405491Y-83662152D01*
X172407467Y-83698625D01*
X172408519Y-83718057D01*
X172409356Y-83722343D01*
X172449247Y-83926610D01*
X172453520Y-83948493D01*
X172536704Y-84168052D01*
X172615779Y-84302564D01*
X172648413Y-84358075D01*
X172655691Y-84370456D01*
X172807081Y-84549919D01*
X172986544Y-84701309D01*
X173188948Y-84820296D01*
X173366778Y-84887670D01*
X173374968Y-84890773D01*
X173431583Y-84933612D01*
X173456051Y-85000260D01*
X173440602Y-85069555D01*
X173390141Y-85119498D01*
X173330327Y-85134600D01*
X169865766Y-85134600D01*
X169803584Y-85141355D01*
X169667195Y-85192485D01*
X169550639Y-85279839D01*
X169463285Y-85396395D01*
X169412155Y-85532784D01*
X169405400Y-85594966D01*
X169405400Y-89191234D01*
X138533871Y-89191234D01*
X138534067Y-89172484D01*
X138534067Y-89172483D01*
X138534093Y-89170000D01*
X138515467Y-88896778D01*
X138498510Y-88814894D01*
X138460801Y-88632809D01*
X138459932Y-88628612D01*
X138368517Y-88370465D01*
X138242913Y-88127112D01*
X138232940Y-88112921D01*
X138087908Y-87906562D01*
X138085445Y-87903057D01*
X137899025Y-87702445D01*
X137895710Y-87699731D01*
X137895706Y-87699728D01*
X137690423Y-87531706D01*
X137687105Y-87528990D01*
X137453604Y-87385901D01*
X137449668Y-87384173D01*
X137206773Y-87277549D01*
X137206769Y-87277548D01*
X137202845Y-87275825D01*
X136939466Y-87200800D01*
X136935224Y-87200196D01*
X136935218Y-87200195D01*
X136734734Y-87171662D01*
X136668343Y-87162213D01*
X136524489Y-87161460D01*
X136398777Y-87160802D01*
X136398771Y-87160802D01*
X136394491Y-87160780D01*
X136390247Y-87161339D01*
X136390243Y-87161339D01*
X136271202Y-87177011D01*
X136122978Y-87196525D01*
X136118838Y-87197658D01*
X136118836Y-87197658D01*
X136045908Y-87217609D01*
X135858828Y-87268788D01*
X135854880Y-87270472D01*
X135610882Y-87374546D01*
X135610878Y-87374548D01*
X135606930Y-87376232D01*
X135587025Y-87388145D01*
X135375625Y-87514664D01*
X135375621Y-87514667D01*
X135371943Y-87516868D01*
X135158218Y-87688094D01*
X134969708Y-87886742D01*
X134809902Y-88109136D01*
X134681757Y-88351161D01*
X134680285Y-88355184D01*
X134680283Y-88355188D01*
X134589114Y-88604317D01*
X134587643Y-88608337D01*
X134529304Y-88875907D01*
X134507817Y-89148918D01*
X126208000Y-89148918D01*
X126208000Y-86961225D01*
X138728847Y-86961225D01*
X138733756Y-86967784D01*
X138823234Y-87017790D01*
X138834474Y-87022701D01*
X139009267Y-87079494D01*
X139021241Y-87082127D01*
X139203744Y-87103890D01*
X139215993Y-87104147D01*
X139399246Y-87090046D01*
X139411326Y-87087915D01*
X139588330Y-87038494D01*
X139599781Y-87034053D01*
X139724209Y-86971201D01*
X139734495Y-86961554D01*
X139732257Y-86954911D01*
X139243711Y-86466364D01*
X139229768Y-86458751D01*
X139227934Y-86458882D01*
X139221320Y-86463133D01*
X138735604Y-86948850D01*
X138728847Y-86961225D01*
X126208000Y-86961225D01*
X126208000Y-86092114D01*
X138226675Y-86092114D01*
X138242053Y-86275252D01*
X138244268Y-86287317D01*
X138294925Y-86463982D01*
X138299440Y-86475386D01*
X138359908Y-86593045D01*
X138369627Y-86603263D01*
X138376427Y-86600919D01*
X138864536Y-86112811D01*
X138870913Y-86101132D01*
X139589651Y-86101132D01*
X139589782Y-86102966D01*
X139594033Y-86109580D01*
X140079649Y-86595195D01*
X140092024Y-86601952D01*
X140098758Y-86596911D01*
X140145819Y-86514068D01*
X140150813Y-86502852D01*
X140208821Y-86328473D01*
X140211541Y-86316502D01*
X140234904Y-86131560D01*
X140235396Y-86124533D01*
X140235690Y-86103523D01*
X140235395Y-86096494D01*
X140217203Y-85910959D01*
X140214820Y-85898924D01*
X140161701Y-85722986D01*
X140157028Y-85711647D01*
X140101584Y-85607370D01*
X140091724Y-85597289D01*
X140084597Y-85599857D01*
X139597264Y-86087189D01*
X139589651Y-86101132D01*
X138870913Y-86101132D01*
X138872149Y-86098868D01*
X138872018Y-86097034D01*
X138867767Y-86090420D01*
X138381913Y-85604567D01*
X138369538Y-85597810D01*
X138363149Y-85602592D01*
X138310283Y-85698757D01*
X138305455Y-85710021D01*
X138249881Y-85885213D01*
X138247333Y-85897201D01*
X138226846Y-86079845D01*
X138226675Y-86092114D01*
X126208000Y-86092114D01*
X126208000Y-76008918D01*
X134507817Y-76008918D01*
X134523582Y-76282320D01*
X134524407Y-76286525D01*
X134524408Y-76286533D01*
X134535027Y-76340657D01*
X134576305Y-76551053D01*
X134577692Y-76555103D01*
X134577693Y-76555108D01*
X134660892Y-76798111D01*
X134665012Y-76810144D01*
X134666939Y-76813975D01*
X134775863Y-77030547D01*
X134788060Y-77054799D01*
X134790486Y-77058328D01*
X134790489Y-77058334D01*
X134907971Y-77229270D01*
X134943174Y-77280490D01*
X135127482Y-77483043D01*
X135130777Y-77485798D01*
X135130778Y-77485799D01*
X135195048Y-77539537D01*
X135337575Y-77658707D01*
X135341216Y-77660991D01*
X135565924Y-77801951D01*
X135565928Y-77801953D01*
X135569564Y-77804234D01*
X135637444Y-77834883D01*
X135815245Y-77915164D01*
X135815249Y-77915166D01*
X135819157Y-77916930D01*
X135823277Y-77918150D01*
X135823276Y-77918150D01*
X136077623Y-77993491D01*
X136077627Y-77993492D01*
X136081736Y-77994709D01*
X136085970Y-77995357D01*
X136085975Y-77995358D01*
X136348198Y-78035483D01*
X136348200Y-78035483D01*
X136352440Y-78036132D01*
X136491812Y-78038322D01*
X136621971Y-78040367D01*
X136621977Y-78040367D01*
X136626262Y-78040434D01*
X136898135Y-78007534D01*
X137163027Y-77938041D01*
X137166987Y-77936401D01*
X137166992Y-77936399D01*
X137364058Y-77854771D01*
X137416036Y-77833241D01*
X137652482Y-77695073D01*
X137867989Y-77526094D01*
X137884360Y-77509201D01*
X138055586Y-77332509D01*
X138058569Y-77329431D01*
X138061102Y-77325983D01*
X138061106Y-77325978D01*
X138218157Y-77112178D01*
X138220695Y-77108723D01*
X138248054Y-77058334D01*
X138349318Y-76871830D01*
X138349319Y-76871828D01*
X138351368Y-76868054D01*
X138448169Y-76611877D01*
X138497937Y-76394577D01*
X138508349Y-76349117D01*
X138508350Y-76349113D01*
X138509307Y-76344933D01*
X138514440Y-76287426D01*
X138533431Y-76074627D01*
X138533431Y-76074625D01*
X138533651Y-76072161D01*
X138534093Y-76030000D01*
X138527305Y-75930427D01*
X138515759Y-75761055D01*
X138515758Y-75761049D01*
X138515467Y-75756778D01*
X138459932Y-75488612D01*
X138368517Y-75230465D01*
X138300960Y-75099576D01*
X138244878Y-74990919D01*
X138244878Y-74990918D01*
X138242913Y-74987112D01*
X138232940Y-74972921D01*
X138141939Y-74843440D01*
X138085445Y-74763057D01*
X138015366Y-74687643D01*
X137901946Y-74565588D01*
X137901943Y-74565585D01*
X137899025Y-74562445D01*
X137895710Y-74559731D01*
X137895706Y-74559728D01*
X137756684Y-74445940D01*
X137687105Y-74388990D01*
X137453604Y-74245901D01*
X137442221Y-74240904D01*
X137206773Y-74137549D01*
X137206769Y-74137548D01*
X137202845Y-74135825D01*
X136939466Y-74060800D01*
X136935224Y-74060196D01*
X136935218Y-74060195D01*
X136734734Y-74031662D01*
X136668343Y-74022213D01*
X136524489Y-74021460D01*
X136398777Y-74020802D01*
X136398771Y-74020802D01*
X136394491Y-74020780D01*
X136390247Y-74021339D01*
X136390243Y-74021339D01*
X136271202Y-74037011D01*
X136122978Y-74056525D01*
X136118838Y-74057658D01*
X136118836Y-74057658D01*
X136045908Y-74077609D01*
X135858828Y-74128788D01*
X135854880Y-74130472D01*
X135610882Y-74234546D01*
X135610878Y-74234548D01*
X135606930Y-74236232D01*
X135587025Y-74248145D01*
X135375625Y-74374664D01*
X135375621Y-74374667D01*
X135371943Y-74376868D01*
X135158218Y-74548094D01*
X135083696Y-74626624D01*
X135017280Y-74696612D01*
X134969708Y-74746742D01*
X134809902Y-74969136D01*
X134681757Y-75211161D01*
X134680285Y-75215184D01*
X134680283Y-75215188D01*
X134605375Y-75419883D01*
X134587643Y-75468337D01*
X134529304Y-75735907D01*
X134507817Y-76008918D01*
X126208000Y-76008918D01*
X126208000Y-69025374D01*
X131441702Y-69025374D01*
X131441902Y-69030703D01*
X131441902Y-69030705D01*
X131444430Y-69098029D01*
X131450351Y-69255758D01*
X131497693Y-69481391D01*
X131499651Y-69486350D01*
X131499652Y-69486352D01*
X131556502Y-69630303D01*
X131582376Y-69695821D01*
X131585143Y-69700380D01*
X131585144Y-69700383D01*
X131636952Y-69785759D01*
X131701977Y-69892917D01*
X131705474Y-69896947D01*
X131848637Y-70061928D01*
X131853077Y-70067045D01*
X131888720Y-70096270D01*
X131928714Y-70154929D01*
X131930646Y-70225899D01*
X131893902Y-70286648D01*
X131875132Y-70300848D01*
X131769202Y-70366400D01*
X131729252Y-70391122D01*
X131604295Y-70516297D01*
X131600455Y-70522527D01*
X131600454Y-70522528D01*
X131594243Y-70532605D01*
X131511485Y-70666862D01*
X131455803Y-70834739D01*
X131455103Y-70841575D01*
X131455102Y-70841578D01*
X131454319Y-70849225D01*
X131445100Y-70939200D01*
X131445100Y-72240000D01*
X131445437Y-72243246D01*
X131445437Y-72243250D01*
X131452699Y-72313235D01*
X131456074Y-72345766D01*
X131458255Y-72352302D01*
X131458255Y-72352304D01*
X131479018Y-72414537D01*
X131512050Y-72513546D01*
X131605122Y-72663948D01*
X131730297Y-72788905D01*
X131736527Y-72792745D01*
X131736528Y-72792746D01*
X131873690Y-72877294D01*
X131880862Y-72881715D01*
X131960605Y-72908164D01*
X132042211Y-72935232D01*
X132042213Y-72935232D01*
X132048739Y-72937397D01*
X132055575Y-72938097D01*
X132055578Y-72938098D01*
X132098631Y-72942509D01*
X132153200Y-72948100D01*
X133704000Y-72948100D01*
X133707246Y-72947763D01*
X133707250Y-72947763D01*
X133802908Y-72937838D01*
X133802912Y-72937837D01*
X133809766Y-72937126D01*
X133816302Y-72934945D01*
X133816304Y-72934945D01*
X133948406Y-72890872D01*
X133977546Y-72881150D01*
X134127948Y-72788078D01*
X134252905Y-72662903D01*
X134256746Y-72656672D01*
X134341875Y-72518568D01*
X134341876Y-72518566D01*
X134345715Y-72512338D01*
X134401397Y-72344461D01*
X134404597Y-72313235D01*
X134409983Y-72260660D01*
X134412100Y-72240000D01*
X134412100Y-70939200D01*
X134411763Y-70935950D01*
X134401838Y-70840292D01*
X134401837Y-70840288D01*
X134401126Y-70833434D01*
X134345150Y-70665654D01*
X134252078Y-70515252D01*
X134126903Y-70390295D01*
X133981260Y-70300519D01*
X133933768Y-70247748D01*
X133922344Y-70177676D01*
X133950618Y-70112552D01*
X133960405Y-70102090D01*
X134040398Y-70025780D01*
X134074735Y-69993024D01*
X134212354Y-69808058D01*
X134223692Y-69785759D01*
X134302729Y-69630303D01*
X134316840Y-69602549D01*
X134333275Y-69549622D01*
X134383624Y-69387471D01*
X134385207Y-69382373D01*
X134386611Y-69371778D01*
X134414798Y-69159111D01*
X134414798Y-69159106D01*
X134415498Y-69153826D01*
X134406849Y-68923442D01*
X134399308Y-68887499D01*
X134360602Y-68703028D01*
X134359507Y-68697809D01*
X134309781Y-68571896D01*
X134276785Y-68488344D01*
X134276784Y-68488342D01*
X134274824Y-68483379D01*
X134245902Y-68435716D01*
X134157990Y-68290843D01*
X134155223Y-68286283D01*
X134068355Y-68186176D01*
X134007623Y-68116188D01*
X134007621Y-68116186D01*
X134004123Y-68112155D01*
X133960043Y-68076012D01*
X133829973Y-67969360D01*
X133829967Y-67969356D01*
X133825845Y-67965976D01*
X133794350Y-67948048D01*
X133745045Y-67896968D01*
X133731183Y-67827338D01*
X133757166Y-67761267D01*
X133786316Y-67734027D01*
X133881772Y-67669762D01*
X133907919Y-67652159D01*
X134074735Y-67493024D01*
X134212354Y-67308058D01*
X134222177Y-67288739D01*
X134302729Y-67130303D01*
X134316840Y-67102549D01*
X134339198Y-67030547D01*
X134383624Y-66887471D01*
X134385207Y-66882373D01*
X134385908Y-66877084D01*
X134414798Y-66659111D01*
X134414798Y-66659106D01*
X134415498Y-66653826D01*
X134406849Y-66423442D01*
X134359507Y-66197809D01*
X134309781Y-66071896D01*
X134276785Y-65988344D01*
X134276784Y-65988342D01*
X134274824Y-65983379D01*
X134245902Y-65935716D01*
X134157990Y-65790843D01*
X134155223Y-65786283D01*
X134068355Y-65686176D01*
X134007623Y-65616188D01*
X134007621Y-65616186D01*
X134004123Y-65612155D01*
X133962570Y-65578084D01*
X133829973Y-65469360D01*
X133829967Y-65469356D01*
X133825845Y-65465976D01*
X133794350Y-65448048D01*
X133745045Y-65396968D01*
X133731183Y-65327338D01*
X133757166Y-65261267D01*
X133786316Y-65234027D01*
X133822242Y-65209840D01*
X133907919Y-65152159D01*
X134074735Y-64993024D01*
X134212354Y-64808058D01*
X134217227Y-64798475D01*
X134302729Y-64630303D01*
X134316840Y-64602549D01*
X134339198Y-64530547D01*
X134383624Y-64387471D01*
X134385207Y-64382373D01*
X134388114Y-64360440D01*
X134414798Y-64159111D01*
X134414798Y-64159106D01*
X134415498Y-64153826D01*
X134406849Y-63923442D01*
X134359507Y-63697809D01*
X134333688Y-63632432D01*
X134276785Y-63488344D01*
X134276784Y-63488342D01*
X134274824Y-63483379D01*
X134267981Y-63472101D01*
X134157990Y-63290843D01*
X134155223Y-63286283D01*
X134129024Y-63256091D01*
X134007623Y-63116188D01*
X134007621Y-63116186D01*
X134004123Y-63112155D01*
X133934738Y-63055263D01*
X133829973Y-62969360D01*
X133829967Y-62969356D01*
X133825845Y-62965976D01*
X133794350Y-62948048D01*
X133745045Y-62896968D01*
X133731183Y-62827338D01*
X133757166Y-62761267D01*
X133786316Y-62734027D01*
X133822651Y-62709565D01*
X133907919Y-62652159D01*
X133924367Y-62636469D01*
X134041459Y-62524768D01*
X134074735Y-62493024D01*
X134212354Y-62308058D01*
X134222177Y-62288739D01*
X134302729Y-62130303D01*
X134316840Y-62102549D01*
X134339198Y-62030547D01*
X134383624Y-61887471D01*
X134385207Y-61882373D01*
X134385908Y-61877084D01*
X134414798Y-61659111D01*
X134414798Y-61659106D01*
X134415498Y-61653826D01*
X134406849Y-61423442D01*
X134400325Y-61392346D01*
X134360602Y-61203028D01*
X134359507Y-61197809D01*
X134357373Y-61192406D01*
X134276785Y-60988344D01*
X134276784Y-60988342D01*
X134274824Y-60983379D01*
X134269611Y-60974787D01*
X134157990Y-60790843D01*
X134155223Y-60786283D01*
X134124151Y-60750475D01*
X134007623Y-60616188D01*
X134007621Y-60616186D01*
X134004123Y-60612155D01*
X133962570Y-60578084D01*
X133829973Y-60469360D01*
X133829967Y-60469356D01*
X133825845Y-60465976D01*
X133821209Y-60463337D01*
X133821206Y-60463335D01*
X133630129Y-60354568D01*
X133625486Y-60351925D01*
X133470032Y-60295498D01*
X133412825Y-60253455D01*
X133387429Y-60187156D01*
X133401909Y-60117651D01*
X133451667Y-60067009D01*
X133455664Y-60065079D01*
X133455660Y-60065071D01*
X133632031Y-59971293D01*
X133642251Y-59964502D01*
X133792272Y-59842149D01*
X133800971Y-59833510D01*
X133924374Y-59684343D01*
X133931234Y-59674172D01*
X134023309Y-59503880D01*
X134028062Y-59492574D01*
X134070057Y-59356908D01*
X134070263Y-59342805D01*
X134063508Y-59339600D01*
X131800714Y-59339600D01*
X131787183Y-59343573D01*
X131786063Y-59351368D01*
X131823604Y-59478921D01*
X131828203Y-59490305D01*
X131917892Y-59661864D01*
X131924606Y-59672125D01*
X132045908Y-59822994D01*
X132054501Y-59831768D01*
X132202787Y-59956195D01*
X132212917Y-59963133D01*
X132382560Y-60056394D01*
X132391050Y-60060033D01*
X132445781Y-60105255D01*
X132467375Y-60172888D01*
X132448976Y-60241459D01*
X132396426Y-60289197D01*
X132373063Y-60297802D01*
X132350728Y-60303599D01*
X132345862Y-60305791D01*
X132345859Y-60305792D01*
X132237580Y-60354568D01*
X132140525Y-60398288D01*
X131949281Y-60527041D01*
X131782465Y-60686176D01*
X131779282Y-60690454D01*
X131752701Y-60726180D01*
X131644846Y-60871142D01*
X131642430Y-60875893D01*
X131642428Y-60875897D01*
X131617296Y-60925329D01*
X131540360Y-61076651D01*
X131538778Y-61081745D01*
X131538777Y-61081748D01*
X131500844Y-61203911D01*
X131471993Y-61296827D01*
X131471292Y-61302116D01*
X131444851Y-61501618D01*
X131441702Y-61525374D01*
X131450351Y-61755758D01*
X131497693Y-61981391D01*
X131499651Y-61986350D01*
X131499652Y-61986352D01*
X131556502Y-62130303D01*
X131582376Y-62195821D01*
X131585143Y-62200380D01*
X131585144Y-62200383D01*
X131634718Y-62282078D01*
X131701977Y-62392917D01*
X131705474Y-62396947D01*
X131815186Y-62523379D01*
X131853077Y-62567045D01*
X131889534Y-62596938D01*
X132027227Y-62709840D01*
X132027233Y-62709844D01*
X132031355Y-62713224D01*
X132062850Y-62731152D01*
X132112155Y-62782232D01*
X132126017Y-62851862D01*
X132100034Y-62917933D01*
X132070884Y-62945173D01*
X131949281Y-63027041D01*
X131782465Y-63186176D01*
X131644846Y-63371142D01*
X131642430Y-63375893D01*
X131642428Y-63375897D01*
X131607276Y-63445036D01*
X131540360Y-63576651D01*
X131538778Y-63581745D01*
X131538777Y-63581748D01*
X131479875Y-63771443D01*
X131471993Y-63796827D01*
X131471292Y-63802116D01*
X131448843Y-63971496D01*
X131441702Y-64025374D01*
X131450351Y-64255758D01*
X131451446Y-64260977D01*
X131464765Y-64324456D01*
X131497693Y-64481391D01*
X131499651Y-64486350D01*
X131499652Y-64486352D01*
X131556502Y-64630303D01*
X131582376Y-64695821D01*
X131585143Y-64700380D01*
X131585144Y-64700383D01*
X131647525Y-64803183D01*
X131701977Y-64892917D01*
X131705474Y-64896947D01*
X131792038Y-64996703D01*
X131853077Y-65067045D01*
X131870889Y-65081650D01*
X132027227Y-65209840D01*
X132027233Y-65209844D01*
X132031355Y-65213224D01*
X132062850Y-65231152D01*
X132112155Y-65282232D01*
X132126017Y-65351862D01*
X132100034Y-65417933D01*
X132070884Y-65445173D01*
X131949281Y-65527041D01*
X131782465Y-65686176D01*
X131644846Y-65871142D01*
X131540360Y-66076651D01*
X131538778Y-66081745D01*
X131538777Y-66081748D01*
X131489057Y-66241872D01*
X131471993Y-66296827D01*
X131471292Y-66302116D01*
X131442467Y-66519604D01*
X131441702Y-66525374D01*
X131450351Y-66755758D01*
X131497693Y-66981391D01*
X131499651Y-66986350D01*
X131499652Y-66986352D01*
X131556502Y-67130303D01*
X131582376Y-67195821D01*
X131585143Y-67200380D01*
X131585144Y-67200383D01*
X131623940Y-67264316D01*
X131701977Y-67392917D01*
X131705474Y-67396947D01*
X131792038Y-67496703D01*
X131853077Y-67567045D01*
X131870889Y-67581650D01*
X132027227Y-67709840D01*
X132027233Y-67709844D01*
X132031355Y-67713224D01*
X132062850Y-67731152D01*
X132112155Y-67782232D01*
X132126017Y-67851862D01*
X132100034Y-67917933D01*
X132070884Y-67945173D01*
X131949281Y-68027041D01*
X131945424Y-68030720D01*
X131945422Y-68030722D01*
X131897946Y-68076012D01*
X131782465Y-68186176D01*
X131644846Y-68371142D01*
X131540360Y-68576651D01*
X131538778Y-68581745D01*
X131538777Y-68581748D01*
X131479406Y-68772952D01*
X131471993Y-68796827D01*
X131471292Y-68802116D01*
X131442541Y-69019046D01*
X131441702Y-69025374D01*
X126208000Y-69025374D01*
X126208000Y-28034000D01*
X126228002Y-27965879D01*
X126281658Y-27919386D01*
X126334000Y-27908000D01*
X136576800Y-27908000D01*
X136644921Y-27928002D01*
G37*
%TD.AperFunction*%
%TA.AperFunction,Conductor*%
G36*
X176893127Y-32352702D02*
G01*
X176914101Y-32369605D01*
X178450395Y-33905900D01*
X178484421Y-33968212D01*
X178487300Y-33994995D01*
X178487300Y-43507633D01*
X178486773Y-43518816D01*
X178485098Y-43526309D01*
X178485347Y-43534235D01*
X178485347Y-43534236D01*
X178487238Y-43594386D01*
X178487300Y-43598345D01*
X178487300Y-43626256D01*
X178487797Y-43630190D01*
X178487797Y-43630191D01*
X178487805Y-43630256D01*
X178488738Y-43642093D01*
X178490127Y-43686289D01*
X178495484Y-43704727D01*
X178495778Y-43705739D01*
X178499787Y-43725100D01*
X178502326Y-43745197D01*
X178505245Y-43752568D01*
X178505245Y-43752570D01*
X178518604Y-43786312D01*
X178522449Y-43797542D01*
X178534782Y-43839993D01*
X178538815Y-43846812D01*
X178538817Y-43846817D01*
X178545093Y-43857428D01*
X178553788Y-43875176D01*
X178561248Y-43894017D01*
X178565910Y-43900433D01*
X178565910Y-43900434D01*
X178587236Y-43929787D01*
X178593752Y-43939707D01*
X178610980Y-43968837D01*
X178616258Y-43977762D01*
X178630579Y-43992083D01*
X178643419Y-44007116D01*
X178655328Y-44023507D01*
X178661433Y-44028558D01*
X178661438Y-44028563D01*
X178689404Y-44051699D01*
X178698182Y-44059687D01*
X179480748Y-44842253D01*
X179488288Y-44850539D01*
X179492400Y-44857018D01*
X179498177Y-44862443D01*
X179542051Y-44903643D01*
X179544893Y-44906398D01*
X179564630Y-44926135D01*
X179567827Y-44928615D01*
X179576847Y-44936318D01*
X179609079Y-44966586D01*
X179616025Y-44970405D01*
X179616028Y-44970407D01*
X179626834Y-44976348D01*
X179643353Y-44987199D01*
X179659359Y-44999614D01*
X179666628Y-45002759D01*
X179666632Y-45002762D01*
X179699937Y-45017174D01*
X179710587Y-45022391D01*
X179749340Y-45043695D01*
X179757015Y-45045666D01*
X179757016Y-45045666D01*
X179768962Y-45048733D01*
X179787667Y-45055137D01*
X179806255Y-45063181D01*
X179814078Y-45064420D01*
X179814088Y-45064423D01*
X179849924Y-45070099D01*
X179861544Y-45072505D01*
X179896689Y-45081528D01*
X179904370Y-45083500D01*
X179924624Y-45083500D01*
X179944334Y-45085051D01*
X179964343Y-45088220D01*
X179972235Y-45087474D01*
X180008361Y-45084059D01*
X180020219Y-45083500D01*
X181977974Y-45083500D01*
X182046095Y-45103502D01*
X182085407Y-45143665D01*
X182153687Y-45255088D01*
X182299950Y-45423938D01*
X182303930Y-45427242D01*
X182308681Y-45431187D01*
X182348316Y-45490090D01*
X182349813Y-45561071D01*
X182312697Y-45621593D01*
X182272425Y-45646112D01*
X182207200Y-45670564D01*
X182156995Y-45689385D01*
X182040439Y-45776739D01*
X181953085Y-45893295D01*
X181901955Y-46029684D01*
X181895200Y-46091866D01*
X181895200Y-47888134D01*
X181901955Y-47950316D01*
X181953085Y-48086705D01*
X181970027Y-48109311D01*
X181994874Y-48175815D01*
X181995200Y-48184874D01*
X181995200Y-52338700D01*
X181975198Y-52406821D01*
X181921542Y-52453314D01*
X181869200Y-52464700D01*
X179598985Y-52464700D01*
X179532868Y-52445959D01*
X179514970Y-52434926D01*
X179514967Y-52434924D01*
X179508738Y-52431085D01*
X179383004Y-52389381D01*
X179347389Y-52377568D01*
X179347387Y-52377568D01*
X179340861Y-52375403D01*
X179334025Y-52374703D01*
X179334022Y-52374702D01*
X179285200Y-52369700D01*
X179236400Y-52364700D01*
X177685600Y-52364700D01*
X177682354Y-52365037D01*
X177682350Y-52365037D01*
X177586692Y-52374962D01*
X177586688Y-52374963D01*
X177579834Y-52375674D01*
X177573298Y-52377855D01*
X177573296Y-52377855D01*
X177494925Y-52404002D01*
X177412054Y-52431650D01*
X177261652Y-52524722D01*
X177136695Y-52649897D01*
X177132855Y-52656127D01*
X177132854Y-52656128D01*
X177048215Y-52793438D01*
X177043885Y-52800462D01*
X177038031Y-52818111D01*
X176999073Y-52935568D01*
X176988203Y-52968339D01*
X176987503Y-52975175D01*
X176987502Y-52975178D01*
X176983995Y-53009411D01*
X176977500Y-53072800D01*
X176977500Y-54373600D01*
X176977837Y-54376846D01*
X176977837Y-54376850D01*
X176980479Y-54402307D01*
X176988474Y-54479366D01*
X176990655Y-54485902D01*
X176990655Y-54485904D01*
X177014906Y-54558593D01*
X177044450Y-54647146D01*
X177137522Y-54797548D01*
X177262697Y-54922505D01*
X177268927Y-54926345D01*
X177268928Y-54926346D01*
X177398506Y-55006219D01*
X177413262Y-55015315D01*
X177426778Y-55019798D01*
X177574611Y-55068832D01*
X177574613Y-55068832D01*
X177581139Y-55070997D01*
X177587975Y-55071697D01*
X177587978Y-55071698D01*
X177631031Y-55076109D01*
X177685600Y-55081700D01*
X177740837Y-55081700D01*
X177808958Y-55101702D01*
X177855451Y-55155358D01*
X177865555Y-55225632D01*
X177836061Y-55290212D01*
X177799991Y-55318951D01*
X177757569Y-55341507D01*
X177747349Y-55348298D01*
X177597328Y-55470651D01*
X177588629Y-55479290D01*
X177465226Y-55628457D01*
X177458366Y-55638628D01*
X177366291Y-55808920D01*
X177361538Y-55820226D01*
X177319543Y-55955892D01*
X177319337Y-55969995D01*
X177326092Y-55973200D01*
X179588886Y-55973200D01*
X179602417Y-55969227D01*
X179603537Y-55961432D01*
X179565996Y-55833879D01*
X179561397Y-55822495D01*
X179471708Y-55650936D01*
X179464994Y-55640675D01*
X179343692Y-55489806D01*
X179335099Y-55481032D01*
X179186813Y-55356605D01*
X179176682Y-55349667D01*
X179119289Y-55318115D01*
X179069230Y-55267769D01*
X179054337Y-55198352D01*
X179079338Y-55131903D01*
X179136295Y-55089519D01*
X179179990Y-55081700D01*
X179236400Y-55081700D01*
X179239646Y-55081363D01*
X179239650Y-55081363D01*
X179335308Y-55071438D01*
X179335312Y-55071437D01*
X179342166Y-55070726D01*
X179348702Y-55068545D01*
X179348704Y-55068545D01*
X179500798Y-55017802D01*
X179509946Y-55014750D01*
X179532883Y-55000556D01*
X179599186Y-54981700D01*
X181869200Y-54981700D01*
X181937321Y-55001702D01*
X181983814Y-55055358D01*
X181995200Y-55107700D01*
X181995200Y-68082022D01*
X181975198Y-68150143D01*
X181958295Y-68171117D01*
X180201617Y-69927795D01*
X180139305Y-69961821D01*
X180112522Y-69964700D01*
X179567365Y-69964700D01*
X179499244Y-69944698D01*
X179452751Y-69891042D01*
X179442647Y-69820768D01*
X179472141Y-69756188D01*
X179480393Y-69747530D01*
X179607135Y-69626624D01*
X179744754Y-69441658D01*
X179767461Y-69396998D01*
X179816908Y-69299742D01*
X179849240Y-69236149D01*
X179851412Y-69229156D01*
X179916024Y-69021071D01*
X179917607Y-69015973D01*
X179923034Y-68975027D01*
X179947198Y-68792711D01*
X179947198Y-68792706D01*
X179947898Y-68787426D01*
X179946420Y-68748043D01*
X179942335Y-68639257D01*
X179939249Y-68557042D01*
X179891907Y-68331409D01*
X179836241Y-68190454D01*
X179809185Y-68121944D01*
X179809184Y-68121942D01*
X179807224Y-68116979D01*
X179802242Y-68108768D01*
X179690390Y-67924443D01*
X179687623Y-67919883D01*
X179668884Y-67898288D01*
X179540023Y-67749788D01*
X179540021Y-67749786D01*
X179536523Y-67745755D01*
X179459201Y-67682355D01*
X179362373Y-67602960D01*
X179362367Y-67602956D01*
X179358245Y-67599576D01*
X179326750Y-67581648D01*
X179277445Y-67530568D01*
X179263583Y-67460938D01*
X179289566Y-67394867D01*
X179318716Y-67367627D01*
X179354642Y-67343440D01*
X179440319Y-67285759D01*
X179458484Y-67268431D01*
X179572818Y-67159361D01*
X179607135Y-67126624D01*
X179744754Y-66941658D01*
X179849240Y-66736149D01*
X179875702Y-66650930D01*
X179903279Y-66562115D01*
X179917607Y-66515973D01*
X179930563Y-66418223D01*
X179947198Y-66292711D01*
X179947198Y-66292706D01*
X179947898Y-66287426D01*
X179939249Y-66057042D01*
X179922891Y-65979077D01*
X179893002Y-65836628D01*
X179891907Y-65831409D01*
X179863470Y-65759402D01*
X179809185Y-65621944D01*
X179809184Y-65621942D01*
X179807224Y-65616979D01*
X179802242Y-65608768D01*
X179690390Y-65424443D01*
X179687623Y-65419883D01*
X179668884Y-65398288D01*
X179540023Y-65249788D01*
X179540021Y-65249786D01*
X179536523Y-65245755D01*
X179492722Y-65209840D01*
X179362373Y-65102960D01*
X179362367Y-65102956D01*
X179358245Y-65099576D01*
X179326750Y-65081648D01*
X179277445Y-65030568D01*
X179263583Y-64960938D01*
X179289566Y-64894867D01*
X179318716Y-64867627D01*
X179355422Y-64842915D01*
X179440319Y-64785759D01*
X179607135Y-64626624D01*
X179744754Y-64441658D01*
X179768883Y-64394201D01*
X179815748Y-64302022D01*
X179849240Y-64236149D01*
X179885321Y-64119952D01*
X179916024Y-64021071D01*
X179917607Y-64015973D01*
X179926267Y-63950635D01*
X179947198Y-63792711D01*
X179947198Y-63792706D01*
X179947898Y-63787426D01*
X179939249Y-63557042D01*
X179891907Y-63331409D01*
X179883524Y-63310182D01*
X179809185Y-63121944D01*
X179809184Y-63121942D01*
X179807224Y-63116979D01*
X179802242Y-63108768D01*
X179690390Y-62924443D01*
X179687623Y-62919883D01*
X179668884Y-62898288D01*
X179540023Y-62749788D01*
X179540021Y-62749786D01*
X179536523Y-62745755D01*
X179492386Y-62709565D01*
X179362373Y-62602960D01*
X179362367Y-62602956D01*
X179358245Y-62599576D01*
X179326750Y-62581648D01*
X179277445Y-62530568D01*
X179263583Y-62460938D01*
X179289566Y-62394867D01*
X179318716Y-62367627D01*
X179354642Y-62343440D01*
X179440319Y-62285759D01*
X179607135Y-62126624D01*
X179744754Y-61941658D01*
X179849240Y-61736149D01*
X179864205Y-61687956D01*
X179916024Y-61521071D01*
X179917607Y-61515973D01*
X179923634Y-61470500D01*
X179947198Y-61292711D01*
X179947198Y-61292706D01*
X179947898Y-61287426D01*
X179939249Y-61057042D01*
X179891907Y-60831409D01*
X179883886Y-60811098D01*
X179809185Y-60621944D01*
X179809184Y-60621942D01*
X179807224Y-60616979D01*
X179802242Y-60608768D01*
X179690390Y-60424443D01*
X179687623Y-60419883D01*
X179600755Y-60319776D01*
X179540023Y-60249788D01*
X179540021Y-60249786D01*
X179536523Y-60245755D01*
X179494970Y-60211684D01*
X179362373Y-60102960D01*
X179362367Y-60102956D01*
X179358245Y-60099576D01*
X179326750Y-60081648D01*
X179277445Y-60030568D01*
X179263583Y-59960938D01*
X179289566Y-59894867D01*
X179318716Y-59867627D01*
X179371979Y-59831768D01*
X179440319Y-59785759D01*
X179607135Y-59626624D01*
X179621516Y-59607296D01*
X179706871Y-59492574D01*
X179744754Y-59441658D01*
X179750425Y-59430505D01*
X179846822Y-59240904D01*
X179849240Y-59236149D01*
X179879580Y-59138441D01*
X179916024Y-59021071D01*
X179917607Y-59015973D01*
X179919857Y-58998996D01*
X179947198Y-58792711D01*
X179947198Y-58792706D01*
X179947898Y-58787426D01*
X179939249Y-58557042D01*
X179928336Y-58505028D01*
X179893002Y-58336628D01*
X179891907Y-58331409D01*
X179876262Y-58291793D01*
X179809185Y-58121944D01*
X179809184Y-58121942D01*
X179807224Y-58116979D01*
X179801560Y-58107644D01*
X179714955Y-57964924D01*
X179687623Y-57919883D01*
X179600755Y-57819776D01*
X179540023Y-57749788D01*
X179540021Y-57749786D01*
X179536523Y-57745755D01*
X179492722Y-57709840D01*
X179362373Y-57602960D01*
X179362367Y-57602956D01*
X179358245Y-57599576D01*
X179353609Y-57596937D01*
X179353606Y-57596935D01*
X179162529Y-57488168D01*
X179157886Y-57485525D01*
X179002432Y-57429098D01*
X178945225Y-57387055D01*
X178919829Y-57320756D01*
X178934309Y-57251251D01*
X178984067Y-57200609D01*
X178988064Y-57198679D01*
X178988060Y-57198671D01*
X179164431Y-57104893D01*
X179174651Y-57098102D01*
X179324672Y-56975749D01*
X179333371Y-56967110D01*
X179456774Y-56817943D01*
X179463634Y-56807772D01*
X179555709Y-56637480D01*
X179560462Y-56626174D01*
X179602457Y-56490508D01*
X179602663Y-56476405D01*
X179595908Y-56473200D01*
X177333114Y-56473200D01*
X177319583Y-56477173D01*
X177318463Y-56484968D01*
X177356004Y-56612521D01*
X177360603Y-56623905D01*
X177450292Y-56795464D01*
X177457006Y-56805725D01*
X177578308Y-56956594D01*
X177586901Y-56965368D01*
X177735187Y-57089795D01*
X177745317Y-57096733D01*
X177914960Y-57189994D01*
X177923450Y-57193633D01*
X177978181Y-57238855D01*
X177999775Y-57306488D01*
X177981376Y-57375059D01*
X177928826Y-57422797D01*
X177905463Y-57431402D01*
X177883128Y-57437199D01*
X177878262Y-57439391D01*
X177878259Y-57439392D01*
X177771914Y-57487297D01*
X177672925Y-57531888D01*
X177481681Y-57660641D01*
X177314865Y-57819776D01*
X177177246Y-58004742D01*
X177174830Y-58009494D01*
X177174825Y-58009502D01*
X177169078Y-58020806D01*
X177120375Y-58072463D01*
X177056762Y-58089700D01*
X176559567Y-58089700D01*
X176548384Y-58089173D01*
X176540891Y-58087498D01*
X176532965Y-58087747D01*
X176532964Y-58087747D01*
X176472814Y-58089638D01*
X176468855Y-58089700D01*
X176440944Y-58089700D01*
X176437010Y-58090197D01*
X176437009Y-58090197D01*
X176436944Y-58090205D01*
X176425107Y-58091138D01*
X176393290Y-58092138D01*
X176388829Y-58092278D01*
X176380910Y-58092527D01*
X176363254Y-58097656D01*
X176361458Y-58098178D01*
X176342106Y-58102186D01*
X176335035Y-58103080D01*
X176322003Y-58104726D01*
X176314634Y-58107643D01*
X176314632Y-58107644D01*
X176280897Y-58121000D01*
X176269669Y-58124845D01*
X176227207Y-58137182D01*
X176220385Y-58141216D01*
X176220379Y-58141219D01*
X176209768Y-58147494D01*
X176192018Y-58156190D01*
X176180556Y-58160728D01*
X176180551Y-58160731D01*
X176173183Y-58163648D01*
X176166768Y-58168309D01*
X176137425Y-58189627D01*
X176127507Y-58196143D01*
X176108819Y-58207195D01*
X176089437Y-58218658D01*
X176075113Y-58232982D01*
X176060081Y-58245821D01*
X176043693Y-58257728D01*
X176015512Y-58291793D01*
X176007522Y-58300573D01*
X174729700Y-59578395D01*
X174667388Y-59612421D01*
X174640605Y-59615300D01*
X156077569Y-59615300D01*
X156009448Y-59595298D01*
X156003508Y-59591236D01*
X155884957Y-59505103D01*
X155884956Y-59505102D01*
X155879615Y-59501222D01*
X155873587Y-59498538D01*
X155873585Y-59498537D01*
X155720783Y-59430505D01*
X155720781Y-59430505D01*
X155714752Y-59427820D01*
X155626492Y-59409060D01*
X155544689Y-59391672D01*
X155544685Y-59391672D01*
X155538232Y-59390300D01*
X155357768Y-59390300D01*
X155351315Y-59391672D01*
X155351311Y-59391672D01*
X155269508Y-59409060D01*
X155181248Y-59427820D01*
X155175219Y-59430504D01*
X155175217Y-59430505D01*
X155022416Y-59498537D01*
X155022414Y-59498538D01*
X155016386Y-59501222D01*
X155011045Y-59505102D01*
X155011044Y-59505103D01*
X154875731Y-59603413D01*
X154875729Y-59603415D01*
X154870387Y-59607296D01*
X154865966Y-59612206D01*
X154865965Y-59612207D01*
X154783286Y-59704032D01*
X154749633Y-59741407D01*
X154659401Y-59897693D01*
X154603635Y-60069325D01*
X154602945Y-60075888D01*
X154602945Y-60075889D01*
X154598556Y-60117651D01*
X154584771Y-60248800D01*
X154603635Y-60428275D01*
X154605675Y-60434553D01*
X154605675Y-60434554D01*
X154615885Y-60465976D01*
X154659401Y-60599907D01*
X154662704Y-60605629D01*
X154662705Y-60605630D01*
X154672124Y-60621944D01*
X154749633Y-60756193D01*
X154754051Y-60761100D01*
X154754052Y-60761101D01*
X154857415Y-60875897D01*
X154870387Y-60890304D01*
X154875729Y-60894185D01*
X154875731Y-60894187D01*
X154987957Y-60975724D01*
X155016385Y-60996378D01*
X155022413Y-60999062D01*
X155022415Y-60999063D01*
X155175217Y-61067095D01*
X155181248Y-61069780D01*
X155269508Y-61088540D01*
X155351311Y-61105928D01*
X155351315Y-61105928D01*
X155357768Y-61107300D01*
X155538232Y-61107300D01*
X155544685Y-61105928D01*
X155544689Y-61105928D01*
X155626492Y-61088540D01*
X155714752Y-61069780D01*
X155720783Y-61067095D01*
X155873585Y-60999063D01*
X155873587Y-60999062D01*
X155879615Y-60996378D01*
X155909333Y-60974787D01*
X155964652Y-60934595D01*
X156003509Y-60906364D01*
X156070375Y-60882506D01*
X156077569Y-60882300D01*
X174876433Y-60882300D01*
X174887616Y-60882827D01*
X174895109Y-60884502D01*
X174903035Y-60884253D01*
X174903036Y-60884253D01*
X174963186Y-60882362D01*
X174967145Y-60882300D01*
X174995056Y-60882300D01*
X174998991Y-60881803D01*
X174999056Y-60881795D01*
X175010893Y-60880862D01*
X175043151Y-60879848D01*
X175047170Y-60879722D01*
X175055089Y-60879473D01*
X175074543Y-60873821D01*
X175093900Y-60869813D01*
X175106130Y-60868268D01*
X175106131Y-60868268D01*
X175113997Y-60867274D01*
X175121368Y-60864355D01*
X175121370Y-60864355D01*
X175155112Y-60850996D01*
X175166342Y-60847151D01*
X175201183Y-60837029D01*
X175201184Y-60837029D01*
X175208793Y-60834818D01*
X175215612Y-60830785D01*
X175215617Y-60830783D01*
X175226228Y-60824507D01*
X175243976Y-60815812D01*
X175262817Y-60808352D01*
X175274429Y-60799916D01*
X175298587Y-60782364D01*
X175308507Y-60775848D01*
X175339735Y-60757380D01*
X175339738Y-60757378D01*
X175346562Y-60753342D01*
X175360883Y-60739021D01*
X175375917Y-60726180D01*
X175385894Y-60718931D01*
X175392307Y-60714272D01*
X175420498Y-60680195D01*
X175428488Y-60671416D01*
X176706299Y-59393605D01*
X176768611Y-59359579D01*
X176795394Y-59356700D01*
X177060404Y-59356700D01*
X177128525Y-59376702D01*
X177168122Y-59417333D01*
X177234377Y-59526517D01*
X177237874Y-59530547D01*
X177360729Y-59672125D01*
X177385477Y-59700645D01*
X177389608Y-59704032D01*
X177559627Y-59843440D01*
X177559633Y-59843444D01*
X177563755Y-59846824D01*
X177595250Y-59864752D01*
X177644555Y-59915832D01*
X177658417Y-59985462D01*
X177632434Y-60051533D01*
X177603284Y-60078773D01*
X177481681Y-60160641D01*
X177314865Y-60319776D01*
X177177246Y-60504742D01*
X177174830Y-60509493D01*
X177174828Y-60509497D01*
X177164037Y-60530722D01*
X177072760Y-60710251D01*
X177071178Y-60715345D01*
X177071177Y-60715348D01*
X177017912Y-60886888D01*
X177004393Y-60930427D01*
X177003692Y-60935716D01*
X176980951Y-61107300D01*
X176974102Y-61158974D01*
X176974302Y-61164303D01*
X176974302Y-61164305D01*
X176974428Y-61167651D01*
X176982751Y-61389358D01*
X177030093Y-61614991D01*
X177032051Y-61619950D01*
X177032052Y-61619952D01*
X177087013Y-61759120D01*
X177114776Y-61829421D01*
X177117543Y-61833980D01*
X177117544Y-61833983D01*
X177179998Y-61936903D01*
X177234377Y-62026517D01*
X177237874Y-62030547D01*
X177376983Y-62190856D01*
X177385477Y-62200645D01*
X177389608Y-62204032D01*
X177559627Y-62343440D01*
X177559633Y-62343444D01*
X177563755Y-62346824D01*
X177595250Y-62364752D01*
X177644555Y-62415832D01*
X177658417Y-62485462D01*
X177632434Y-62551533D01*
X177603284Y-62578773D01*
X177481681Y-62660641D01*
X177477824Y-62664320D01*
X177477822Y-62664322D01*
X177430107Y-62709840D01*
X177314865Y-62819776D01*
X177177246Y-63004742D01*
X177174830Y-63009493D01*
X177174828Y-63009497D01*
X177125003Y-63107496D01*
X177072760Y-63210251D01*
X177071178Y-63215345D01*
X177071177Y-63215348D01*
X177022968Y-63370605D01*
X177004393Y-63430427D01*
X177003692Y-63435716D01*
X176977620Y-63632432D01*
X176974102Y-63658974D01*
X176982751Y-63889358D01*
X176983846Y-63894577D01*
X176998363Y-63963765D01*
X177030093Y-64114991D01*
X177032051Y-64119950D01*
X177032052Y-64119952D01*
X177106438Y-64308307D01*
X177114776Y-64329421D01*
X177117543Y-64333980D01*
X177117544Y-64333983D01*
X177179998Y-64436903D01*
X177234377Y-64526517D01*
X177237874Y-64530547D01*
X177376983Y-64690856D01*
X177385477Y-64700645D01*
X177397347Y-64710378D01*
X177559627Y-64843440D01*
X177559633Y-64843444D01*
X177563755Y-64846824D01*
X177595250Y-64864752D01*
X177644555Y-64915832D01*
X177658417Y-64985462D01*
X177632434Y-65051533D01*
X177603284Y-65078773D01*
X177481681Y-65160641D01*
X177314865Y-65319776D01*
X177177246Y-65504742D01*
X177174830Y-65509493D01*
X177174828Y-65509497D01*
X177164037Y-65530722D01*
X177072760Y-65710251D01*
X177071178Y-65715345D01*
X177071177Y-65715348D01*
X177024131Y-65866860D01*
X177004393Y-65930427D01*
X177003692Y-65935716D01*
X176988275Y-66052040D01*
X176974102Y-66158974D01*
X176982751Y-66389358D01*
X177030093Y-66614991D01*
X177032051Y-66619950D01*
X177032052Y-66619952D01*
X177083580Y-66750427D01*
X177114776Y-66829421D01*
X177117543Y-66833980D01*
X177117544Y-66833983D01*
X177168856Y-66918542D01*
X177234377Y-67026517D01*
X177237874Y-67030547D01*
X177376983Y-67190856D01*
X177385477Y-67200645D01*
X177389608Y-67204032D01*
X177559627Y-67343440D01*
X177559633Y-67343444D01*
X177563755Y-67346824D01*
X177595250Y-67364752D01*
X177644555Y-67415832D01*
X177658417Y-67485462D01*
X177632434Y-67551533D01*
X177603284Y-67578773D01*
X177481681Y-67660641D01*
X177477824Y-67664320D01*
X177477822Y-67664322D01*
X177468673Y-67673050D01*
X177314865Y-67819776D01*
X177177246Y-68004742D01*
X177174830Y-68009493D01*
X177174828Y-68009497D01*
X177140405Y-68077203D01*
X177072760Y-68210251D01*
X177071178Y-68215345D01*
X177071177Y-68215348D01*
X177024131Y-68366860D01*
X177004393Y-68430427D01*
X177003692Y-68435716D01*
X176976588Y-68640218D01*
X176974102Y-68658974D01*
X176982751Y-68889358D01*
X177030093Y-69114991D01*
X177032051Y-69119950D01*
X177032052Y-69119952D01*
X177103935Y-69301969D01*
X177114776Y-69329421D01*
X177117543Y-69333980D01*
X177117544Y-69333983D01*
X177179998Y-69436903D01*
X177234377Y-69526517D01*
X177237874Y-69530547D01*
X177376983Y-69690856D01*
X177385477Y-69700645D01*
X177389603Y-69704028D01*
X177389607Y-69704032D01*
X177435018Y-69741266D01*
X177475012Y-69799925D01*
X177476944Y-69870896D01*
X177440200Y-69931644D01*
X177376445Y-69962883D01*
X177355127Y-69964700D01*
X149998900Y-69964700D01*
X149930779Y-69944698D01*
X149884286Y-69891042D01*
X149872900Y-69838700D01*
X149872900Y-66246526D01*
X163642650Y-66246526D01*
X163642874Y-66251192D01*
X163642874Y-66251197D01*
X163644779Y-66290851D01*
X163655547Y-66515019D01*
X163707988Y-66778656D01*
X163798820Y-67031646D01*
X163926050Y-67268431D01*
X163928841Y-67272168D01*
X163928845Y-67272175D01*
X164000123Y-67367627D01*
X164086881Y-67483810D01*
X164090190Y-67487090D01*
X164090195Y-67487096D01*
X164256706Y-67652159D01*
X164277780Y-67673050D01*
X164281542Y-67675808D01*
X164281545Y-67675811D01*
X164393899Y-67758192D01*
X164494554Y-67831995D01*
X164498689Y-67834171D01*
X164498693Y-67834173D01*
X164661600Y-67919883D01*
X164732440Y-67957154D01*
X164767393Y-67969360D01*
X164943108Y-68030722D01*
X164986213Y-68045775D01*
X164990806Y-68046647D01*
X165245709Y-68095042D01*
X165245712Y-68095042D01*
X165250298Y-68095913D01*
X165377970Y-68100929D01*
X165514225Y-68106283D01*
X165514230Y-68106283D01*
X165518893Y-68106466D01*
X165623207Y-68095042D01*
X165781444Y-68077713D01*
X165781450Y-68077712D01*
X165786097Y-68077203D01*
X165790621Y-68076012D01*
X166041518Y-68009956D01*
X166041520Y-68009955D01*
X166046041Y-68008765D01*
X166055405Y-68004742D01*
X166288720Y-67904502D01*
X166288722Y-67904501D01*
X166293014Y-67902657D01*
X166420035Y-67824054D01*
X166517617Y-67763669D01*
X166517621Y-67763666D01*
X166521590Y-67761210D01*
X166703147Y-67607511D01*
X169035600Y-67607511D01*
X169036807Y-67619766D01*
X169044783Y-67659864D01*
X169054099Y-67682355D01*
X169084515Y-67727876D01*
X169101724Y-67745085D01*
X169147245Y-67775501D01*
X169169736Y-67784817D01*
X169209834Y-67792793D01*
X169222089Y-67794000D01*
X170267485Y-67794000D01*
X170282724Y-67789525D01*
X170283929Y-67788135D01*
X170285600Y-67780452D01*
X170285600Y-67775885D01*
X170785600Y-67775885D01*
X170790075Y-67791124D01*
X170791465Y-67792329D01*
X170799148Y-67794000D01*
X171849111Y-67794000D01*
X171861366Y-67792793D01*
X171901464Y-67784817D01*
X171923955Y-67775501D01*
X171969476Y-67745085D01*
X171986685Y-67727876D01*
X172017101Y-67682355D01*
X172026417Y-67659864D01*
X172034393Y-67619766D01*
X172035600Y-67607511D01*
X172035600Y-66562115D01*
X172031125Y-66546876D01*
X172029735Y-66545671D01*
X172022052Y-66544000D01*
X170803715Y-66544000D01*
X170788476Y-66548475D01*
X170787271Y-66549865D01*
X170785600Y-66557548D01*
X170785600Y-67775885D01*
X170285600Y-67775885D01*
X170285600Y-66562115D01*
X170281125Y-66546876D01*
X170279735Y-66545671D01*
X170272052Y-66544000D01*
X169053715Y-66544000D01*
X169038476Y-66548475D01*
X169037271Y-66549865D01*
X169035600Y-66557548D01*
X169035600Y-67607511D01*
X166703147Y-67607511D01*
X166726749Y-67587530D01*
X166903982Y-67385434D01*
X166917287Y-67364750D01*
X167046869Y-67163291D01*
X167049397Y-67159361D01*
X167159799Y-66914278D01*
X167196809Y-66783051D01*
X167231493Y-66660072D01*
X167231494Y-66660069D01*
X167232763Y-66655568D01*
X167251195Y-66510684D01*
X167266288Y-66392045D01*
X167266288Y-66392041D01*
X167266686Y-66388915D01*
X167269171Y-66294000D01*
X167250260Y-66039525D01*
X167249596Y-66030592D01*
X167249596Y-66030591D01*
X167249250Y-66025937D01*
X167249238Y-66025885D01*
X169035600Y-66025885D01*
X169040075Y-66041124D01*
X169041465Y-66042329D01*
X169049148Y-66044000D01*
X170267485Y-66044000D01*
X170282724Y-66039525D01*
X170283929Y-66038135D01*
X170285600Y-66030452D01*
X170285600Y-66025885D01*
X170785600Y-66025885D01*
X170790075Y-66041124D01*
X170791465Y-66042329D01*
X170799148Y-66044000D01*
X172017485Y-66044000D01*
X172032724Y-66039525D01*
X172033929Y-66038135D01*
X172035600Y-66030452D01*
X172035600Y-64980489D01*
X172034393Y-64968234D01*
X172026417Y-64928136D01*
X172017101Y-64905645D01*
X171986685Y-64860124D01*
X171969476Y-64842915D01*
X171923955Y-64812499D01*
X171901464Y-64803183D01*
X171861366Y-64795207D01*
X171849111Y-64794000D01*
X170803715Y-64794000D01*
X170788476Y-64798475D01*
X170787271Y-64799865D01*
X170785600Y-64807548D01*
X170785600Y-66025885D01*
X170285600Y-66025885D01*
X170285600Y-64812115D01*
X170281125Y-64796876D01*
X170279735Y-64795671D01*
X170272052Y-64794000D01*
X169222089Y-64794000D01*
X169209834Y-64795207D01*
X169169736Y-64803183D01*
X169147245Y-64812499D01*
X169101724Y-64842915D01*
X169084515Y-64860124D01*
X169054099Y-64905645D01*
X169044783Y-64928136D01*
X169036807Y-64968234D01*
X169035600Y-64980489D01*
X169035600Y-66025885D01*
X167249238Y-66025885D01*
X167239701Y-65983735D01*
X167190961Y-65768331D01*
X167190960Y-65768326D01*
X167189927Y-65763763D01*
X167092502Y-65513238D01*
X166959118Y-65279864D01*
X166944458Y-65261267D01*
X166893016Y-65196014D01*
X166792705Y-65068769D01*
X166596917Y-64884591D01*
X166376057Y-64731374D01*
X166371864Y-64729306D01*
X166139164Y-64614551D01*
X166139161Y-64614550D01*
X166134976Y-64612486D01*
X166118788Y-64607304D01*
X166033221Y-64579914D01*
X165878970Y-64530538D01*
X165874363Y-64529788D01*
X165874360Y-64529787D01*
X165618274Y-64488081D01*
X165618275Y-64488081D01*
X165613663Y-64487330D01*
X165483319Y-64485624D01*
X165349561Y-64483873D01*
X165349558Y-64483873D01*
X165344884Y-64483812D01*
X165078537Y-64520060D01*
X165074051Y-64521368D01*
X165074049Y-64521368D01*
X165056384Y-64526517D01*
X164820474Y-64595278D01*
X164816221Y-64597238D01*
X164816220Y-64597239D01*
X164786234Y-64611063D01*
X164576363Y-64707815D01*
X164572454Y-64710378D01*
X164355481Y-64852631D01*
X164355476Y-64852635D01*
X164351568Y-64855197D01*
X164307122Y-64894867D01*
X164211191Y-64980489D01*
X164151026Y-65034188D01*
X163979144Y-65240854D01*
X163976721Y-65244847D01*
X163855160Y-65445173D01*
X163839696Y-65470656D01*
X163837887Y-65474970D01*
X163837885Y-65474974D01*
X163816052Y-65527041D01*
X163735748Y-65718545D01*
X163669581Y-65979077D01*
X163642650Y-66246526D01*
X149872900Y-66246526D01*
X149872900Y-63516195D01*
X149873978Y-63499748D01*
X149876146Y-63483283D01*
X149876146Y-63483279D01*
X149876879Y-63477713D01*
X149873040Y-63396310D01*
X149872900Y-63390375D01*
X149872900Y-63367801D01*
X149870581Y-63341813D01*
X149870222Y-63336550D01*
X149867101Y-63270377D01*
X149866296Y-63253311D01*
X149865045Y-63247848D01*
X149865044Y-63247842D01*
X149862293Y-63235832D01*
X149859611Y-63218899D01*
X149858516Y-63206632D01*
X149858017Y-63201038D01*
X149855122Y-63190454D01*
X149836027Y-63120659D01*
X149834741Y-63115539D01*
X149817394Y-63039798D01*
X149816142Y-63034330D01*
X149809106Y-63017833D01*
X149803473Y-63001658D01*
X149800218Y-62989761D01*
X149800217Y-62989757D01*
X149798737Y-62984349D01*
X149762861Y-62909133D01*
X149760690Y-62904324D01*
X149730204Y-62832851D01*
X149730204Y-62832850D01*
X149728003Y-62827691D01*
X149718149Y-62812690D01*
X149709743Y-62797770D01*
X149704435Y-62786641D01*
X149702022Y-62781582D01*
X149698754Y-62777034D01*
X149698751Y-62777029D01*
X149653398Y-62713914D01*
X149650409Y-62709565D01*
X149604665Y-62639925D01*
X149586147Y-62619141D01*
X149577898Y-62608845D01*
X149574204Y-62603704D01*
X149570929Y-62599146D01*
X149494177Y-62524768D01*
X149492767Y-62523379D01*
X148374125Y-61404737D01*
X148363257Y-61392346D01*
X148353133Y-61379152D01*
X148349723Y-61374708D01*
X148289426Y-61319842D01*
X148285131Y-61315743D01*
X148269190Y-61299802D01*
X148261580Y-61293439D01*
X148249177Y-61283068D01*
X148245202Y-61279600D01*
X148187712Y-61227288D01*
X148187703Y-61227281D01*
X148183564Y-61223515D01*
X148168373Y-61213986D01*
X148154507Y-61203911D01*
X148145051Y-61196004D01*
X148145041Y-61195997D01*
X148140746Y-61192406D01*
X148068352Y-61151113D01*
X148063832Y-61148408D01*
X147998004Y-61107114D01*
X147998001Y-61107112D01*
X147993256Y-61104136D01*
X147988051Y-61102043D01*
X147988048Y-61102042D01*
X147976621Y-61097448D01*
X147961189Y-61089988D01*
X147950481Y-61083880D01*
X147950472Y-61083876D01*
X147945607Y-61081101D01*
X147940330Y-61079232D01*
X147940325Y-61079230D01*
X147867058Y-61053285D01*
X147862122Y-61051420D01*
X147790016Y-61022434D01*
X147784817Y-61020344D01*
X147779330Y-61019208D01*
X147779328Y-61019207D01*
X147767251Y-61016706D01*
X147750756Y-61012101D01*
X147733841Y-61006111D01*
X147651590Y-60992641D01*
X147646420Y-60991683D01*
X147564833Y-60974787D01*
X147560221Y-60974521D01*
X147560220Y-60974521D01*
X147537052Y-60973185D01*
X147523947Y-60971738D01*
X147517690Y-60970714D01*
X147517686Y-60970714D01*
X147512143Y-60969806D01*
X147506530Y-60969894D01*
X147506528Y-60969894D01*
X147405336Y-60971484D01*
X147403357Y-60971500D01*
X138241478Y-60971500D01*
X138173357Y-60951498D01*
X138152383Y-60934595D01*
X137591805Y-60374017D01*
X137557779Y-60311705D01*
X137554900Y-60284922D01*
X137554900Y-57728100D01*
X137574902Y-57659979D01*
X137628558Y-57613486D01*
X137680900Y-57602100D01*
X137859832Y-57602100D01*
X137866285Y-57600728D01*
X137866289Y-57600728D01*
X137948092Y-57583340D01*
X138036352Y-57564580D01*
X138103075Y-57534873D01*
X138195185Y-57493863D01*
X138195187Y-57493862D01*
X138201215Y-57491178D01*
X138208996Y-57485525D01*
X138341869Y-57388987D01*
X138341871Y-57388985D01*
X138347213Y-57385104D01*
X138365585Y-57364700D01*
X138463548Y-57255901D01*
X138463549Y-57255900D01*
X138467967Y-57250993D01*
X138553122Y-57103501D01*
X138554895Y-57100430D01*
X138554896Y-57100429D01*
X138558199Y-57094707D01*
X138613965Y-56923075D01*
X138632829Y-56743600D01*
X138613965Y-56564125D01*
X138558199Y-56392493D01*
X138467967Y-56236207D01*
X138435464Y-56200109D01*
X138404747Y-56136101D01*
X138403100Y-56115798D01*
X138403100Y-56029900D01*
X138423102Y-55961779D01*
X138476758Y-55915286D01*
X138529100Y-55903900D01*
X154505633Y-55903900D01*
X154516816Y-55904427D01*
X154524309Y-55906102D01*
X154532235Y-55905853D01*
X154532236Y-55905853D01*
X154592386Y-55903962D01*
X154596345Y-55903900D01*
X154624256Y-55903900D01*
X154628191Y-55903403D01*
X154628256Y-55903395D01*
X154640093Y-55902462D01*
X154672351Y-55901448D01*
X154676370Y-55901322D01*
X154684289Y-55901073D01*
X154703743Y-55895421D01*
X154723100Y-55891413D01*
X154735330Y-55889868D01*
X154735331Y-55889868D01*
X154743197Y-55888874D01*
X154750568Y-55885955D01*
X154750570Y-55885955D01*
X154784312Y-55872596D01*
X154795542Y-55868751D01*
X154830383Y-55858629D01*
X154830384Y-55858629D01*
X154837993Y-55856418D01*
X154844812Y-55852385D01*
X154844817Y-55852383D01*
X154855428Y-55846107D01*
X154873176Y-55837412D01*
X154892017Y-55829952D01*
X154927787Y-55803964D01*
X154937707Y-55797448D01*
X154968935Y-55778980D01*
X154968938Y-55778978D01*
X154975762Y-55774942D01*
X154990083Y-55760621D01*
X155005117Y-55747780D01*
X155015094Y-55740531D01*
X155021507Y-55735872D01*
X155049698Y-55701795D01*
X155057688Y-55693016D01*
X156178135Y-54572570D01*
X156178138Y-54572566D01*
X157669047Y-53081657D01*
X157677337Y-53074113D01*
X157683818Y-53070000D01*
X157730459Y-53020332D01*
X157733213Y-53017491D01*
X157752935Y-52997769D01*
X157755412Y-52994576D01*
X157763117Y-52985555D01*
X157776344Y-52971469D01*
X157793386Y-52953321D01*
X157799242Y-52942669D01*
X157803146Y-52935568D01*
X157814002Y-52919041D01*
X157821557Y-52909302D01*
X157821558Y-52909300D01*
X157826414Y-52903040D01*
X157843974Y-52862460D01*
X157849191Y-52851812D01*
X157866675Y-52820009D01*
X157866676Y-52820007D01*
X157870495Y-52813060D01*
X157875533Y-52793437D01*
X157881937Y-52774734D01*
X157886833Y-52763420D01*
X157886833Y-52763419D01*
X157889981Y-52756145D01*
X157891220Y-52748322D01*
X157891223Y-52748312D01*
X157896899Y-52712476D01*
X157899305Y-52700856D01*
X157908328Y-52665711D01*
X157908328Y-52665710D01*
X157910300Y-52658030D01*
X157910300Y-52637776D01*
X157911851Y-52618065D01*
X157913780Y-52605886D01*
X157915020Y-52598057D01*
X157910859Y-52554038D01*
X157910300Y-52542181D01*
X157910300Y-50869002D01*
X157930302Y-50800881D01*
X157942664Y-50784691D01*
X157970748Y-50753501D01*
X157970749Y-50753500D01*
X157975167Y-50748593D01*
X158034463Y-50645889D01*
X158062095Y-50598030D01*
X158062096Y-50598029D01*
X158065399Y-50592307D01*
X158121165Y-50420675D01*
X158138368Y-50257000D01*
X158165381Y-50191345D01*
X158223603Y-50150715D01*
X158294548Y-50148012D01*
X158352773Y-50181077D01*
X160233362Y-52061666D01*
X160264100Y-52111825D01*
X160298715Y-52218358D01*
X160305836Y-52240275D01*
X160391600Y-52375418D01*
X160508279Y-52484986D01*
X160648540Y-52562095D01*
X160803570Y-52601900D01*
X164123064Y-52601900D01*
X164191185Y-52621902D01*
X164237678Y-52675558D01*
X164247782Y-52745832D01*
X164218288Y-52810412D01*
X164158219Y-52848896D01*
X164135207Y-52855582D01*
X164128381Y-52859619D01*
X164117772Y-52865893D01*
X164100024Y-52874588D01*
X164081183Y-52882048D01*
X164074767Y-52886710D01*
X164074766Y-52886710D01*
X164045413Y-52908036D01*
X164035493Y-52914552D01*
X164004265Y-52933020D01*
X164004262Y-52933022D01*
X163997438Y-52937058D01*
X163983117Y-52951379D01*
X163968084Y-52964219D01*
X163951693Y-52976128D01*
X163936408Y-52994604D01*
X163923502Y-53010205D01*
X163915512Y-53018984D01*
X162015347Y-54919148D01*
X162007061Y-54926688D01*
X162000582Y-54930800D01*
X161995157Y-54936577D01*
X161953957Y-54980451D01*
X161951202Y-54983293D01*
X161931465Y-55003030D01*
X161928985Y-55006227D01*
X161921282Y-55015247D01*
X161891014Y-55047479D01*
X161887195Y-55054425D01*
X161887193Y-55054428D01*
X161881252Y-55065234D01*
X161870401Y-55081753D01*
X161857986Y-55097759D01*
X161854841Y-55105028D01*
X161854838Y-55105032D01*
X161840426Y-55138337D01*
X161835209Y-55148987D01*
X161813905Y-55187740D01*
X161811934Y-55195415D01*
X161811934Y-55195416D01*
X161808867Y-55207362D01*
X161802463Y-55226066D01*
X161794419Y-55244655D01*
X161793180Y-55252478D01*
X161793177Y-55252488D01*
X161787501Y-55288324D01*
X161785095Y-55299944D01*
X161782098Y-55311617D01*
X161774100Y-55342770D01*
X161774100Y-55363024D01*
X161772549Y-55382734D01*
X161769380Y-55402743D01*
X161770126Y-55410635D01*
X161773541Y-55446761D01*
X161774100Y-55458619D01*
X161774100Y-55963398D01*
X161754098Y-56031519D01*
X161741737Y-56047708D01*
X161709233Y-56083807D01*
X161705930Y-56089528D01*
X161640401Y-56203028D01*
X161619001Y-56240093D01*
X161563235Y-56411725D01*
X161544371Y-56591200D01*
X161545061Y-56597765D01*
X161562260Y-56761394D01*
X161563235Y-56770675D01*
X161619001Y-56942307D01*
X161622304Y-56948029D01*
X161622305Y-56948030D01*
X161632315Y-56965368D01*
X161709233Y-57098593D01*
X161713651Y-57103500D01*
X161713652Y-57103501D01*
X161825565Y-57227793D01*
X161829987Y-57232704D01*
X161835329Y-57236585D01*
X161835331Y-57236587D01*
X161970643Y-57334897D01*
X161975985Y-57338778D01*
X161982013Y-57341462D01*
X161982015Y-57341463D01*
X162134817Y-57409495D01*
X162140848Y-57412180D01*
X162220447Y-57429099D01*
X162310911Y-57448328D01*
X162310915Y-57448328D01*
X162317368Y-57449700D01*
X162497832Y-57449700D01*
X162504285Y-57448328D01*
X162504289Y-57448328D01*
X162594753Y-57429099D01*
X162674352Y-57412180D01*
X162680383Y-57409495D01*
X162833185Y-57341463D01*
X162833187Y-57341462D01*
X162839215Y-57338778D01*
X162844557Y-57334897D01*
X162846476Y-57333503D01*
X168934343Y-57333503D01*
X168934902Y-57337747D01*
X168934902Y-57337751D01*
X168949460Y-57448328D01*
X168971868Y-57618534D01*
X169047729Y-57895836D01*
X169049413Y-57899784D01*
X169157224Y-58152541D01*
X169160523Y-58160276D01*
X169216059Y-58253070D01*
X169272534Y-58347432D01*
X169308161Y-58406961D01*
X169487913Y-58631328D01*
X169696451Y-58829223D01*
X169929917Y-58996986D01*
X169933712Y-58998995D01*
X169933713Y-58998996D01*
X169955469Y-59010515D01*
X170183992Y-59131512D01*
X170453973Y-59230311D01*
X170734864Y-59291555D01*
X170763441Y-59293804D01*
X170957882Y-59309107D01*
X170957891Y-59309107D01*
X170960339Y-59309300D01*
X171115871Y-59309300D01*
X171118007Y-59309154D01*
X171118018Y-59309154D01*
X171326148Y-59294965D01*
X171326154Y-59294964D01*
X171330425Y-59294673D01*
X171334620Y-59293804D01*
X171334622Y-59293804D01*
X171590067Y-59240904D01*
X171611942Y-59236374D01*
X171882943Y-59140407D01*
X172124030Y-59015973D01*
X172134605Y-59010515D01*
X172134606Y-59010515D01*
X172138412Y-59008550D01*
X172141913Y-59006089D01*
X172141917Y-59006087D01*
X172256018Y-58925895D01*
X172373623Y-58843241D01*
X172584222Y-58647540D01*
X172766313Y-58425068D01*
X172916527Y-58179942D01*
X172936268Y-58134972D01*
X173030357Y-57920630D01*
X173032083Y-57916698D01*
X173041483Y-57883701D01*
X173079629Y-57749788D01*
X173110844Y-57640206D01*
X173151351Y-57355584D01*
X173151440Y-57338778D01*
X173152835Y-57072383D01*
X173152835Y-57072376D01*
X173152857Y-57068097D01*
X173139333Y-56965368D01*
X173134591Y-56929354D01*
X173115332Y-56783066D01*
X173039471Y-56505764D01*
X173006631Y-56428773D01*
X172928363Y-56245276D01*
X172928361Y-56245272D01*
X172926677Y-56241324D01*
X172828122Y-56076651D01*
X172781243Y-55998321D01*
X172781240Y-55998317D01*
X172779039Y-55994639D01*
X172599287Y-55770272D01*
X172390749Y-55572377D01*
X172157283Y-55404614D01*
X172135443Y-55393050D01*
X172055455Y-55350699D01*
X171903208Y-55270088D01*
X171699157Y-55195416D01*
X171637258Y-55172764D01*
X171637256Y-55172763D01*
X171633227Y-55171289D01*
X171352336Y-55110045D01*
X171321285Y-55107601D01*
X171129318Y-55092493D01*
X171129309Y-55092493D01*
X171126861Y-55092300D01*
X170971329Y-55092300D01*
X170969193Y-55092446D01*
X170969182Y-55092446D01*
X170761052Y-55106635D01*
X170761046Y-55106636D01*
X170756775Y-55106927D01*
X170752580Y-55107796D01*
X170752578Y-55107796D01*
X170676302Y-55123592D01*
X170475258Y-55165226D01*
X170204257Y-55261193D01*
X169948788Y-55393050D01*
X169945287Y-55395511D01*
X169945283Y-55395513D01*
X169879276Y-55441904D01*
X169713577Y-55558359D01*
X169699399Y-55571534D01*
X169520913Y-55737394D01*
X169502978Y-55754060D01*
X169320887Y-55976532D01*
X169170673Y-56221658D01*
X169055117Y-56484902D01*
X168976356Y-56761394D01*
X168935849Y-57046016D01*
X168935827Y-57050305D01*
X168935826Y-57050312D01*
X168934365Y-57329217D01*
X168934343Y-57333503D01*
X162846476Y-57333503D01*
X162979869Y-57236587D01*
X162979871Y-57236585D01*
X162985213Y-57232704D01*
X162989635Y-57227793D01*
X163101548Y-57103501D01*
X163101549Y-57103500D01*
X163105967Y-57098593D01*
X163182885Y-56965368D01*
X163192895Y-56948030D01*
X163192896Y-56948029D01*
X163196199Y-56942307D01*
X163251965Y-56770675D01*
X163252941Y-56761394D01*
X163270139Y-56597765D01*
X163270829Y-56591200D01*
X163251965Y-56411725D01*
X163196199Y-56240093D01*
X163174800Y-56203028D01*
X163109270Y-56089528D01*
X163105967Y-56083807D01*
X163073464Y-56047709D01*
X163042747Y-55983701D01*
X163041100Y-55963398D01*
X163041100Y-55737394D01*
X163061102Y-55669273D01*
X163078005Y-55648299D01*
X164614300Y-54112005D01*
X164676612Y-54077979D01*
X164703395Y-54075100D01*
X170761633Y-54075100D01*
X170772816Y-54075627D01*
X170780309Y-54077302D01*
X170788235Y-54077053D01*
X170788236Y-54077053D01*
X170848386Y-54075162D01*
X170852345Y-54075100D01*
X170880256Y-54075100D01*
X170884191Y-54074603D01*
X170884256Y-54074595D01*
X170896093Y-54073662D01*
X170928351Y-54072648D01*
X170932370Y-54072522D01*
X170940289Y-54072273D01*
X170959743Y-54066621D01*
X170979100Y-54062613D01*
X170991330Y-54061068D01*
X170991331Y-54061068D01*
X170999197Y-54060074D01*
X171006568Y-54057155D01*
X171006570Y-54057155D01*
X171040312Y-54043796D01*
X171051542Y-54039951D01*
X171086383Y-54029829D01*
X171086384Y-54029829D01*
X171093993Y-54027618D01*
X171100812Y-54023585D01*
X171100817Y-54023583D01*
X171111428Y-54017307D01*
X171129176Y-54008612D01*
X171148017Y-54001152D01*
X171171521Y-53984076D01*
X171183787Y-53975164D01*
X171193707Y-53968648D01*
X171224935Y-53950180D01*
X171224938Y-53950178D01*
X171231762Y-53946142D01*
X171246083Y-53931821D01*
X171261117Y-53918980D01*
X171271094Y-53911731D01*
X171277507Y-53907072D01*
X171305698Y-53872995D01*
X171313688Y-53864216D01*
X171943847Y-53234057D01*
X171952137Y-53226513D01*
X171958618Y-53222400D01*
X172005259Y-53172732D01*
X172008013Y-53169891D01*
X172027735Y-53150169D01*
X172030219Y-53146967D01*
X172037917Y-53137955D01*
X172062761Y-53111498D01*
X172068186Y-53105721D01*
X172077947Y-53087966D01*
X172088798Y-53071447D01*
X172101214Y-53055441D01*
X172104364Y-53048162D01*
X172118774Y-53014863D01*
X172123991Y-53004213D01*
X172145295Y-52965460D01*
X172150333Y-52945837D01*
X172156737Y-52927134D01*
X172161633Y-52915820D01*
X172161633Y-52915819D01*
X172164781Y-52908545D01*
X172166020Y-52900722D01*
X172166023Y-52900712D01*
X172171699Y-52864876D01*
X172174105Y-52853256D01*
X172183128Y-52818111D01*
X172183128Y-52818110D01*
X172185100Y-52810430D01*
X172185100Y-52790176D01*
X172186651Y-52770465D01*
X172188580Y-52758286D01*
X172189820Y-52750457D01*
X172185659Y-52706438D01*
X172185100Y-52694581D01*
X172185100Y-49853002D01*
X172205102Y-49784881D01*
X172217464Y-49768691D01*
X172245548Y-49737501D01*
X172245549Y-49737500D01*
X172249967Y-49732593D01*
X172340199Y-49576307D01*
X172395965Y-49404675D01*
X172398309Y-49382379D01*
X172414139Y-49231765D01*
X172414829Y-49225200D01*
X172407802Y-49158346D01*
X172396655Y-49052289D01*
X172396655Y-49052288D01*
X172395965Y-49045725D01*
X172340199Y-48874093D01*
X172249967Y-48717807D01*
X172148936Y-48605600D01*
X172133635Y-48588607D01*
X172133634Y-48588606D01*
X172129213Y-48583696D01*
X171983215Y-48477622D01*
X171977187Y-48474938D01*
X171977185Y-48474937D01*
X171824383Y-48406905D01*
X171824381Y-48406905D01*
X171818352Y-48404220D01*
X171730092Y-48385460D01*
X171648289Y-48368072D01*
X171648285Y-48368072D01*
X171641832Y-48366700D01*
X171461368Y-48366700D01*
X171454915Y-48368072D01*
X171454911Y-48368072D01*
X171373108Y-48385460D01*
X171284848Y-48404220D01*
X171278819Y-48406904D01*
X171278817Y-48406905D01*
X171126016Y-48474937D01*
X171126014Y-48474938D01*
X171119986Y-48477622D01*
X171114645Y-48481502D01*
X171114644Y-48481503D01*
X170979331Y-48579813D01*
X170979329Y-48579815D01*
X170973987Y-48583696D01*
X170969566Y-48588606D01*
X170969565Y-48588607D01*
X170954265Y-48605600D01*
X170853233Y-48717807D01*
X170763001Y-48874093D01*
X170707235Y-49045725D01*
X170706545Y-49052288D01*
X170706545Y-49052289D01*
X170695398Y-49158346D01*
X170688371Y-49225200D01*
X170689061Y-49231765D01*
X170704892Y-49382379D01*
X170707235Y-49404675D01*
X170763001Y-49576307D01*
X170853233Y-49732593D01*
X170857651Y-49737500D01*
X170857652Y-49737501D01*
X170885736Y-49768691D01*
X170916453Y-49832699D01*
X170918100Y-49853002D01*
X170918100Y-51050166D01*
X170898098Y-51118287D01*
X170844442Y-51164780D01*
X170774168Y-51174884D01*
X170740852Y-51165273D01*
X170706787Y-51150106D01*
X170706779Y-51150103D01*
X170700752Y-51147420D01*
X170612492Y-51128660D01*
X170530689Y-51111272D01*
X170530685Y-51111272D01*
X170524232Y-51109900D01*
X170343768Y-51109900D01*
X170337315Y-51111272D01*
X170337311Y-51111272D01*
X170255508Y-51128660D01*
X170167248Y-51147420D01*
X170161219Y-51150104D01*
X170161217Y-51150105D01*
X170008416Y-51218137D01*
X170008414Y-51218138D01*
X170002386Y-51220822D01*
X169997045Y-51224702D01*
X169997044Y-51224703D01*
X169878492Y-51310836D01*
X169804431Y-51334900D01*
X161350595Y-51334900D01*
X161282474Y-51314898D01*
X161261500Y-51297995D01*
X157448561Y-47485056D01*
X157414535Y-47422744D01*
X157419600Y-47351929D01*
X157462147Y-47295093D01*
X157528667Y-47270282D01*
X157563852Y-47272714D01*
X157622394Y-47285157D01*
X157643768Y-47289700D01*
X157824232Y-47289700D01*
X157830685Y-47288328D01*
X157830689Y-47288328D01*
X157915588Y-47270282D01*
X158000752Y-47252180D01*
X158110745Y-47203208D01*
X158159585Y-47181463D01*
X158159587Y-47181462D01*
X158165615Y-47178778D01*
X158289509Y-47088764D01*
X158356375Y-47064906D01*
X158363569Y-47064700D01*
X166291233Y-47064700D01*
X166302416Y-47065227D01*
X166309909Y-47066902D01*
X166317835Y-47066653D01*
X166317836Y-47066653D01*
X166377986Y-47064762D01*
X166381945Y-47064700D01*
X166409856Y-47064700D01*
X166413791Y-47064203D01*
X166413856Y-47064195D01*
X166425693Y-47063262D01*
X166457951Y-47062248D01*
X166461970Y-47062122D01*
X166469889Y-47061873D01*
X166489343Y-47056221D01*
X166508700Y-47052213D01*
X166520930Y-47050668D01*
X166520931Y-47050668D01*
X166528797Y-47049674D01*
X166536168Y-47046755D01*
X166536170Y-47046755D01*
X166569912Y-47033396D01*
X166581142Y-47029551D01*
X166615983Y-47019429D01*
X166615984Y-47019429D01*
X166623593Y-47017218D01*
X166630412Y-47013185D01*
X166630417Y-47013183D01*
X166641028Y-47006907D01*
X166658776Y-46998212D01*
X166677617Y-46990752D01*
X166713387Y-46964764D01*
X166723307Y-46958248D01*
X166754535Y-46939780D01*
X166754538Y-46939778D01*
X166761362Y-46935742D01*
X166775683Y-46921421D01*
X166790717Y-46908580D01*
X166800694Y-46901331D01*
X166807107Y-46896672D01*
X166835298Y-46862595D01*
X166843288Y-46853816D01*
X169242247Y-44454857D01*
X169250537Y-44447313D01*
X169257018Y-44443200D01*
X169303659Y-44393532D01*
X169306413Y-44390691D01*
X169326135Y-44370969D01*
X169328612Y-44367776D01*
X169336317Y-44358755D01*
X169361159Y-44332300D01*
X169366586Y-44326521D01*
X169370407Y-44319571D01*
X169376346Y-44308768D01*
X169387202Y-44292241D01*
X169394757Y-44282502D01*
X169394758Y-44282500D01*
X169399614Y-44276240D01*
X169417174Y-44235660D01*
X169422391Y-44225012D01*
X169439875Y-44193209D01*
X169439876Y-44193207D01*
X169443695Y-44186260D01*
X169448733Y-44166637D01*
X169455137Y-44147934D01*
X169460033Y-44136620D01*
X169460033Y-44136619D01*
X169463181Y-44129345D01*
X169464420Y-44121522D01*
X169464423Y-44121512D01*
X169470099Y-44085676D01*
X169472505Y-44074056D01*
X169481528Y-44038911D01*
X169481528Y-44038910D01*
X169483500Y-44031230D01*
X169483500Y-44010976D01*
X169485051Y-43991265D01*
X169486980Y-43979086D01*
X169488220Y-43971257D01*
X169484059Y-43927238D01*
X169483500Y-43915381D01*
X169483500Y-36231356D01*
X169503502Y-36163235D01*
X169557158Y-36116742D01*
X169596496Y-36106029D01*
X169606166Y-36105026D01*
X169612702Y-36102845D01*
X169612704Y-36102845D01*
X169744806Y-36058772D01*
X169773946Y-36049050D01*
X169924348Y-35955978D01*
X170049305Y-35830803D01*
X170139081Y-35685160D01*
X170191852Y-35637668D01*
X170261924Y-35626244D01*
X170327048Y-35654518D01*
X170337510Y-35664305D01*
X170376522Y-35705200D01*
X170446576Y-35778635D01*
X170450854Y-35781818D01*
X170523654Y-35835983D01*
X170631542Y-35916254D01*
X170636294Y-35918670D01*
X170636302Y-35918675D01*
X170647606Y-35924422D01*
X170699263Y-35973125D01*
X170716500Y-36036738D01*
X170716500Y-43348993D01*
X170707667Y-43395296D01*
X170703905Y-43402140D01*
X170698867Y-43421762D01*
X170692463Y-43440466D01*
X170684419Y-43459055D01*
X170683180Y-43466878D01*
X170683177Y-43466888D01*
X170677501Y-43502724D01*
X170675095Y-43514344D01*
X170674515Y-43516605D01*
X170664100Y-43557170D01*
X170664100Y-43577424D01*
X170662549Y-43597134D01*
X170659380Y-43617143D01*
X170660126Y-43625035D01*
X170663541Y-43661161D01*
X170664100Y-43673019D01*
X170664100Y-44066433D01*
X170663573Y-44077616D01*
X170661898Y-44085109D01*
X170662147Y-44093035D01*
X170662147Y-44093036D01*
X170664038Y-44153186D01*
X170664100Y-44157145D01*
X170664100Y-44185056D01*
X170664597Y-44188990D01*
X170664597Y-44188991D01*
X170664605Y-44189056D01*
X170665538Y-44200893D01*
X170666927Y-44245089D01*
X170672389Y-44263888D01*
X170672578Y-44264539D01*
X170676587Y-44283900D01*
X170679126Y-44303997D01*
X170682045Y-44311368D01*
X170682045Y-44311370D01*
X170695404Y-44345112D01*
X170699249Y-44356342D01*
X170704313Y-44373772D01*
X170711582Y-44398793D01*
X170715615Y-44405612D01*
X170715617Y-44405617D01*
X170721893Y-44416228D01*
X170730588Y-44433976D01*
X170738048Y-44452817D01*
X170742710Y-44459233D01*
X170742710Y-44459234D01*
X170764036Y-44488587D01*
X170770552Y-44498507D01*
X170786930Y-44526200D01*
X170793058Y-44536562D01*
X170807379Y-44550883D01*
X170820219Y-44565916D01*
X170832128Y-44582307D01*
X170853004Y-44599577D01*
X170866205Y-44610498D01*
X170874984Y-44618488D01*
X173217995Y-46961499D01*
X173252021Y-47023811D01*
X173254900Y-47050594D01*
X173254900Y-52254998D01*
X173234898Y-52323119D01*
X173222537Y-52339308D01*
X173209298Y-52354011D01*
X173195172Y-52369700D01*
X173190033Y-52375407D01*
X173186730Y-52381128D01*
X173105184Y-52522370D01*
X173099801Y-52531693D01*
X173078238Y-52598057D01*
X173052161Y-52678317D01*
X173044035Y-52703325D01*
X173043345Y-52709888D01*
X173043345Y-52709889D01*
X173025861Y-52876235D01*
X173025171Y-52882800D01*
X173025861Y-52889365D01*
X173039477Y-53018905D01*
X173044035Y-53062275D01*
X173046075Y-53068553D01*
X173046075Y-53068554D01*
X173077225Y-53164424D01*
X173099801Y-53233907D01*
X173103104Y-53239629D01*
X173103105Y-53239630D01*
X173116570Y-53262952D01*
X173190033Y-53390193D01*
X173310787Y-53524304D01*
X173316129Y-53528185D01*
X173316131Y-53528187D01*
X173451443Y-53626497D01*
X173456785Y-53630378D01*
X173462813Y-53633062D01*
X173462815Y-53633063D01*
X173615617Y-53701095D01*
X173621648Y-53703780D01*
X173709908Y-53722540D01*
X173791711Y-53739928D01*
X173791715Y-53739928D01*
X173798168Y-53741300D01*
X173978632Y-53741300D01*
X173978632Y-53742660D01*
X174041337Y-53754126D01*
X174093185Y-53802626D01*
X174110581Y-53871458D01*
X174109982Y-53879836D01*
X174103603Y-53940531D01*
X174091971Y-54051200D01*
X174092661Y-54057765D01*
X174094096Y-54071413D01*
X174110835Y-54230675D01*
X174166601Y-54402307D01*
X174256833Y-54558593D01*
X174377587Y-54692704D01*
X174523585Y-54798778D01*
X174529613Y-54801462D01*
X174529615Y-54801463D01*
X174532441Y-54802721D01*
X174688448Y-54872180D01*
X174776708Y-54890940D01*
X174858511Y-54908328D01*
X174858515Y-54908328D01*
X174864968Y-54909700D01*
X175045432Y-54909700D01*
X175051885Y-54908328D01*
X175051889Y-54908328D01*
X175133692Y-54890940D01*
X175221952Y-54872180D01*
X175377959Y-54802721D01*
X175380785Y-54801463D01*
X175380787Y-54801462D01*
X175386815Y-54798778D01*
X175532813Y-54692704D01*
X175653567Y-54558593D01*
X175743799Y-54402307D01*
X175799565Y-54230675D01*
X175816305Y-54071413D01*
X175817739Y-54057765D01*
X175818429Y-54051200D01*
X175806797Y-53940531D01*
X175800255Y-53878289D01*
X175800255Y-53878288D01*
X175799565Y-53871725D01*
X175743799Y-53700093D01*
X175653567Y-53543807D01*
X175621064Y-53507709D01*
X175590347Y-53443701D01*
X175588700Y-53423398D01*
X175588700Y-45697167D01*
X175589227Y-45685984D01*
X175590902Y-45678491D01*
X175590356Y-45661102D01*
X175588762Y-45610401D01*
X175588700Y-45606443D01*
X175588700Y-45578544D01*
X175588196Y-45574553D01*
X175587263Y-45562711D01*
X175587212Y-45561071D01*
X175585874Y-45518511D01*
X175583662Y-45510897D01*
X175583661Y-45510892D01*
X175580223Y-45499059D01*
X175576212Y-45479695D01*
X175574667Y-45467464D01*
X175573674Y-45459603D01*
X175570757Y-45452236D01*
X175570756Y-45452231D01*
X175557398Y-45418492D01*
X175553554Y-45407265D01*
X175543430Y-45372422D01*
X175541218Y-45364807D01*
X175530907Y-45347372D01*
X175522212Y-45329624D01*
X175514752Y-45310783D01*
X175488764Y-45275013D01*
X175482248Y-45265093D01*
X175463780Y-45233865D01*
X175463778Y-45233862D01*
X175459742Y-45227038D01*
X175445421Y-45212717D01*
X175432580Y-45197683D01*
X175425331Y-45187706D01*
X175420672Y-45181293D01*
X175414568Y-45176243D01*
X175414563Y-45176238D01*
X175386602Y-45153107D01*
X175377821Y-45145117D01*
X174520404Y-44287699D01*
X174486379Y-44225387D01*
X174483500Y-44198604D01*
X174483500Y-36033096D01*
X174503502Y-35964975D01*
X174544134Y-35925377D01*
X174648757Y-35861890D01*
X174653317Y-35859123D01*
X174670144Y-35844521D01*
X174823412Y-35711523D01*
X174823414Y-35711521D01*
X174827445Y-35708023D01*
X174894500Y-35626244D01*
X174970240Y-35533873D01*
X174970244Y-35533867D01*
X174973624Y-35529745D01*
X174982704Y-35513795D01*
X175085032Y-35334029D01*
X175087675Y-35329386D01*
X175144102Y-35173932D01*
X175186145Y-35116725D01*
X175252444Y-35091329D01*
X175321949Y-35105809D01*
X175372591Y-35155567D01*
X175374521Y-35159564D01*
X175374529Y-35159560D01*
X175468307Y-35335931D01*
X175475098Y-35346151D01*
X175597451Y-35496172D01*
X175606090Y-35504871D01*
X175755257Y-35628274D01*
X175765428Y-35635134D01*
X175935720Y-35727209D01*
X175947026Y-35731962D01*
X176082692Y-35773957D01*
X176096795Y-35774163D01*
X176100000Y-35767408D01*
X176100000Y-35760386D01*
X176600000Y-35760386D01*
X176603973Y-35773917D01*
X176611768Y-35775037D01*
X176739321Y-35737496D01*
X176750705Y-35732897D01*
X176922264Y-35643208D01*
X176932525Y-35636494D01*
X177083394Y-35515192D01*
X177092168Y-35506599D01*
X177216595Y-35358313D01*
X177223533Y-35348183D01*
X177316796Y-35178536D01*
X177321624Y-35167272D01*
X177380161Y-34982742D01*
X177382712Y-34970736D01*
X177390590Y-34900502D01*
X177388037Y-34885972D01*
X177375493Y-34882500D01*
X176618115Y-34882500D01*
X176602876Y-34886975D01*
X176601671Y-34888365D01*
X176600000Y-34896048D01*
X176600000Y-35760386D01*
X176100000Y-35760386D01*
X176100000Y-34364385D01*
X176600000Y-34364385D01*
X176604475Y-34379624D01*
X176605865Y-34380829D01*
X176613548Y-34382500D01*
X177374710Y-34382500D01*
X177389137Y-34378264D01*
X177391198Y-34365911D01*
X177385588Y-34308701D01*
X177383205Y-34296664D01*
X177327252Y-34111340D01*
X177322578Y-34099999D01*
X177231693Y-33929069D01*
X177224902Y-33918849D01*
X177102549Y-33768828D01*
X177093910Y-33760129D01*
X176944743Y-33636726D01*
X176934572Y-33629866D01*
X176764280Y-33537791D01*
X176752974Y-33533038D01*
X176617308Y-33491043D01*
X176603205Y-33490837D01*
X176600000Y-33497592D01*
X176600000Y-34364385D01*
X176100000Y-34364385D01*
X176100000Y-33504614D01*
X176096027Y-33491083D01*
X176088232Y-33489963D01*
X175960679Y-33527504D01*
X175949295Y-33532103D01*
X175777736Y-33621792D01*
X175767475Y-33628506D01*
X175616606Y-33749808D01*
X175607832Y-33758401D01*
X175483405Y-33906687D01*
X175476467Y-33916817D01*
X175383206Y-34086460D01*
X175379567Y-34094950D01*
X175334345Y-34149681D01*
X175266712Y-34171275D01*
X175198141Y-34152876D01*
X175150403Y-34100326D01*
X175141798Y-34076963D01*
X175137343Y-34059799D01*
X175136001Y-34054628D01*
X175109139Y-33994995D01*
X175043507Y-33849298D01*
X175041312Y-33844425D01*
X174912559Y-33653181D01*
X174897717Y-33637622D01*
X174824725Y-33561108D01*
X174753424Y-33486365D01*
X174568458Y-33348746D01*
X174563707Y-33346330D01*
X174563703Y-33346328D01*
X174441731Y-33284315D01*
X174362949Y-33244260D01*
X174357855Y-33242678D01*
X174357852Y-33242677D01*
X174147871Y-33177476D01*
X174142773Y-33175893D01*
X174137484Y-33175192D01*
X173919511Y-33146302D01*
X173919506Y-33146302D01*
X173914226Y-33145602D01*
X173908897Y-33145802D01*
X173908895Y-33145802D01*
X173814976Y-33149328D01*
X173683842Y-33154251D01*
X173678623Y-33155346D01*
X173647539Y-33161868D01*
X173458209Y-33201593D01*
X173453250Y-33203551D01*
X173453248Y-33203552D01*
X173248744Y-33284315D01*
X173248742Y-33284316D01*
X173243779Y-33286276D01*
X173239220Y-33289043D01*
X173239217Y-33289044D01*
X173143724Y-33346991D01*
X173046683Y-33405877D01*
X173042653Y-33409374D01*
X172891874Y-33540213D01*
X172872555Y-33556977D01*
X172869168Y-33561108D01*
X172729760Y-33731127D01*
X172729756Y-33731133D01*
X172726376Y-33735255D01*
X172708448Y-33766750D01*
X172657368Y-33816055D01*
X172587738Y-33829917D01*
X172521667Y-33803934D01*
X172494427Y-33774784D01*
X172460778Y-33724803D01*
X172412559Y-33653181D01*
X172397717Y-33637622D01*
X172324725Y-33561108D01*
X172253424Y-33486365D01*
X172068458Y-33348746D01*
X172063707Y-33346330D01*
X172063703Y-33346328D01*
X171941731Y-33284315D01*
X171862949Y-33244260D01*
X171857855Y-33242678D01*
X171857852Y-33242677D01*
X171647871Y-33177476D01*
X171642773Y-33175893D01*
X171637484Y-33175192D01*
X171419511Y-33146302D01*
X171419506Y-33146302D01*
X171414226Y-33145602D01*
X171408897Y-33145802D01*
X171408895Y-33145802D01*
X171314976Y-33149328D01*
X171183842Y-33154251D01*
X171178623Y-33155346D01*
X171147539Y-33161868D01*
X170958209Y-33201593D01*
X170953250Y-33203551D01*
X170953248Y-33203552D01*
X170748744Y-33284315D01*
X170748742Y-33284316D01*
X170743779Y-33286276D01*
X170739220Y-33289043D01*
X170739217Y-33289044D01*
X170643724Y-33346991D01*
X170546683Y-33405877D01*
X170542653Y-33409374D01*
X170391874Y-33540213D01*
X170372555Y-33556977D01*
X170343330Y-33592620D01*
X170284671Y-33632614D01*
X170213701Y-33634546D01*
X170152952Y-33597802D01*
X170138752Y-33579032D01*
X170052332Y-33439380D01*
X170048478Y-33433152D01*
X170029817Y-33414523D01*
X169928483Y-33313366D01*
X169923303Y-33308195D01*
X169917072Y-33304354D01*
X169778968Y-33219225D01*
X169778966Y-33219224D01*
X169772738Y-33215385D01*
X169692995Y-33188936D01*
X169611389Y-33161868D01*
X169611387Y-33161868D01*
X169604861Y-33159703D01*
X169598025Y-33159003D01*
X169598022Y-33159002D01*
X169553162Y-33154406D01*
X169500400Y-33149000D01*
X168457094Y-33149000D01*
X168388973Y-33128998D01*
X168342480Y-33075342D01*
X168332376Y-33005068D01*
X168361870Y-32940488D01*
X168367999Y-32933905D01*
X168932299Y-32369605D01*
X168994611Y-32335579D01*
X169021394Y-32332700D01*
X176825006Y-32332700D01*
X176893127Y-32352702D01*
G37*
%TD.AperFunction*%
%TA.AperFunction,Conductor*%
G36*
X131890356Y-31733702D02*
G01*
X131936849Y-31787358D01*
X131946953Y-31857632D01*
X131917459Y-31922212D01*
X131909209Y-31930868D01*
X131782465Y-32051776D01*
X131644846Y-32236742D01*
X131642430Y-32241493D01*
X131642428Y-32241497D01*
X131595310Y-32334173D01*
X131540360Y-32442251D01*
X131538778Y-32447345D01*
X131538777Y-32447348D01*
X131501818Y-32566374D01*
X131471993Y-32662427D01*
X131471292Y-32667716D01*
X131456968Y-32775794D01*
X131441702Y-32890974D01*
X131450351Y-33121358D01*
X131497693Y-33346991D01*
X131499651Y-33351950D01*
X131499652Y-33351952D01*
X131574001Y-33540213D01*
X131582376Y-33561421D01*
X131585143Y-33565980D01*
X131585144Y-33565983D01*
X131623995Y-33630007D01*
X131701977Y-33758517D01*
X131705474Y-33762547D01*
X131827994Y-33903739D01*
X131853077Y-33932645D01*
X131857208Y-33936032D01*
X132027227Y-34075440D01*
X132027233Y-34075444D01*
X132031355Y-34078824D01*
X132035991Y-34081463D01*
X132035994Y-34081465D01*
X132084544Y-34109101D01*
X132231714Y-34192875D01*
X132387168Y-34249302D01*
X132444375Y-34291345D01*
X132469771Y-34357644D01*
X132455291Y-34427149D01*
X132405533Y-34477791D01*
X132401536Y-34479721D01*
X132401540Y-34479729D01*
X132225169Y-34573507D01*
X132214949Y-34580298D01*
X132064928Y-34702651D01*
X132056229Y-34711290D01*
X131932826Y-34860457D01*
X131925966Y-34870628D01*
X131833891Y-35040920D01*
X131829138Y-35052226D01*
X131787143Y-35187892D01*
X131786937Y-35201995D01*
X131793692Y-35205200D01*
X134056486Y-35205200D01*
X134070017Y-35201227D01*
X134071137Y-35193432D01*
X134033596Y-35065879D01*
X134028997Y-35054495D01*
X133939308Y-34882936D01*
X133932594Y-34872675D01*
X133811292Y-34721806D01*
X133802699Y-34713032D01*
X133654413Y-34588605D01*
X133644283Y-34581667D01*
X133474640Y-34488406D01*
X133466150Y-34484767D01*
X133411419Y-34439545D01*
X133389825Y-34371912D01*
X133408224Y-34303341D01*
X133460774Y-34255603D01*
X133484137Y-34246998D01*
X133506472Y-34241201D01*
X133511338Y-34239009D01*
X133511341Y-34239008D01*
X133658229Y-34172840D01*
X133716675Y-34146512D01*
X133907919Y-34017759D01*
X134027443Y-33903739D01*
X134090539Y-33871192D01*
X134161215Y-33877923D01*
X134203509Y-33905813D01*
X134311773Y-34014078D01*
X134406796Y-34109101D01*
X134440821Y-34171413D01*
X134443700Y-34198196D01*
X134443700Y-37176755D01*
X134423698Y-37244876D01*
X134370042Y-37291369D01*
X134299768Y-37301473D01*
X134235188Y-37271979D01*
X134209981Y-37242121D01*
X134157990Y-37156443D01*
X134155223Y-37151883D01*
X134068355Y-37051776D01*
X134007623Y-36981788D01*
X134007621Y-36981786D01*
X134004123Y-36977755D01*
X133909182Y-36899908D01*
X133829973Y-36834960D01*
X133829967Y-36834956D01*
X133825845Y-36831576D01*
X133821209Y-36828937D01*
X133821206Y-36828935D01*
X133630129Y-36720168D01*
X133625486Y-36717525D01*
X133470032Y-36661098D01*
X133412825Y-36619055D01*
X133387429Y-36552756D01*
X133401909Y-36483251D01*
X133451667Y-36432609D01*
X133455664Y-36430679D01*
X133455660Y-36430671D01*
X133632031Y-36336893D01*
X133642251Y-36330102D01*
X133792272Y-36207749D01*
X133800971Y-36199110D01*
X133924374Y-36049943D01*
X133931234Y-36039772D01*
X134023309Y-35869480D01*
X134028062Y-35858174D01*
X134070057Y-35722508D01*
X134070263Y-35708405D01*
X134063508Y-35705200D01*
X131800714Y-35705200D01*
X131787183Y-35709173D01*
X131786063Y-35716968D01*
X131823604Y-35844521D01*
X131828203Y-35855905D01*
X131917892Y-36027464D01*
X131924606Y-36037725D01*
X132045908Y-36188594D01*
X132054501Y-36197368D01*
X132202787Y-36321795D01*
X132212917Y-36328733D01*
X132382560Y-36421994D01*
X132391050Y-36425633D01*
X132445781Y-36470855D01*
X132467375Y-36538488D01*
X132448976Y-36607059D01*
X132396426Y-36654797D01*
X132373063Y-36663402D01*
X132350728Y-36669199D01*
X132345862Y-36671391D01*
X132345859Y-36671392D01*
X132237580Y-36720168D01*
X132140525Y-36763888D01*
X131949281Y-36892641D01*
X131782465Y-37051776D01*
X131644846Y-37236742D01*
X131642430Y-37241493D01*
X131642428Y-37241497D01*
X131594150Y-37336453D01*
X131540360Y-37442251D01*
X131538778Y-37447345D01*
X131538777Y-37447348D01*
X131512468Y-37532077D01*
X131471993Y-37662427D01*
X131471292Y-37667716D01*
X131453238Y-37803938D01*
X131441702Y-37890974D01*
X131450351Y-38121358D01*
X131497693Y-38346991D01*
X131499651Y-38351950D01*
X131499652Y-38351952D01*
X131555105Y-38492366D01*
X131582376Y-38561421D01*
X131585143Y-38565980D01*
X131585144Y-38565983D01*
X131624797Y-38631328D01*
X131701977Y-38758517D01*
X131705474Y-38762547D01*
X131792038Y-38862303D01*
X131853077Y-38932645D01*
X131886717Y-38960228D01*
X132027227Y-39075440D01*
X132027233Y-39075444D01*
X132031355Y-39078824D01*
X132062850Y-39096752D01*
X132112155Y-39147832D01*
X132126017Y-39217462D01*
X132100034Y-39283533D01*
X132070884Y-39310773D01*
X131949281Y-39392641D01*
X131782465Y-39551776D01*
X131644846Y-39736742D01*
X131642430Y-39741493D01*
X131642428Y-39741497D01*
X131592603Y-39839496D01*
X131540360Y-39942251D01*
X131471993Y-40162427D01*
X131471292Y-40167716D01*
X131444664Y-40368629D01*
X131441702Y-40390974D01*
X131441902Y-40396303D01*
X131441902Y-40396305D01*
X131444420Y-40463374D01*
X131450351Y-40621358D01*
X131497693Y-40846991D01*
X131499651Y-40851950D01*
X131499652Y-40851952D01*
X131523782Y-40913051D01*
X131582376Y-41061421D01*
X131701977Y-41258517D01*
X131705474Y-41262547D01*
X131788100Y-41357765D01*
X131853077Y-41432645D01*
X131857208Y-41436032D01*
X132027227Y-41575440D01*
X132027233Y-41575444D01*
X132031355Y-41578824D01*
X132062850Y-41596752D01*
X132112155Y-41647832D01*
X132126017Y-41717462D01*
X132100034Y-41783533D01*
X132070884Y-41810773D01*
X131949281Y-41892641D01*
X131945424Y-41896320D01*
X131945422Y-41896322D01*
X131909453Y-41930635D01*
X131782465Y-42051776D01*
X131644846Y-42236742D01*
X131642430Y-42241493D01*
X131642428Y-42241497D01*
X131624694Y-42276378D01*
X131540360Y-42442251D01*
X131538778Y-42447345D01*
X131538777Y-42447348D01*
X131484469Y-42622247D01*
X131471993Y-42662427D01*
X131471292Y-42667716D01*
X131442635Y-42883938D01*
X131441702Y-42890974D01*
X131441902Y-42896303D01*
X131441902Y-42896305D01*
X131444184Y-42957079D01*
X131450351Y-43121358D01*
X131497693Y-43346991D01*
X131499651Y-43351950D01*
X131499652Y-43351952D01*
X131579811Y-43554925D01*
X131582376Y-43561421D01*
X131585143Y-43565980D01*
X131585144Y-43565983D01*
X131658148Y-43686289D01*
X131701977Y-43758517D01*
X131705474Y-43762547D01*
X131809820Y-43882795D01*
X131853077Y-43932645D01*
X131857208Y-43936032D01*
X132027227Y-44075440D01*
X132027233Y-44075444D01*
X132031355Y-44078824D01*
X132062850Y-44096752D01*
X132112155Y-44147832D01*
X132126017Y-44217462D01*
X132100034Y-44283533D01*
X132070884Y-44310773D01*
X131949281Y-44392641D01*
X131945424Y-44396320D01*
X131945422Y-44396322D01*
X131906218Y-44433721D01*
X131782465Y-44551776D01*
X131779282Y-44556054D01*
X131777911Y-44557897D01*
X131644846Y-44736742D01*
X131642430Y-44741494D01*
X131642425Y-44741502D01*
X131610066Y-44805147D01*
X131561363Y-44856804D01*
X131546941Y-44863009D01*
X131547293Y-44863823D01*
X131540022Y-44866969D01*
X131532407Y-44869182D01*
X131525581Y-44873219D01*
X131514972Y-44879493D01*
X131497224Y-44888188D01*
X131478383Y-44895648D01*
X131471967Y-44900310D01*
X131471966Y-44900310D01*
X131442613Y-44921636D01*
X131432693Y-44928152D01*
X131401465Y-44946620D01*
X131401462Y-44946622D01*
X131394638Y-44950658D01*
X131380317Y-44964979D01*
X131365284Y-44977819D01*
X131348893Y-44989728D01*
X131337308Y-45003732D01*
X131320702Y-45023805D01*
X131312712Y-45032584D01*
X130112947Y-46232348D01*
X130104661Y-46239888D01*
X130098182Y-46244000D01*
X130092757Y-46249777D01*
X130051557Y-46293651D01*
X130048802Y-46296493D01*
X130029065Y-46316230D01*
X130026585Y-46319427D01*
X130018882Y-46328447D01*
X129988614Y-46360679D01*
X129984795Y-46367625D01*
X129984793Y-46367628D01*
X129978852Y-46378434D01*
X129968001Y-46394953D01*
X129955586Y-46410959D01*
X129952441Y-46418228D01*
X129952438Y-46418232D01*
X129938026Y-46451537D01*
X129932809Y-46462187D01*
X129911505Y-46500940D01*
X129909534Y-46508615D01*
X129909534Y-46508616D01*
X129906467Y-46520562D01*
X129900063Y-46539266D01*
X129892019Y-46557855D01*
X129890780Y-46565678D01*
X129890777Y-46565688D01*
X129885101Y-46601524D01*
X129882695Y-46613144D01*
X129874328Y-46645734D01*
X129871700Y-46655970D01*
X129871700Y-46676224D01*
X129870149Y-46695934D01*
X129866980Y-46715943D01*
X129867726Y-46723835D01*
X129871141Y-46759961D01*
X129871700Y-46771819D01*
X129871700Y-51229233D01*
X129871173Y-51240416D01*
X129869498Y-51247909D01*
X129869747Y-51255835D01*
X129869747Y-51255836D01*
X129871638Y-51315986D01*
X129871700Y-51319945D01*
X129871700Y-51347856D01*
X129872197Y-51351790D01*
X129872197Y-51351791D01*
X129872205Y-51351856D01*
X129873138Y-51363693D01*
X129874527Y-51407889D01*
X129880178Y-51427339D01*
X129884187Y-51446700D01*
X129886726Y-51466797D01*
X129889645Y-51474168D01*
X129889645Y-51474170D01*
X129903004Y-51507912D01*
X129906849Y-51519142D01*
X129919182Y-51561593D01*
X129923215Y-51568412D01*
X129923217Y-51568417D01*
X129929493Y-51579028D01*
X129938188Y-51596776D01*
X129945648Y-51615617D01*
X129950310Y-51622033D01*
X129950310Y-51622034D01*
X129971636Y-51651387D01*
X129978152Y-51661307D01*
X130000658Y-51699362D01*
X130014979Y-51713683D01*
X130027819Y-51728716D01*
X130039728Y-51745107D01*
X130045834Y-51750158D01*
X130073805Y-51773298D01*
X130082584Y-51781288D01*
X130560343Y-52259047D01*
X130567887Y-52267337D01*
X130572000Y-52273818D01*
X130577777Y-52279243D01*
X130621667Y-52320458D01*
X130624509Y-52323213D01*
X130644231Y-52342935D01*
X130647355Y-52345358D01*
X130647359Y-52345362D01*
X130647424Y-52345412D01*
X130656445Y-52353117D01*
X130688679Y-52383386D01*
X130695627Y-52387205D01*
X130695629Y-52387207D01*
X130706432Y-52393146D01*
X130722959Y-52404002D01*
X130732698Y-52411557D01*
X130732700Y-52411558D01*
X130738960Y-52416414D01*
X130779540Y-52433974D01*
X130790188Y-52439191D01*
X130815878Y-52453314D01*
X130828940Y-52460495D01*
X130836616Y-52462466D01*
X130836619Y-52462467D01*
X130848562Y-52465533D01*
X130867267Y-52471937D01*
X130885855Y-52479981D01*
X130893678Y-52481220D01*
X130893688Y-52481223D01*
X130929524Y-52486899D01*
X130941144Y-52489305D01*
X130976289Y-52498328D01*
X130983970Y-52500300D01*
X131004224Y-52500300D01*
X131023934Y-52501851D01*
X131043943Y-52505020D01*
X131051835Y-52504274D01*
X131087961Y-52500859D01*
X131099819Y-52500300D01*
X132532290Y-52500300D01*
X132600411Y-52520302D01*
X132646904Y-52573958D01*
X132657008Y-52644232D01*
X132627514Y-52708812D01*
X132563944Y-52748259D01*
X132350728Y-52803599D01*
X132345860Y-52805792D01*
X132345854Y-52805794D01*
X132314358Y-52819982D01*
X132262608Y-52831100D01*
X129847078Y-52831100D01*
X129778957Y-52811098D01*
X129757983Y-52794195D01*
X129565405Y-52601617D01*
X129531379Y-52539305D01*
X129528500Y-52512522D01*
X129528500Y-32628278D01*
X129548502Y-32560157D01*
X129565405Y-32539182D01*
X130353984Y-31750604D01*
X130416296Y-31716579D01*
X130443079Y-31713700D01*
X131822235Y-31713700D01*
X131890356Y-31733702D01*
G37*
%TD.AperFunction*%
%TD*%
%TA.AperFunction,Conductor*%
%TO.N,+3V3*%
G36*
X151478521Y-77286802D02*
G01*
X151525014Y-77340458D01*
X151536400Y-77392800D01*
X151536400Y-83541600D01*
X151516398Y-83609721D01*
X151462742Y-83656214D01*
X151410400Y-83667600D01*
X145820400Y-83667600D01*
X145752279Y-83647598D01*
X145705786Y-83593942D01*
X145694400Y-83541600D01*
X145694400Y-77392800D01*
X145714402Y-77324679D01*
X145768058Y-77278186D01*
X145820400Y-77266800D01*
X151410400Y-77266800D01*
X151478521Y-77286802D01*
G37*
%TD.AperFunction*%
%TD*%
M02*
