%FSLAX45Y45*%
G04 Gerber Fmt 4.5, Leading zero omitted, Abs format (unit mm)*
G04 Created by KiCad (PCBNEW (6.0.1)) date 2022-05-20 19:43:47*
%MOMM*%
%LPD*%
G01*
G04 APERTURE LIST*
%TA.AperFunction,Profile*%
%ADD10C,0.100000*%
%TD*%
%ADD11C,0.200000*%
%ADD12C,0.030000*%
%ADD13C,0.040000*%
%ADD14C,0.095000*%
%ADD15C,0.100000*%
%ADD16C,0.130000*%
%ADD17C,0.230000*%
G04 APERTURE END LIST*
D10*
X12570000Y-2740000D02*
X18570000Y-2740000D01*
X18570000Y-2740000D02*
X18570000Y-9240000D01*
X18570000Y-9240000D02*
X12570000Y-9240000D01*
X12570000Y-9240000D02*
X12570000Y-2740000D01*
D11*
D12*
X13614640Y-4978640D02*
X13644640Y-5008640D01*
X13644640Y-4978640D02*
X13614640Y-5008640D01*
X13761960Y-5659360D02*
X13791960Y-5689360D01*
X13791960Y-5659360D02*
X13761960Y-5689360D01*
X13812760Y-5430760D02*
X13842760Y-5460760D01*
X13842760Y-5430760D02*
X13812760Y-5460760D01*
X13822920Y-5308840D02*
X13852920Y-5338840D01*
X13852920Y-5308840D02*
X13822920Y-5338840D01*
X13958560Y-6549880D02*
X13988560Y-6579880D01*
X13988560Y-6549880D02*
X13958560Y-6579880D01*
X13958560Y-6905480D02*
X13988560Y-6935480D01*
X13988560Y-6905480D02*
X13958560Y-6935480D01*
X13960080Y-5308840D02*
X13990080Y-5338840D01*
X13990080Y-5308840D02*
X13960080Y-5338840D01*
X14323070Y-7120090D02*
X14353070Y-7150090D01*
X14353070Y-7120090D02*
X14323070Y-7150090D01*
X14417280Y-6380720D02*
X14447280Y-6410720D01*
X14447280Y-6380720D02*
X14417280Y-6410720D01*
X14554440Y-5136120D02*
X14584440Y-5166120D01*
X14584440Y-5136120D02*
X14554440Y-5166120D01*
X14645880Y-5227560D02*
X14675880Y-5257560D01*
X14675880Y-5227560D02*
X14645880Y-5257560D01*
X14823680Y-4572240D02*
X14853680Y-4602240D01*
X14853680Y-4572240D02*
X14823680Y-4602240D01*
X14823680Y-4734800D02*
X14853680Y-4764800D01*
X14853680Y-4734800D02*
X14823680Y-4764800D01*
X14823680Y-4882120D02*
X14853680Y-4912120D01*
X14853680Y-4882120D02*
X14823680Y-4912120D01*
X14986240Y-4572240D02*
X15016240Y-4602240D01*
X15016240Y-4572240D02*
X14986240Y-4602240D01*
X14986240Y-4734800D02*
X15016240Y-4764800D01*
X15016240Y-4734800D02*
X14986240Y-4764800D01*
X14986240Y-4882120D02*
X15016240Y-4912120D01*
X15016240Y-4882120D02*
X14986240Y-4912120D01*
X14986240Y-5999720D02*
X15016240Y-6029720D01*
X15016240Y-5999720D02*
X14986240Y-6029720D01*
X15077680Y-5999720D02*
X15107680Y-6029720D01*
X15107680Y-5999720D02*
X15077680Y-6029720D01*
X15143720Y-4572240D02*
X15173720Y-4602240D01*
X15173720Y-4572240D02*
X15143720Y-4602240D01*
X15148800Y-4724640D02*
X15178800Y-4754640D01*
X15178800Y-4724640D02*
X15148800Y-4754640D01*
X15148800Y-4882120D02*
X15178800Y-4912120D01*
X15178800Y-4882120D02*
X15148800Y-4912120D01*
X15169120Y-5999720D02*
X15199120Y-6029720D01*
X15199120Y-5999720D02*
X15169120Y-6029720D01*
X15260560Y-5999720D02*
X15290560Y-6029720D01*
X15290560Y-5999720D02*
X15260560Y-6029720D01*
X15494240Y-4247120D02*
X15524240Y-4277120D01*
X15524240Y-4247120D02*
X15494240Y-4277120D01*
X15529800Y-4882120D02*
X15559800Y-4912120D01*
X15559800Y-4882120D02*
X15529800Y-4912120D01*
X15529800Y-6009880D02*
X15559800Y-6039880D01*
X15559800Y-6009880D02*
X15529800Y-6039880D01*
X15631400Y-4120120D02*
X15661400Y-4150120D01*
X15661400Y-4120120D02*
X15631400Y-4150120D01*
X15712680Y-5009120D02*
X15742680Y-5039120D01*
X15742680Y-5009120D02*
X15712680Y-5039120D01*
X15758400Y-4374120D02*
X15788400Y-4404120D01*
X15788400Y-4374120D02*
X15758400Y-4404120D01*
X15758400Y-4501120D02*
X15788400Y-4531120D01*
X15788400Y-4501120D02*
X15758400Y-4531120D01*
X15758400Y-4628120D02*
X15788400Y-4658120D01*
X15788400Y-4628120D02*
X15758400Y-4658120D01*
X16225760Y-5644120D02*
X16255760Y-5674120D01*
X16255760Y-5644120D02*
X16225760Y-5674120D01*
X17028400Y-5181840D02*
X17058400Y-5211840D01*
X17058400Y-5181840D02*
X17028400Y-5211840D01*
X17140160Y-4907520D02*
X17170160Y-4937520D01*
X17170160Y-4907520D02*
X17140160Y-4937520D01*
X17373840Y-5273280D02*
X17403840Y-5303280D01*
X17403840Y-5273280D02*
X17373840Y-5303280D01*
X17480520Y-5390120D02*
X17510520Y-5420120D01*
X17510520Y-5390120D02*
X17480520Y-5420120D01*
X17566880Y-6238480D02*
X17596880Y-6268480D01*
X17596880Y-6238480D02*
X17566880Y-6268480D01*
D13*
X12847000Y-8061960D02*
G75*
G03*
X12847000Y-8061960I-20000J0D01*
G01*
X12847000Y-8239760D02*
G75*
G03*
X12847000Y-8239760I-20000J0D01*
G01*
X12847000Y-8402320D02*
G75*
G03*
X12847000Y-8402320I-20000J0D01*
G01*
X12989240Y-8061960D02*
G75*
G03*
X12989240Y-8061960I-20000J0D01*
G01*
X12989240Y-8402320D02*
G75*
G03*
X12989240Y-8402320I-20000J0D01*
G01*
X12999400Y-8234680D02*
G75*
G03*
X12999400Y-8234680I-20000J0D01*
G01*
X13151800Y-8056880D02*
G75*
G03*
X13151800Y-8056880I-20000J0D01*
G01*
X13151800Y-8402320D02*
G75*
G03*
X13151800Y-8402320I-20000J0D01*
G01*
X13156880Y-8219440D02*
G75*
G03*
X13156880Y-8219440I-20000J0D01*
G01*
X14701200Y-7833360D02*
G75*
G03*
X14701200Y-7833360I-20000J0D01*
G01*
X14706280Y-8219440D02*
G75*
G03*
X14706280Y-8219440I-20000J0D01*
G01*
X14707160Y-8045840D02*
G75*
G03*
X14707160Y-8045840I-20000J0D01*
G01*
X14881440Y-8045840D02*
G75*
G03*
X14881440Y-8045840I-20000J0D01*
G01*
X14881440Y-8222080D02*
G75*
G03*
X14881440Y-8222080I-20000J0D01*
G01*
X14884080Y-7833360D02*
G75*
G03*
X14884080Y-7833360I-20000J0D01*
G01*
X15066960Y-7833360D02*
G75*
G03*
X15066960Y-7833360I-20000J0D01*
G01*
X15066960Y-8021320D02*
G75*
G03*
X15066960Y-8021320I-20000J0D01*
G01*
X15066960Y-8219440D02*
G75*
G03*
X15066960Y-8219440I-20000J0D01*
G01*
X15727360Y-8366760D02*
G75*
G03*
X15727360Y-8366760I-20000J0D01*
G01*
X15727360Y-8651240D02*
G75*
G03*
X15727360Y-8651240I-20000J0D01*
G01*
X15727360Y-8895080D02*
G75*
G03*
X15727360Y-8895080I-20000J0D01*
G01*
X15935640Y-8366760D02*
G75*
G03*
X15935640Y-8366760I-20000J0D01*
G01*
X15935640Y-8641080D02*
G75*
G03*
X15935640Y-8641080I-20000J0D01*
G01*
X15935640Y-8905240D02*
G75*
G03*
X15935640Y-8905240I-20000J0D01*
G01*
X16189640Y-8361680D02*
G75*
G03*
X16189640Y-8361680I-20000J0D01*
G01*
X16189640Y-8895080D02*
G75*
G03*
X16189640Y-8895080I-20000J0D01*
G01*
X16194720Y-8615680D02*
G75*
G03*
X16194720Y-8615680I-20000J0D01*
G01*
X16428400Y-8895080D02*
G75*
G03*
X16428400Y-8895080I-20000J0D01*
G01*
X16433480Y-8361680D02*
G75*
G03*
X16433480Y-8361680I-20000J0D01*
G01*
X16448720Y-8605520D02*
G75*
G03*
X16448720Y-8605520I-20000J0D01*
G01*
D14*
X13292860Y-2998020D02*
X13292860Y-3093020D01*
X13245360Y-3045520D02*
X13340360Y-3045520D01*
X13292860Y-3248020D02*
X13292860Y-3343020D01*
X13245360Y-3295520D02*
X13340360Y-3295520D01*
X13292860Y-3498020D02*
X13292860Y-3593020D01*
X13245360Y-3545520D02*
X13340360Y-3545520D01*
X13292860Y-3748020D02*
X13292860Y-3843020D01*
X13245360Y-3795520D02*
X13340360Y-3795520D01*
X13292860Y-3998020D02*
X13292860Y-4093020D01*
X13245360Y-4045520D02*
X13340360Y-4045520D01*
X13292860Y-4248020D02*
X13292860Y-4343020D01*
X13245360Y-4295520D02*
X13340360Y-4295520D01*
X13292860Y-4498020D02*
X13292860Y-4593020D01*
X13245360Y-4545520D02*
X13340360Y-4545520D01*
X13292860Y-4748020D02*
X13292860Y-4843020D01*
X13245360Y-4795520D02*
X13340360Y-4795520D01*
X13292860Y-5361460D02*
X13292860Y-5456460D01*
X13245360Y-5408960D02*
X13340360Y-5408960D01*
X13292860Y-5611460D02*
X13292860Y-5706460D01*
X13245360Y-5658960D02*
X13340360Y-5658960D01*
X13292860Y-5861460D02*
X13292860Y-5956460D01*
X13245360Y-5908960D02*
X13340360Y-5908960D01*
X13292860Y-6111460D02*
X13292860Y-6206460D01*
X13245360Y-6158960D02*
X13340360Y-6158960D01*
X13292860Y-6361460D02*
X13292860Y-6456460D01*
X13245360Y-6408960D02*
X13340360Y-6408960D01*
X13292860Y-6611460D02*
X13292860Y-6706460D01*
X13245360Y-6658960D02*
X13340360Y-6658960D01*
X13292860Y-6861460D02*
X13292860Y-6956460D01*
X13245360Y-6908960D02*
X13340360Y-6908960D01*
X13292860Y-7111460D02*
X13292860Y-7206460D01*
X13245360Y-7158960D02*
X13340360Y-7158960D01*
X13923090Y-7862500D02*
X13923090Y-7957500D01*
X13875590Y-7910000D02*
X13970590Y-7910000D01*
X13923090Y-8112500D02*
X13923090Y-8207500D01*
X13875590Y-8160000D02*
X13970590Y-8160000D01*
X13923090Y-8312500D02*
X13923090Y-8407500D01*
X13875590Y-8360000D02*
X13970590Y-8360000D01*
X13923090Y-8562500D02*
X13923090Y-8657500D01*
X13875590Y-8610000D02*
X13970590Y-8610000D01*
X16885000Y-3415750D02*
X16885000Y-3510750D01*
X16837500Y-3463250D02*
X16932500Y-3463250D01*
X17135000Y-3415750D02*
X17135000Y-3510750D01*
X17087500Y-3463250D02*
X17182500Y-3463250D01*
X17385000Y-3415750D02*
X17385000Y-3510750D01*
X17337500Y-3463250D02*
X17432500Y-3463250D01*
X17635000Y-3415750D02*
X17635000Y-3510750D01*
X17587500Y-3463250D02*
X17682500Y-3463250D01*
X17846100Y-5324820D02*
X17846100Y-5419820D01*
X17798600Y-5372320D02*
X17893600Y-5372320D01*
X17846100Y-5574820D02*
X17846100Y-5669820D01*
X17798600Y-5622320D02*
X17893600Y-5622320D01*
X17846100Y-5824820D02*
X17846100Y-5919820D01*
X17798600Y-5872320D02*
X17893600Y-5872320D01*
X17846100Y-6074820D02*
X17846100Y-6169820D01*
X17798600Y-6122320D02*
X17893600Y-6122320D01*
X17846100Y-6324820D02*
X17846100Y-6419820D01*
X17798600Y-6372320D02*
X17893600Y-6372320D01*
X17846100Y-6574820D02*
X17846100Y-6669820D01*
X17798600Y-6622320D02*
X17893600Y-6622320D01*
X17846100Y-6824820D02*
X17846100Y-6919820D01*
X17798600Y-6872320D02*
X17893600Y-6872320D01*
X17846100Y-7074820D02*
X17846100Y-7169820D01*
X17798600Y-7122320D02*
X17893600Y-7122320D01*
X17846100Y-7324820D02*
X17846100Y-7419820D01*
X17798600Y-7372320D02*
X17893600Y-7372320D01*
X17846100Y-7574820D02*
X17846100Y-7669820D01*
X17798600Y-7622320D02*
X17893600Y-7622320D01*
D15*
X17201746Y-8774666D02*
X17201746Y-8703954D01*
X17131034Y-8703954D01*
X17131034Y-8774666D01*
X17201746Y-8774666D01*
D11*
X17206390Y-8839310D02*
X17206390Y-8639310D01*
X17126390Y-8839310D02*
X17126390Y-8639310D01*
X17206390Y-8639310D02*
G75*
G03*
X17126390Y-8639310I-40000J0D01*
G01*
X17126390Y-8839310D02*
G75*
G03*
X17206390Y-8839310I40000J0D01*
G01*
D15*
X17501746Y-8304666D02*
X17501746Y-8233954D01*
X17431034Y-8233954D01*
X17431034Y-8304666D01*
X17501746Y-8304666D01*
D11*
X17566390Y-8229310D02*
X17366390Y-8229310D01*
X17566390Y-8309310D02*
X17366390Y-8309310D01*
X17366390Y-8229310D02*
G75*
G03*
X17366390Y-8309310I0J-40000D01*
G01*
X17566390Y-8309310D02*
G75*
G03*
X17566390Y-8229310I0J40000D01*
G01*
D15*
X17801746Y-8774666D02*
X17801746Y-8703954D01*
X17731034Y-8703954D01*
X17731034Y-8774666D01*
X17801746Y-8774666D01*
D11*
X17806390Y-8839310D02*
X17806390Y-8639310D01*
X17726390Y-8839310D02*
X17726390Y-8639310D01*
X17806390Y-8639310D02*
G75*
G03*
X17726390Y-8639310I-40000J0D01*
G01*
X17726390Y-8839310D02*
G75*
G03*
X17806390Y-8839310I40000J0D01*
G01*
D15*
X18360726Y-3718356D02*
X18360726Y-3647644D01*
X18290014Y-3647644D01*
X18290014Y-3718356D01*
X18360726Y-3718356D01*
X18360726Y-3972356D02*
X18360726Y-3901644D01*
X18290014Y-3901644D01*
X18290014Y-3972356D01*
X18360726Y-3972356D01*
X18360726Y-4226356D02*
X18360726Y-4155644D01*
X18290014Y-4155644D01*
X18290014Y-4226356D01*
X18360726Y-4226356D01*
X18360726Y-4480356D02*
X18360726Y-4409644D01*
X18290014Y-4409644D01*
X18290014Y-4480356D01*
X18360726Y-4480356D01*
X18360726Y-4734356D02*
X18360726Y-4663644D01*
X18290014Y-4663644D01*
X18290014Y-4734356D01*
X18360726Y-4734356D01*
D16*
X16545560Y-6694400D02*
X16610560Y-6629400D01*
X16545560Y-6564400D01*
X16480560Y-6629400D01*
X16545560Y-6694400D01*
X17053560Y-6694400D02*
X17118560Y-6629400D01*
X17053560Y-6564400D01*
X16988560Y-6629400D01*
X17053560Y-6694400D01*
D17*
X13537090Y-7488000D02*
X13767090Y-7718000D01*
X13767090Y-7488000D02*
X13537090Y-7718000D01*
X13767090Y-7603000D02*
G75*
G03*
X13767090Y-7603000I-115000J0D01*
G01*
X13537090Y-8802000D02*
X13767090Y-9032000D01*
X13767090Y-8802000D02*
X13537090Y-9032000D01*
X13767090Y-8917000D02*
G75*
G03*
X13767090Y-8917000I-115000J0D01*
G01*
D11*
X12822619Y-9555476D02*
X12822619Y-9355476D01*
X12870238Y-9355476D01*
X12898809Y-9365000D01*
X12917857Y-9384048D01*
X12927381Y-9403095D01*
X12936905Y-9441190D01*
X12936905Y-9469762D01*
X12927381Y-9507857D01*
X12917857Y-9526905D01*
X12898809Y-9545952D01*
X12870238Y-9555476D01*
X12822619Y-9555476D01*
X13022619Y-9555476D02*
X13022619Y-9422143D01*
X13022619Y-9460238D02*
X13032143Y-9441190D01*
X13041667Y-9431667D01*
X13060714Y-9422143D01*
X13079762Y-9422143D01*
X13146428Y-9555476D02*
X13146428Y-9422143D01*
X13146428Y-9355476D02*
X13136905Y-9365000D01*
X13146428Y-9374524D01*
X13155952Y-9365000D01*
X13146428Y-9355476D01*
X13146428Y-9374524D01*
X13270238Y-9555476D02*
X13251190Y-9545952D01*
X13241667Y-9526905D01*
X13241667Y-9355476D01*
X13375000Y-9555476D02*
X13355952Y-9545952D01*
X13346428Y-9526905D01*
X13346428Y-9355476D01*
X13603571Y-9555476D02*
X13603571Y-9355476D01*
X13670238Y-9498333D01*
X13736905Y-9355476D01*
X13736905Y-9555476D01*
X13917857Y-9555476D02*
X13917857Y-9450714D01*
X13908333Y-9431667D01*
X13889286Y-9422143D01*
X13851190Y-9422143D01*
X13832143Y-9431667D01*
X13917857Y-9545952D02*
X13898809Y-9555476D01*
X13851190Y-9555476D01*
X13832143Y-9545952D01*
X13822619Y-9526905D01*
X13822619Y-9507857D01*
X13832143Y-9488810D01*
X13851190Y-9479286D01*
X13898809Y-9479286D01*
X13917857Y-9469762D01*
X14013095Y-9422143D02*
X14013095Y-9622143D01*
X14013095Y-9431667D02*
X14032143Y-9422143D01*
X14070238Y-9422143D01*
X14089286Y-9431667D01*
X14098809Y-9441190D01*
X14108333Y-9460238D01*
X14108333Y-9517381D01*
X14098809Y-9536429D01*
X14089286Y-9545952D01*
X14070238Y-9555476D01*
X14032143Y-9555476D01*
X14013095Y-9545952D01*
X14194048Y-9536429D02*
X14203571Y-9545952D01*
X14194048Y-9555476D01*
X14184524Y-9545952D01*
X14194048Y-9536429D01*
X14194048Y-9555476D01*
X14194048Y-9431667D02*
X14203571Y-9441190D01*
X14194048Y-9450714D01*
X14184524Y-9441190D01*
X14194048Y-9431667D01*
X14194048Y-9450714D01*
D12*
X12535000Y-9870000D02*
X12565000Y-9900000D01*
X12565000Y-9870000D02*
X12535000Y-9900000D01*
D11*
X12860714Y-9775476D02*
X12879762Y-9775476D01*
X12898809Y-9785000D01*
X12908333Y-9794524D01*
X12917857Y-9813571D01*
X12927381Y-9851667D01*
X12927381Y-9899286D01*
X12917857Y-9937381D01*
X12908333Y-9956429D01*
X12898809Y-9965952D01*
X12879762Y-9975476D01*
X12860714Y-9975476D01*
X12841667Y-9965952D01*
X12832143Y-9956429D01*
X12822619Y-9937381D01*
X12813095Y-9899286D01*
X12813095Y-9851667D01*
X12822619Y-9813571D01*
X12832143Y-9794524D01*
X12841667Y-9785000D01*
X12860714Y-9775476D01*
X13013095Y-9956429D02*
X13022619Y-9965952D01*
X13013095Y-9975476D01*
X13003571Y-9965952D01*
X13013095Y-9956429D01*
X13013095Y-9975476D01*
X13089286Y-9775476D02*
X13213095Y-9775476D01*
X13146428Y-9851667D01*
X13175000Y-9851667D01*
X13194048Y-9861190D01*
X13203571Y-9870714D01*
X13213095Y-9889762D01*
X13213095Y-9937381D01*
X13203571Y-9956429D01*
X13194048Y-9965952D01*
X13175000Y-9975476D01*
X13117857Y-9975476D01*
X13098809Y-9965952D01*
X13089286Y-9956429D01*
X13336905Y-9775476D02*
X13355952Y-9775476D01*
X13375000Y-9785000D01*
X13384524Y-9794524D01*
X13394048Y-9813571D01*
X13403571Y-9851667D01*
X13403571Y-9899286D01*
X13394048Y-9937381D01*
X13384524Y-9956429D01*
X13375000Y-9965952D01*
X13355952Y-9975476D01*
X13336905Y-9975476D01*
X13317857Y-9965952D01*
X13308333Y-9956429D01*
X13298809Y-9937381D01*
X13289286Y-9899286D01*
X13289286Y-9851667D01*
X13298809Y-9813571D01*
X13308333Y-9794524D01*
X13317857Y-9785000D01*
X13336905Y-9775476D01*
X13527381Y-9775476D02*
X13546428Y-9775476D01*
X13565476Y-9785000D01*
X13575000Y-9794524D01*
X13584524Y-9813571D01*
X13594048Y-9851667D01*
X13594048Y-9899286D01*
X13584524Y-9937381D01*
X13575000Y-9956429D01*
X13565476Y-9965952D01*
X13546428Y-9975476D01*
X13527381Y-9975476D01*
X13508333Y-9965952D01*
X13498809Y-9956429D01*
X13489286Y-9937381D01*
X13479762Y-9899286D01*
X13479762Y-9851667D01*
X13489286Y-9813571D01*
X13498809Y-9794524D01*
X13508333Y-9785000D01*
X13527381Y-9775476D01*
X13679762Y-9975476D02*
X13679762Y-9842143D01*
X13679762Y-9861190D02*
X13689286Y-9851667D01*
X13708333Y-9842143D01*
X13736905Y-9842143D01*
X13755952Y-9851667D01*
X13765476Y-9870714D01*
X13765476Y-9975476D01*
X13765476Y-9870714D02*
X13775000Y-9851667D01*
X13794048Y-9842143D01*
X13822619Y-9842143D01*
X13841667Y-9851667D01*
X13851190Y-9870714D01*
X13851190Y-9975476D01*
X13946428Y-9975476D02*
X13946428Y-9842143D01*
X13946428Y-9861190D02*
X13955952Y-9851667D01*
X13975000Y-9842143D01*
X14003571Y-9842143D01*
X14022619Y-9851667D01*
X14032143Y-9870714D01*
X14032143Y-9975476D01*
X14032143Y-9870714D02*
X14041667Y-9851667D01*
X14060714Y-9842143D01*
X14089286Y-9842143D01*
X14108333Y-9851667D01*
X14117857Y-9870714D01*
X14117857Y-9975476D01*
X14508333Y-9765952D02*
X14336905Y-10023095D01*
X14765476Y-9775476D02*
X14784524Y-9775476D01*
X14803571Y-9785000D01*
X14813095Y-9794524D01*
X14822619Y-9813571D01*
X14832143Y-9851667D01*
X14832143Y-9899286D01*
X14822619Y-9937381D01*
X14813095Y-9956429D01*
X14803571Y-9965952D01*
X14784524Y-9975476D01*
X14765476Y-9975476D01*
X14746428Y-9965952D01*
X14736905Y-9956429D01*
X14727381Y-9937381D01*
X14717857Y-9899286D01*
X14717857Y-9851667D01*
X14727381Y-9813571D01*
X14736905Y-9794524D01*
X14746428Y-9785000D01*
X14765476Y-9775476D01*
X14917857Y-9956429D02*
X14927381Y-9965952D01*
X14917857Y-9975476D01*
X14908333Y-9965952D01*
X14917857Y-9956429D01*
X14917857Y-9975476D01*
X15051190Y-9775476D02*
X15070238Y-9775476D01*
X15089286Y-9785000D01*
X15098809Y-9794524D01*
X15108333Y-9813571D01*
X15117857Y-9851667D01*
X15117857Y-9899286D01*
X15108333Y-9937381D01*
X15098809Y-9956429D01*
X15089286Y-9965952D01*
X15070238Y-9975476D01*
X15051190Y-9975476D01*
X15032143Y-9965952D01*
X15022619Y-9956429D01*
X15013095Y-9937381D01*
X15003571Y-9899286D01*
X15003571Y-9851667D01*
X15013095Y-9813571D01*
X15022619Y-9794524D01*
X15032143Y-9785000D01*
X15051190Y-9775476D01*
X15308333Y-9975476D02*
X15194048Y-9975476D01*
X15251190Y-9975476D02*
X15251190Y-9775476D01*
X15232143Y-9804048D01*
X15213095Y-9823095D01*
X15194048Y-9832619D01*
X15498809Y-9975476D02*
X15384524Y-9975476D01*
X15441667Y-9975476D02*
X15441667Y-9775476D01*
X15422619Y-9804048D01*
X15403571Y-9823095D01*
X15384524Y-9832619D01*
X15613095Y-9861190D02*
X15594048Y-9851667D01*
X15584524Y-9842143D01*
X15575000Y-9823095D01*
X15575000Y-9813571D01*
X15584524Y-9794524D01*
X15594048Y-9785000D01*
X15613095Y-9775476D01*
X15651190Y-9775476D01*
X15670238Y-9785000D01*
X15679762Y-9794524D01*
X15689286Y-9813571D01*
X15689286Y-9823095D01*
X15679762Y-9842143D01*
X15670238Y-9851667D01*
X15651190Y-9861190D01*
X15613095Y-9861190D01*
X15594048Y-9870714D01*
X15584524Y-9880238D01*
X15575000Y-9899286D01*
X15575000Y-9937381D01*
X15584524Y-9956429D01*
X15594048Y-9965952D01*
X15613095Y-9975476D01*
X15651190Y-9975476D01*
X15670238Y-9965952D01*
X15679762Y-9956429D01*
X15689286Y-9937381D01*
X15689286Y-9899286D01*
X15679762Y-9880238D01*
X15670238Y-9870714D01*
X15651190Y-9861190D01*
X15765476Y-9775476D02*
X15765476Y-9813571D01*
X15841667Y-9775476D02*
X15841667Y-9813571D01*
X16136905Y-10051667D02*
X16127381Y-10042143D01*
X16108333Y-10013571D01*
X16098809Y-9994524D01*
X16089286Y-9965952D01*
X16079762Y-9918333D01*
X16079762Y-9880238D01*
X16089286Y-9832619D01*
X16098809Y-9804048D01*
X16108333Y-9785000D01*
X16127381Y-9756429D01*
X16136905Y-9746905D01*
X16194048Y-9775476D02*
X16317857Y-9775476D01*
X16251190Y-9851667D01*
X16279762Y-9851667D01*
X16298809Y-9861190D01*
X16308333Y-9870714D01*
X16317857Y-9889762D01*
X16317857Y-9937381D01*
X16308333Y-9956429D01*
X16298809Y-9965952D01*
X16279762Y-9975476D01*
X16222619Y-9975476D01*
X16203571Y-9965952D01*
X16194048Y-9956429D01*
X16432143Y-9861190D02*
X16413095Y-9851667D01*
X16403571Y-9842143D01*
X16394048Y-9823095D01*
X16394048Y-9813571D01*
X16403571Y-9794524D01*
X16413095Y-9785000D01*
X16432143Y-9775476D01*
X16470238Y-9775476D01*
X16489286Y-9785000D01*
X16498809Y-9794524D01*
X16508333Y-9813571D01*
X16508333Y-9823095D01*
X16498809Y-9842143D01*
X16489286Y-9851667D01*
X16470238Y-9861190D01*
X16432143Y-9861190D01*
X16413095Y-9870714D01*
X16403571Y-9880238D01*
X16394048Y-9899286D01*
X16394048Y-9937381D01*
X16403571Y-9956429D01*
X16413095Y-9965952D01*
X16432143Y-9975476D01*
X16470238Y-9975476D01*
X16489286Y-9965952D01*
X16498809Y-9956429D01*
X16508333Y-9937381D01*
X16508333Y-9899286D01*
X16498809Y-9880238D01*
X16489286Y-9870714D01*
X16470238Y-9861190D01*
X16746428Y-9975476D02*
X16746428Y-9775476D01*
X16832143Y-9975476D02*
X16832143Y-9870714D01*
X16822619Y-9851667D01*
X16803571Y-9842143D01*
X16775000Y-9842143D01*
X16755952Y-9851667D01*
X16746428Y-9861190D01*
X16955952Y-9975476D02*
X16936905Y-9965952D01*
X16927381Y-9956429D01*
X16917857Y-9937381D01*
X16917857Y-9880238D01*
X16927381Y-9861190D01*
X16936905Y-9851667D01*
X16955952Y-9842143D01*
X16984524Y-9842143D01*
X17003571Y-9851667D01*
X17013095Y-9861190D01*
X17022619Y-9880238D01*
X17022619Y-9937381D01*
X17013095Y-9956429D01*
X17003571Y-9965952D01*
X16984524Y-9975476D01*
X16955952Y-9975476D01*
X17136905Y-9975476D02*
X17117857Y-9965952D01*
X17108333Y-9946905D01*
X17108333Y-9775476D01*
X17289286Y-9965952D02*
X17270238Y-9975476D01*
X17232143Y-9975476D01*
X17213095Y-9965952D01*
X17203571Y-9946905D01*
X17203571Y-9870714D01*
X17213095Y-9851667D01*
X17232143Y-9842143D01*
X17270238Y-9842143D01*
X17289286Y-9851667D01*
X17298810Y-9870714D01*
X17298810Y-9889762D01*
X17203571Y-9908810D01*
X17375000Y-9965952D02*
X17394048Y-9975476D01*
X17432143Y-9975476D01*
X17451190Y-9965952D01*
X17460714Y-9946905D01*
X17460714Y-9937381D01*
X17451190Y-9918333D01*
X17432143Y-9908810D01*
X17403571Y-9908810D01*
X17384524Y-9899286D01*
X17375000Y-9880238D01*
X17375000Y-9870714D01*
X17384524Y-9851667D01*
X17403571Y-9842143D01*
X17432143Y-9842143D01*
X17451190Y-9851667D01*
X17527381Y-10051667D02*
X17536905Y-10042143D01*
X17555952Y-10013571D01*
X17565476Y-9994524D01*
X17575000Y-9965952D01*
X17584524Y-9918333D01*
X17584524Y-9880238D01*
X17575000Y-9832619D01*
X17565476Y-9804048D01*
X17555952Y-9785000D01*
X17536905Y-9756429D01*
X17527381Y-9746905D01*
D13*
X12565000Y-10149000D02*
G75*
G03*
X12565000Y-10149000I-20000J0D01*
G01*
D11*
X12860714Y-10039476D02*
X12879762Y-10039476D01*
X12898809Y-10049000D01*
X12908333Y-10058524D01*
X12917857Y-10077571D01*
X12927381Y-10115667D01*
X12927381Y-10163286D01*
X12917857Y-10201381D01*
X12908333Y-10220429D01*
X12898809Y-10229952D01*
X12879762Y-10239476D01*
X12860714Y-10239476D01*
X12841667Y-10229952D01*
X12832143Y-10220429D01*
X12822619Y-10201381D01*
X12813095Y-10163286D01*
X12813095Y-10115667D01*
X12822619Y-10077571D01*
X12832143Y-10058524D01*
X12841667Y-10049000D01*
X12860714Y-10039476D01*
X13013095Y-10220429D02*
X13022619Y-10229952D01*
X13013095Y-10239476D01*
X13003571Y-10229952D01*
X13013095Y-10220429D01*
X13013095Y-10239476D01*
X13194048Y-10106143D02*
X13194048Y-10239476D01*
X13146428Y-10029952D02*
X13098809Y-10172810D01*
X13222619Y-10172810D01*
X13336905Y-10039476D02*
X13355952Y-10039476D01*
X13375000Y-10049000D01*
X13384524Y-10058524D01*
X13394048Y-10077571D01*
X13403571Y-10115667D01*
X13403571Y-10163286D01*
X13394048Y-10201381D01*
X13384524Y-10220429D01*
X13375000Y-10229952D01*
X13355952Y-10239476D01*
X13336905Y-10239476D01*
X13317857Y-10229952D01*
X13308333Y-10220429D01*
X13298809Y-10201381D01*
X13289286Y-10163286D01*
X13289286Y-10115667D01*
X13298809Y-10077571D01*
X13308333Y-10058524D01*
X13317857Y-10049000D01*
X13336905Y-10039476D01*
X13527381Y-10039476D02*
X13546428Y-10039476D01*
X13565476Y-10049000D01*
X13575000Y-10058524D01*
X13584524Y-10077571D01*
X13594048Y-10115667D01*
X13594048Y-10163286D01*
X13584524Y-10201381D01*
X13575000Y-10220429D01*
X13565476Y-10229952D01*
X13546428Y-10239476D01*
X13527381Y-10239476D01*
X13508333Y-10229952D01*
X13498809Y-10220429D01*
X13489286Y-10201381D01*
X13479762Y-10163286D01*
X13479762Y-10115667D01*
X13489286Y-10077571D01*
X13498809Y-10058524D01*
X13508333Y-10049000D01*
X13527381Y-10039476D01*
X13679762Y-10239476D02*
X13679762Y-10106143D01*
X13679762Y-10125190D02*
X13689286Y-10115667D01*
X13708333Y-10106143D01*
X13736905Y-10106143D01*
X13755952Y-10115667D01*
X13765476Y-10134714D01*
X13765476Y-10239476D01*
X13765476Y-10134714D02*
X13775000Y-10115667D01*
X13794048Y-10106143D01*
X13822619Y-10106143D01*
X13841667Y-10115667D01*
X13851190Y-10134714D01*
X13851190Y-10239476D01*
X13946428Y-10239476D02*
X13946428Y-10106143D01*
X13946428Y-10125190D02*
X13955952Y-10115667D01*
X13975000Y-10106143D01*
X14003571Y-10106143D01*
X14022619Y-10115667D01*
X14032143Y-10134714D01*
X14032143Y-10239476D01*
X14032143Y-10134714D02*
X14041667Y-10115667D01*
X14060714Y-10106143D01*
X14089286Y-10106143D01*
X14108333Y-10115667D01*
X14117857Y-10134714D01*
X14117857Y-10239476D01*
X14508333Y-10029952D02*
X14336905Y-10287095D01*
X14765476Y-10039476D02*
X14784524Y-10039476D01*
X14803571Y-10049000D01*
X14813095Y-10058524D01*
X14822619Y-10077571D01*
X14832143Y-10115667D01*
X14832143Y-10163286D01*
X14822619Y-10201381D01*
X14813095Y-10220429D01*
X14803571Y-10229952D01*
X14784524Y-10239476D01*
X14765476Y-10239476D01*
X14746428Y-10229952D01*
X14736905Y-10220429D01*
X14727381Y-10201381D01*
X14717857Y-10163286D01*
X14717857Y-10115667D01*
X14727381Y-10077571D01*
X14736905Y-10058524D01*
X14746428Y-10049000D01*
X14765476Y-10039476D01*
X14917857Y-10220429D02*
X14927381Y-10229952D01*
X14917857Y-10239476D01*
X14908333Y-10229952D01*
X14917857Y-10220429D01*
X14917857Y-10239476D01*
X15051190Y-10039476D02*
X15070238Y-10039476D01*
X15089286Y-10049000D01*
X15098809Y-10058524D01*
X15108333Y-10077571D01*
X15117857Y-10115667D01*
X15117857Y-10163286D01*
X15108333Y-10201381D01*
X15098809Y-10220429D01*
X15089286Y-10229952D01*
X15070238Y-10239476D01*
X15051190Y-10239476D01*
X15032143Y-10229952D01*
X15022619Y-10220429D01*
X15013095Y-10201381D01*
X15003571Y-10163286D01*
X15003571Y-10115667D01*
X15013095Y-10077571D01*
X15022619Y-10058524D01*
X15032143Y-10049000D01*
X15051190Y-10039476D01*
X15308333Y-10239476D02*
X15194048Y-10239476D01*
X15251190Y-10239476D02*
X15251190Y-10039476D01*
X15232143Y-10068048D01*
X15213095Y-10087095D01*
X15194048Y-10096619D01*
X15489286Y-10039476D02*
X15394048Y-10039476D01*
X15384524Y-10134714D01*
X15394048Y-10125190D01*
X15413095Y-10115667D01*
X15460714Y-10115667D01*
X15479762Y-10125190D01*
X15489286Y-10134714D01*
X15498809Y-10153762D01*
X15498809Y-10201381D01*
X15489286Y-10220429D01*
X15479762Y-10229952D01*
X15460714Y-10239476D01*
X15413095Y-10239476D01*
X15394048Y-10229952D01*
X15384524Y-10220429D01*
X15565476Y-10039476D02*
X15698809Y-10039476D01*
X15613095Y-10239476D01*
X15765476Y-10039476D02*
X15765476Y-10077571D01*
X15841667Y-10039476D02*
X15841667Y-10077571D01*
X16136905Y-10315667D02*
X16127381Y-10306143D01*
X16108333Y-10277571D01*
X16098809Y-10258524D01*
X16089286Y-10229952D01*
X16079762Y-10182333D01*
X16079762Y-10144238D01*
X16089286Y-10096619D01*
X16098809Y-10068048D01*
X16108333Y-10049000D01*
X16127381Y-10020429D01*
X16136905Y-10010905D01*
X16194048Y-10039476D02*
X16317857Y-10039476D01*
X16251190Y-10115667D01*
X16279762Y-10115667D01*
X16298809Y-10125190D01*
X16308333Y-10134714D01*
X16317857Y-10153762D01*
X16317857Y-10201381D01*
X16308333Y-10220429D01*
X16298809Y-10229952D01*
X16279762Y-10239476D01*
X16222619Y-10239476D01*
X16203571Y-10229952D01*
X16194048Y-10220429D01*
X16441667Y-10039476D02*
X16460714Y-10039476D01*
X16479762Y-10049000D01*
X16489286Y-10058524D01*
X16498809Y-10077571D01*
X16508333Y-10115667D01*
X16508333Y-10163286D01*
X16498809Y-10201381D01*
X16489286Y-10220429D01*
X16479762Y-10229952D01*
X16460714Y-10239476D01*
X16441667Y-10239476D01*
X16422619Y-10229952D01*
X16413095Y-10220429D01*
X16403571Y-10201381D01*
X16394048Y-10163286D01*
X16394048Y-10115667D01*
X16403571Y-10077571D01*
X16413095Y-10058524D01*
X16422619Y-10049000D01*
X16441667Y-10039476D01*
X16746428Y-10239476D02*
X16746428Y-10039476D01*
X16832143Y-10239476D02*
X16832143Y-10134714D01*
X16822619Y-10115667D01*
X16803571Y-10106143D01*
X16775000Y-10106143D01*
X16755952Y-10115667D01*
X16746428Y-10125190D01*
X16955952Y-10239476D02*
X16936905Y-10229952D01*
X16927381Y-10220429D01*
X16917857Y-10201381D01*
X16917857Y-10144238D01*
X16927381Y-10125190D01*
X16936905Y-10115667D01*
X16955952Y-10106143D01*
X16984524Y-10106143D01*
X17003571Y-10115667D01*
X17013095Y-10125190D01*
X17022619Y-10144238D01*
X17022619Y-10201381D01*
X17013095Y-10220429D01*
X17003571Y-10229952D01*
X16984524Y-10239476D01*
X16955952Y-10239476D01*
X17136905Y-10239476D02*
X17117857Y-10229952D01*
X17108333Y-10210905D01*
X17108333Y-10039476D01*
X17289286Y-10229952D02*
X17270238Y-10239476D01*
X17232143Y-10239476D01*
X17213095Y-10229952D01*
X17203571Y-10210905D01*
X17203571Y-10134714D01*
X17213095Y-10115667D01*
X17232143Y-10106143D01*
X17270238Y-10106143D01*
X17289286Y-10115667D01*
X17298810Y-10134714D01*
X17298810Y-10153762D01*
X17203571Y-10172810D01*
X17375000Y-10229952D02*
X17394048Y-10239476D01*
X17432143Y-10239476D01*
X17451190Y-10229952D01*
X17460714Y-10210905D01*
X17460714Y-10201381D01*
X17451190Y-10182333D01*
X17432143Y-10172810D01*
X17403571Y-10172810D01*
X17384524Y-10163286D01*
X17375000Y-10144238D01*
X17375000Y-10134714D01*
X17384524Y-10115667D01*
X17403571Y-10106143D01*
X17432143Y-10106143D01*
X17451190Y-10115667D01*
X17527381Y-10315667D02*
X17536905Y-10306143D01*
X17555952Y-10277571D01*
X17565476Y-10258524D01*
X17575000Y-10229952D01*
X17584524Y-10182333D01*
X17584524Y-10144238D01*
X17575000Y-10096619D01*
X17565476Y-10068048D01*
X17555952Y-10049000D01*
X17536905Y-10020429D01*
X17527381Y-10010905D01*
D14*
X12517500Y-10365500D02*
X12517500Y-10460500D01*
X12470000Y-10413000D02*
X12565000Y-10413000D01*
D11*
X12860714Y-10303476D02*
X12879762Y-10303476D01*
X12898809Y-10313000D01*
X12908333Y-10322524D01*
X12917857Y-10341571D01*
X12927381Y-10379667D01*
X12927381Y-10427286D01*
X12917857Y-10465381D01*
X12908333Y-10484429D01*
X12898809Y-10493952D01*
X12879762Y-10503476D01*
X12860714Y-10503476D01*
X12841667Y-10493952D01*
X12832143Y-10484429D01*
X12822619Y-10465381D01*
X12813095Y-10427286D01*
X12813095Y-10379667D01*
X12822619Y-10341571D01*
X12832143Y-10322524D01*
X12841667Y-10313000D01*
X12860714Y-10303476D01*
X13013095Y-10484429D02*
X13022619Y-10493952D01*
X13013095Y-10503476D01*
X13003571Y-10493952D01*
X13013095Y-10484429D01*
X13013095Y-10503476D01*
X13117857Y-10503476D02*
X13155952Y-10503476D01*
X13175000Y-10493952D01*
X13184524Y-10484429D01*
X13203571Y-10455857D01*
X13213095Y-10417762D01*
X13213095Y-10341571D01*
X13203571Y-10322524D01*
X13194048Y-10313000D01*
X13175000Y-10303476D01*
X13136905Y-10303476D01*
X13117857Y-10313000D01*
X13108333Y-10322524D01*
X13098809Y-10341571D01*
X13098809Y-10389190D01*
X13108333Y-10408238D01*
X13117857Y-10417762D01*
X13136905Y-10427286D01*
X13175000Y-10427286D01*
X13194048Y-10417762D01*
X13203571Y-10408238D01*
X13213095Y-10389190D01*
X13394048Y-10303476D02*
X13298809Y-10303476D01*
X13289286Y-10398714D01*
X13298809Y-10389190D01*
X13317857Y-10379667D01*
X13365476Y-10379667D01*
X13384524Y-10389190D01*
X13394048Y-10398714D01*
X13403571Y-10417762D01*
X13403571Y-10465381D01*
X13394048Y-10484429D01*
X13384524Y-10493952D01*
X13365476Y-10503476D01*
X13317857Y-10503476D01*
X13298809Y-10493952D01*
X13289286Y-10484429D01*
X13527381Y-10303476D02*
X13546428Y-10303476D01*
X13565476Y-10313000D01*
X13575000Y-10322524D01*
X13584524Y-10341571D01*
X13594048Y-10379667D01*
X13594048Y-10427286D01*
X13584524Y-10465381D01*
X13575000Y-10484429D01*
X13565476Y-10493952D01*
X13546428Y-10503476D01*
X13527381Y-10503476D01*
X13508333Y-10493952D01*
X13498809Y-10484429D01*
X13489286Y-10465381D01*
X13479762Y-10427286D01*
X13479762Y-10379667D01*
X13489286Y-10341571D01*
X13498809Y-10322524D01*
X13508333Y-10313000D01*
X13527381Y-10303476D01*
X13679762Y-10503476D02*
X13679762Y-10370143D01*
X13679762Y-10389190D02*
X13689286Y-10379667D01*
X13708333Y-10370143D01*
X13736905Y-10370143D01*
X13755952Y-10379667D01*
X13765476Y-10398714D01*
X13765476Y-10503476D01*
X13765476Y-10398714D02*
X13775000Y-10379667D01*
X13794048Y-10370143D01*
X13822619Y-10370143D01*
X13841667Y-10379667D01*
X13851190Y-10398714D01*
X13851190Y-10503476D01*
X13946428Y-10503476D02*
X13946428Y-10370143D01*
X13946428Y-10389190D02*
X13955952Y-10379667D01*
X13975000Y-10370143D01*
X14003571Y-10370143D01*
X14022619Y-10379667D01*
X14032143Y-10398714D01*
X14032143Y-10503476D01*
X14032143Y-10398714D02*
X14041667Y-10379667D01*
X14060714Y-10370143D01*
X14089286Y-10370143D01*
X14108333Y-10379667D01*
X14117857Y-10398714D01*
X14117857Y-10503476D01*
X14508333Y-10293952D02*
X14336905Y-10551095D01*
X14765476Y-10303476D02*
X14784524Y-10303476D01*
X14803571Y-10313000D01*
X14813095Y-10322524D01*
X14822619Y-10341571D01*
X14832143Y-10379667D01*
X14832143Y-10427286D01*
X14822619Y-10465381D01*
X14813095Y-10484429D01*
X14803571Y-10493952D01*
X14784524Y-10503476D01*
X14765476Y-10503476D01*
X14746428Y-10493952D01*
X14736905Y-10484429D01*
X14727381Y-10465381D01*
X14717857Y-10427286D01*
X14717857Y-10379667D01*
X14727381Y-10341571D01*
X14736905Y-10322524D01*
X14746428Y-10313000D01*
X14765476Y-10303476D01*
X14917857Y-10484429D02*
X14927381Y-10493952D01*
X14917857Y-10503476D01*
X14908333Y-10493952D01*
X14917857Y-10484429D01*
X14917857Y-10503476D01*
X15051190Y-10303476D02*
X15070238Y-10303476D01*
X15089286Y-10313000D01*
X15098809Y-10322524D01*
X15108333Y-10341571D01*
X15117857Y-10379667D01*
X15117857Y-10427286D01*
X15108333Y-10465381D01*
X15098809Y-10484429D01*
X15089286Y-10493952D01*
X15070238Y-10503476D01*
X15051190Y-10503476D01*
X15032143Y-10493952D01*
X15022619Y-10484429D01*
X15013095Y-10465381D01*
X15003571Y-10427286D01*
X15003571Y-10379667D01*
X15013095Y-10341571D01*
X15022619Y-10322524D01*
X15032143Y-10313000D01*
X15051190Y-10303476D01*
X15184524Y-10303476D02*
X15308333Y-10303476D01*
X15241667Y-10379667D01*
X15270238Y-10379667D01*
X15289286Y-10389190D01*
X15298809Y-10398714D01*
X15308333Y-10417762D01*
X15308333Y-10465381D01*
X15298809Y-10484429D01*
X15289286Y-10493952D01*
X15270238Y-10503476D01*
X15213095Y-10503476D01*
X15194048Y-10493952D01*
X15184524Y-10484429D01*
X15375000Y-10303476D02*
X15508333Y-10303476D01*
X15422619Y-10503476D01*
X15670238Y-10370143D02*
X15670238Y-10503476D01*
X15622619Y-10293952D02*
X15575000Y-10436810D01*
X15698809Y-10436810D01*
X15765476Y-10303476D02*
X15765476Y-10341571D01*
X15841667Y-10303476D02*
X15841667Y-10341571D01*
X16136905Y-10579667D02*
X16127381Y-10570143D01*
X16108333Y-10541571D01*
X16098809Y-10522524D01*
X16089286Y-10493952D01*
X16079762Y-10446333D01*
X16079762Y-10408238D01*
X16089286Y-10360619D01*
X16098809Y-10332048D01*
X16108333Y-10313000D01*
X16127381Y-10284429D01*
X16136905Y-10274905D01*
X16194048Y-10303476D02*
X16317857Y-10303476D01*
X16251190Y-10379667D01*
X16279762Y-10379667D01*
X16298809Y-10389190D01*
X16308333Y-10398714D01*
X16317857Y-10417762D01*
X16317857Y-10465381D01*
X16308333Y-10484429D01*
X16298809Y-10493952D01*
X16279762Y-10503476D01*
X16222619Y-10503476D01*
X16203571Y-10493952D01*
X16194048Y-10484429D01*
X16489286Y-10370143D02*
X16489286Y-10503476D01*
X16441667Y-10293952D02*
X16394048Y-10436810D01*
X16517857Y-10436810D01*
X16746428Y-10503476D02*
X16746428Y-10303476D01*
X16832143Y-10503476D02*
X16832143Y-10398714D01*
X16822619Y-10379667D01*
X16803571Y-10370143D01*
X16775000Y-10370143D01*
X16755952Y-10379667D01*
X16746428Y-10389190D01*
X16955952Y-10503476D02*
X16936905Y-10493952D01*
X16927381Y-10484429D01*
X16917857Y-10465381D01*
X16917857Y-10408238D01*
X16927381Y-10389190D01*
X16936905Y-10379667D01*
X16955952Y-10370143D01*
X16984524Y-10370143D01*
X17003571Y-10379667D01*
X17013095Y-10389190D01*
X17022619Y-10408238D01*
X17022619Y-10465381D01*
X17013095Y-10484429D01*
X17003571Y-10493952D01*
X16984524Y-10503476D01*
X16955952Y-10503476D01*
X17136905Y-10503476D02*
X17117857Y-10493952D01*
X17108333Y-10474905D01*
X17108333Y-10303476D01*
X17289286Y-10493952D02*
X17270238Y-10503476D01*
X17232143Y-10503476D01*
X17213095Y-10493952D01*
X17203571Y-10474905D01*
X17203571Y-10398714D01*
X17213095Y-10379667D01*
X17232143Y-10370143D01*
X17270238Y-10370143D01*
X17289286Y-10379667D01*
X17298810Y-10398714D01*
X17298810Y-10417762D01*
X17203571Y-10436810D01*
X17375000Y-10493952D02*
X17394048Y-10503476D01*
X17432143Y-10503476D01*
X17451190Y-10493952D01*
X17460714Y-10474905D01*
X17460714Y-10465381D01*
X17451190Y-10446333D01*
X17432143Y-10436810D01*
X17403571Y-10436810D01*
X17384524Y-10427286D01*
X17375000Y-10408238D01*
X17375000Y-10398714D01*
X17384524Y-10379667D01*
X17403571Y-10370143D01*
X17432143Y-10370143D01*
X17451190Y-10379667D01*
X17527381Y-10579667D02*
X17536905Y-10570143D01*
X17555952Y-10541571D01*
X17565476Y-10522524D01*
X17575000Y-10493952D01*
X17584524Y-10446333D01*
X17584524Y-10408238D01*
X17575000Y-10360619D01*
X17565476Y-10332048D01*
X17555952Y-10313000D01*
X17536905Y-10284429D01*
X17527381Y-10274905D01*
D15*
X12550356Y-10712356D02*
X12550356Y-10641644D01*
X12479644Y-10641644D01*
X12479644Y-10712356D01*
X12550356Y-10712356D01*
D11*
X12927381Y-10767476D02*
X12813095Y-10767476D01*
X12870238Y-10767476D02*
X12870238Y-10567476D01*
X12851190Y-10596048D01*
X12832143Y-10615095D01*
X12813095Y-10624619D01*
X13013095Y-10748429D02*
X13022619Y-10757952D01*
X13013095Y-10767476D01*
X13003571Y-10757952D01*
X13013095Y-10748429D01*
X13013095Y-10767476D01*
X13146428Y-10567476D02*
X13165476Y-10567476D01*
X13184524Y-10577000D01*
X13194048Y-10586524D01*
X13203571Y-10605571D01*
X13213095Y-10643667D01*
X13213095Y-10691286D01*
X13203571Y-10729381D01*
X13194048Y-10748429D01*
X13184524Y-10757952D01*
X13165476Y-10767476D01*
X13146428Y-10767476D01*
X13127381Y-10757952D01*
X13117857Y-10748429D01*
X13108333Y-10729381D01*
X13098809Y-10691286D01*
X13098809Y-10643667D01*
X13108333Y-10605571D01*
X13117857Y-10586524D01*
X13127381Y-10577000D01*
X13146428Y-10567476D01*
X13336905Y-10567476D02*
X13355952Y-10567476D01*
X13375000Y-10577000D01*
X13384524Y-10586524D01*
X13394048Y-10605571D01*
X13403571Y-10643667D01*
X13403571Y-10691286D01*
X13394048Y-10729381D01*
X13384524Y-10748429D01*
X13375000Y-10757952D01*
X13355952Y-10767476D01*
X13336905Y-10767476D01*
X13317857Y-10757952D01*
X13308333Y-10748429D01*
X13298809Y-10729381D01*
X13289286Y-10691286D01*
X13289286Y-10643667D01*
X13298809Y-10605571D01*
X13308333Y-10586524D01*
X13317857Y-10577000D01*
X13336905Y-10567476D01*
X13527381Y-10567476D02*
X13546428Y-10567476D01*
X13565476Y-10577000D01*
X13575000Y-10586524D01*
X13584524Y-10605571D01*
X13594048Y-10643667D01*
X13594048Y-10691286D01*
X13584524Y-10729381D01*
X13575000Y-10748429D01*
X13565476Y-10757952D01*
X13546428Y-10767476D01*
X13527381Y-10767476D01*
X13508333Y-10757952D01*
X13498809Y-10748429D01*
X13489286Y-10729381D01*
X13479762Y-10691286D01*
X13479762Y-10643667D01*
X13489286Y-10605571D01*
X13498809Y-10586524D01*
X13508333Y-10577000D01*
X13527381Y-10567476D01*
X13679762Y-10767476D02*
X13679762Y-10634143D01*
X13679762Y-10653190D02*
X13689286Y-10643667D01*
X13708333Y-10634143D01*
X13736905Y-10634143D01*
X13755952Y-10643667D01*
X13765476Y-10662714D01*
X13765476Y-10767476D01*
X13765476Y-10662714D02*
X13775000Y-10643667D01*
X13794048Y-10634143D01*
X13822619Y-10634143D01*
X13841667Y-10643667D01*
X13851190Y-10662714D01*
X13851190Y-10767476D01*
X13946428Y-10767476D02*
X13946428Y-10634143D01*
X13946428Y-10653190D02*
X13955952Y-10643667D01*
X13975000Y-10634143D01*
X14003571Y-10634143D01*
X14022619Y-10643667D01*
X14032143Y-10662714D01*
X14032143Y-10767476D01*
X14032143Y-10662714D02*
X14041667Y-10643667D01*
X14060714Y-10634143D01*
X14089286Y-10634143D01*
X14108333Y-10643667D01*
X14117857Y-10662714D01*
X14117857Y-10767476D01*
X14508333Y-10557952D02*
X14336905Y-10815095D01*
X14765476Y-10567476D02*
X14784524Y-10567476D01*
X14803571Y-10577000D01*
X14813095Y-10586524D01*
X14822619Y-10605571D01*
X14832143Y-10643667D01*
X14832143Y-10691286D01*
X14822619Y-10729381D01*
X14813095Y-10748429D01*
X14803571Y-10757952D01*
X14784524Y-10767476D01*
X14765476Y-10767476D01*
X14746428Y-10757952D01*
X14736905Y-10748429D01*
X14727381Y-10729381D01*
X14717857Y-10691286D01*
X14717857Y-10643667D01*
X14727381Y-10605571D01*
X14736905Y-10586524D01*
X14746428Y-10577000D01*
X14765476Y-10567476D01*
X14917857Y-10748429D02*
X14927381Y-10757952D01*
X14917857Y-10767476D01*
X14908333Y-10757952D01*
X14917857Y-10748429D01*
X14917857Y-10767476D01*
X15051190Y-10567476D02*
X15070238Y-10567476D01*
X15089286Y-10577000D01*
X15098809Y-10586524D01*
X15108333Y-10605571D01*
X15117857Y-10643667D01*
X15117857Y-10691286D01*
X15108333Y-10729381D01*
X15098809Y-10748429D01*
X15089286Y-10757952D01*
X15070238Y-10767476D01*
X15051190Y-10767476D01*
X15032143Y-10757952D01*
X15022619Y-10748429D01*
X15013095Y-10729381D01*
X15003571Y-10691286D01*
X15003571Y-10643667D01*
X15013095Y-10605571D01*
X15022619Y-10586524D01*
X15032143Y-10577000D01*
X15051190Y-10567476D01*
X15184524Y-10567476D02*
X15308333Y-10567476D01*
X15241667Y-10643667D01*
X15270238Y-10643667D01*
X15289286Y-10653190D01*
X15298809Y-10662714D01*
X15308333Y-10681762D01*
X15308333Y-10729381D01*
X15298809Y-10748429D01*
X15289286Y-10757952D01*
X15270238Y-10767476D01*
X15213095Y-10767476D01*
X15194048Y-10757952D01*
X15184524Y-10748429D01*
X15403571Y-10767476D02*
X15441667Y-10767476D01*
X15460714Y-10757952D01*
X15470238Y-10748429D01*
X15489286Y-10719857D01*
X15498809Y-10681762D01*
X15498809Y-10605571D01*
X15489286Y-10586524D01*
X15479762Y-10577000D01*
X15460714Y-10567476D01*
X15422619Y-10567476D01*
X15403571Y-10577000D01*
X15394048Y-10586524D01*
X15384524Y-10605571D01*
X15384524Y-10653190D01*
X15394048Y-10672238D01*
X15403571Y-10681762D01*
X15422619Y-10691286D01*
X15460714Y-10691286D01*
X15479762Y-10681762D01*
X15489286Y-10672238D01*
X15498809Y-10653190D01*
X15670238Y-10634143D02*
X15670238Y-10767476D01*
X15622619Y-10557952D02*
X15575000Y-10700810D01*
X15698809Y-10700810D01*
X15765476Y-10567476D02*
X15765476Y-10605571D01*
X15841667Y-10567476D02*
X15841667Y-10605571D01*
X16136905Y-10843667D02*
X16127381Y-10834143D01*
X16108333Y-10805571D01*
X16098809Y-10786524D01*
X16089286Y-10757952D01*
X16079762Y-10710333D01*
X16079762Y-10672238D01*
X16089286Y-10624619D01*
X16098809Y-10596048D01*
X16108333Y-10577000D01*
X16127381Y-10548429D01*
X16136905Y-10538905D01*
X16308333Y-10567476D02*
X16213095Y-10567476D01*
X16203571Y-10662714D01*
X16213095Y-10653190D01*
X16232143Y-10643667D01*
X16279762Y-10643667D01*
X16298809Y-10653190D01*
X16308333Y-10662714D01*
X16317857Y-10681762D01*
X16317857Y-10729381D01*
X16308333Y-10748429D01*
X16298809Y-10757952D01*
X16279762Y-10767476D01*
X16232143Y-10767476D01*
X16213095Y-10757952D01*
X16203571Y-10748429D01*
X16555952Y-10767476D02*
X16555952Y-10567476D01*
X16641667Y-10767476D02*
X16641667Y-10662714D01*
X16632143Y-10643667D01*
X16613095Y-10634143D01*
X16584524Y-10634143D01*
X16565476Y-10643667D01*
X16555952Y-10653190D01*
X16765476Y-10767476D02*
X16746428Y-10757952D01*
X16736905Y-10748429D01*
X16727381Y-10729381D01*
X16727381Y-10672238D01*
X16736905Y-10653190D01*
X16746428Y-10643667D01*
X16765476Y-10634143D01*
X16794048Y-10634143D01*
X16813095Y-10643667D01*
X16822619Y-10653190D01*
X16832143Y-10672238D01*
X16832143Y-10729381D01*
X16822619Y-10748429D01*
X16813095Y-10757952D01*
X16794048Y-10767476D01*
X16765476Y-10767476D01*
X16946429Y-10767476D02*
X16927381Y-10757952D01*
X16917857Y-10738905D01*
X16917857Y-10567476D01*
X17098810Y-10757952D02*
X17079762Y-10767476D01*
X17041667Y-10767476D01*
X17022619Y-10757952D01*
X17013095Y-10738905D01*
X17013095Y-10662714D01*
X17022619Y-10643667D01*
X17041667Y-10634143D01*
X17079762Y-10634143D01*
X17098810Y-10643667D01*
X17108333Y-10662714D01*
X17108333Y-10681762D01*
X17013095Y-10700810D01*
X17184524Y-10757952D02*
X17203571Y-10767476D01*
X17241667Y-10767476D01*
X17260714Y-10757952D01*
X17270238Y-10738905D01*
X17270238Y-10729381D01*
X17260714Y-10710333D01*
X17241667Y-10700810D01*
X17213095Y-10700810D01*
X17194048Y-10691286D01*
X17184524Y-10672238D01*
X17184524Y-10662714D01*
X17194048Y-10643667D01*
X17213095Y-10634143D01*
X17241667Y-10634143D01*
X17260714Y-10643667D01*
X17508333Y-10691286D02*
X17660714Y-10691286D01*
X17584524Y-10767476D02*
X17584524Y-10615095D01*
X17889286Y-10567476D02*
X18013095Y-10567476D01*
X17946429Y-10643667D01*
X17975000Y-10643667D01*
X17994048Y-10653190D01*
X18003571Y-10662714D01*
X18013095Y-10681762D01*
X18013095Y-10729381D01*
X18003571Y-10748429D01*
X17994048Y-10757952D01*
X17975000Y-10767476D01*
X17917857Y-10767476D01*
X17898810Y-10757952D01*
X17889286Y-10748429D01*
X18241667Y-10757952D02*
X18260714Y-10767476D01*
X18298810Y-10767476D01*
X18317857Y-10757952D01*
X18327381Y-10738905D01*
X18327381Y-10729381D01*
X18317857Y-10710333D01*
X18298810Y-10700810D01*
X18270238Y-10700810D01*
X18251190Y-10691286D01*
X18241667Y-10672238D01*
X18241667Y-10662714D01*
X18251190Y-10643667D01*
X18270238Y-10634143D01*
X18298810Y-10634143D01*
X18317857Y-10643667D01*
X18441667Y-10767476D02*
X18422619Y-10757952D01*
X18413095Y-10738905D01*
X18413095Y-10567476D01*
X18546429Y-10767476D02*
X18527381Y-10757952D01*
X18517857Y-10748429D01*
X18508333Y-10729381D01*
X18508333Y-10672238D01*
X18517857Y-10653190D01*
X18527381Y-10643667D01*
X18546429Y-10634143D01*
X18575000Y-10634143D01*
X18594048Y-10643667D01*
X18603571Y-10653190D01*
X18613095Y-10672238D01*
X18613095Y-10729381D01*
X18603571Y-10748429D01*
X18594048Y-10757952D01*
X18575000Y-10767476D01*
X18546429Y-10767476D01*
X18670238Y-10634143D02*
X18746429Y-10634143D01*
X18698810Y-10567476D02*
X18698810Y-10738905D01*
X18708333Y-10757952D01*
X18727381Y-10767476D01*
X18746429Y-10767476D01*
X18803571Y-10757952D02*
X18822619Y-10767476D01*
X18860714Y-10767476D01*
X18879762Y-10757952D01*
X18889286Y-10738905D01*
X18889286Y-10729381D01*
X18879762Y-10710333D01*
X18860714Y-10700810D01*
X18832143Y-10700810D01*
X18813095Y-10691286D01*
X18803571Y-10672238D01*
X18803571Y-10662714D01*
X18813095Y-10643667D01*
X18832143Y-10634143D01*
X18860714Y-10634143D01*
X18879762Y-10643667D01*
X18955952Y-10843667D02*
X18965476Y-10834143D01*
X18984524Y-10805571D01*
X18994048Y-10786524D01*
X19003571Y-10757952D01*
X19013095Y-10710333D01*
X19013095Y-10672238D01*
X19003571Y-10624619D01*
X18994048Y-10596048D01*
X18984524Y-10577000D01*
X18965476Y-10548429D01*
X18955952Y-10538905D01*
D16*
X12500000Y-11006000D02*
X12565000Y-10941000D01*
X12500000Y-10876000D01*
X12435000Y-10941000D01*
X12500000Y-11006000D01*
D11*
X12927381Y-11031476D02*
X12813095Y-11031476D01*
X12870238Y-11031476D02*
X12870238Y-10831476D01*
X12851190Y-10860048D01*
X12832143Y-10879095D01*
X12813095Y-10888619D01*
X13013095Y-11012429D02*
X13022619Y-11021952D01*
X13013095Y-11031476D01*
X13003571Y-11021952D01*
X13013095Y-11012429D01*
X13013095Y-11031476D01*
X13089286Y-10831476D02*
X13213095Y-10831476D01*
X13146428Y-10907667D01*
X13175000Y-10907667D01*
X13194048Y-10917190D01*
X13203571Y-10926714D01*
X13213095Y-10945762D01*
X13213095Y-10993381D01*
X13203571Y-11012429D01*
X13194048Y-11021952D01*
X13175000Y-11031476D01*
X13117857Y-11031476D01*
X13098809Y-11021952D01*
X13089286Y-11012429D01*
X13336905Y-10831476D02*
X13355952Y-10831476D01*
X13375000Y-10841000D01*
X13384524Y-10850524D01*
X13394048Y-10869571D01*
X13403571Y-10907667D01*
X13403571Y-10955286D01*
X13394048Y-10993381D01*
X13384524Y-11012429D01*
X13375000Y-11021952D01*
X13355952Y-11031476D01*
X13336905Y-11031476D01*
X13317857Y-11021952D01*
X13308333Y-11012429D01*
X13298809Y-10993381D01*
X13289286Y-10955286D01*
X13289286Y-10907667D01*
X13298809Y-10869571D01*
X13308333Y-10850524D01*
X13317857Y-10841000D01*
X13336905Y-10831476D01*
X13527381Y-10831476D02*
X13546428Y-10831476D01*
X13565476Y-10841000D01*
X13575000Y-10850524D01*
X13584524Y-10869571D01*
X13594048Y-10907667D01*
X13594048Y-10955286D01*
X13584524Y-10993381D01*
X13575000Y-11012429D01*
X13565476Y-11021952D01*
X13546428Y-11031476D01*
X13527381Y-11031476D01*
X13508333Y-11021952D01*
X13498809Y-11012429D01*
X13489286Y-10993381D01*
X13479762Y-10955286D01*
X13479762Y-10907667D01*
X13489286Y-10869571D01*
X13498809Y-10850524D01*
X13508333Y-10841000D01*
X13527381Y-10831476D01*
X13679762Y-11031476D02*
X13679762Y-10898143D01*
X13679762Y-10917190D02*
X13689286Y-10907667D01*
X13708333Y-10898143D01*
X13736905Y-10898143D01*
X13755952Y-10907667D01*
X13765476Y-10926714D01*
X13765476Y-11031476D01*
X13765476Y-10926714D02*
X13775000Y-10907667D01*
X13794048Y-10898143D01*
X13822619Y-10898143D01*
X13841667Y-10907667D01*
X13851190Y-10926714D01*
X13851190Y-11031476D01*
X13946428Y-11031476D02*
X13946428Y-10898143D01*
X13946428Y-10917190D02*
X13955952Y-10907667D01*
X13975000Y-10898143D01*
X14003571Y-10898143D01*
X14022619Y-10907667D01*
X14032143Y-10926714D01*
X14032143Y-11031476D01*
X14032143Y-10926714D02*
X14041667Y-10907667D01*
X14060714Y-10898143D01*
X14089286Y-10898143D01*
X14108333Y-10907667D01*
X14117857Y-10926714D01*
X14117857Y-11031476D01*
X14508333Y-10821952D02*
X14336905Y-11079095D01*
X14765476Y-10831476D02*
X14784524Y-10831476D01*
X14803571Y-10841000D01*
X14813095Y-10850524D01*
X14822619Y-10869571D01*
X14832143Y-10907667D01*
X14832143Y-10955286D01*
X14822619Y-10993381D01*
X14813095Y-11012429D01*
X14803571Y-11021952D01*
X14784524Y-11031476D01*
X14765476Y-11031476D01*
X14746428Y-11021952D01*
X14736905Y-11012429D01*
X14727381Y-10993381D01*
X14717857Y-10955286D01*
X14717857Y-10907667D01*
X14727381Y-10869571D01*
X14736905Y-10850524D01*
X14746428Y-10841000D01*
X14765476Y-10831476D01*
X14917857Y-11012429D02*
X14927381Y-11021952D01*
X14917857Y-11031476D01*
X14908333Y-11021952D01*
X14917857Y-11012429D01*
X14917857Y-11031476D01*
X15051190Y-10831476D02*
X15070238Y-10831476D01*
X15089286Y-10841000D01*
X15098809Y-10850524D01*
X15108333Y-10869571D01*
X15117857Y-10907667D01*
X15117857Y-10955286D01*
X15108333Y-10993381D01*
X15098809Y-11012429D01*
X15089286Y-11021952D01*
X15070238Y-11031476D01*
X15051190Y-11031476D01*
X15032143Y-11021952D01*
X15022619Y-11012429D01*
X15013095Y-10993381D01*
X15003571Y-10955286D01*
X15003571Y-10907667D01*
X15013095Y-10869571D01*
X15022619Y-10850524D01*
X15032143Y-10841000D01*
X15051190Y-10831476D01*
X15298809Y-10831476D02*
X15203571Y-10831476D01*
X15194048Y-10926714D01*
X15203571Y-10917190D01*
X15222619Y-10907667D01*
X15270238Y-10907667D01*
X15289286Y-10917190D01*
X15298809Y-10926714D01*
X15308333Y-10945762D01*
X15308333Y-10993381D01*
X15298809Y-11012429D01*
X15289286Y-11021952D01*
X15270238Y-11031476D01*
X15222619Y-11031476D01*
X15203571Y-11021952D01*
X15194048Y-11012429D01*
X15498809Y-11031476D02*
X15384524Y-11031476D01*
X15441667Y-11031476D02*
X15441667Y-10831476D01*
X15422619Y-10860048D01*
X15403571Y-10879095D01*
X15384524Y-10888619D01*
X15575000Y-10850524D02*
X15584524Y-10841000D01*
X15603571Y-10831476D01*
X15651190Y-10831476D01*
X15670238Y-10841000D01*
X15679762Y-10850524D01*
X15689286Y-10869571D01*
X15689286Y-10888619D01*
X15679762Y-10917190D01*
X15565476Y-11031476D01*
X15689286Y-11031476D01*
X15765476Y-10831476D02*
X15765476Y-10869571D01*
X15841667Y-10831476D02*
X15841667Y-10869571D01*
X16136905Y-11107667D02*
X16127381Y-11098143D01*
X16108333Y-11069571D01*
X16098809Y-11050524D01*
X16089286Y-11021952D01*
X16079762Y-10974333D01*
X16079762Y-10936238D01*
X16089286Y-10888619D01*
X16098809Y-10860048D01*
X16108333Y-10841000D01*
X16127381Y-10812429D01*
X16136905Y-10802905D01*
X16203571Y-10850524D02*
X16213095Y-10841000D01*
X16232143Y-10831476D01*
X16279762Y-10831476D01*
X16298809Y-10841000D01*
X16308333Y-10850524D01*
X16317857Y-10869571D01*
X16317857Y-10888619D01*
X16308333Y-10917190D01*
X16194048Y-11031476D01*
X16317857Y-11031476D01*
X16555952Y-11031476D02*
X16555952Y-10831476D01*
X16641667Y-11031476D02*
X16641667Y-10926714D01*
X16632143Y-10907667D01*
X16613095Y-10898143D01*
X16584524Y-10898143D01*
X16565476Y-10907667D01*
X16555952Y-10917190D01*
X16765476Y-11031476D02*
X16746428Y-11021952D01*
X16736905Y-11012429D01*
X16727381Y-10993381D01*
X16727381Y-10936238D01*
X16736905Y-10917190D01*
X16746428Y-10907667D01*
X16765476Y-10898143D01*
X16794048Y-10898143D01*
X16813095Y-10907667D01*
X16822619Y-10917190D01*
X16832143Y-10936238D01*
X16832143Y-10993381D01*
X16822619Y-11012429D01*
X16813095Y-11021952D01*
X16794048Y-11031476D01*
X16765476Y-11031476D01*
X16946429Y-11031476D02*
X16927381Y-11021952D01*
X16917857Y-11002905D01*
X16917857Y-10831476D01*
X17098810Y-11021952D02*
X17079762Y-11031476D01*
X17041667Y-11031476D01*
X17022619Y-11021952D01*
X17013095Y-11002905D01*
X17013095Y-10926714D01*
X17022619Y-10907667D01*
X17041667Y-10898143D01*
X17079762Y-10898143D01*
X17098810Y-10907667D01*
X17108333Y-10926714D01*
X17108333Y-10945762D01*
X17013095Y-10964810D01*
X17184524Y-11021952D02*
X17203571Y-11031476D01*
X17241667Y-11031476D01*
X17260714Y-11021952D01*
X17270238Y-11002905D01*
X17270238Y-10993381D01*
X17260714Y-10974333D01*
X17241667Y-10964810D01*
X17213095Y-10964810D01*
X17194048Y-10955286D01*
X17184524Y-10936238D01*
X17184524Y-10926714D01*
X17194048Y-10907667D01*
X17213095Y-10898143D01*
X17241667Y-10898143D01*
X17260714Y-10907667D01*
X17336905Y-11107667D02*
X17346429Y-11098143D01*
X17365476Y-11069571D01*
X17375000Y-11050524D01*
X17384524Y-11021952D01*
X17394048Y-10974333D01*
X17394048Y-10936238D01*
X17384524Y-10888619D01*
X17375000Y-10860048D01*
X17365476Y-10841000D01*
X17346429Y-10812429D01*
X17336905Y-10802905D01*
X12365000Y-11105000D02*
X12565000Y-11305000D01*
X12565000Y-11105000D02*
X12365000Y-11305000D01*
X12565000Y-11205000D02*
G75*
G03*
X12565000Y-11205000I-100000J0D01*
G01*
X12813095Y-11114524D02*
X12822619Y-11105000D01*
X12841667Y-11095476D01*
X12889286Y-11095476D01*
X12908333Y-11105000D01*
X12917857Y-11114524D01*
X12927381Y-11133571D01*
X12927381Y-11152619D01*
X12917857Y-11181190D01*
X12803571Y-11295476D01*
X12927381Y-11295476D01*
X13013095Y-11276428D02*
X13022619Y-11285952D01*
X13013095Y-11295476D01*
X13003571Y-11285952D01*
X13013095Y-11276428D01*
X13013095Y-11295476D01*
X13089286Y-11095476D02*
X13213095Y-11095476D01*
X13146428Y-11171667D01*
X13175000Y-11171667D01*
X13194048Y-11181190D01*
X13203571Y-11190714D01*
X13213095Y-11209762D01*
X13213095Y-11257381D01*
X13203571Y-11276428D01*
X13194048Y-11285952D01*
X13175000Y-11295476D01*
X13117857Y-11295476D01*
X13098809Y-11285952D01*
X13089286Y-11276428D01*
X13336905Y-11095476D02*
X13355952Y-11095476D01*
X13375000Y-11105000D01*
X13384524Y-11114524D01*
X13394048Y-11133571D01*
X13403571Y-11171667D01*
X13403571Y-11219286D01*
X13394048Y-11257381D01*
X13384524Y-11276428D01*
X13375000Y-11285952D01*
X13355952Y-11295476D01*
X13336905Y-11295476D01*
X13317857Y-11285952D01*
X13308333Y-11276428D01*
X13298809Y-11257381D01*
X13289286Y-11219286D01*
X13289286Y-11171667D01*
X13298809Y-11133571D01*
X13308333Y-11114524D01*
X13317857Y-11105000D01*
X13336905Y-11095476D01*
X13527381Y-11095476D02*
X13546428Y-11095476D01*
X13565476Y-11105000D01*
X13575000Y-11114524D01*
X13584524Y-11133571D01*
X13594048Y-11171667D01*
X13594048Y-11219286D01*
X13584524Y-11257381D01*
X13575000Y-11276428D01*
X13565476Y-11285952D01*
X13546428Y-11295476D01*
X13527381Y-11295476D01*
X13508333Y-11285952D01*
X13498809Y-11276428D01*
X13489286Y-11257381D01*
X13479762Y-11219286D01*
X13479762Y-11171667D01*
X13489286Y-11133571D01*
X13498809Y-11114524D01*
X13508333Y-11105000D01*
X13527381Y-11095476D01*
X13679762Y-11295476D02*
X13679762Y-11162143D01*
X13679762Y-11181190D02*
X13689286Y-11171667D01*
X13708333Y-11162143D01*
X13736905Y-11162143D01*
X13755952Y-11171667D01*
X13765476Y-11190714D01*
X13765476Y-11295476D01*
X13765476Y-11190714D02*
X13775000Y-11171667D01*
X13794048Y-11162143D01*
X13822619Y-11162143D01*
X13841667Y-11171667D01*
X13851190Y-11190714D01*
X13851190Y-11295476D01*
X13946428Y-11295476D02*
X13946428Y-11162143D01*
X13946428Y-11181190D02*
X13955952Y-11171667D01*
X13975000Y-11162143D01*
X14003571Y-11162143D01*
X14022619Y-11171667D01*
X14032143Y-11190714D01*
X14032143Y-11295476D01*
X14032143Y-11190714D02*
X14041667Y-11171667D01*
X14060714Y-11162143D01*
X14089286Y-11162143D01*
X14108333Y-11171667D01*
X14117857Y-11190714D01*
X14117857Y-11295476D01*
X14508333Y-11085952D02*
X14336905Y-11343095D01*
X14765476Y-11095476D02*
X14784524Y-11095476D01*
X14803571Y-11105000D01*
X14813095Y-11114524D01*
X14822619Y-11133571D01*
X14832143Y-11171667D01*
X14832143Y-11219286D01*
X14822619Y-11257381D01*
X14813095Y-11276428D01*
X14803571Y-11285952D01*
X14784524Y-11295476D01*
X14765476Y-11295476D01*
X14746428Y-11285952D01*
X14736905Y-11276428D01*
X14727381Y-11257381D01*
X14717857Y-11219286D01*
X14717857Y-11171667D01*
X14727381Y-11133571D01*
X14736905Y-11114524D01*
X14746428Y-11105000D01*
X14765476Y-11095476D01*
X14917857Y-11276428D02*
X14927381Y-11285952D01*
X14917857Y-11295476D01*
X14908333Y-11285952D01*
X14917857Y-11276428D01*
X14917857Y-11295476D01*
X15051190Y-11095476D02*
X15070238Y-11095476D01*
X15089286Y-11105000D01*
X15098809Y-11114524D01*
X15108333Y-11133571D01*
X15117857Y-11171667D01*
X15117857Y-11219286D01*
X15108333Y-11257381D01*
X15098809Y-11276428D01*
X15089286Y-11285952D01*
X15070238Y-11295476D01*
X15051190Y-11295476D01*
X15032143Y-11285952D01*
X15022619Y-11276428D01*
X15013095Y-11257381D01*
X15003571Y-11219286D01*
X15003571Y-11171667D01*
X15013095Y-11133571D01*
X15022619Y-11114524D01*
X15032143Y-11105000D01*
X15051190Y-11095476D01*
X15213095Y-11295476D02*
X15251190Y-11295476D01*
X15270238Y-11285952D01*
X15279762Y-11276428D01*
X15298809Y-11247857D01*
X15308333Y-11209762D01*
X15308333Y-11133571D01*
X15298809Y-11114524D01*
X15289286Y-11105000D01*
X15270238Y-11095476D01*
X15232143Y-11095476D01*
X15213095Y-11105000D01*
X15203571Y-11114524D01*
X15194048Y-11133571D01*
X15194048Y-11181190D01*
X15203571Y-11200238D01*
X15213095Y-11209762D01*
X15232143Y-11219286D01*
X15270238Y-11219286D01*
X15289286Y-11209762D01*
X15298809Y-11200238D01*
X15308333Y-11181190D01*
X15432143Y-11095476D02*
X15451190Y-11095476D01*
X15470238Y-11105000D01*
X15479762Y-11114524D01*
X15489286Y-11133571D01*
X15498809Y-11171667D01*
X15498809Y-11219286D01*
X15489286Y-11257381D01*
X15479762Y-11276428D01*
X15470238Y-11285952D01*
X15451190Y-11295476D01*
X15432143Y-11295476D01*
X15413095Y-11285952D01*
X15403571Y-11276428D01*
X15394048Y-11257381D01*
X15384524Y-11219286D01*
X15384524Y-11171667D01*
X15394048Y-11133571D01*
X15403571Y-11114524D01*
X15413095Y-11105000D01*
X15432143Y-11095476D01*
X15670238Y-11095476D02*
X15632143Y-11095476D01*
X15613095Y-11105000D01*
X15603571Y-11114524D01*
X15584524Y-11143095D01*
X15575000Y-11181190D01*
X15575000Y-11257381D01*
X15584524Y-11276428D01*
X15594048Y-11285952D01*
X15613095Y-11295476D01*
X15651190Y-11295476D01*
X15670238Y-11285952D01*
X15679762Y-11276428D01*
X15689286Y-11257381D01*
X15689286Y-11209762D01*
X15679762Y-11190714D01*
X15670238Y-11181190D01*
X15651190Y-11171667D01*
X15613095Y-11171667D01*
X15594048Y-11181190D01*
X15584524Y-11190714D01*
X15575000Y-11209762D01*
X15765476Y-11095476D02*
X15765476Y-11133571D01*
X15841667Y-11095476D02*
X15841667Y-11133571D01*
X16136905Y-11371667D02*
X16127381Y-11362143D01*
X16108333Y-11333571D01*
X16098809Y-11314524D01*
X16089286Y-11285952D01*
X16079762Y-11238333D01*
X16079762Y-11200238D01*
X16089286Y-11152619D01*
X16098809Y-11124048D01*
X16108333Y-11105000D01*
X16127381Y-11076429D01*
X16136905Y-11066905D01*
X16203571Y-11114524D02*
X16213095Y-11105000D01*
X16232143Y-11095476D01*
X16279762Y-11095476D01*
X16298809Y-11105000D01*
X16308333Y-11114524D01*
X16317857Y-11133571D01*
X16317857Y-11152619D01*
X16308333Y-11181190D01*
X16194048Y-11295476D01*
X16317857Y-11295476D01*
X16555952Y-11295476D02*
X16555952Y-11095476D01*
X16641667Y-11295476D02*
X16641667Y-11190714D01*
X16632143Y-11171667D01*
X16613095Y-11162143D01*
X16584524Y-11162143D01*
X16565476Y-11171667D01*
X16555952Y-11181190D01*
X16765476Y-11295476D02*
X16746428Y-11285952D01*
X16736905Y-11276428D01*
X16727381Y-11257381D01*
X16727381Y-11200238D01*
X16736905Y-11181190D01*
X16746428Y-11171667D01*
X16765476Y-11162143D01*
X16794048Y-11162143D01*
X16813095Y-11171667D01*
X16822619Y-11181190D01*
X16832143Y-11200238D01*
X16832143Y-11257381D01*
X16822619Y-11276428D01*
X16813095Y-11285952D01*
X16794048Y-11295476D01*
X16765476Y-11295476D01*
X16946429Y-11295476D02*
X16927381Y-11285952D01*
X16917857Y-11266905D01*
X16917857Y-11095476D01*
X17098810Y-11285952D02*
X17079762Y-11295476D01*
X17041667Y-11295476D01*
X17022619Y-11285952D01*
X17013095Y-11266905D01*
X17013095Y-11190714D01*
X17022619Y-11171667D01*
X17041667Y-11162143D01*
X17079762Y-11162143D01*
X17098810Y-11171667D01*
X17108333Y-11190714D01*
X17108333Y-11209762D01*
X17013095Y-11228809D01*
X17184524Y-11285952D02*
X17203571Y-11295476D01*
X17241667Y-11295476D01*
X17260714Y-11285952D01*
X17270238Y-11266905D01*
X17270238Y-11257381D01*
X17260714Y-11238333D01*
X17241667Y-11228809D01*
X17213095Y-11228809D01*
X17194048Y-11219286D01*
X17184524Y-11200238D01*
X17184524Y-11190714D01*
X17194048Y-11171667D01*
X17213095Y-11162143D01*
X17241667Y-11162143D01*
X17260714Y-11171667D01*
X17336905Y-11371667D02*
X17346429Y-11362143D01*
X17365476Y-11333571D01*
X17375000Y-11314524D01*
X17384524Y-11285952D01*
X17394048Y-11238333D01*
X17394048Y-11200238D01*
X17384524Y-11152619D01*
X17375000Y-11124048D01*
X17365476Y-11105000D01*
X17346429Y-11076429D01*
X17336905Y-11066905D01*
M02*
