%TF.GenerationSoftware,KiCad,Pcbnew,(6.0.1)*%
%TF.CreationDate,2022-05-20T18:22:20-05:00*%
%TF.ProjectId,esp32_2,65737033-325f-4322-9e6b-696361645f70,rev?*%
%TF.SameCoordinates,Original*%
%TF.FileFunction,Legend,Top*%
%TF.FilePolarity,Positive*%
%FSLAX46Y46*%
G04 Gerber Fmt 4.6, Leading zero omitted, Abs format (unit mm)*
G04 Created by KiCad (PCBNEW (6.0.1)) date 2022-05-20 18:22:20*
%MOMM*%
%LPD*%
G01*
G04 APERTURE LIST*
%ADD10C,0.150000*%
%ADD11C,0.120000*%
G04 APERTURE END LIST*
D10*
X135104285Y-38603180D02*
X135104285Y-37603180D01*
X135675714Y-38603180D01*
X135675714Y-37603180D01*
X136723333Y-38507942D02*
X136675714Y-38555561D01*
X136532857Y-38603180D01*
X136437619Y-38603180D01*
X136294761Y-38555561D01*
X136199523Y-38460323D01*
X136151904Y-38365085D01*
X136104285Y-38174609D01*
X136104285Y-38031752D01*
X136151904Y-37841276D01*
X136199523Y-37746038D01*
X136294761Y-37650800D01*
X136437619Y-37603180D01*
X136532857Y-37603180D01*
X136675714Y-37650800D01*
X136723333Y-37698419D01*
X135989961Y-46853314D02*
X136037580Y-46710457D01*
X136037580Y-46472361D01*
X135989961Y-46377123D01*
X135942342Y-46329504D01*
X135847104Y-46281885D01*
X135751866Y-46281885D01*
X135656628Y-46329504D01*
X135609009Y-46377123D01*
X135561390Y-46472361D01*
X135513771Y-46662838D01*
X135466152Y-46758076D01*
X135418533Y-46805695D01*
X135323295Y-46853314D01*
X135228057Y-46853314D01*
X135132819Y-46805695D01*
X135085200Y-46758076D01*
X135037580Y-46662838D01*
X135037580Y-46424742D01*
X135085200Y-46281885D01*
X135942342Y-45281885D02*
X135989961Y-45329504D01*
X136037580Y-45472361D01*
X136037580Y-45567600D01*
X135989961Y-45710457D01*
X135894723Y-45805695D01*
X135799485Y-45853314D01*
X135609009Y-45900933D01*
X135466152Y-45900933D01*
X135275676Y-45853314D01*
X135180438Y-45805695D01*
X135085200Y-45710457D01*
X135037580Y-45567600D01*
X135037580Y-45472361D01*
X135085200Y-45329504D01*
X135132819Y-45281885D01*
X136037580Y-44853314D02*
X135037580Y-44853314D01*
X136037580Y-44281885D02*
X135466152Y-44710457D01*
X135037580Y-44281885D02*
X135609009Y-44853314D01*
X134978971Y-43276780D02*
X134978971Y-42276780D01*
X135312304Y-42991066D01*
X135645638Y-42276780D01*
X135645638Y-43276780D01*
X136312304Y-42276780D02*
X136502780Y-42276780D01*
X136598019Y-42324400D01*
X136693257Y-42419638D01*
X136740876Y-42610114D01*
X136740876Y-42943447D01*
X136693257Y-43133923D01*
X136598019Y-43229161D01*
X136502780Y-43276780D01*
X136312304Y-43276780D01*
X136217066Y-43229161D01*
X136121828Y-43133923D01*
X136074209Y-42943447D01*
X136074209Y-42610114D01*
X136121828Y-42419638D01*
X136217066Y-42324400D01*
X136312304Y-42276780D01*
X137121828Y-43229161D02*
X137264685Y-43276780D01*
X137502780Y-43276780D01*
X137598019Y-43229161D01*
X137645638Y-43181542D01*
X137693257Y-43086304D01*
X137693257Y-42991066D01*
X137645638Y-42895828D01*
X137598019Y-42848209D01*
X137502780Y-42800590D01*
X137312304Y-42752971D01*
X137217066Y-42705352D01*
X137169447Y-42657733D01*
X137121828Y-42562495D01*
X137121828Y-42467257D01*
X137169447Y-42372019D01*
X137217066Y-42324400D01*
X137312304Y-42276780D01*
X137550400Y-42276780D01*
X137693257Y-42324400D01*
X138121828Y-43276780D02*
X138121828Y-42276780D01*
X135534495Y-58885200D02*
X135439257Y-58837580D01*
X135296400Y-58837580D01*
X135153542Y-58885200D01*
X135058304Y-58980438D01*
X135010685Y-59075676D01*
X134963066Y-59266152D01*
X134963066Y-59409009D01*
X135010685Y-59599485D01*
X135058304Y-59694723D01*
X135153542Y-59789961D01*
X135296400Y-59837580D01*
X135391638Y-59837580D01*
X135534495Y-59789961D01*
X135582114Y-59742342D01*
X135582114Y-59409009D01*
X135391638Y-59409009D01*
X136010685Y-59837580D02*
X136010685Y-58837580D01*
X136582114Y-59837580D01*
X136582114Y-58837580D01*
X137058304Y-59837580D02*
X137058304Y-58837580D01*
X137296400Y-58837580D01*
X137439257Y-58885200D01*
X137534495Y-58980438D01*
X137582114Y-59075676D01*
X137629733Y-59266152D01*
X137629733Y-59409009D01*
X137582114Y-59599485D01*
X137534495Y-59694723D01*
X137439257Y-59789961D01*
X137296400Y-59837580D01*
X137058304Y-59837580D01*
X173767904Y-70267580D02*
X174386952Y-70267580D01*
X174053619Y-70648533D01*
X174196476Y-70648533D01*
X174291714Y-70696152D01*
X174339333Y-70743771D01*
X174386952Y-70839009D01*
X174386952Y-71077104D01*
X174339333Y-71172342D01*
X174291714Y-71219961D01*
X174196476Y-71267580D01*
X173910761Y-71267580D01*
X173815523Y-71219961D01*
X173767904Y-71172342D01*
X174672666Y-70267580D02*
X175006000Y-71267580D01*
X175339333Y-70267580D01*
X175577428Y-70267580D02*
X176196476Y-70267580D01*
X175863142Y-70648533D01*
X176006000Y-70648533D01*
X176101238Y-70696152D01*
X176148857Y-70743771D01*
X176196476Y-70839009D01*
X176196476Y-71077104D01*
X176148857Y-71172342D01*
X176101238Y-71219961D01*
X176006000Y-71267580D01*
X175720285Y-71267580D01*
X175625047Y-71219961D01*
X175577428Y-71172342D01*
X175826800Y-38303104D02*
X175779180Y-38398342D01*
X175779180Y-38541200D01*
X175826800Y-38684057D01*
X175922038Y-38779295D01*
X176017276Y-38826914D01*
X176207752Y-38874533D01*
X176350609Y-38874533D01*
X176541085Y-38826914D01*
X176636323Y-38779295D01*
X176731561Y-38684057D01*
X176779180Y-38541200D01*
X176779180Y-38445961D01*
X176731561Y-38303104D01*
X176683942Y-38255485D01*
X176350609Y-38255485D01*
X176350609Y-38445961D01*
X176779180Y-37826914D02*
X175779180Y-37826914D01*
X176779180Y-37255485D01*
X175779180Y-37255485D01*
X176779180Y-36779295D02*
X175779180Y-36779295D01*
X175779180Y-36541200D01*
X175826800Y-36398342D01*
X175922038Y-36303104D01*
X176017276Y-36255485D01*
X176207752Y-36207866D01*
X176350609Y-36207866D01*
X176541085Y-36255485D01*
X176636323Y-36303104D01*
X176731561Y-36398342D01*
X176779180Y-36541200D01*
X176779180Y-36779295D01*
X175366419Y-64519371D02*
X176366419Y-64519371D01*
X175652133Y-64852704D01*
X176366419Y-65186038D01*
X175366419Y-65186038D01*
X176366419Y-65852704D02*
X176366419Y-66043180D01*
X176318800Y-66138419D01*
X176223561Y-66233657D01*
X176033085Y-66281276D01*
X175699752Y-66281276D01*
X175509276Y-66233657D01*
X175414038Y-66138419D01*
X175366419Y-66043180D01*
X175366419Y-65852704D01*
X175414038Y-65757466D01*
X175509276Y-65662228D01*
X175699752Y-65614609D01*
X176033085Y-65614609D01*
X176223561Y-65662228D01*
X176318800Y-65757466D01*
X176366419Y-65852704D01*
X175414038Y-66662228D02*
X175366419Y-66805085D01*
X175366419Y-67043180D01*
X175414038Y-67138419D01*
X175461657Y-67186038D01*
X175556895Y-67233657D01*
X175652133Y-67233657D01*
X175747371Y-67186038D01*
X175794990Y-67138419D01*
X175842609Y-67043180D01*
X175890228Y-66852704D01*
X175937847Y-66757466D01*
X175985466Y-66709847D01*
X176080704Y-66662228D01*
X176175942Y-66662228D01*
X176271180Y-66709847D01*
X176318800Y-66757466D01*
X176366419Y-66852704D01*
X176366419Y-67090800D01*
X176318800Y-67233657D01*
X175366419Y-67662228D02*
X176366419Y-67662228D01*
X175620419Y-72494971D02*
X176620419Y-72494971D01*
X175906133Y-72828304D01*
X176620419Y-73161638D01*
X175620419Y-73161638D01*
X175620419Y-73637828D02*
X176620419Y-73637828D01*
X175668038Y-74066400D02*
X175620419Y-74209257D01*
X175620419Y-74447352D01*
X175668038Y-74542590D01*
X175715657Y-74590209D01*
X175810895Y-74637828D01*
X175906133Y-74637828D01*
X176001371Y-74590209D01*
X176048990Y-74542590D01*
X176096609Y-74447352D01*
X176144228Y-74256876D01*
X176191847Y-74161638D01*
X176239466Y-74114019D01*
X176334704Y-74066400D01*
X176429942Y-74066400D01*
X176525180Y-74114019D01*
X176572800Y-74161638D01*
X176620419Y-74256876D01*
X176620419Y-74494971D01*
X176572800Y-74637828D01*
X176620419Y-75256876D02*
X176620419Y-75447352D01*
X176572800Y-75542590D01*
X176477561Y-75637828D01*
X176287085Y-75685447D01*
X175953752Y-75685447D01*
X175763276Y-75637828D01*
X175668038Y-75542590D01*
X175620419Y-75447352D01*
X175620419Y-75256876D01*
X175668038Y-75161638D01*
X175763276Y-75066400D01*
X175953752Y-75018780D01*
X176287085Y-75018780D01*
X176477561Y-75066400D01*
X176572800Y-75161638D01*
X176620419Y-75256876D01*
X135080571Y-64307980D02*
X135080571Y-63307980D01*
X135413904Y-64022266D01*
X135747238Y-63307980D01*
X135747238Y-64307980D01*
X136223428Y-64307980D02*
X136223428Y-63307980D01*
X136652000Y-64260361D02*
X136794857Y-64307980D01*
X137032952Y-64307980D01*
X137128190Y-64260361D01*
X137175809Y-64212742D01*
X137223428Y-64117504D01*
X137223428Y-64022266D01*
X137175809Y-63927028D01*
X137128190Y-63879409D01*
X137032952Y-63831790D01*
X136842476Y-63784171D01*
X136747238Y-63736552D01*
X136699619Y-63688933D01*
X136652000Y-63593695D01*
X136652000Y-63498457D01*
X136699619Y-63403219D01*
X136747238Y-63355600D01*
X136842476Y-63307980D01*
X137080571Y-63307980D01*
X137223428Y-63355600D01*
X137842476Y-63307980D02*
X138032952Y-63307980D01*
X138128190Y-63355600D01*
X138223428Y-63450838D01*
X138271047Y-63641314D01*
X138271047Y-63974647D01*
X138223428Y-64165123D01*
X138128190Y-64260361D01*
X138032952Y-64307980D01*
X137842476Y-64307980D01*
X137747238Y-64260361D01*
X137652000Y-64165123D01*
X137604380Y-63974647D01*
X137604380Y-63641314D01*
X137652000Y-63450838D01*
X137747238Y-63355600D01*
X137842476Y-63307980D01*
X173920304Y-53147980D02*
X174539352Y-53147980D01*
X174206019Y-53528933D01*
X174348876Y-53528933D01*
X174444114Y-53576552D01*
X174491733Y-53624171D01*
X174539352Y-53719409D01*
X174539352Y-53957504D01*
X174491733Y-54052742D01*
X174444114Y-54100361D01*
X174348876Y-54147980D01*
X174063161Y-54147980D01*
X173967923Y-54100361D01*
X173920304Y-54052742D01*
X174825066Y-53147980D02*
X175158400Y-54147980D01*
X175491733Y-53147980D01*
X175729828Y-53147980D02*
X176348876Y-53147980D01*
X176015542Y-53528933D01*
X176158400Y-53528933D01*
X176253638Y-53576552D01*
X176301257Y-53624171D01*
X176348876Y-53719409D01*
X176348876Y-53957504D01*
X176301257Y-54052742D01*
X176253638Y-54100361D01*
X176158400Y-54147980D01*
X175872685Y-54147980D01*
X175777447Y-54100361D01*
X175729828Y-54052742D01*
X173720285Y-69492761D02*
X173863142Y-69540380D01*
X174101238Y-69540380D01*
X174196476Y-69492761D01*
X174244095Y-69445142D01*
X174291714Y-69349904D01*
X174291714Y-69254666D01*
X174244095Y-69159428D01*
X174196476Y-69111809D01*
X174101238Y-69064190D01*
X173910761Y-69016571D01*
X173815523Y-68968952D01*
X173767904Y-68921333D01*
X173720285Y-68826095D01*
X173720285Y-68730857D01*
X173767904Y-68635619D01*
X173815523Y-68588000D01*
X173910761Y-68540380D01*
X174148857Y-68540380D01*
X174291714Y-68588000D01*
X175291714Y-69445142D02*
X175244095Y-69492761D01*
X175101238Y-69540380D01*
X175006000Y-69540380D01*
X174863142Y-69492761D01*
X174767904Y-69397523D01*
X174720285Y-69302285D01*
X174672666Y-69111809D01*
X174672666Y-68968952D01*
X174720285Y-68778476D01*
X174767904Y-68683238D01*
X174863142Y-68588000D01*
X175006000Y-68540380D01*
X175101238Y-68540380D01*
X175244095Y-68588000D01*
X175291714Y-68635619D01*
X175720285Y-69540380D02*
X175720285Y-68540380D01*
X176291714Y-69540380D02*
X175863142Y-68968952D01*
X176291714Y-68540380D02*
X175720285Y-69111809D01*
X134951885Y-62225180D02*
X134951885Y-61225180D01*
X135523314Y-62225180D01*
X135523314Y-61225180D01*
X136570933Y-62129942D02*
X136523314Y-62177561D01*
X136380457Y-62225180D01*
X136285219Y-62225180D01*
X136142361Y-62177561D01*
X136047123Y-62082323D01*
X135999504Y-61987085D01*
X135951885Y-61796609D01*
X135951885Y-61653752D01*
X135999504Y-61463276D01*
X136047123Y-61368038D01*
X136142361Y-61272800D01*
X136285219Y-61225180D01*
X136380457Y-61225180D01*
X136523314Y-61272800D01*
X136570933Y-61320419D01*
X174509180Y-61666380D02*
X174175847Y-61190190D01*
X173937752Y-61666380D02*
X173937752Y-60666380D01*
X174318704Y-60666380D01*
X174413942Y-60714000D01*
X174461561Y-60761619D01*
X174509180Y-60856857D01*
X174509180Y-60999714D01*
X174461561Y-61094952D01*
X174413942Y-61142571D01*
X174318704Y-61190190D01*
X173937752Y-61190190D01*
X174890133Y-61618761D02*
X175032990Y-61666380D01*
X175271085Y-61666380D01*
X175366323Y-61618761D01*
X175413942Y-61571142D01*
X175461561Y-61475904D01*
X175461561Y-61380666D01*
X175413942Y-61285428D01*
X175366323Y-61237809D01*
X175271085Y-61190190D01*
X175080609Y-61142571D01*
X174985371Y-61094952D01*
X174937752Y-61047333D01*
X174890133Y-60952095D01*
X174890133Y-60856857D01*
X174937752Y-60761619D01*
X174985371Y-60714000D01*
X175080609Y-60666380D01*
X175318704Y-60666380D01*
X175461561Y-60714000D01*
X175747276Y-60666380D02*
X176318704Y-60666380D01*
X176032990Y-61666380D02*
X176032990Y-60666380D01*
X179395523Y-44105580D02*
X179966952Y-44105580D01*
X179681238Y-45105580D02*
X179681238Y-44105580D01*
X180205047Y-45105580D02*
X180728857Y-44438914D01*
X180205047Y-44438914D02*
X180728857Y-45105580D01*
X135672533Y-48972742D02*
X135624914Y-49020361D01*
X135482057Y-49067980D01*
X135386819Y-49067980D01*
X135243961Y-49020361D01*
X135148723Y-48925123D01*
X135101104Y-48829885D01*
X135053485Y-48639409D01*
X135053485Y-48496552D01*
X135101104Y-48306076D01*
X135148723Y-48210838D01*
X135243961Y-48115600D01*
X135386819Y-48067980D01*
X135482057Y-48067980D01*
X135624914Y-48115600D01*
X135672533Y-48163219D01*
X136053485Y-49020361D02*
X136196342Y-49067980D01*
X136434438Y-49067980D01*
X136529676Y-49020361D01*
X136577295Y-48972742D01*
X136624914Y-48877504D01*
X136624914Y-48782266D01*
X136577295Y-48687028D01*
X136529676Y-48639409D01*
X136434438Y-48591790D01*
X136243961Y-48544171D01*
X136148723Y-48496552D01*
X136101104Y-48448933D01*
X136053485Y-48353695D01*
X136053485Y-48258457D01*
X136101104Y-48163219D01*
X136148723Y-48115600D01*
X136243961Y-48067980D01*
X136482057Y-48067980D01*
X136624914Y-48115600D01*
X135007504Y-53859180D02*
X135626552Y-53859180D01*
X135293219Y-54240133D01*
X135436076Y-54240133D01*
X135531314Y-54287752D01*
X135578933Y-54335371D01*
X135626552Y-54430609D01*
X135626552Y-54668704D01*
X135578933Y-54763942D01*
X135531314Y-54811561D01*
X135436076Y-54859180D01*
X135150361Y-54859180D01*
X135055123Y-54811561D01*
X135007504Y-54763942D01*
X135912266Y-53859180D02*
X136245600Y-54859180D01*
X136578933Y-53859180D01*
X136817028Y-53859180D02*
X137436076Y-53859180D01*
X137102742Y-54240133D01*
X137245600Y-54240133D01*
X137340838Y-54287752D01*
X137388457Y-54335371D01*
X137436076Y-54430609D01*
X137436076Y-54668704D01*
X137388457Y-54763942D01*
X137340838Y-54811561D01*
X137245600Y-54859180D01*
X136959885Y-54859180D01*
X136864647Y-54811561D01*
X136817028Y-54763942D01*
X136040761Y-70881714D02*
X136088380Y-70738857D01*
X136088380Y-70500761D01*
X136040761Y-70405523D01*
X135993142Y-70357904D01*
X135897904Y-70310285D01*
X135802666Y-70310285D01*
X135707428Y-70357904D01*
X135659809Y-70405523D01*
X135612190Y-70500761D01*
X135564571Y-70691238D01*
X135516952Y-70786476D01*
X135469333Y-70834095D01*
X135374095Y-70881714D01*
X135278857Y-70881714D01*
X135183619Y-70834095D01*
X135136000Y-70786476D01*
X135088380Y-70691238D01*
X135088380Y-70453142D01*
X135136000Y-70310285D01*
X135993142Y-69310285D02*
X136040761Y-69357904D01*
X136088380Y-69500761D01*
X136088380Y-69596000D01*
X136040761Y-69738857D01*
X135945523Y-69834095D01*
X135850285Y-69881714D01*
X135659809Y-69929333D01*
X135516952Y-69929333D01*
X135326476Y-69881714D01*
X135231238Y-69834095D01*
X135136000Y-69738857D01*
X135088380Y-69596000D01*
X135088380Y-69500761D01*
X135136000Y-69357904D01*
X135183619Y-69310285D01*
X136088380Y-68881714D02*
X135088380Y-68881714D01*
X136088380Y-68310285D02*
X135516952Y-68738857D01*
X135088380Y-68310285D02*
X135659809Y-68881714D01*
X166543409Y-37891980D02*
X166543409Y-36891980D01*
X166924361Y-36891980D01*
X167019600Y-36939600D01*
X167067219Y-36987219D01*
X167114838Y-37082457D01*
X167114838Y-37225314D01*
X167067219Y-37320552D01*
X167019600Y-37368171D01*
X166924361Y-37415790D01*
X166543409Y-37415790D01*
X167448171Y-36891980D02*
X167686266Y-37891980D01*
X167876742Y-37177695D01*
X168067219Y-37891980D01*
X168305314Y-36891980D01*
X168686266Y-37891980D02*
X168686266Y-36891980D01*
X169019600Y-37606266D01*
X169352933Y-36891980D01*
X169352933Y-37891980D01*
X170352933Y-37891980D02*
X169781504Y-37891980D01*
X170067219Y-37891980D02*
X170067219Y-36891980D01*
X169971980Y-37034838D01*
X169876742Y-37130076D01*
X169781504Y-37177695D01*
X170781504Y-37511028D02*
X171543409Y-37511028D01*
X171971980Y-36987219D02*
X172019600Y-36939600D01*
X172114838Y-36891980D01*
X172352933Y-36891980D01*
X172448171Y-36939600D01*
X172495790Y-36987219D01*
X172543409Y-37082457D01*
X172543409Y-37177695D01*
X172495790Y-37320552D01*
X171924361Y-37891980D01*
X172543409Y-37891980D01*
X134978971Y-40990780D02*
X134978971Y-39990780D01*
X135312304Y-40705066D01*
X135645638Y-39990780D01*
X135645638Y-40990780D01*
X136121828Y-40990780D02*
X136121828Y-39990780D01*
X136550400Y-40943161D02*
X136693257Y-40990780D01*
X136931352Y-40990780D01*
X137026590Y-40943161D01*
X137074209Y-40895542D01*
X137121828Y-40800304D01*
X137121828Y-40705066D01*
X137074209Y-40609828D01*
X137026590Y-40562209D01*
X136931352Y-40514590D01*
X136740876Y-40466971D01*
X136645638Y-40419352D01*
X136598019Y-40371733D01*
X136550400Y-40276495D01*
X136550400Y-40181257D01*
X136598019Y-40086019D01*
X136645638Y-40038400D01*
X136740876Y-39990780D01*
X136978971Y-39990780D01*
X137121828Y-40038400D01*
X137740876Y-39990780D02*
X137931352Y-39990780D01*
X138026590Y-40038400D01*
X138121828Y-40133638D01*
X138169447Y-40324114D01*
X138169447Y-40657447D01*
X138121828Y-40847923D01*
X138026590Y-40943161D01*
X137931352Y-40990780D01*
X137740876Y-40990780D01*
X137645638Y-40943161D01*
X137550400Y-40847923D01*
X137502780Y-40657447D01*
X137502780Y-40324114D01*
X137550400Y-40133638D01*
X137645638Y-40038400D01*
X137740876Y-39990780D01*
X175245733Y-59081942D02*
X175198114Y-59129561D01*
X175055257Y-59177180D01*
X174960019Y-59177180D01*
X174817161Y-59129561D01*
X174721923Y-59034323D01*
X174674304Y-58939085D01*
X174626685Y-58748609D01*
X174626685Y-58605752D01*
X174674304Y-58415276D01*
X174721923Y-58320038D01*
X174817161Y-58224800D01*
X174960019Y-58177180D01*
X175055257Y-58177180D01*
X175198114Y-58224800D01*
X175245733Y-58272419D01*
X175626685Y-59129561D02*
X175769542Y-59177180D01*
X176007638Y-59177180D01*
X176102876Y-59129561D01*
X176150495Y-59081942D01*
X176198114Y-58986704D01*
X176198114Y-58891466D01*
X176150495Y-58796228D01*
X176102876Y-58748609D01*
X176007638Y-58700990D01*
X175817161Y-58653371D01*
X175721923Y-58605752D01*
X175674304Y-58558133D01*
X175626685Y-58462895D01*
X175626685Y-58367657D01*
X175674304Y-58272419D01*
X175721923Y-58224800D01*
X175817161Y-58177180D01*
X176055257Y-58177180D01*
X176198114Y-58224800D01*
X135520133Y-72137542D02*
X135472514Y-72185161D01*
X135329657Y-72232780D01*
X135234419Y-72232780D01*
X135091561Y-72185161D01*
X134996323Y-72089923D01*
X134948704Y-71994685D01*
X134901085Y-71804209D01*
X134901085Y-71661352D01*
X134948704Y-71470876D01*
X134996323Y-71375638D01*
X135091561Y-71280400D01*
X135234419Y-71232780D01*
X135329657Y-71232780D01*
X135472514Y-71280400D01*
X135520133Y-71328019D01*
X135901085Y-72185161D02*
X136043942Y-72232780D01*
X136282038Y-72232780D01*
X136377276Y-72185161D01*
X136424895Y-72137542D01*
X136472514Y-72042304D01*
X136472514Y-71947066D01*
X136424895Y-71851828D01*
X136377276Y-71804209D01*
X136282038Y-71756590D01*
X136091561Y-71708971D01*
X135996323Y-71661352D01*
X135948704Y-71613733D01*
X135901085Y-71518495D01*
X135901085Y-71423257D01*
X135948704Y-71328019D01*
X135996323Y-71280400D01*
X136091561Y-71232780D01*
X136329657Y-71232780D01*
X136472514Y-71280400D01*
X134905904Y-30084780D02*
X135524952Y-30084780D01*
X135191619Y-30465733D01*
X135334476Y-30465733D01*
X135429714Y-30513352D01*
X135477333Y-30560971D01*
X135524952Y-30656209D01*
X135524952Y-30894304D01*
X135477333Y-30989542D01*
X135429714Y-31037161D01*
X135334476Y-31084780D01*
X135048761Y-31084780D01*
X134953523Y-31037161D01*
X134905904Y-30989542D01*
X135810666Y-30084780D02*
X136144000Y-31084780D01*
X136477333Y-30084780D01*
X136715428Y-30084780D02*
X137334476Y-30084780D01*
X137001142Y-30465733D01*
X137144000Y-30465733D01*
X137239238Y-30513352D01*
X137286857Y-30560971D01*
X137334476Y-30656209D01*
X137334476Y-30894304D01*
X137286857Y-30989542D01*
X137239238Y-31037161D01*
X137144000Y-31084780D01*
X136858285Y-31084780D01*
X136763047Y-31037161D01*
X136715428Y-30989542D01*
X135545580Y-57043580D02*
X135212247Y-56567390D01*
X134974152Y-57043580D02*
X134974152Y-56043580D01*
X135355104Y-56043580D01*
X135450342Y-56091200D01*
X135497961Y-56138819D01*
X135545580Y-56234057D01*
X135545580Y-56376914D01*
X135497961Y-56472152D01*
X135450342Y-56519771D01*
X135355104Y-56567390D01*
X134974152Y-56567390D01*
X135926533Y-56995961D02*
X136069390Y-57043580D01*
X136307485Y-57043580D01*
X136402723Y-56995961D01*
X136450342Y-56948342D01*
X136497961Y-56853104D01*
X136497961Y-56757866D01*
X136450342Y-56662628D01*
X136402723Y-56615009D01*
X136307485Y-56567390D01*
X136117009Y-56519771D01*
X136021771Y-56472152D01*
X135974152Y-56424533D01*
X135926533Y-56329295D01*
X135926533Y-56234057D01*
X135974152Y-56138819D01*
X136021771Y-56091200D01*
X136117009Y-56043580D01*
X136355104Y-56043580D01*
X136497961Y-56091200D01*
X136783676Y-56043580D02*
X137355104Y-56043580D01*
X137069390Y-57043580D02*
X137069390Y-56043580D01*
X135432895Y-35212400D02*
X135337657Y-35164780D01*
X135194800Y-35164780D01*
X135051942Y-35212400D01*
X134956704Y-35307638D01*
X134909085Y-35402876D01*
X134861466Y-35593352D01*
X134861466Y-35736209D01*
X134909085Y-35926685D01*
X134956704Y-36021923D01*
X135051942Y-36117161D01*
X135194800Y-36164780D01*
X135290038Y-36164780D01*
X135432895Y-36117161D01*
X135480514Y-36069542D01*
X135480514Y-35736209D01*
X135290038Y-35736209D01*
X135909085Y-36164780D02*
X135909085Y-35164780D01*
X136480514Y-36164780D01*
X136480514Y-35164780D01*
X136956704Y-36164780D02*
X136956704Y-35164780D01*
X137194800Y-35164780D01*
X137337657Y-35212400D01*
X137432895Y-35307638D01*
X137480514Y-35402876D01*
X137528133Y-35593352D01*
X137528133Y-35736209D01*
X137480514Y-35926685D01*
X137432895Y-36021923D01*
X137337657Y-36117161D01*
X137194800Y-36164780D01*
X136956704Y-36164780D01*
X135596380Y-33573980D02*
X135263047Y-33097790D01*
X135024952Y-33573980D02*
X135024952Y-32573980D01*
X135405904Y-32573980D01*
X135501142Y-32621600D01*
X135548761Y-32669219D01*
X135596380Y-32764457D01*
X135596380Y-32907314D01*
X135548761Y-33002552D01*
X135501142Y-33050171D01*
X135405904Y-33097790D01*
X135024952Y-33097790D01*
X135977333Y-33526361D02*
X136120190Y-33573980D01*
X136358285Y-33573980D01*
X136453523Y-33526361D01*
X136501142Y-33478742D01*
X136548761Y-33383504D01*
X136548761Y-33288266D01*
X136501142Y-33193028D01*
X136453523Y-33145409D01*
X136358285Y-33097790D01*
X136167809Y-33050171D01*
X136072571Y-33002552D01*
X136024952Y-32954933D01*
X135977333Y-32859695D01*
X135977333Y-32764457D01*
X136024952Y-32669219D01*
X136072571Y-32621600D01*
X136167809Y-32573980D01*
X136405904Y-32573980D01*
X136548761Y-32621600D01*
X136834476Y-32573980D02*
X137405904Y-32573980D01*
X137120190Y-33573980D02*
X137120190Y-32573980D01*
X179222495Y-38920800D02*
X179127257Y-38873180D01*
X178984400Y-38873180D01*
X178841542Y-38920800D01*
X178746304Y-39016038D01*
X178698685Y-39111276D01*
X178651066Y-39301752D01*
X178651066Y-39444609D01*
X178698685Y-39635085D01*
X178746304Y-39730323D01*
X178841542Y-39825561D01*
X178984400Y-39873180D01*
X179079638Y-39873180D01*
X179222495Y-39825561D01*
X179270114Y-39777942D01*
X179270114Y-39444609D01*
X179079638Y-39444609D01*
X179698685Y-39873180D02*
X179698685Y-38873180D01*
X180270114Y-39873180D01*
X180270114Y-38873180D01*
X180746304Y-39873180D02*
X180746304Y-38873180D01*
X180984400Y-38873180D01*
X181127257Y-38920800D01*
X181222495Y-39016038D01*
X181270114Y-39111276D01*
X181317733Y-39301752D01*
X181317733Y-39444609D01*
X181270114Y-39635085D01*
X181222495Y-39730323D01*
X181127257Y-39825561D01*
X180984400Y-39873180D01*
X180746304Y-39873180D01*
X174244095Y-55735600D02*
X174148857Y-55687980D01*
X174006000Y-55687980D01*
X173863142Y-55735600D01*
X173767904Y-55830838D01*
X173720285Y-55926076D01*
X173672666Y-56116552D01*
X173672666Y-56259409D01*
X173720285Y-56449885D01*
X173767904Y-56545123D01*
X173863142Y-56640361D01*
X174006000Y-56687980D01*
X174101238Y-56687980D01*
X174244095Y-56640361D01*
X174291714Y-56592742D01*
X174291714Y-56259409D01*
X174101238Y-56259409D01*
X174720285Y-56687980D02*
X174720285Y-55687980D01*
X175291714Y-56687980D01*
X175291714Y-55687980D01*
X175767904Y-56687980D02*
X175767904Y-55687980D01*
X176006000Y-55687980D01*
X176148857Y-55735600D01*
X176244095Y-55830838D01*
X176291714Y-55926076D01*
X176339333Y-56116552D01*
X176339333Y-56259409D01*
X176291714Y-56449885D01*
X176244095Y-56545123D01*
X176148857Y-56640361D01*
X176006000Y-56687980D01*
X175767904Y-56687980D01*
X179351085Y-37536380D02*
X179351085Y-36536380D01*
X179922514Y-37536380D01*
X179922514Y-36536380D01*
X180970133Y-37441142D02*
X180922514Y-37488761D01*
X180779657Y-37536380D01*
X180684419Y-37536380D01*
X180541561Y-37488761D01*
X180446323Y-37393523D01*
X180398704Y-37298285D01*
X180351085Y-37107809D01*
X180351085Y-36964952D01*
X180398704Y-36774476D01*
X180446323Y-36679238D01*
X180541561Y-36584000D01*
X180684419Y-36536380D01*
X180779657Y-36536380D01*
X180922514Y-36584000D01*
X180970133Y-36631619D01*
X136037580Y-67967028D02*
X135037580Y-67967028D01*
X135751866Y-67633695D01*
X135037580Y-67300361D01*
X136037580Y-67300361D01*
X135037580Y-66633695D02*
X135037580Y-66443219D01*
X135085200Y-66347980D01*
X135180438Y-66252742D01*
X135370914Y-66205123D01*
X135704247Y-66205123D01*
X135894723Y-66252742D01*
X135989961Y-66347980D01*
X136037580Y-66443219D01*
X136037580Y-66633695D01*
X135989961Y-66728933D01*
X135894723Y-66824171D01*
X135704247Y-66871790D01*
X135370914Y-66871790D01*
X135180438Y-66824171D01*
X135085200Y-66728933D01*
X135037580Y-66633695D01*
X135989961Y-65824171D02*
X136037580Y-65681314D01*
X136037580Y-65443219D01*
X135989961Y-65347980D01*
X135942342Y-65300361D01*
X135847104Y-65252742D01*
X135751866Y-65252742D01*
X135656628Y-65300361D01*
X135609009Y-65347980D01*
X135561390Y-65443219D01*
X135513771Y-65633695D01*
X135466152Y-65728933D01*
X135418533Y-65776552D01*
X135323295Y-65824171D01*
X135228057Y-65824171D01*
X135132819Y-65776552D01*
X135085200Y-65728933D01*
X135037580Y-65633695D01*
X135037580Y-65395600D01*
X135085200Y-65252742D01*
X136037580Y-64824171D02*
X135037580Y-64824171D01*
X173918571Y-38350723D02*
X173918571Y-38684057D01*
X174442380Y-38684057D02*
X173442380Y-38684057D01*
X173442380Y-38207866D01*
X174156666Y-37874533D02*
X174156666Y-37398342D01*
X174442380Y-37969771D02*
X173442380Y-37636438D01*
X174442380Y-37303104D01*
X174442380Y-36969771D02*
X173442380Y-36969771D01*
X174442380Y-36398342D01*
X173442380Y-36398342D01*
X180041561Y-42413180D02*
X179708228Y-41936990D01*
X179470133Y-42413180D02*
X179470133Y-41413180D01*
X179851085Y-41413180D01*
X179946323Y-41460800D01*
X179993942Y-41508419D01*
X180041561Y-41603657D01*
X180041561Y-41746514D01*
X179993942Y-41841752D01*
X179946323Y-41889371D01*
X179851085Y-41936990D01*
X179470133Y-41936990D01*
X180374895Y-42413180D02*
X180898704Y-41746514D01*
X180374895Y-41746514D02*
X180898704Y-42413180D01*
X178797104Y-46645580D02*
X179416152Y-46645580D01*
X179082819Y-47026533D01*
X179225676Y-47026533D01*
X179320914Y-47074152D01*
X179368533Y-47121771D01*
X179416152Y-47217009D01*
X179416152Y-47455104D01*
X179368533Y-47550342D01*
X179320914Y-47597961D01*
X179225676Y-47645580D01*
X178939961Y-47645580D01*
X178844723Y-47597961D01*
X178797104Y-47550342D01*
X179701866Y-46645580D02*
X180035200Y-47645580D01*
X180368533Y-46645580D01*
X180606628Y-46645580D02*
X181225676Y-46645580D01*
X180892342Y-47026533D01*
X181035200Y-47026533D01*
X181130438Y-47074152D01*
X181178057Y-47121771D01*
X181225676Y-47217009D01*
X181225676Y-47455104D01*
X181178057Y-47550342D01*
X181130438Y-47597961D01*
X181035200Y-47645580D01*
X180749485Y-47645580D01*
X180654247Y-47597961D01*
X180606628Y-47550342D01*
%TO.C,FB2*%
X177730566Y-80164171D02*
X177397233Y-80164171D01*
X177397233Y-80687980D02*
X177397233Y-79687980D01*
X177873423Y-79687980D01*
X178587709Y-80164171D02*
X178730566Y-80211790D01*
X178778185Y-80259409D01*
X178825804Y-80354647D01*
X178825804Y-80497504D01*
X178778185Y-80592742D01*
X178730566Y-80640361D01*
X178635328Y-80687980D01*
X178254376Y-80687980D01*
X178254376Y-79687980D01*
X178587709Y-79687980D01*
X178682947Y-79735600D01*
X178730566Y-79783219D01*
X178778185Y-79878457D01*
X178778185Y-79973695D01*
X178730566Y-80068933D01*
X178682947Y-80116552D01*
X178587709Y-80164171D01*
X178254376Y-80164171D01*
X179206757Y-79783219D02*
X179254376Y-79735600D01*
X179349614Y-79687980D01*
X179587709Y-79687980D01*
X179682947Y-79735600D01*
X179730566Y-79783219D01*
X179778185Y-79878457D01*
X179778185Y-79973695D01*
X179730566Y-80116552D01*
X179159138Y-80687980D01*
X179778185Y-80687980D01*
%TO.C,L1*%
X154010080Y-68049066D02*
X154010080Y-68525257D01*
X153010080Y-68525257D01*
X154010080Y-67191923D02*
X154010080Y-67763352D01*
X154010080Y-67477638D02*
X153010080Y-67477638D01*
X153152938Y-67572876D01*
X153248176Y-67668114D01*
X153295795Y-67763352D01*
%TO.C,Vin1*%
X182363900Y-81387980D02*
X182697233Y-82387980D01*
X183030566Y-81387980D01*
X183363900Y-82387980D02*
X183363900Y-81721314D01*
X183363900Y-81387980D02*
X183316280Y-81435600D01*
X183363900Y-81483219D01*
X183411519Y-81435600D01*
X183363900Y-81387980D01*
X183363900Y-81483219D01*
X183840090Y-81721314D02*
X183840090Y-82387980D01*
X183840090Y-81816552D02*
X183887709Y-81768933D01*
X183982947Y-81721314D01*
X184125804Y-81721314D01*
X184221042Y-81768933D01*
X184268661Y-81864171D01*
X184268661Y-82387980D01*
X185268661Y-82387980D02*
X184697233Y-82387980D01*
X184982947Y-82387980D02*
X184982947Y-81387980D01*
X184887709Y-81530838D01*
X184792471Y-81626076D01*
X184697233Y-81673695D01*
%TO.C,R2*%
X165752380Y-43866666D02*
X165276190Y-44200000D01*
X165752380Y-44438095D02*
X164752380Y-44438095D01*
X164752380Y-44057142D01*
X164800000Y-43961904D01*
X164847619Y-43914285D01*
X164942857Y-43866666D01*
X165085714Y-43866666D01*
X165180952Y-43914285D01*
X165228571Y-43961904D01*
X165276190Y-44057142D01*
X165276190Y-44438095D01*
X164847619Y-43485714D02*
X164800000Y-43438095D01*
X164752380Y-43342857D01*
X164752380Y-43104761D01*
X164800000Y-43009523D01*
X164847619Y-42961904D01*
X164942857Y-42914285D01*
X165038095Y-42914285D01*
X165180952Y-42961904D01*
X165752380Y-43533333D01*
X165752380Y-42914285D01*
%TO.C,RFID1*%
X135862466Y-29306780D02*
X135529133Y-28830590D01*
X135291038Y-29306780D02*
X135291038Y-28306780D01*
X135671990Y-28306780D01*
X135767228Y-28354400D01*
X135814847Y-28402019D01*
X135862466Y-28497257D01*
X135862466Y-28640114D01*
X135814847Y-28735352D01*
X135767228Y-28782971D01*
X135671990Y-28830590D01*
X135291038Y-28830590D01*
X136624371Y-28782971D02*
X136291038Y-28782971D01*
X136291038Y-29306780D02*
X136291038Y-28306780D01*
X136767228Y-28306780D01*
X137148180Y-29306780D02*
X137148180Y-28306780D01*
X137624371Y-29306780D02*
X137624371Y-28306780D01*
X137862466Y-28306780D01*
X138005323Y-28354400D01*
X138100561Y-28449638D01*
X138148180Y-28544876D01*
X138195800Y-28735352D01*
X138195800Y-28878209D01*
X138148180Y-29068685D01*
X138100561Y-29163923D01*
X138005323Y-29259161D01*
X137862466Y-29306780D01*
X137624371Y-29306780D01*
X139148180Y-29306780D02*
X138576752Y-29306780D01*
X138862466Y-29306780D02*
X138862466Y-28306780D01*
X138767228Y-28449638D01*
X138671990Y-28544876D01*
X138576752Y-28592495D01*
%TO.C,R3*%
X161833333Y-58952380D02*
X161500000Y-58476190D01*
X161261904Y-58952380D02*
X161261904Y-57952380D01*
X161642857Y-57952380D01*
X161738095Y-58000000D01*
X161785714Y-58047619D01*
X161833333Y-58142857D01*
X161833333Y-58285714D01*
X161785714Y-58380952D01*
X161738095Y-58428571D01*
X161642857Y-58476190D01*
X161261904Y-58476190D01*
X162166666Y-57952380D02*
X162785714Y-57952380D01*
X162452380Y-58333333D01*
X162595238Y-58333333D01*
X162690476Y-58380952D01*
X162738095Y-58428571D01*
X162785714Y-58523809D01*
X162785714Y-58761904D01*
X162738095Y-58857142D01*
X162690476Y-58904761D01*
X162595238Y-58952380D01*
X162309523Y-58952380D01*
X162214285Y-58904761D01*
X162166666Y-58857142D01*
%TO.C,Rst1*%
X167942857Y-50052380D02*
X167609523Y-49576190D01*
X167371428Y-50052380D02*
X167371428Y-49052380D01*
X167752380Y-49052380D01*
X167847619Y-49100000D01*
X167895238Y-49147619D01*
X167942857Y-49242857D01*
X167942857Y-49385714D01*
X167895238Y-49480952D01*
X167847619Y-49528571D01*
X167752380Y-49576190D01*
X167371428Y-49576190D01*
X168323809Y-50004761D02*
X168419047Y-50052380D01*
X168609523Y-50052380D01*
X168704761Y-50004761D01*
X168752380Y-49909523D01*
X168752380Y-49861904D01*
X168704761Y-49766666D01*
X168609523Y-49719047D01*
X168466666Y-49719047D01*
X168371428Y-49671428D01*
X168323809Y-49576190D01*
X168323809Y-49528571D01*
X168371428Y-49433333D01*
X168466666Y-49385714D01*
X168609523Y-49385714D01*
X168704761Y-49433333D01*
X169038095Y-49385714D02*
X169419047Y-49385714D01*
X169180952Y-49052380D02*
X169180952Y-49909523D01*
X169228571Y-50004761D01*
X169323809Y-50052380D01*
X169419047Y-50052380D01*
X170276190Y-50052380D02*
X169704761Y-50052380D01*
X169990476Y-50052380D02*
X169990476Y-49052380D01*
X169895238Y-49195238D01*
X169800000Y-49290476D01*
X169704761Y-49338095D01*
%TO.C,D1*%
X154061904Y-60652380D02*
X154061904Y-59652380D01*
X154300000Y-59652380D01*
X154442857Y-59700000D01*
X154538095Y-59795238D01*
X154585714Y-59890476D01*
X154633333Y-60080952D01*
X154633333Y-60223809D01*
X154585714Y-60414285D01*
X154538095Y-60509523D01*
X154442857Y-60604761D01*
X154300000Y-60652380D01*
X154061904Y-60652380D01*
X155585714Y-60652380D02*
X155014285Y-60652380D01*
X155300000Y-60652380D02*
X155300000Y-59652380D01*
X155204761Y-59795238D01*
X155109523Y-59890476D01*
X155014285Y-59938095D01*
%TO.C,R1*%
X165752380Y-50066666D02*
X165276190Y-50400000D01*
X165752380Y-50638095D02*
X164752380Y-50638095D01*
X164752380Y-50257142D01*
X164800000Y-50161904D01*
X164847619Y-50114285D01*
X164942857Y-50066666D01*
X165085714Y-50066666D01*
X165180952Y-50114285D01*
X165228571Y-50161904D01*
X165276190Y-50257142D01*
X165276190Y-50638095D01*
X165752380Y-49114285D02*
X165752380Y-49685714D01*
X165752380Y-49400000D02*
X164752380Y-49400000D01*
X164895238Y-49495238D01*
X164990476Y-49590476D01*
X165038095Y-49685714D01*
%TO.C,C5*%
X153671542Y-83478666D02*
X153719161Y-83526285D01*
X153766780Y-83669142D01*
X153766780Y-83764380D01*
X153719161Y-83907238D01*
X153623923Y-84002476D01*
X153528685Y-84050095D01*
X153338209Y-84097714D01*
X153195352Y-84097714D01*
X153004876Y-84050095D01*
X152909638Y-84002476D01*
X152814400Y-83907238D01*
X152766780Y-83764380D01*
X152766780Y-83669142D01*
X152814400Y-83526285D01*
X152862019Y-83478666D01*
X152766780Y-82573904D02*
X152766780Y-83050095D01*
X153242971Y-83097714D01*
X153195352Y-83050095D01*
X153147733Y-82954857D01*
X153147733Y-82716761D01*
X153195352Y-82621523D01*
X153242971Y-82573904D01*
X153338209Y-82526285D01*
X153576304Y-82526285D01*
X153671542Y-82573904D01*
X153719161Y-82621523D01*
X153766780Y-82716761D01*
X153766780Y-82954857D01*
X153719161Y-83050095D01*
X153671542Y-83097714D01*
%TO.C,C10*%
X145357142Y-72442857D02*
X145404761Y-72490476D01*
X145452380Y-72633333D01*
X145452380Y-72728571D01*
X145404761Y-72871428D01*
X145309523Y-72966666D01*
X145214285Y-73014285D01*
X145023809Y-73061904D01*
X144880952Y-73061904D01*
X144690476Y-73014285D01*
X144595238Y-72966666D01*
X144500000Y-72871428D01*
X144452380Y-72728571D01*
X144452380Y-72633333D01*
X144500000Y-72490476D01*
X144547619Y-72442857D01*
X145452380Y-71490476D02*
X145452380Y-72061904D01*
X145452380Y-71776190D02*
X144452380Y-71776190D01*
X144595238Y-71871428D01*
X144690476Y-71966666D01*
X144738095Y-72061904D01*
X144452380Y-70871428D02*
X144452380Y-70776190D01*
X144500000Y-70680952D01*
X144547619Y-70633333D01*
X144642857Y-70585714D01*
X144833333Y-70538095D01*
X145071428Y-70538095D01*
X145261904Y-70585714D01*
X145357142Y-70633333D01*
X145404761Y-70680952D01*
X145452380Y-70776190D01*
X145452380Y-70871428D01*
X145404761Y-70966666D01*
X145357142Y-71014285D01*
X145261904Y-71061904D01*
X145071428Y-71109523D01*
X144833333Y-71109523D01*
X144642857Y-71061904D01*
X144547619Y-71014285D01*
X144500000Y-70966666D01*
X144452380Y-70871428D01*
%TO.C,RFID2*%
X135768366Y-52573180D02*
X135435033Y-52096990D01*
X135196938Y-52573180D02*
X135196938Y-51573180D01*
X135577890Y-51573180D01*
X135673128Y-51620800D01*
X135720747Y-51668419D01*
X135768366Y-51763657D01*
X135768366Y-51906514D01*
X135720747Y-52001752D01*
X135673128Y-52049371D01*
X135577890Y-52096990D01*
X135196938Y-52096990D01*
X136530271Y-52049371D02*
X136196938Y-52049371D01*
X136196938Y-52573180D02*
X136196938Y-51573180D01*
X136673128Y-51573180D01*
X137054080Y-52573180D02*
X137054080Y-51573180D01*
X137530271Y-52573180D02*
X137530271Y-51573180D01*
X137768366Y-51573180D01*
X137911223Y-51620800D01*
X138006461Y-51716038D01*
X138054080Y-51811276D01*
X138101700Y-52001752D01*
X138101700Y-52144609D01*
X138054080Y-52335085D01*
X138006461Y-52430323D01*
X137911223Y-52525561D01*
X137768366Y-52573180D01*
X137530271Y-52573180D01*
X138482652Y-51668419D02*
X138530271Y-51620800D01*
X138625509Y-51573180D01*
X138863604Y-51573180D01*
X138958842Y-51620800D01*
X139006461Y-51668419D01*
X139054080Y-51763657D01*
X139054080Y-51858895D01*
X139006461Y-52001752D01*
X138435033Y-52573180D01*
X139054080Y-52573180D01*
%TO.C,Q1*%
X140390819Y-70250038D02*
X140343200Y-70345276D01*
X140247961Y-70440514D01*
X140105104Y-70583371D01*
X140057485Y-70678609D01*
X140057485Y-70773847D01*
X140295580Y-70726228D02*
X140247961Y-70821466D01*
X140152723Y-70916704D01*
X139962247Y-70964323D01*
X139628914Y-70964323D01*
X139438438Y-70916704D01*
X139343200Y-70821466D01*
X139295580Y-70726228D01*
X139295580Y-70535752D01*
X139343200Y-70440514D01*
X139438438Y-70345276D01*
X139628914Y-70297657D01*
X139962247Y-70297657D01*
X140152723Y-70345276D01*
X140247961Y-70440514D01*
X140295580Y-70535752D01*
X140295580Y-70726228D01*
X140295580Y-69345276D02*
X140295580Y-69916704D01*
X140295580Y-69630990D02*
X139295580Y-69630990D01*
X139438438Y-69726228D01*
X139533676Y-69821466D01*
X139581295Y-69916704D01*
%TO.C,Q2*%
X141738361Y-64657219D02*
X141643123Y-64609600D01*
X141547885Y-64514361D01*
X141405028Y-64371504D01*
X141309790Y-64323885D01*
X141214552Y-64323885D01*
X141262171Y-64561980D02*
X141166933Y-64514361D01*
X141071695Y-64419123D01*
X141024076Y-64228647D01*
X141024076Y-63895314D01*
X141071695Y-63704838D01*
X141166933Y-63609600D01*
X141262171Y-63561980D01*
X141452647Y-63561980D01*
X141547885Y-63609600D01*
X141643123Y-63704838D01*
X141690742Y-63895314D01*
X141690742Y-64228647D01*
X141643123Y-64419123D01*
X141547885Y-64514361D01*
X141452647Y-64561980D01*
X141262171Y-64561980D01*
X142071695Y-63657219D02*
X142119314Y-63609600D01*
X142214552Y-63561980D01*
X142452647Y-63561980D01*
X142547885Y-63609600D01*
X142595504Y-63657219D01*
X142643123Y-63752457D01*
X142643123Y-63847695D01*
X142595504Y-63990552D01*
X142024076Y-64561980D01*
X142643123Y-64561980D01*
%TO.C,C6*%
X146847733Y-91420542D02*
X146800114Y-91468161D01*
X146657257Y-91515780D01*
X146562019Y-91515780D01*
X146419161Y-91468161D01*
X146323923Y-91372923D01*
X146276304Y-91277685D01*
X146228685Y-91087209D01*
X146228685Y-90944352D01*
X146276304Y-90753876D01*
X146323923Y-90658638D01*
X146419161Y-90563400D01*
X146562019Y-90515780D01*
X146657257Y-90515780D01*
X146800114Y-90563400D01*
X146847733Y-90611019D01*
X147704876Y-90515780D02*
X147514400Y-90515780D01*
X147419161Y-90563400D01*
X147371542Y-90611019D01*
X147276304Y-90753876D01*
X147228685Y-90944352D01*
X147228685Y-91325304D01*
X147276304Y-91420542D01*
X147323923Y-91468161D01*
X147419161Y-91515780D01*
X147609638Y-91515780D01*
X147704876Y-91468161D01*
X147752495Y-91420542D01*
X147800114Y-91325304D01*
X147800114Y-91087209D01*
X147752495Y-90991971D01*
X147704876Y-90944352D01*
X147609638Y-90896733D01*
X147419161Y-90896733D01*
X147323923Y-90944352D01*
X147276304Y-90991971D01*
X147228685Y-91087209D01*
%TO.C,R8*%
X142176533Y-75107180D02*
X141843200Y-74630990D01*
X141605104Y-75107180D02*
X141605104Y-74107180D01*
X141986057Y-74107180D01*
X142081295Y-74154800D01*
X142128914Y-74202419D01*
X142176533Y-74297657D01*
X142176533Y-74440514D01*
X142128914Y-74535752D01*
X142081295Y-74583371D01*
X141986057Y-74630990D01*
X141605104Y-74630990D01*
X142747961Y-74535752D02*
X142652723Y-74488133D01*
X142605104Y-74440514D01*
X142557485Y-74345276D01*
X142557485Y-74297657D01*
X142605104Y-74202419D01*
X142652723Y-74154800D01*
X142747961Y-74107180D01*
X142938438Y-74107180D01*
X143033676Y-74154800D01*
X143081295Y-74202419D01*
X143128914Y-74297657D01*
X143128914Y-74345276D01*
X143081295Y-74440514D01*
X143033676Y-74488133D01*
X142938438Y-74535752D01*
X142747961Y-74535752D01*
X142652723Y-74583371D01*
X142605104Y-74630990D01*
X142557485Y-74726228D01*
X142557485Y-74916704D01*
X142605104Y-75011942D01*
X142652723Y-75059561D01*
X142747961Y-75107180D01*
X142938438Y-75107180D01*
X143033676Y-75059561D01*
X143081295Y-75011942D01*
X143128914Y-74916704D01*
X143128914Y-74726228D01*
X143081295Y-74630990D01*
X143033676Y-74583371D01*
X142938438Y-74535752D01*
%TO.C,D3*%
X156215104Y-64005580D02*
X156215104Y-63005580D01*
X156453200Y-63005580D01*
X156596057Y-63053200D01*
X156691295Y-63148438D01*
X156738914Y-63243676D01*
X156786533Y-63434152D01*
X156786533Y-63577009D01*
X156738914Y-63767485D01*
X156691295Y-63862723D01*
X156596057Y-63957961D01*
X156453200Y-64005580D01*
X156215104Y-64005580D01*
X157119866Y-63005580D02*
X157738914Y-63005580D01*
X157405580Y-63386533D01*
X157548438Y-63386533D01*
X157643676Y-63434152D01*
X157691295Y-63481771D01*
X157738914Y-63577009D01*
X157738914Y-63815104D01*
X157691295Y-63910342D01*
X157643676Y-63957961D01*
X157548438Y-64005580D01*
X157262723Y-64005580D01*
X157167485Y-63957961D01*
X157119866Y-63910342D01*
%TO.C,C7*%
X144271542Y-85725066D02*
X144319161Y-85772685D01*
X144366780Y-85915542D01*
X144366780Y-86010780D01*
X144319161Y-86153638D01*
X144223923Y-86248876D01*
X144128685Y-86296495D01*
X143938209Y-86344114D01*
X143795352Y-86344114D01*
X143604876Y-86296495D01*
X143509638Y-86248876D01*
X143414400Y-86153638D01*
X143366780Y-86010780D01*
X143366780Y-85915542D01*
X143414400Y-85772685D01*
X143462019Y-85725066D01*
X143366780Y-85391733D02*
X143366780Y-84725066D01*
X144366780Y-85153638D01*
%TO.C,D2*%
X139215904Y-55621180D02*
X139215904Y-54621180D01*
X139454000Y-54621180D01*
X139596857Y-54668800D01*
X139692095Y-54764038D01*
X139739714Y-54859276D01*
X139787333Y-55049752D01*
X139787333Y-55192609D01*
X139739714Y-55383085D01*
X139692095Y-55478323D01*
X139596857Y-55573561D01*
X139454000Y-55621180D01*
X139215904Y-55621180D01*
X140168285Y-54716419D02*
X140215904Y-54668800D01*
X140311142Y-54621180D01*
X140549238Y-54621180D01*
X140644476Y-54668800D01*
X140692095Y-54716419D01*
X140739714Y-54811657D01*
X140739714Y-54906895D01*
X140692095Y-55049752D01*
X140120666Y-55621180D01*
X140739714Y-55621180D01*
%TO.C,FB1*%
X142422666Y-91114571D02*
X142089333Y-91114571D01*
X142089333Y-91638380D02*
X142089333Y-90638380D01*
X142565523Y-90638380D01*
X143279809Y-91114571D02*
X143422666Y-91162190D01*
X143470285Y-91209809D01*
X143517904Y-91305047D01*
X143517904Y-91447904D01*
X143470285Y-91543142D01*
X143422666Y-91590761D01*
X143327428Y-91638380D01*
X142946476Y-91638380D01*
X142946476Y-90638380D01*
X143279809Y-90638380D01*
X143375047Y-90686000D01*
X143422666Y-90733619D01*
X143470285Y-90828857D01*
X143470285Y-90924095D01*
X143422666Y-91019333D01*
X143375047Y-91066952D01*
X143279809Y-91114571D01*
X142946476Y-91114571D01*
X144470285Y-91638380D02*
X143898857Y-91638380D01*
X144184571Y-91638380D02*
X144184571Y-90638380D01*
X144089333Y-90781238D01*
X143994095Y-90876476D01*
X143898857Y-90924095D01*
%TO.C,C3*%
X139126933Y-38457142D02*
X139079314Y-38504761D01*
X138936457Y-38552380D01*
X138841219Y-38552380D01*
X138698361Y-38504761D01*
X138603123Y-38409523D01*
X138555504Y-38314285D01*
X138507885Y-38123809D01*
X138507885Y-37980952D01*
X138555504Y-37790476D01*
X138603123Y-37695238D01*
X138698361Y-37600000D01*
X138841219Y-37552380D01*
X138936457Y-37552380D01*
X139079314Y-37600000D01*
X139126933Y-37647619D01*
X139460266Y-37552380D02*
X140079314Y-37552380D01*
X139745980Y-37933333D01*
X139888838Y-37933333D01*
X139984076Y-37980952D01*
X140031695Y-38028571D01*
X140079314Y-38123809D01*
X140079314Y-38361904D01*
X140031695Y-38457142D01*
X139984076Y-38504761D01*
X139888838Y-38552380D01*
X139603123Y-38552380D01*
X139507885Y-38504761D01*
X139460266Y-38457142D01*
%TO.C,C1*%
X163557142Y-50166666D02*
X163604761Y-50214285D01*
X163652380Y-50357142D01*
X163652380Y-50452380D01*
X163604761Y-50595238D01*
X163509523Y-50690476D01*
X163414285Y-50738095D01*
X163223809Y-50785714D01*
X163080952Y-50785714D01*
X162890476Y-50738095D01*
X162795238Y-50690476D01*
X162700000Y-50595238D01*
X162652380Y-50452380D01*
X162652380Y-50357142D01*
X162700000Y-50214285D01*
X162747619Y-50166666D01*
X163652380Y-49214285D02*
X163652380Y-49785714D01*
X163652380Y-49500000D02*
X162652380Y-49500000D01*
X162795238Y-49595238D01*
X162890476Y-49690476D01*
X162938095Y-49785714D01*
%TO.C,C8*%
X166421042Y-74066666D02*
X166468661Y-74114285D01*
X166516280Y-74257142D01*
X166516280Y-74352380D01*
X166468661Y-74495238D01*
X166373423Y-74590476D01*
X166278185Y-74638095D01*
X166087709Y-74685714D01*
X165944852Y-74685714D01*
X165754376Y-74638095D01*
X165659138Y-74590476D01*
X165563900Y-74495238D01*
X165516280Y-74352380D01*
X165516280Y-74257142D01*
X165563900Y-74114285D01*
X165611519Y-74066666D01*
X165944852Y-73495238D02*
X165897233Y-73590476D01*
X165849614Y-73638095D01*
X165754376Y-73685714D01*
X165706757Y-73685714D01*
X165611519Y-73638095D01*
X165563900Y-73590476D01*
X165516280Y-73495238D01*
X165516280Y-73304761D01*
X165563900Y-73209523D01*
X165611519Y-73161904D01*
X165706757Y-73114285D01*
X165754376Y-73114285D01*
X165849614Y-73161904D01*
X165897233Y-73209523D01*
X165944852Y-73304761D01*
X165944852Y-73495238D01*
X165992471Y-73590476D01*
X166040090Y-73638095D01*
X166135328Y-73685714D01*
X166325804Y-73685714D01*
X166421042Y-73638095D01*
X166468661Y-73590476D01*
X166516280Y-73495238D01*
X166516280Y-73304761D01*
X166468661Y-73209523D01*
X166421042Y-73161904D01*
X166325804Y-73114285D01*
X166135328Y-73114285D01*
X166040090Y-73161904D01*
X165992471Y-73209523D01*
X165944852Y-73304761D01*
%TO.C,R5*%
X161086533Y-63955580D02*
X160753200Y-63479390D01*
X160515104Y-63955580D02*
X160515104Y-62955580D01*
X160896057Y-62955580D01*
X160991295Y-63003200D01*
X161038914Y-63050819D01*
X161086533Y-63146057D01*
X161086533Y-63288914D01*
X161038914Y-63384152D01*
X160991295Y-63431771D01*
X160896057Y-63479390D01*
X160515104Y-63479390D01*
X161991295Y-62955580D02*
X161515104Y-62955580D01*
X161467485Y-63431771D01*
X161515104Y-63384152D01*
X161610342Y-63336533D01*
X161848438Y-63336533D01*
X161943676Y-63384152D01*
X161991295Y-63431771D01*
X162038914Y-63527009D01*
X162038914Y-63765104D01*
X161991295Y-63860342D01*
X161943676Y-63907961D01*
X161848438Y-63955580D01*
X161610342Y-63955580D01*
X161515104Y-63907961D01*
X161467485Y-63860342D01*
%TO.C,U2*%
X143566780Y-83320304D02*
X144376304Y-83320304D01*
X144471542Y-83272685D01*
X144519161Y-83225066D01*
X144566780Y-83129828D01*
X144566780Y-82939352D01*
X144519161Y-82844114D01*
X144471542Y-82796495D01*
X144376304Y-82748876D01*
X143566780Y-82748876D01*
X143662019Y-82320304D02*
X143614400Y-82272685D01*
X143566780Y-82177447D01*
X143566780Y-81939352D01*
X143614400Y-81844114D01*
X143662019Y-81796495D01*
X143757257Y-81748876D01*
X143852495Y-81748876D01*
X143995352Y-81796495D01*
X144566780Y-82367923D01*
X144566780Y-81748876D01*
%TO.C,R6*%
X138577580Y-73166266D02*
X138101390Y-73499600D01*
X138577580Y-73737695D02*
X137577580Y-73737695D01*
X137577580Y-73356742D01*
X137625200Y-73261504D01*
X137672819Y-73213885D01*
X137768057Y-73166266D01*
X137910914Y-73166266D01*
X138006152Y-73213885D01*
X138053771Y-73261504D01*
X138101390Y-73356742D01*
X138101390Y-73737695D01*
X137577580Y-72309123D02*
X137577580Y-72499600D01*
X137625200Y-72594838D01*
X137672819Y-72642457D01*
X137815676Y-72737695D01*
X138006152Y-72785314D01*
X138387104Y-72785314D01*
X138482342Y-72737695D01*
X138529961Y-72690076D01*
X138577580Y-72594838D01*
X138577580Y-72404361D01*
X138529961Y-72309123D01*
X138482342Y-72261504D01*
X138387104Y-72213885D01*
X138149009Y-72213885D01*
X138053771Y-72261504D01*
X138006152Y-72309123D01*
X137958533Y-72404361D01*
X137958533Y-72594838D01*
X138006152Y-72690076D01*
X138053771Y-72737695D01*
X138149009Y-72785314D01*
%TO.C,R7*%
X140304780Y-67324266D02*
X139828590Y-67657600D01*
X140304780Y-67895695D02*
X139304780Y-67895695D01*
X139304780Y-67514742D01*
X139352400Y-67419504D01*
X139400019Y-67371885D01*
X139495257Y-67324266D01*
X139638114Y-67324266D01*
X139733352Y-67371885D01*
X139780971Y-67419504D01*
X139828590Y-67514742D01*
X139828590Y-67895695D01*
X139304780Y-66990933D02*
X139304780Y-66324266D01*
X140304780Y-66752838D01*
%TO.C,D4*%
X167257504Y-70516380D02*
X167257504Y-69516380D01*
X167495600Y-69516380D01*
X167638457Y-69564000D01*
X167733695Y-69659238D01*
X167781314Y-69754476D01*
X167828933Y-69944952D01*
X167828933Y-70087809D01*
X167781314Y-70278285D01*
X167733695Y-70373523D01*
X167638457Y-70468761D01*
X167495600Y-70516380D01*
X167257504Y-70516380D01*
X168686076Y-69849714D02*
X168686076Y-70516380D01*
X168447980Y-69468761D02*
X168209885Y-70183047D01*
X168828933Y-70183047D01*
X165217504Y-64160666D02*
X165693695Y-64160666D01*
X165122266Y-64446380D02*
X165455600Y-63446380D01*
X165788933Y-64446380D01*
%TO.C,U1*%
X162238095Y-37052380D02*
X162238095Y-37861904D01*
X162285714Y-37957142D01*
X162333333Y-38004761D01*
X162428571Y-38052380D01*
X162619047Y-38052380D01*
X162714285Y-38004761D01*
X162761904Y-37957142D01*
X162809523Y-37861904D01*
X162809523Y-37052380D01*
X163809523Y-38052380D02*
X163238095Y-38052380D01*
X163523809Y-38052380D02*
X163523809Y-37052380D01*
X163428571Y-37195238D01*
X163333333Y-37290476D01*
X163238095Y-37338095D01*
%TO.C,screen1*%
X170686204Y-52271561D02*
X170781442Y-52319180D01*
X170971919Y-52319180D01*
X171067157Y-52271561D01*
X171114776Y-52176323D01*
X171114776Y-52128704D01*
X171067157Y-52033466D01*
X170971919Y-51985847D01*
X170829061Y-51985847D01*
X170733823Y-51938228D01*
X170686204Y-51842990D01*
X170686204Y-51795371D01*
X170733823Y-51700133D01*
X170829061Y-51652514D01*
X170971919Y-51652514D01*
X171067157Y-51700133D01*
X171971919Y-52271561D02*
X171876680Y-52319180D01*
X171686204Y-52319180D01*
X171590966Y-52271561D01*
X171543347Y-52223942D01*
X171495728Y-52128704D01*
X171495728Y-51842990D01*
X171543347Y-51747752D01*
X171590966Y-51700133D01*
X171686204Y-51652514D01*
X171876680Y-51652514D01*
X171971919Y-51700133D01*
X172400490Y-52319180D02*
X172400490Y-51652514D01*
X172400490Y-51842990D02*
X172448109Y-51747752D01*
X172495728Y-51700133D01*
X172590966Y-51652514D01*
X172686204Y-51652514D01*
X173400490Y-52271561D02*
X173305252Y-52319180D01*
X173114776Y-52319180D01*
X173019538Y-52271561D01*
X172971919Y-52176323D01*
X172971919Y-51795371D01*
X173019538Y-51700133D01*
X173114776Y-51652514D01*
X173305252Y-51652514D01*
X173400490Y-51700133D01*
X173448109Y-51795371D01*
X173448109Y-51890609D01*
X172971919Y-51985847D01*
X174257633Y-52271561D02*
X174162395Y-52319180D01*
X173971919Y-52319180D01*
X173876680Y-52271561D01*
X173829061Y-52176323D01*
X173829061Y-51795371D01*
X173876680Y-51700133D01*
X173971919Y-51652514D01*
X174162395Y-51652514D01*
X174257633Y-51700133D01*
X174305252Y-51795371D01*
X174305252Y-51890609D01*
X173829061Y-51985847D01*
X174733823Y-51652514D02*
X174733823Y-52319180D01*
X174733823Y-51747752D02*
X174781442Y-51700133D01*
X174876680Y-51652514D01*
X175019538Y-51652514D01*
X175114776Y-51700133D01*
X175162395Y-51795371D01*
X175162395Y-52319180D01*
X176162395Y-52319180D02*
X175590966Y-52319180D01*
X175876680Y-52319180D02*
X175876680Y-51319180D01*
X175781442Y-51462038D01*
X175686204Y-51557276D01*
X175590966Y-51604895D01*
%TO.C,C4*%
X151812533Y-91389542D02*
X151764914Y-91437161D01*
X151622057Y-91484780D01*
X151526819Y-91484780D01*
X151383961Y-91437161D01*
X151288723Y-91341923D01*
X151241104Y-91246685D01*
X151193485Y-91056209D01*
X151193485Y-90913352D01*
X151241104Y-90722876D01*
X151288723Y-90627638D01*
X151383961Y-90532400D01*
X151526819Y-90484780D01*
X151622057Y-90484780D01*
X151764914Y-90532400D01*
X151812533Y-90580019D01*
X152669676Y-90818114D02*
X152669676Y-91484780D01*
X152431580Y-90437161D02*
X152193485Y-91151447D01*
X152812533Y-91151447D01*
%TO.C,Teclado1*%
X127532804Y-89752380D02*
X128104233Y-89752380D01*
X127818519Y-90752380D02*
X127818519Y-89752380D01*
X128818519Y-90704761D02*
X128723280Y-90752380D01*
X128532804Y-90752380D01*
X128437566Y-90704761D01*
X128389947Y-90609523D01*
X128389947Y-90228571D01*
X128437566Y-90133333D01*
X128532804Y-90085714D01*
X128723280Y-90085714D01*
X128818519Y-90133333D01*
X128866138Y-90228571D01*
X128866138Y-90323809D01*
X128389947Y-90419047D01*
X129723280Y-90704761D02*
X129628042Y-90752380D01*
X129437566Y-90752380D01*
X129342328Y-90704761D01*
X129294709Y-90657142D01*
X129247090Y-90561904D01*
X129247090Y-90276190D01*
X129294709Y-90180952D01*
X129342328Y-90133333D01*
X129437566Y-90085714D01*
X129628042Y-90085714D01*
X129723280Y-90133333D01*
X130294709Y-90752380D02*
X130199471Y-90704761D01*
X130151852Y-90609523D01*
X130151852Y-89752380D01*
X131104233Y-90752380D02*
X131104233Y-90228571D01*
X131056614Y-90133333D01*
X130961376Y-90085714D01*
X130770900Y-90085714D01*
X130675661Y-90133333D01*
X131104233Y-90704761D02*
X131008995Y-90752380D01*
X130770900Y-90752380D01*
X130675661Y-90704761D01*
X130628042Y-90609523D01*
X130628042Y-90514285D01*
X130675661Y-90419047D01*
X130770900Y-90371428D01*
X131008995Y-90371428D01*
X131104233Y-90323809D01*
X132008995Y-90752380D02*
X132008995Y-89752380D01*
X132008995Y-90704761D02*
X131913757Y-90752380D01*
X131723280Y-90752380D01*
X131628042Y-90704761D01*
X131580423Y-90657142D01*
X131532804Y-90561904D01*
X131532804Y-90276190D01*
X131580423Y-90180952D01*
X131628042Y-90133333D01*
X131723280Y-90085714D01*
X131913757Y-90085714D01*
X132008995Y-90133333D01*
X132628042Y-90752380D02*
X132532804Y-90704761D01*
X132485185Y-90657142D01*
X132437566Y-90561904D01*
X132437566Y-90276190D01*
X132485185Y-90180952D01*
X132532804Y-90133333D01*
X132628042Y-90085714D01*
X132770900Y-90085714D01*
X132866138Y-90133333D01*
X132913757Y-90180952D01*
X132961376Y-90276190D01*
X132961376Y-90561904D01*
X132913757Y-90657142D01*
X132866138Y-90704761D01*
X132770900Y-90752380D01*
X132628042Y-90752380D01*
X133913757Y-90752380D02*
X133342328Y-90752380D01*
X133628042Y-90752380D02*
X133628042Y-89752380D01*
X133532804Y-89895238D01*
X133437566Y-89990476D01*
X133342328Y-90038095D01*
%TO.C,U3*%
X155216280Y-78861904D02*
X156025804Y-78861904D01*
X156121042Y-78814285D01*
X156168661Y-78766666D01*
X156216280Y-78671428D01*
X156216280Y-78480952D01*
X156168661Y-78385714D01*
X156121042Y-78338095D01*
X156025804Y-78290476D01*
X155216280Y-78290476D01*
X155216280Y-77909523D02*
X155216280Y-77290476D01*
X155597233Y-77623809D01*
X155597233Y-77480952D01*
X155644852Y-77385714D01*
X155692471Y-77338095D01*
X155787709Y-77290476D01*
X156025804Y-77290476D01*
X156121042Y-77338095D01*
X156168661Y-77385714D01*
X156216280Y-77480952D01*
X156216280Y-77766666D01*
X156168661Y-77861904D01*
X156121042Y-77909523D01*
%TO.C,Sensitizer1*%
X165606361Y-36362780D02*
X165653980Y-36219923D01*
X165653980Y-35981828D01*
X165606361Y-35886590D01*
X165558742Y-35838971D01*
X165463504Y-35791352D01*
X165368266Y-35791352D01*
X165273028Y-35838971D01*
X165225409Y-35886590D01*
X165177790Y-35981828D01*
X165130171Y-36172304D01*
X165082552Y-36267542D01*
X165034933Y-36315161D01*
X164939695Y-36362780D01*
X164844457Y-36362780D01*
X164749219Y-36315161D01*
X164701600Y-36267542D01*
X164653980Y-36172304D01*
X164653980Y-35934209D01*
X164701600Y-35791352D01*
X165606361Y-34981828D02*
X165653980Y-35077066D01*
X165653980Y-35267542D01*
X165606361Y-35362780D01*
X165511123Y-35410400D01*
X165130171Y-35410400D01*
X165034933Y-35362780D01*
X164987314Y-35267542D01*
X164987314Y-35077066D01*
X165034933Y-34981828D01*
X165130171Y-34934209D01*
X165225409Y-34934209D01*
X165320647Y-35410400D01*
X164987314Y-34505638D02*
X165653980Y-34505638D01*
X165082552Y-34505638D02*
X165034933Y-34458019D01*
X164987314Y-34362780D01*
X164987314Y-34219923D01*
X165034933Y-34124685D01*
X165130171Y-34077066D01*
X165653980Y-34077066D01*
X165606361Y-33648495D02*
X165653980Y-33553257D01*
X165653980Y-33362780D01*
X165606361Y-33267542D01*
X165511123Y-33219923D01*
X165463504Y-33219923D01*
X165368266Y-33267542D01*
X165320647Y-33362780D01*
X165320647Y-33505638D01*
X165273028Y-33600876D01*
X165177790Y-33648495D01*
X165130171Y-33648495D01*
X165034933Y-33600876D01*
X164987314Y-33505638D01*
X164987314Y-33362780D01*
X165034933Y-33267542D01*
X165653980Y-32791352D02*
X164987314Y-32791352D01*
X164653980Y-32791352D02*
X164701600Y-32838971D01*
X164749219Y-32791352D01*
X164701600Y-32743733D01*
X164653980Y-32791352D01*
X164749219Y-32791352D01*
X164987314Y-32458019D02*
X164987314Y-32077066D01*
X164653980Y-32315161D02*
X165511123Y-32315161D01*
X165606361Y-32267542D01*
X165653980Y-32172304D01*
X165653980Y-32077066D01*
X165653980Y-31743733D02*
X164987314Y-31743733D01*
X164653980Y-31743733D02*
X164701600Y-31791352D01*
X164749219Y-31743733D01*
X164701600Y-31696114D01*
X164653980Y-31743733D01*
X164749219Y-31743733D01*
X164987314Y-31362780D02*
X164987314Y-30838971D01*
X165653980Y-31362780D01*
X165653980Y-30838971D01*
X165606361Y-30077066D02*
X165653980Y-30172304D01*
X165653980Y-30362780D01*
X165606361Y-30458019D01*
X165511123Y-30505638D01*
X165130171Y-30505638D01*
X165034933Y-30458019D01*
X164987314Y-30362780D01*
X164987314Y-30172304D01*
X165034933Y-30077066D01*
X165130171Y-30029447D01*
X165225409Y-30029447D01*
X165320647Y-30505638D01*
X165653980Y-29600876D02*
X164987314Y-29600876D01*
X165177790Y-29600876D02*
X165082552Y-29553257D01*
X165034933Y-29505638D01*
X164987314Y-29410400D01*
X164987314Y-29315161D01*
X165653980Y-28458019D02*
X165653980Y-29029447D01*
X165653980Y-28743733D02*
X164653980Y-28743733D01*
X164796838Y-28838971D01*
X164892076Y-28934209D01*
X164939695Y-29029447D01*
%TO.C,R9*%
X146340533Y-67278780D02*
X146007200Y-66802590D01*
X145769104Y-67278780D02*
X145769104Y-66278780D01*
X146150057Y-66278780D01*
X146245295Y-66326400D01*
X146292914Y-66374019D01*
X146340533Y-66469257D01*
X146340533Y-66612114D01*
X146292914Y-66707352D01*
X146245295Y-66754971D01*
X146150057Y-66802590D01*
X145769104Y-66802590D01*
X146816723Y-67278780D02*
X147007200Y-67278780D01*
X147102438Y-67231161D01*
X147150057Y-67183542D01*
X147245295Y-67040685D01*
X147292914Y-66850209D01*
X147292914Y-66469257D01*
X147245295Y-66374019D01*
X147197676Y-66326400D01*
X147102438Y-66278780D01*
X146911961Y-66278780D01*
X146816723Y-66326400D01*
X146769104Y-66374019D01*
X146721485Y-66469257D01*
X146721485Y-66707352D01*
X146769104Y-66802590D01*
X146816723Y-66850209D01*
X146911961Y-66897828D01*
X147102438Y-66897828D01*
X147197676Y-66850209D01*
X147245295Y-66802590D01*
X147292914Y-66707352D01*
%TO.C,Program1*%
X178297947Y-50337980D02*
X178297947Y-49337980D01*
X178678900Y-49337980D01*
X178774138Y-49385600D01*
X178821757Y-49433219D01*
X178869376Y-49528457D01*
X178869376Y-49671314D01*
X178821757Y-49766552D01*
X178774138Y-49814171D01*
X178678900Y-49861790D01*
X178297947Y-49861790D01*
X179297947Y-50337980D02*
X179297947Y-49671314D01*
X179297947Y-49861790D02*
X179345566Y-49766552D01*
X179393185Y-49718933D01*
X179488423Y-49671314D01*
X179583661Y-49671314D01*
X180059852Y-50337980D02*
X179964614Y-50290361D01*
X179916995Y-50242742D01*
X179869376Y-50147504D01*
X179869376Y-49861790D01*
X179916995Y-49766552D01*
X179964614Y-49718933D01*
X180059852Y-49671314D01*
X180202709Y-49671314D01*
X180297947Y-49718933D01*
X180345566Y-49766552D01*
X180393185Y-49861790D01*
X180393185Y-50147504D01*
X180345566Y-50242742D01*
X180297947Y-50290361D01*
X180202709Y-50337980D01*
X180059852Y-50337980D01*
X181250328Y-49671314D02*
X181250328Y-50480838D01*
X181202709Y-50576076D01*
X181155090Y-50623695D01*
X181059852Y-50671314D01*
X180916995Y-50671314D01*
X180821757Y-50623695D01*
X181250328Y-50290361D02*
X181155090Y-50337980D01*
X180964614Y-50337980D01*
X180869376Y-50290361D01*
X180821757Y-50242742D01*
X180774138Y-50147504D01*
X180774138Y-49861790D01*
X180821757Y-49766552D01*
X180869376Y-49718933D01*
X180964614Y-49671314D01*
X181155090Y-49671314D01*
X181250328Y-49718933D01*
X181726519Y-50337980D02*
X181726519Y-49671314D01*
X181726519Y-49861790D02*
X181774138Y-49766552D01*
X181821757Y-49718933D01*
X181916995Y-49671314D01*
X182012233Y-49671314D01*
X182774138Y-50337980D02*
X182774138Y-49814171D01*
X182726519Y-49718933D01*
X182631280Y-49671314D01*
X182440804Y-49671314D01*
X182345566Y-49718933D01*
X182774138Y-50290361D02*
X182678900Y-50337980D01*
X182440804Y-50337980D01*
X182345566Y-50290361D01*
X182297947Y-50195123D01*
X182297947Y-50099885D01*
X182345566Y-50004647D01*
X182440804Y-49957028D01*
X182678900Y-49957028D01*
X182774138Y-49909409D01*
X183250328Y-50337980D02*
X183250328Y-49671314D01*
X183250328Y-49766552D02*
X183297947Y-49718933D01*
X183393185Y-49671314D01*
X183536042Y-49671314D01*
X183631280Y-49718933D01*
X183678900Y-49814171D01*
X183678900Y-50337980D01*
X183678900Y-49814171D02*
X183726519Y-49718933D01*
X183821757Y-49671314D01*
X183964614Y-49671314D01*
X184059852Y-49718933D01*
X184107471Y-49814171D01*
X184107471Y-50337980D01*
X185107471Y-50337980D02*
X184536042Y-50337980D01*
X184821757Y-50337980D02*
X184821757Y-49337980D01*
X184726519Y-49480838D01*
X184631280Y-49576076D01*
X184536042Y-49623695D01*
%TO.C,Boot1*%
X171604761Y-49528571D02*
X171747619Y-49576190D01*
X171795238Y-49623809D01*
X171842857Y-49719047D01*
X171842857Y-49861904D01*
X171795238Y-49957142D01*
X171747619Y-50004761D01*
X171652380Y-50052380D01*
X171271428Y-50052380D01*
X171271428Y-49052380D01*
X171604761Y-49052380D01*
X171700000Y-49100000D01*
X171747619Y-49147619D01*
X171795238Y-49242857D01*
X171795238Y-49338095D01*
X171747619Y-49433333D01*
X171700000Y-49480952D01*
X171604761Y-49528571D01*
X171271428Y-49528571D01*
X172414285Y-50052380D02*
X172319047Y-50004761D01*
X172271428Y-49957142D01*
X172223809Y-49861904D01*
X172223809Y-49576190D01*
X172271428Y-49480952D01*
X172319047Y-49433333D01*
X172414285Y-49385714D01*
X172557142Y-49385714D01*
X172652380Y-49433333D01*
X172700000Y-49480952D01*
X172747619Y-49576190D01*
X172747619Y-49861904D01*
X172700000Y-49957142D01*
X172652380Y-50004761D01*
X172557142Y-50052380D01*
X172414285Y-50052380D01*
X173319047Y-50052380D02*
X173223809Y-50004761D01*
X173176190Y-49957142D01*
X173128571Y-49861904D01*
X173128571Y-49576190D01*
X173176190Y-49480952D01*
X173223809Y-49433333D01*
X173319047Y-49385714D01*
X173461904Y-49385714D01*
X173557142Y-49433333D01*
X173604761Y-49480952D01*
X173652380Y-49576190D01*
X173652380Y-49861904D01*
X173604761Y-49957142D01*
X173557142Y-50004761D01*
X173461904Y-50052380D01*
X173319047Y-50052380D01*
X173938095Y-49385714D02*
X174319047Y-49385714D01*
X174080952Y-49052380D02*
X174080952Y-49909523D01*
X174128571Y-50004761D01*
X174223809Y-50052380D01*
X174319047Y-50052380D01*
X175176190Y-50052380D02*
X174604761Y-50052380D01*
X174890476Y-50052380D02*
X174890476Y-49052380D01*
X174795238Y-49195238D01*
X174700000Y-49290476D01*
X174604761Y-49338095D01*
%TO.C,C2*%
X163557142Y-44066666D02*
X163604761Y-44114285D01*
X163652380Y-44257142D01*
X163652380Y-44352380D01*
X163604761Y-44495238D01*
X163509523Y-44590476D01*
X163414285Y-44638095D01*
X163223809Y-44685714D01*
X163080952Y-44685714D01*
X162890476Y-44638095D01*
X162795238Y-44590476D01*
X162700000Y-44495238D01*
X162652380Y-44352380D01*
X162652380Y-44257142D01*
X162700000Y-44114285D01*
X162747619Y-44066666D01*
X162747619Y-43685714D02*
X162700000Y-43638095D01*
X162652380Y-43542857D01*
X162652380Y-43304761D01*
X162700000Y-43209523D01*
X162747619Y-43161904D01*
X162842857Y-43114285D01*
X162938095Y-43114285D01*
X163080952Y-43161904D01*
X163652380Y-43733333D01*
X163652380Y-43114285D01*
%TO.C,R4*%
X143854133Y-62477580D02*
X143520800Y-62001390D01*
X143282704Y-62477580D02*
X143282704Y-61477580D01*
X143663657Y-61477580D01*
X143758895Y-61525200D01*
X143806514Y-61572819D01*
X143854133Y-61668057D01*
X143854133Y-61810914D01*
X143806514Y-61906152D01*
X143758895Y-61953771D01*
X143663657Y-62001390D01*
X143282704Y-62001390D01*
X144711276Y-61810914D02*
X144711276Y-62477580D01*
X144473180Y-61429961D02*
X144235085Y-62144247D01*
X144854133Y-62144247D01*
D11*
%TO.C,FB2*%
X178818624Y-81113100D02*
X178309176Y-81113100D01*
X178818624Y-82158100D02*
X178309176Y-82158100D01*
%TO.C,L1*%
X162753200Y-73453200D02*
X162753200Y-72553200D01*
X155153200Y-66653200D02*
X155153200Y-67553200D01*
X162753200Y-67553200D02*
X162753200Y-66653200D01*
X155153200Y-73453200D02*
X162753200Y-73453200D01*
X162753200Y-66653200D02*
X155153200Y-66653200D01*
X155153200Y-72553200D02*
X155153200Y-73453200D01*
%TO.C,Vin1*%
X170763900Y-82793100D02*
X172663900Y-82793100D01*
X185463900Y-91993100D02*
X170763900Y-91993100D01*
X185463900Y-82793100D02*
X185463900Y-91993100D01*
X176663900Y-82793100D02*
X185463900Y-82793100D01*
X171613900Y-92193100D02*
X170563900Y-92193100D01*
X170763900Y-91993100D02*
X170763900Y-89393100D01*
X170763900Y-85493100D02*
X170763900Y-82793100D01*
X170563900Y-91143100D02*
X170563900Y-92193100D01*
%TO.C,R2*%
X164665000Y-41127064D02*
X164665000Y-40672936D01*
X166135000Y-41127064D02*
X166135000Y-40672936D01*
%TO.C,RFID1*%
X131338600Y-45775200D02*
X127918600Y-45775200D01*
X127918600Y-48275200D02*
X127838600Y-47955200D01*
X131338600Y-40775200D02*
X127918600Y-40775200D01*
X131338600Y-32955200D02*
X131338600Y-33275200D01*
X131338600Y-40135200D02*
X131338600Y-40455200D01*
X127918600Y-38275200D02*
X127838600Y-37955200D01*
X132338600Y-49345200D02*
X132338600Y-50565200D01*
X127838600Y-40455200D02*
X127918600Y-40135200D01*
X132338600Y-36785200D02*
X132338600Y-36625200D01*
X131338600Y-35455200D02*
X131338600Y-35775200D01*
X127338600Y-50565200D02*
X127338600Y-49345200D01*
X131338600Y-49345200D02*
X131338600Y-29065200D01*
X127838600Y-45455200D02*
X127918600Y-45135200D01*
X127918600Y-35135200D02*
X131338600Y-35135200D01*
X127918600Y-45775200D02*
X127838600Y-45455200D01*
X131338600Y-43275200D02*
X127918600Y-43275200D01*
X126118600Y-27845200D02*
X134538600Y-27845200D01*
X127838600Y-32955200D02*
X127918600Y-32635200D01*
X127838600Y-35455200D02*
X127918600Y-35135200D01*
X127838600Y-30455200D02*
X127918600Y-30135200D01*
X131338600Y-37955200D02*
X131338600Y-38275200D01*
X127918600Y-33275200D02*
X127838600Y-32955200D01*
X127918600Y-43275200D02*
X127838600Y-42955200D01*
X132338600Y-49345200D02*
X134538600Y-49345200D01*
X127918600Y-35775200D02*
X127838600Y-35455200D01*
X132338600Y-29065200D02*
X132338600Y-27845200D01*
X131338600Y-40455200D02*
X131338600Y-40775200D01*
X131338600Y-42635200D02*
X131338600Y-42955200D01*
X131338600Y-30455200D02*
X131338600Y-30775200D01*
X131338600Y-42955200D02*
X131338600Y-43275200D01*
X131338600Y-38275200D02*
X127918600Y-38275200D01*
X127338600Y-27845200D02*
X127338600Y-29065200D01*
X132338600Y-31785200D02*
X132338600Y-31625200D01*
X134538600Y-49345200D02*
X134538600Y-50565200D01*
X127918600Y-30135200D02*
X131338600Y-30135200D01*
X131338600Y-30135200D02*
X131338600Y-30455200D01*
X127918600Y-40775200D02*
X127838600Y-40455200D01*
X131338600Y-35775200D02*
X127918600Y-35775200D01*
X127918600Y-40135200D02*
X131338600Y-40135200D01*
X127918600Y-37635200D02*
X131338600Y-37635200D01*
X127838600Y-42955200D02*
X127918600Y-42635200D01*
X131338600Y-45135200D02*
X131338600Y-45455200D01*
X126118600Y-50565200D02*
X126118600Y-27845200D01*
X127338600Y-49345200D02*
X132338600Y-49345200D01*
X131338600Y-35135200D02*
X131338600Y-35455200D01*
X131338600Y-30775200D02*
X127918600Y-30775200D01*
X127918600Y-30775200D02*
X127838600Y-30455200D01*
X131338600Y-47955200D02*
X131338600Y-48275200D01*
X132338600Y-46785200D02*
X132338600Y-46625200D01*
X131338600Y-47635200D02*
X131338600Y-47955200D01*
X131338600Y-48275200D02*
X127918600Y-48275200D01*
X127838600Y-47955200D02*
X127918600Y-47635200D01*
X131338600Y-33275200D02*
X127918600Y-33275200D01*
X132338600Y-34285200D02*
X132338600Y-34125200D01*
X131338600Y-32635200D02*
X131338600Y-32955200D01*
X134538600Y-29065200D02*
X132338600Y-29065200D01*
X127838600Y-37955200D02*
X127918600Y-37635200D01*
X131338600Y-37635200D02*
X131338600Y-37955200D01*
X127918600Y-32635200D02*
X131338600Y-32635200D01*
X127918600Y-42635200D02*
X131338600Y-42635200D01*
X127338600Y-29065200D02*
X132338600Y-29065200D01*
X132338600Y-39285200D02*
X132338600Y-39125200D01*
X127918600Y-47635200D02*
X131338600Y-47635200D01*
X132338600Y-44285200D02*
X132338600Y-44125200D01*
X131338600Y-45455200D02*
X131338600Y-45775200D01*
X132338600Y-41785200D02*
X132338600Y-41625200D01*
X134538600Y-50565200D02*
X126118600Y-50565200D01*
X127918600Y-45135200D02*
X131338600Y-45135200D01*
X134538600Y-27845200D02*
X134538600Y-29065200D01*
%TO.C,R3*%
X161572936Y-59365000D02*
X162027064Y-59365000D01*
X161572936Y-60835000D02*
X162027064Y-60835000D01*
%TO.C,Rst1*%
X170650000Y-40840000D02*
X170650000Y-46960000D01*
X166950000Y-46960000D02*
X166950000Y-40840000D01*
X166950000Y-40840000D02*
X170650000Y-40840000D01*
X170650000Y-46960000D02*
X166950000Y-46960000D01*
%TO.C,D1*%
X159660000Y-59140000D02*
X156800000Y-59140000D01*
X159660000Y-61060000D02*
X159660000Y-59140000D01*
X156800000Y-61060000D02*
X159660000Y-61060000D01*
%TO.C,R1*%
X164565000Y-46872936D02*
X164565000Y-47327064D01*
X166035000Y-46872936D02*
X166035000Y-47327064D01*
%TO.C,C5*%
X154049400Y-85997148D02*
X154049400Y-86519652D01*
X152579400Y-85997148D02*
X152579400Y-86519652D01*
%TO.C,C10*%
X152610000Y-69454437D02*
X152610000Y-75210000D01*
X151545563Y-68390000D02*
X152610000Y-69454437D01*
X145790000Y-69454437D02*
X145790000Y-75210000D01*
X146854437Y-68390000D02*
X145790000Y-69454437D01*
X151545563Y-68390000D02*
X150260000Y-68390000D01*
X152610000Y-75210000D02*
X150260000Y-75210000D01*
X151441250Y-67756250D02*
X150653750Y-67756250D01*
X146854437Y-68390000D02*
X148140000Y-68390000D01*
X145790000Y-75210000D02*
X148140000Y-75210000D01*
X151047500Y-67362500D02*
X151047500Y-68150000D01*
%TO.C,RFID2*%
X127838600Y-61589600D02*
X127918600Y-61269600D01*
X131338600Y-71909600D02*
X127918600Y-71909600D01*
X127838600Y-71589600D02*
X127918600Y-71269600D01*
X132338600Y-60419600D02*
X132338600Y-60259600D01*
X131338600Y-56269600D02*
X131338600Y-56589600D01*
X131338600Y-69089600D02*
X131338600Y-69409600D01*
X127918600Y-59409600D02*
X127838600Y-59089600D01*
X127918600Y-54409600D02*
X127838600Y-54089600D01*
X131338600Y-71589600D02*
X131338600Y-71909600D01*
X131338600Y-63769600D02*
X131338600Y-64089600D01*
X131338600Y-66269600D02*
X131338600Y-66589600D01*
X131338600Y-59089600D02*
X131338600Y-59409600D01*
X127838600Y-66589600D02*
X127918600Y-66269600D01*
X127338600Y-72979600D02*
X132338600Y-72979600D01*
X131338600Y-68769600D02*
X131338600Y-69089600D01*
X127918600Y-56269600D02*
X131338600Y-56269600D01*
X131338600Y-69409600D02*
X127918600Y-69409600D01*
X132338600Y-72979600D02*
X132338600Y-74199600D01*
X131338600Y-64089600D02*
X131338600Y-64409600D01*
X127918600Y-58769600D02*
X131338600Y-58769600D01*
X132338600Y-72979600D02*
X134538600Y-72979600D01*
X132338600Y-52699600D02*
X132338600Y-51479600D01*
X131338600Y-66589600D02*
X131338600Y-66909600D01*
X131338600Y-64409600D02*
X127918600Y-64409600D01*
X127918600Y-68769600D02*
X131338600Y-68769600D01*
X132338600Y-65419600D02*
X132338600Y-65259600D01*
X127838600Y-56589600D02*
X127918600Y-56269600D01*
X127338600Y-51479600D02*
X127338600Y-52699600D01*
X132338600Y-62919600D02*
X132338600Y-62759600D01*
X127918600Y-66269600D02*
X131338600Y-66269600D01*
X131338600Y-58769600D02*
X131338600Y-59089600D01*
X127338600Y-52699600D02*
X132338600Y-52699600D01*
X127838600Y-54089600D02*
X127918600Y-53769600D01*
X131338600Y-54089600D02*
X131338600Y-54409600D01*
X127838600Y-64089600D02*
X127918600Y-63769600D01*
X134538600Y-51479600D02*
X134538600Y-52699600D01*
X127918600Y-61269600D02*
X131338600Y-61269600D01*
X131338600Y-71269600D02*
X131338600Y-71589600D01*
X132338600Y-55419600D02*
X132338600Y-55259600D01*
X131338600Y-72979600D02*
X131338600Y-52699600D01*
X132338600Y-57919600D02*
X132338600Y-57759600D01*
X127338600Y-74199600D02*
X127338600Y-72979600D01*
X134538600Y-52699600D02*
X132338600Y-52699600D01*
X131338600Y-56909600D02*
X127918600Y-56909600D01*
X127918600Y-56909600D02*
X127838600Y-56589600D01*
X127918600Y-53769600D02*
X131338600Y-53769600D01*
X131338600Y-61909600D02*
X127918600Y-61909600D01*
X131338600Y-61589600D02*
X131338600Y-61909600D01*
X134538600Y-72979600D02*
X134538600Y-74199600D01*
X131338600Y-53769600D02*
X131338600Y-54089600D01*
X134538600Y-74199600D02*
X126118600Y-74199600D01*
X127918600Y-63769600D02*
X131338600Y-63769600D01*
X127918600Y-71909600D02*
X127838600Y-71589600D01*
X127838600Y-59089600D02*
X127918600Y-58769600D01*
X131338600Y-54409600D02*
X127918600Y-54409600D01*
X131338600Y-56589600D02*
X131338600Y-56909600D01*
X127918600Y-69409600D02*
X127838600Y-69089600D01*
X126118600Y-74199600D02*
X126118600Y-51479600D01*
X127918600Y-66909600D02*
X127838600Y-66589600D01*
X131338600Y-61269600D02*
X131338600Y-61589600D01*
X131338600Y-59409600D02*
X127918600Y-59409600D01*
X127918600Y-64409600D02*
X127838600Y-64089600D01*
X127838600Y-69089600D02*
X127918600Y-68769600D01*
X132338600Y-67919600D02*
X132338600Y-67759600D01*
X127918600Y-71269600D02*
X131338600Y-71269600D01*
X131338600Y-66909600D02*
X127918600Y-66909600D01*
X132338600Y-70419600D02*
X132338600Y-70259600D01*
X127918600Y-61909600D02*
X127838600Y-61589600D01*
X126118600Y-51479600D02*
X134538600Y-51479600D01*
%TO.C,Q1*%
X142443200Y-71714800D02*
X141793200Y-71714800D01*
X142443200Y-71714800D02*
X143093200Y-71714800D01*
X142443200Y-68594800D02*
X143093200Y-68594800D01*
X142443200Y-68594800D02*
X140768200Y-68594800D01*
%TO.C,Q2*%
X142443200Y-68114800D02*
X141793200Y-68114800D01*
X142443200Y-68114800D02*
X143093200Y-68114800D01*
X142443200Y-64994800D02*
X143093200Y-64994800D01*
X142443200Y-64994800D02*
X140768200Y-64994800D01*
%TO.C,C6*%
X147275652Y-88648400D02*
X146753148Y-88648400D01*
X147275652Y-90118400D02*
X146753148Y-90118400D01*
%TO.C,R8*%
X142116136Y-72219800D02*
X142570264Y-72219800D01*
X142116136Y-73689800D02*
X142570264Y-73689800D01*
%TO.C,D3*%
X155953200Y-66113200D02*
X158813200Y-66113200D01*
X158813200Y-66113200D02*
X158813200Y-64193200D01*
X158813200Y-64193200D02*
X155953200Y-64193200D01*
%TO.C,C7*%
X143179400Y-88197148D02*
X143179400Y-88719652D01*
X144649400Y-88197148D02*
X144649400Y-88719652D01*
%TO.C,D2*%
X140960000Y-59460000D02*
X140960000Y-56600000D01*
X139040000Y-59460000D02*
X140960000Y-59460000D01*
X139040000Y-56600000D02*
X139040000Y-59460000D01*
%TO.C,FB1*%
X139972876Y-91122500D02*
X140482324Y-91122500D01*
X139972876Y-90077500D02*
X140482324Y-90077500D01*
%TO.C,C3*%
X138558600Y-40952052D02*
X138558600Y-40429548D01*
X140028600Y-40952052D02*
X140028600Y-40429548D01*
%TO.C,C1*%
X162465000Y-46838748D02*
X162465000Y-47361252D01*
X163935000Y-46838748D02*
X163935000Y-47361252D01*
%TO.C,C8*%
X174259463Y-80160000D02*
X175323900Y-79095563D01*
X174259463Y-80160000D02*
X172273900Y-80160000D01*
X175323900Y-71640000D02*
X172273900Y-71640000D01*
X168853900Y-81400000D02*
X168853900Y-80400000D01*
X166803900Y-71640000D02*
X169853900Y-71640000D01*
X175323900Y-79095563D02*
X175323900Y-71640000D01*
X166803900Y-79095563D02*
X166803900Y-71640000D01*
X168353900Y-80900000D02*
X169353900Y-80900000D01*
X167868337Y-80160000D02*
X169853900Y-80160000D01*
X167868337Y-80160000D02*
X166803900Y-79095563D01*
%TO.C,R5*%
X161026136Y-64418200D02*
X161480264Y-64418200D01*
X161026136Y-65888200D02*
X161480264Y-65888200D01*
%TO.C,U2*%
X145164400Y-85028400D02*
X145434400Y-85028400D01*
X152064400Y-85028400D02*
X151794400Y-85028400D01*
X145434400Y-85028400D02*
X145434400Y-87858400D01*
X152064400Y-83528400D02*
X152064400Y-85028400D01*
X145164400Y-83528400D02*
X145164400Y-85028400D01*
X151794400Y-85028400D02*
X151794400Y-86128400D01*
%TO.C,R6*%
X138878200Y-69927736D02*
X138878200Y-70381864D01*
X137408200Y-69927736D02*
X137408200Y-70381864D01*
%TO.C,R7*%
X138878200Y-66127736D02*
X138878200Y-66581864D01*
X137408200Y-66127736D02*
X137408200Y-66581864D01*
%TO.C,D4*%
X167765600Y-66294000D02*
X167055600Y-66294000D01*
X173305600Y-66294000D02*
G75*
G03*
X173305600Y-66294000I-2770000J0D01*
G01*
%TO.C,U1*%
X141880000Y-32485000D02*
X160120000Y-32485000D01*
X141880000Y-38905000D02*
X141500000Y-38905000D01*
X141880000Y-57450000D02*
X141880000Y-58230000D01*
X141880000Y-32485000D02*
X141880000Y-38905000D01*
X141880000Y-58230000D02*
X142880000Y-58230000D01*
X160120000Y-57450000D02*
X160120000Y-58230000D01*
X160120000Y-32485000D02*
X160120000Y-38905000D01*
X160120000Y-58230000D02*
X159120000Y-58230000D01*
%TO.C,screen1*%
X180051000Y-58403200D02*
X183471000Y-58403200D01*
X183471000Y-61543200D02*
X180051000Y-61543200D01*
X180051000Y-71543200D02*
X180051000Y-71223200D01*
X184051000Y-78833200D02*
X184051000Y-77613200D01*
X180051000Y-71223200D02*
X180051000Y-70903200D01*
X183551000Y-58723200D02*
X183471000Y-59043200D01*
X180051000Y-59043200D02*
X180051000Y-58723200D01*
X183471000Y-75903200D02*
X183551000Y-76223200D01*
X183471000Y-54043200D02*
X180051000Y-54043200D01*
X183551000Y-73723200D02*
X183471000Y-74043200D01*
X183471000Y-73403200D02*
X183551000Y-73723200D01*
X179051000Y-59893200D02*
X179051000Y-60053200D01*
X179051000Y-52333200D02*
X179051000Y-51113200D01*
X180051000Y-53723200D02*
X180051000Y-53403200D01*
X180051000Y-53403200D02*
X183471000Y-53403200D01*
X183471000Y-60903200D02*
X183551000Y-61223200D01*
X183551000Y-61223200D02*
X183471000Y-61543200D01*
X180051000Y-75903200D02*
X183471000Y-75903200D01*
X180051000Y-65903200D02*
X183471000Y-65903200D01*
X183551000Y-53723200D02*
X183471000Y-54043200D01*
X180051000Y-55903200D02*
X183471000Y-55903200D01*
X183471000Y-66543200D02*
X180051000Y-66543200D01*
X180051000Y-56223200D02*
X180051000Y-55903200D01*
X183551000Y-68723200D02*
X183471000Y-69043200D01*
X180051000Y-63403200D02*
X183471000Y-63403200D01*
X184051000Y-52333200D02*
X179051000Y-52333200D01*
X184051000Y-51113200D02*
X184051000Y-52333200D01*
X183471000Y-63403200D02*
X183551000Y-63723200D01*
X180051000Y-68723200D02*
X180051000Y-68403200D01*
X176851000Y-51113200D02*
X185271000Y-51113200D01*
X179051000Y-62393200D02*
X179051000Y-62553200D01*
X179051000Y-74893200D02*
X179051000Y-75053200D01*
X183471000Y-58403200D02*
X183551000Y-58723200D01*
X183471000Y-53403200D02*
X183551000Y-53723200D01*
X183551000Y-71223200D02*
X183471000Y-71543200D01*
X183471000Y-70903200D02*
X183551000Y-71223200D01*
X180051000Y-61543200D02*
X180051000Y-61223200D01*
X180051000Y-74043200D02*
X180051000Y-73723200D01*
X180051000Y-70903200D02*
X183471000Y-70903200D01*
X180051000Y-66223200D02*
X180051000Y-65903200D01*
X180051000Y-64043200D02*
X180051000Y-63723200D01*
X179051000Y-67393200D02*
X179051000Y-67553200D01*
X183471000Y-76543200D02*
X180051000Y-76543200D01*
X183471000Y-64043200D02*
X180051000Y-64043200D01*
X180051000Y-76223200D02*
X180051000Y-75903200D01*
X176851000Y-52333200D02*
X176851000Y-51113200D01*
X183551000Y-63723200D02*
X183471000Y-64043200D01*
X180051000Y-73403200D02*
X183471000Y-73403200D01*
X183551000Y-66223200D02*
X183471000Y-66543200D01*
X183471000Y-69043200D02*
X180051000Y-69043200D01*
X180051000Y-63723200D02*
X180051000Y-63403200D01*
X180051000Y-58723200D02*
X180051000Y-58403200D01*
X183551000Y-76223200D02*
X183471000Y-76543200D01*
X179051000Y-64893200D02*
X179051000Y-65053200D01*
X179051000Y-54893200D02*
X179051000Y-55053200D01*
X183471000Y-59043200D02*
X180051000Y-59043200D01*
X183471000Y-71543200D02*
X180051000Y-71543200D01*
X183471000Y-56543200D02*
X180051000Y-56543200D01*
X183471000Y-74043200D02*
X180051000Y-74043200D01*
X180051000Y-52333200D02*
X180051000Y-77613200D01*
X183551000Y-56223200D02*
X183471000Y-56543200D01*
X184051000Y-77613200D02*
X179051000Y-77613200D01*
X176851000Y-77613200D02*
X179051000Y-77613200D01*
X179051000Y-72393200D02*
X179051000Y-72553200D01*
X185271000Y-51113200D02*
X185271000Y-78833200D01*
X183471000Y-68403200D02*
X183551000Y-68723200D01*
X180051000Y-60903200D02*
X183471000Y-60903200D01*
X179051000Y-57393200D02*
X179051000Y-57553200D01*
X179051000Y-77613200D02*
X179051000Y-78833200D01*
X180051000Y-56543200D02*
X180051000Y-56223200D01*
X180051000Y-54043200D02*
X180051000Y-53723200D01*
X183471000Y-55903200D02*
X183551000Y-56223200D01*
X180051000Y-73723200D02*
X180051000Y-73403200D01*
X183471000Y-65903200D02*
X183551000Y-66223200D01*
X180051000Y-66543200D02*
X180051000Y-66223200D01*
X180051000Y-76543200D02*
X180051000Y-76223200D01*
X176851000Y-78833200D02*
X176851000Y-77613200D01*
X179051000Y-52333200D02*
X176851000Y-52333200D01*
X180051000Y-69043200D02*
X180051000Y-68723200D01*
X185271000Y-78833200D02*
X176851000Y-78833200D01*
X180051000Y-68403200D02*
X183471000Y-68403200D01*
X179051000Y-69893200D02*
X179051000Y-70053200D01*
X180051000Y-61223200D02*
X180051000Y-60903200D01*
%TO.C,C4*%
X151681548Y-88622200D02*
X152204052Y-88622200D01*
X151681548Y-90092200D02*
X152204052Y-90092200D01*
%TO.C,Teclado1*%
X141610900Y-89260000D02*
X138280900Y-89260000D01*
X141830900Y-78200000D02*
X141830900Y-80000000D01*
X134760900Y-89260000D02*
X126650900Y-89260000D01*
X126130900Y-75290000D02*
X126130900Y-89910000D01*
X126650900Y-75940000D02*
X126650900Y-75290000D01*
X126650900Y-75290000D02*
X126130900Y-75290000D01*
X126650900Y-89910000D02*
X126650900Y-89260000D01*
X126650900Y-75940000D02*
X134760900Y-75940000D01*
X141610900Y-75940000D02*
X138280900Y-75940000D01*
X126130900Y-89910000D02*
X126650900Y-89910000D01*
X141610900Y-75940000D02*
X141610900Y-89260000D01*
%TO.C,U3*%
X155563900Y-82150000D02*
X155563900Y-80650000D01*
X165013900Y-80650000D02*
X165013900Y-75525000D01*
X165963900Y-80650000D02*
X165013900Y-80650000D01*
X155563900Y-80650000D02*
X156513900Y-80650000D01*
X156513900Y-80650000D02*
X156513900Y-79550000D01*
X165963900Y-82150000D02*
X165963900Y-80650000D01*
%TO.C,Sensitizer1*%
X173530000Y-33042500D02*
X173530000Y-29622500D01*
X176670000Y-29622500D02*
X176670000Y-33042500D01*
X175020000Y-34042500D02*
X175180000Y-34042500D01*
X166240000Y-27822500D02*
X178960000Y-27822500D01*
X167460000Y-36242500D02*
X166240000Y-36242500D01*
X171350000Y-33042500D02*
X171030000Y-33042500D01*
X172520000Y-34042500D02*
X172680000Y-34042500D01*
X178960000Y-29042500D02*
X177740000Y-29042500D01*
X171670000Y-33042500D02*
X171350000Y-33042500D01*
X174170000Y-29622500D02*
X174170000Y-33042500D01*
X167460000Y-29042500D02*
X167460000Y-34042500D01*
X168850000Y-29542500D02*
X169170000Y-29622500D01*
X170020000Y-34042500D02*
X170180000Y-34042500D01*
X176030000Y-33042500D02*
X176030000Y-29622500D01*
X177740000Y-29042500D02*
X177740000Y-34042500D01*
X171030000Y-29622500D02*
X171350000Y-29542500D01*
X169170000Y-33042500D02*
X168850000Y-33042500D01*
X167460000Y-34042500D02*
X167460000Y-36242500D01*
X177740000Y-34042500D02*
X178960000Y-34042500D01*
X173850000Y-29542500D02*
X174170000Y-29622500D01*
X166240000Y-29042500D02*
X167460000Y-29042500D01*
X176030000Y-29622500D02*
X176350000Y-29542500D01*
X168850000Y-36132500D02*
X168550000Y-36732500D01*
X176350000Y-33042500D02*
X176030000Y-33042500D01*
X177740000Y-36242500D02*
X177740000Y-34042500D01*
X171350000Y-29542500D02*
X171670000Y-29622500D01*
X169170000Y-29622500D02*
X169170000Y-33042500D01*
X167460000Y-34042500D02*
X166240000Y-34042500D01*
X167460000Y-33042500D02*
X177740000Y-33042500D01*
X178960000Y-27822500D02*
X178960000Y-36242500D01*
X168530000Y-33042500D02*
X168530000Y-29622500D01*
X178960000Y-36242500D02*
X177740000Y-36242500D01*
X171670000Y-29622500D02*
X171670000Y-33042500D01*
X173850000Y-33042500D02*
X173530000Y-33042500D01*
X176350000Y-29542500D02*
X176670000Y-29622500D01*
X169150000Y-36732500D02*
X168850000Y-36132500D01*
X174170000Y-33042500D02*
X173850000Y-33042500D01*
X168550000Y-36732500D02*
X169150000Y-36732500D01*
X166240000Y-36242500D02*
X166240000Y-27822500D01*
X173530000Y-29622500D02*
X173850000Y-29542500D01*
X171030000Y-33042500D02*
X171030000Y-29622500D01*
X168850000Y-33042500D02*
X168530000Y-33042500D01*
X168530000Y-29622500D02*
X168850000Y-29542500D01*
X176670000Y-33042500D02*
X176350000Y-33042500D01*
%TO.C,R9*%
X146734264Y-64441400D02*
X146280136Y-64441400D01*
X146734264Y-65911400D02*
X146280136Y-65911400D01*
%TO.C,Program1*%
X184583700Y-45720000D02*
X181923700Y-45720000D01*
X181923700Y-48320000D02*
X181923700Y-46990000D01*
X181923700Y-45720000D02*
X181923700Y-35500000D01*
X184583700Y-35500000D02*
X181923700Y-35500000D01*
X183253700Y-48320000D02*
X181923700Y-48320000D01*
X184583700Y-45720000D02*
X184583700Y-35500000D01*
%TO.C,Boot1*%
X171350000Y-46960000D02*
X171350000Y-40840000D01*
X175050000Y-46960000D02*
X171350000Y-46960000D01*
X171350000Y-40840000D02*
X175050000Y-40840000D01*
X175050000Y-40840000D02*
X175050000Y-46960000D01*
%TO.C,C2*%
X162565000Y-41161252D02*
X162565000Y-40638748D01*
X164035000Y-41161252D02*
X164035000Y-40638748D01*
%TO.C,R4*%
X140793736Y-61190200D02*
X141247864Y-61190200D01*
X140793736Y-62660200D02*
X141247864Y-62660200D01*
%TD*%
M02*
