%FSLAX45Y45*%
G04 Gerber Fmt 4.5, Leading zero omitted, Abs format (unit mm)*
G04 Created by KiCad (PCBNEW (6.0.1)) date 2022-05-20 19:43:47*
%MOMM*%
%LPD*%
G01*
G04 APERTURE LIST*
%TA.AperFunction,Profile*%
%ADD10C,0.100000*%
%TD*%
%ADD11C,0.200000*%
%ADD12C,0.320000*%
G04 APERTURE END LIST*
D10*
X12570000Y-2740000D02*
X18570000Y-2740000D01*
X18570000Y-2740000D02*
X18570000Y-9240000D01*
X18570000Y-9240000D02*
X12570000Y-9240000D01*
X12570000Y-9240000D02*
X12570000Y-2740000D01*
D11*
D12*
X13652520Y-4493280D02*
X13972520Y-4813280D01*
X13972520Y-4493280D02*
X13652520Y-4813280D01*
X16776720Y-5549920D02*
X17096720Y-5869920D01*
X17096720Y-5549920D02*
X16776720Y-5869920D01*
X18087360Y-2893080D02*
X18407360Y-3213080D01*
X18407360Y-2893080D02*
X18087360Y-3213080D01*
D11*
X12822619Y-9555476D02*
X12822619Y-9355476D01*
X12870238Y-9355476D01*
X12898809Y-9365000D01*
X12917857Y-9384048D01*
X12927381Y-9403095D01*
X12936905Y-9441190D01*
X12936905Y-9469762D01*
X12927381Y-9507857D01*
X12917857Y-9526905D01*
X12898809Y-9545952D01*
X12870238Y-9555476D01*
X12822619Y-9555476D01*
X13022619Y-9555476D02*
X13022619Y-9422143D01*
X13022619Y-9460238D02*
X13032143Y-9441190D01*
X13041667Y-9431667D01*
X13060714Y-9422143D01*
X13079762Y-9422143D01*
X13146428Y-9555476D02*
X13146428Y-9422143D01*
X13146428Y-9355476D02*
X13136905Y-9365000D01*
X13146428Y-9374524D01*
X13155952Y-9365000D01*
X13146428Y-9355476D01*
X13146428Y-9374524D01*
X13270238Y-9555476D02*
X13251190Y-9545952D01*
X13241667Y-9526905D01*
X13241667Y-9355476D01*
X13375000Y-9555476D02*
X13355952Y-9545952D01*
X13346428Y-9526905D01*
X13346428Y-9355476D01*
X13603571Y-9555476D02*
X13603571Y-9355476D01*
X13670238Y-9498333D01*
X13736905Y-9355476D01*
X13736905Y-9555476D01*
X13917857Y-9555476D02*
X13917857Y-9450714D01*
X13908333Y-9431667D01*
X13889286Y-9422143D01*
X13851190Y-9422143D01*
X13832143Y-9431667D01*
X13917857Y-9545952D02*
X13898809Y-9555476D01*
X13851190Y-9555476D01*
X13832143Y-9545952D01*
X13822619Y-9526905D01*
X13822619Y-9507857D01*
X13832143Y-9488810D01*
X13851190Y-9479286D01*
X13898809Y-9479286D01*
X13917857Y-9469762D01*
X14013095Y-9422143D02*
X14013095Y-9622143D01*
X14013095Y-9431667D02*
X14032143Y-9422143D01*
X14070238Y-9422143D01*
X14089286Y-9431667D01*
X14098809Y-9441190D01*
X14108333Y-9460238D01*
X14108333Y-9517381D01*
X14098809Y-9536429D01*
X14089286Y-9545952D01*
X14070238Y-9555476D01*
X14032143Y-9555476D01*
X14013095Y-9545952D01*
X14194048Y-9536429D02*
X14203571Y-9545952D01*
X14194048Y-9555476D01*
X14184524Y-9545952D01*
X14194048Y-9536429D01*
X14194048Y-9555476D01*
X14194048Y-9431667D02*
X14203571Y-9441190D01*
X14194048Y-9450714D01*
X14184524Y-9441190D01*
X14194048Y-9431667D01*
X14194048Y-9450714D01*
X12365000Y-9785000D02*
X12565000Y-9985000D01*
X12565000Y-9785000D02*
X12365000Y-9985000D01*
X12803571Y-9775476D02*
X12927381Y-9775476D01*
X12860714Y-9851667D01*
X12889286Y-9851667D01*
X12908333Y-9861190D01*
X12917857Y-9870714D01*
X12927381Y-9889762D01*
X12927381Y-9937381D01*
X12917857Y-9956429D01*
X12908333Y-9965952D01*
X12889286Y-9975476D01*
X12832143Y-9975476D01*
X12813095Y-9965952D01*
X12803571Y-9956429D01*
X13013095Y-9956429D02*
X13022619Y-9965952D01*
X13013095Y-9975476D01*
X13003571Y-9965952D01*
X13013095Y-9956429D01*
X13013095Y-9975476D01*
X13098809Y-9794524D02*
X13108333Y-9785000D01*
X13127381Y-9775476D01*
X13175000Y-9775476D01*
X13194048Y-9785000D01*
X13203571Y-9794524D01*
X13213095Y-9813571D01*
X13213095Y-9832619D01*
X13203571Y-9861190D01*
X13089286Y-9975476D01*
X13213095Y-9975476D01*
X13336905Y-9775476D02*
X13355952Y-9775476D01*
X13375000Y-9785000D01*
X13384524Y-9794524D01*
X13394048Y-9813571D01*
X13403571Y-9851667D01*
X13403571Y-9899286D01*
X13394048Y-9937381D01*
X13384524Y-9956429D01*
X13375000Y-9965952D01*
X13355952Y-9975476D01*
X13336905Y-9975476D01*
X13317857Y-9965952D01*
X13308333Y-9956429D01*
X13298809Y-9937381D01*
X13289286Y-9899286D01*
X13289286Y-9851667D01*
X13298809Y-9813571D01*
X13308333Y-9794524D01*
X13317857Y-9785000D01*
X13336905Y-9775476D01*
X13527381Y-9775476D02*
X13546428Y-9775476D01*
X13565476Y-9785000D01*
X13575000Y-9794524D01*
X13584524Y-9813571D01*
X13594048Y-9851667D01*
X13594048Y-9899286D01*
X13584524Y-9937381D01*
X13575000Y-9956429D01*
X13565476Y-9965952D01*
X13546428Y-9975476D01*
X13527381Y-9975476D01*
X13508333Y-9965952D01*
X13498809Y-9956429D01*
X13489286Y-9937381D01*
X13479762Y-9899286D01*
X13479762Y-9851667D01*
X13489286Y-9813571D01*
X13498809Y-9794524D01*
X13508333Y-9785000D01*
X13527381Y-9775476D01*
X13679762Y-9975476D02*
X13679762Y-9842143D01*
X13679762Y-9861190D02*
X13689286Y-9851667D01*
X13708333Y-9842143D01*
X13736905Y-9842143D01*
X13755952Y-9851667D01*
X13765476Y-9870714D01*
X13765476Y-9975476D01*
X13765476Y-9870714D02*
X13775000Y-9851667D01*
X13794048Y-9842143D01*
X13822619Y-9842143D01*
X13841667Y-9851667D01*
X13851190Y-9870714D01*
X13851190Y-9975476D01*
X13946428Y-9975476D02*
X13946428Y-9842143D01*
X13946428Y-9861190D02*
X13955952Y-9851667D01*
X13975000Y-9842143D01*
X14003571Y-9842143D01*
X14022619Y-9851667D01*
X14032143Y-9870714D01*
X14032143Y-9975476D01*
X14032143Y-9870714D02*
X14041667Y-9851667D01*
X14060714Y-9842143D01*
X14089286Y-9842143D01*
X14108333Y-9851667D01*
X14117857Y-9870714D01*
X14117857Y-9975476D01*
X14508333Y-9765952D02*
X14336905Y-10023095D01*
X14765476Y-9775476D02*
X14784524Y-9775476D01*
X14803571Y-9785000D01*
X14813095Y-9794524D01*
X14822619Y-9813571D01*
X14832143Y-9851667D01*
X14832143Y-9899286D01*
X14822619Y-9937381D01*
X14813095Y-9956429D01*
X14803571Y-9965952D01*
X14784524Y-9975476D01*
X14765476Y-9975476D01*
X14746428Y-9965952D01*
X14736905Y-9956429D01*
X14727381Y-9937381D01*
X14717857Y-9899286D01*
X14717857Y-9851667D01*
X14727381Y-9813571D01*
X14736905Y-9794524D01*
X14746428Y-9785000D01*
X14765476Y-9775476D01*
X14917857Y-9956429D02*
X14927381Y-9965952D01*
X14917857Y-9975476D01*
X14908333Y-9965952D01*
X14917857Y-9956429D01*
X14917857Y-9975476D01*
X15117857Y-9975476D02*
X15003571Y-9975476D01*
X15060714Y-9975476D02*
X15060714Y-9775476D01*
X15041667Y-9804048D01*
X15022619Y-9823095D01*
X15003571Y-9832619D01*
X15194048Y-9794524D02*
X15203571Y-9785000D01*
X15222619Y-9775476D01*
X15270238Y-9775476D01*
X15289286Y-9785000D01*
X15298809Y-9794524D01*
X15308333Y-9813571D01*
X15308333Y-9832619D01*
X15298809Y-9861190D01*
X15184524Y-9975476D01*
X15308333Y-9975476D01*
X15479762Y-9775476D02*
X15441667Y-9775476D01*
X15422619Y-9785000D01*
X15413095Y-9794524D01*
X15394048Y-9823095D01*
X15384524Y-9861190D01*
X15384524Y-9937381D01*
X15394048Y-9956429D01*
X15403571Y-9965952D01*
X15422619Y-9975476D01*
X15460714Y-9975476D01*
X15479762Y-9965952D01*
X15489286Y-9956429D01*
X15498809Y-9937381D01*
X15498809Y-9889762D01*
X15489286Y-9870714D01*
X15479762Y-9861190D01*
X15460714Y-9851667D01*
X15422619Y-9851667D01*
X15403571Y-9861190D01*
X15394048Y-9870714D01*
X15384524Y-9889762D01*
X15622619Y-9775476D02*
X15641667Y-9775476D01*
X15660714Y-9785000D01*
X15670238Y-9794524D01*
X15679762Y-9813571D01*
X15689286Y-9851667D01*
X15689286Y-9899286D01*
X15679762Y-9937381D01*
X15670238Y-9956429D01*
X15660714Y-9965952D01*
X15641667Y-9975476D01*
X15622619Y-9975476D01*
X15603571Y-9965952D01*
X15594048Y-9956429D01*
X15584524Y-9937381D01*
X15575000Y-9899286D01*
X15575000Y-9851667D01*
X15584524Y-9813571D01*
X15594048Y-9794524D01*
X15603571Y-9785000D01*
X15622619Y-9775476D01*
X15765476Y-9775476D02*
X15765476Y-9813571D01*
X15841667Y-9775476D02*
X15841667Y-9813571D01*
X16136905Y-10051667D02*
X16127381Y-10042143D01*
X16108333Y-10013571D01*
X16098809Y-9994524D01*
X16089286Y-9965952D01*
X16079762Y-9918333D01*
X16079762Y-9880238D01*
X16089286Y-9832619D01*
X16098809Y-9804048D01*
X16108333Y-9785000D01*
X16127381Y-9756429D01*
X16136905Y-9746905D01*
X16194048Y-9775476D02*
X16317857Y-9775476D01*
X16251190Y-9851667D01*
X16279762Y-9851667D01*
X16298809Y-9861190D01*
X16308333Y-9870714D01*
X16317857Y-9889762D01*
X16317857Y-9937381D01*
X16308333Y-9956429D01*
X16298809Y-9965952D01*
X16279762Y-9975476D01*
X16222619Y-9975476D01*
X16203571Y-9965952D01*
X16194048Y-9956429D01*
X16555952Y-9975476D02*
X16555952Y-9775476D01*
X16641667Y-9975476D02*
X16641667Y-9870714D01*
X16632143Y-9851667D01*
X16613095Y-9842143D01*
X16584524Y-9842143D01*
X16565476Y-9851667D01*
X16555952Y-9861190D01*
X16765476Y-9975476D02*
X16746428Y-9965952D01*
X16736905Y-9956429D01*
X16727381Y-9937381D01*
X16727381Y-9880238D01*
X16736905Y-9861190D01*
X16746428Y-9851667D01*
X16765476Y-9842143D01*
X16794048Y-9842143D01*
X16813095Y-9851667D01*
X16822619Y-9861190D01*
X16832143Y-9880238D01*
X16832143Y-9937381D01*
X16822619Y-9956429D01*
X16813095Y-9965952D01*
X16794048Y-9975476D01*
X16765476Y-9975476D01*
X16946429Y-9975476D02*
X16927381Y-9965952D01*
X16917857Y-9946905D01*
X16917857Y-9775476D01*
X17098810Y-9965952D02*
X17079762Y-9975476D01*
X17041667Y-9975476D01*
X17022619Y-9965952D01*
X17013095Y-9946905D01*
X17013095Y-9870714D01*
X17022619Y-9851667D01*
X17041667Y-9842143D01*
X17079762Y-9842143D01*
X17098810Y-9851667D01*
X17108333Y-9870714D01*
X17108333Y-9889762D01*
X17013095Y-9908810D01*
X17184524Y-9965952D02*
X17203571Y-9975476D01*
X17241667Y-9975476D01*
X17260714Y-9965952D01*
X17270238Y-9946905D01*
X17270238Y-9937381D01*
X17260714Y-9918333D01*
X17241667Y-9908810D01*
X17213095Y-9908810D01*
X17194048Y-9899286D01*
X17184524Y-9880238D01*
X17184524Y-9870714D01*
X17194048Y-9851667D01*
X17213095Y-9842143D01*
X17241667Y-9842143D01*
X17260714Y-9851667D01*
X17336905Y-10051667D02*
X17346429Y-10042143D01*
X17365476Y-10013571D01*
X17375000Y-9994524D01*
X17384524Y-9965952D01*
X17394048Y-9918333D01*
X17394048Y-9880238D01*
X17384524Y-9832619D01*
X17375000Y-9804048D01*
X17365476Y-9785000D01*
X17346429Y-9756429D01*
X17336905Y-9746905D01*
X17698810Y-10051667D02*
X17689286Y-10042143D01*
X17670238Y-10013571D01*
X17660714Y-9994524D01*
X17651190Y-9965952D01*
X17641667Y-9918333D01*
X17641667Y-9880238D01*
X17651190Y-9832619D01*
X17660714Y-9804048D01*
X17670238Y-9785000D01*
X17689286Y-9756429D01*
X17698810Y-9746905D01*
X17775000Y-9842143D02*
X17775000Y-9975476D01*
X17775000Y-9861190D02*
X17784524Y-9851667D01*
X17803571Y-9842143D01*
X17832143Y-9842143D01*
X17851190Y-9851667D01*
X17860714Y-9870714D01*
X17860714Y-9975476D01*
X17984524Y-9975476D02*
X17965476Y-9965952D01*
X17955952Y-9956429D01*
X17946429Y-9937381D01*
X17946429Y-9880238D01*
X17955952Y-9861190D01*
X17965476Y-9851667D01*
X17984524Y-9842143D01*
X18013095Y-9842143D01*
X18032143Y-9851667D01*
X18041667Y-9861190D01*
X18051190Y-9880238D01*
X18051190Y-9937381D01*
X18041667Y-9956429D01*
X18032143Y-9965952D01*
X18013095Y-9975476D01*
X17984524Y-9975476D01*
X18108333Y-9842143D02*
X18184524Y-9842143D01*
X18136905Y-9775476D02*
X18136905Y-9946905D01*
X18146429Y-9965952D01*
X18165476Y-9975476D01*
X18184524Y-9975476D01*
X18403571Y-9842143D02*
X18403571Y-10042143D01*
X18403571Y-9851667D02*
X18422619Y-9842143D01*
X18460714Y-9842143D01*
X18479762Y-9851667D01*
X18489286Y-9861190D01*
X18498810Y-9880238D01*
X18498810Y-9937381D01*
X18489286Y-9956429D01*
X18479762Y-9965952D01*
X18460714Y-9975476D01*
X18422619Y-9975476D01*
X18403571Y-9965952D01*
X18613095Y-9975476D02*
X18594048Y-9965952D01*
X18584524Y-9946905D01*
X18584524Y-9775476D01*
X18775000Y-9975476D02*
X18775000Y-9870714D01*
X18765476Y-9851667D01*
X18746429Y-9842143D01*
X18708333Y-9842143D01*
X18689286Y-9851667D01*
X18775000Y-9965952D02*
X18755952Y-9975476D01*
X18708333Y-9975476D01*
X18689286Y-9965952D01*
X18679762Y-9946905D01*
X18679762Y-9927857D01*
X18689286Y-9908810D01*
X18708333Y-9899286D01*
X18755952Y-9899286D01*
X18775000Y-9889762D01*
X18841667Y-9842143D02*
X18917857Y-9842143D01*
X18870238Y-9775476D02*
X18870238Y-9946905D01*
X18879762Y-9965952D01*
X18898810Y-9975476D01*
X18917857Y-9975476D01*
X19060714Y-9965952D02*
X19041667Y-9975476D01*
X19003571Y-9975476D01*
X18984524Y-9965952D01*
X18975000Y-9946905D01*
X18975000Y-9870714D01*
X18984524Y-9851667D01*
X19003571Y-9842143D01*
X19041667Y-9842143D01*
X19060714Y-9851667D01*
X19070238Y-9870714D01*
X19070238Y-9889762D01*
X18975000Y-9908810D01*
X19241667Y-9975476D02*
X19241667Y-9775476D01*
X19241667Y-9965952D02*
X19222619Y-9975476D01*
X19184524Y-9975476D01*
X19165476Y-9965952D01*
X19155952Y-9956429D01*
X19146429Y-9937381D01*
X19146429Y-9880238D01*
X19155952Y-9861190D01*
X19165476Y-9851667D01*
X19184524Y-9842143D01*
X19222619Y-9842143D01*
X19241667Y-9851667D01*
X19317857Y-10051667D02*
X19327381Y-10042143D01*
X19346429Y-10013571D01*
X19355952Y-9994524D01*
X19365476Y-9965952D01*
X19375000Y-9918333D01*
X19375000Y-9880238D01*
X19365476Y-9832619D01*
X19355952Y-9804048D01*
X19346429Y-9785000D01*
X19327381Y-9756429D01*
X19317857Y-9746905D01*
M02*
