%TF.GenerationSoftware,KiCad,Pcbnew,(6.0.1)*%
%TF.CreationDate,2022-05-20T18:22:20-05:00*%
%TF.ProjectId,esp32_2,65737033-325f-4322-9e6b-696361645f70,rev?*%
%TF.SameCoordinates,Original*%
%TF.FileFunction,Soldermask,Top*%
%TF.FilePolarity,Negative*%
%FSLAX46Y46*%
G04 Gerber Fmt 4.6, Leading zero omitted, Abs format (unit mm)*
G04 Created by KiCad (PCBNEW (6.0.1)) date 2022-05-20 18:22:20*
%MOMM*%
%LPD*%
G01*
G04 APERTURE LIST*
G04 Aperture macros list*
%AMRoundRect*
0 Rectangle with rounded corners*
0 $1 Rounding radius*
0 $2 $3 $4 $5 $6 $7 $8 $9 X,Y pos of 4 corners*
0 Add a 4 corners polygon primitive as box body*
4,1,4,$2,$3,$4,$5,$6,$7,$8,$9,$2,$3,0*
0 Add four circle primitives for the rounded corners*
1,1,$1+$1,$2,$3*
1,1,$1+$1,$4,$5*
1,1,$1+$1,$6,$7*
1,1,$1+$1,$8,$9*
0 Add four rect primitives between the rounded corners*
20,1,$1+$1,$2,$3,$4,$5,0*
20,1,$1+$1,$4,$5,$6,$7,0*
20,1,$1+$1,$6,$7,$8,$9,0*
20,1,$1+$1,$8,$9,$2,$3,0*%
G04 Aperture macros list end*
%ADD10RoundRect,0.237500X0.250000X0.237500X-0.250000X0.237500X-0.250000X-0.237500X0.250000X-0.237500X0*%
%ADD11R,2.350000X3.000000*%
%ADD12R,3.500000X3.500000*%
%ADD13RoundRect,0.750000X0.750000X1.000000X-0.750000X1.000000X-0.750000X-1.000000X0.750000X-1.000000X0*%
%ADD14RoundRect,0.875000X0.875000X0.875000X-0.875000X0.875000X-0.875000X-0.875000X0.875000X-0.875000X0*%
%ADD15RoundRect,0.250000X0.450000X-0.350000X0.450000X0.350000X-0.450000X0.350000X-0.450000X-0.350000X0*%
%ADD16RoundRect,0.250000X0.725000X-0.600000X0.725000X0.600000X-0.725000X0.600000X-0.725000X-0.600000X0*%
%ADD17O,1.950000X1.700000*%
%ADD18RoundRect,0.250000X-0.350000X-0.450000X0.350000X-0.450000X0.350000X0.450000X-0.350000X0.450000X0*%
%ADD19R,1.500000X1.500000*%
%ADD20RoundRect,0.250000X0.325000X0.450000X-0.325000X0.450000X-0.325000X-0.450000X0.325000X-0.450000X0*%
%ADD21C,3.200000*%
%ADD22RoundRect,0.250000X-0.450000X0.350000X-0.450000X-0.350000X0.450000X-0.350000X0.450000X0.350000X0*%
%ADD23RoundRect,0.250000X-0.475000X0.337500X-0.475000X-0.337500X0.475000X-0.337500X0.475000X0.337500X0*%
%ADD24RoundRect,0.250000X-0.550000X1.500000X-0.550000X-1.500000X0.550000X-1.500000X0.550000X1.500000X0*%
%ADD25RoundRect,0.150000X-0.587500X-0.150000X0.587500X-0.150000X0.587500X0.150000X-0.587500X0.150000X0*%
%ADD26RoundRect,0.250000X0.337500X0.475000X-0.337500X0.475000X-0.337500X-0.475000X0.337500X-0.475000X0*%
%ADD27RoundRect,0.250000X0.450000X-0.325000X0.450000X0.325000X-0.450000X0.325000X-0.450000X-0.325000X0*%
%ADD28RoundRect,0.237500X-0.250000X-0.237500X0.250000X-0.237500X0.250000X0.237500X-0.250000X0.237500X0*%
%ADD29RoundRect,0.250000X0.475000X-0.337500X0.475000X0.337500X-0.475000X0.337500X-0.475000X-0.337500X0*%
%ADD30RoundRect,0.250000X0.700000X-1.825000X0.700000X1.825000X-0.700000X1.825000X-0.700000X-1.825000X0*%
%ADD31R,1.200000X2.200000*%
%ADD32R,5.800000X6.400000*%
%ADD33R,2.600000X2.600000*%
%ADD34O,2.600000X2.600000*%
%ADD35R,2.000000X0.900000*%
%ADD36R,0.900000X2.000000*%
%ADD37R,5.000000X5.000000*%
%ADD38RoundRect,0.250000X-0.725000X0.600000X-0.725000X-0.600000X0.725000X-0.600000X0.725000X0.600000X0*%
%ADD39RoundRect,0.250000X-0.337500X-0.475000X0.337500X-0.475000X0.337500X0.475000X-0.337500X0.475000X0*%
%ADD40R,1.500000X1.600000*%
%ADD41C,1.600000*%
%ADD42C,3.000000*%
%ADD43R,1.100000X4.600000*%
%ADD44R,10.800000X9.400000*%
%ADD45RoundRect,0.250000X-0.600000X-0.725000X0.600000X-0.725000X0.600000X0.725000X-0.600000X0.725000X0*%
%ADD46O,1.700000X1.950000*%
%ADD47RoundRect,0.250000X0.350000X0.450000X-0.350000X0.450000X-0.350000X-0.450000X0.350000X-0.450000X0*%
%ADD48R,1.700000X1.700000*%
%ADD49O,1.700000X1.700000*%
G04 APERTURE END LIST*
D10*
%TO.C,FB2*%
X179476400Y-81635600D03*
X177651400Y-81635600D03*
%TD*%
D11*
%TO.C,L1*%
X161983200Y-70053200D03*
X155923200Y-70053200D03*
%TD*%
D12*
%TO.C,Vin1*%
X171663900Y-87393100D03*
D13*
X177663900Y-87393100D03*
D14*
X174663900Y-82693100D03*
%TD*%
D15*
%TO.C,R2*%
X165400000Y-41900000D03*
X165400000Y-39900000D03*
%TD*%
D16*
%TO.C,RFID1*%
X132928600Y-47955200D03*
D17*
X132928600Y-45455200D03*
X132928600Y-42955200D03*
X132928600Y-40455200D03*
X132928600Y-37955200D03*
X132928600Y-35455200D03*
X132928600Y-32955200D03*
X132928600Y-30455200D03*
%TD*%
D18*
%TO.C,R3*%
X160800000Y-60100000D03*
X162800000Y-60100000D03*
%TD*%
D19*
%TO.C,Rst1*%
X168800000Y-47800000D03*
X168800000Y-40000000D03*
%TD*%
D20*
%TO.C,D1*%
X158825000Y-60100000D03*
X156775000Y-60100000D03*
%TD*%
D21*
%TO.C,T1*%
X182524400Y-30530800D03*
%TD*%
D22*
%TO.C,R1*%
X165300000Y-46100000D03*
X165300000Y-48100000D03*
%TD*%
D23*
%TO.C,C5*%
X153314400Y-85220900D03*
X153314400Y-87295900D03*
%TD*%
D24*
%TO.C,C10*%
X149200000Y-69100000D03*
X149200000Y-74500000D03*
%TD*%
D16*
%TO.C,RFID2*%
X132928600Y-71589600D03*
D17*
X132928600Y-69089600D03*
X132928600Y-66589600D03*
X132928600Y-64089600D03*
X132928600Y-61589600D03*
X132928600Y-59089600D03*
X132928600Y-56589600D03*
X132928600Y-54089600D03*
%TD*%
D25*
%TO.C,Q1*%
X141505700Y-69204800D03*
X141505700Y-71104800D03*
X143380700Y-70154800D03*
%TD*%
%TO.C,Q2*%
X141505700Y-65604800D03*
X141505700Y-67504800D03*
X143380700Y-66554800D03*
%TD*%
D26*
%TO.C,C6*%
X148051900Y-89383400D03*
X145976900Y-89383400D03*
%TD*%
D18*
%TO.C,R8*%
X141343200Y-72954800D03*
X143343200Y-72954800D03*
%TD*%
D20*
%TO.C,D3*%
X157978200Y-65153200D03*
X155928200Y-65153200D03*
%TD*%
D23*
%TO.C,C7*%
X143914400Y-87420900D03*
X143914400Y-89495900D03*
%TD*%
D27*
%TO.C,D2*%
X140000000Y-58625000D03*
X140000000Y-56575000D03*
%TD*%
D28*
%TO.C,FB1*%
X139315100Y-90600000D03*
X141140100Y-90600000D03*
%TD*%
D29*
%TO.C,C3*%
X139293600Y-41728300D03*
X139293600Y-39653300D03*
%TD*%
D23*
%TO.C,C1*%
X163200000Y-46062500D03*
X163200000Y-48137500D03*
%TD*%
D30*
%TO.C,C8*%
X171063900Y-79375000D03*
X171063900Y-72425000D03*
%TD*%
D18*
%TO.C,R5*%
X160253200Y-65153200D03*
X162253200Y-65153200D03*
%TD*%
D31*
%TO.C,U2*%
X146334400Y-86758400D03*
D32*
X148614400Y-80458400D03*
D31*
X150894400Y-86758400D03*
%TD*%
D22*
%TO.C,R6*%
X138143200Y-69154800D03*
X138143200Y-71154800D03*
%TD*%
D21*
%TO.C,T3*%
X171043600Y-57200800D03*
%TD*%
D22*
%TO.C,R7*%
X138143200Y-65354800D03*
X138143200Y-67354800D03*
%TD*%
D33*
%TO.C,D4*%
X170535600Y-66294000D03*
D34*
X165455600Y-66294000D03*
%TD*%
D21*
%TO.C,T2*%
X138074400Y-46228000D03*
%TD*%
D35*
%TO.C,U1*%
X142500000Y-40095000D03*
X142500000Y-41365000D03*
X142500000Y-42635000D03*
X142500000Y-43905000D03*
X142500000Y-45175000D03*
X142500000Y-46445000D03*
X142500000Y-47715000D03*
X142500000Y-48985000D03*
X142500000Y-50255000D03*
X142500000Y-51525000D03*
X142500000Y-52795000D03*
X142500000Y-54065000D03*
X142500000Y-55335000D03*
X142500000Y-56605000D03*
D36*
X145285000Y-57605000D03*
X146555000Y-57605000D03*
X147825000Y-57605000D03*
X149095000Y-57605000D03*
X150365000Y-57605000D03*
X151635000Y-57605000D03*
X152905000Y-57605000D03*
X154175000Y-57605000D03*
X155445000Y-57605000D03*
X156715000Y-57605000D03*
D35*
X159500000Y-56605000D03*
X159500000Y-55335000D03*
X159500000Y-54065000D03*
X159500000Y-52795000D03*
X159500000Y-51525000D03*
X159500000Y-50255000D03*
X159500000Y-48985000D03*
X159500000Y-47715000D03*
X159500000Y-46445000D03*
X159500000Y-45175000D03*
X159500000Y-43905000D03*
X159500000Y-42635000D03*
X159500000Y-41365000D03*
X159500000Y-40095000D03*
D37*
X150000000Y-47595000D03*
%TD*%
D38*
%TO.C,screen1*%
X178461000Y-53723200D03*
D17*
X178461000Y-56223200D03*
X178461000Y-58723200D03*
X178461000Y-61223200D03*
X178461000Y-63723200D03*
X178461000Y-66223200D03*
X178461000Y-68723200D03*
X178461000Y-71223200D03*
X178461000Y-73723200D03*
X178461000Y-76223200D03*
%TD*%
D39*
%TO.C,C4*%
X150905300Y-89357200D03*
X152980300Y-89357200D03*
%TD*%
D40*
%TO.C,Teclado1*%
X139230900Y-79100000D03*
D41*
X139230900Y-81600000D03*
X139230900Y-83600000D03*
X139230900Y-86100000D03*
D42*
X136520900Y-89170000D03*
X136520900Y-76030000D03*
%TD*%
D43*
%TO.C,U3*%
X164163900Y-77825000D03*
X162463900Y-77825000D03*
X160763900Y-77825000D03*
D44*
X160763900Y-86975000D03*
D43*
X159063900Y-77825000D03*
X157363900Y-77825000D03*
%TD*%
D45*
%TO.C,Sensitizer1*%
X168850000Y-34632500D03*
D46*
X171350000Y-34632500D03*
X173850000Y-34632500D03*
X176350000Y-34632500D03*
%TD*%
D47*
%TO.C,R9*%
X147507200Y-65176400D03*
X145507200Y-65176400D03*
%TD*%
D48*
%TO.C,Program1*%
X183253700Y-46990000D03*
D49*
X183253700Y-44450000D03*
X183253700Y-41910000D03*
X183253700Y-39370000D03*
X183253700Y-36830000D03*
%TD*%
D19*
%TO.C,Boot1*%
X173200000Y-40000000D03*
X173200000Y-47800000D03*
%TD*%
D29*
%TO.C,C2*%
X163300000Y-41937500D03*
X163300000Y-39862500D03*
%TD*%
D18*
%TO.C,R4*%
X140020800Y-61925200D03*
X142020800Y-61925200D03*
%TD*%
M02*
